<svg width="50" height="40" viewBox="0 0 50 40" fill="none" xmlns="http://www.w3.org/2000/svg">
<rect x="0.293974" y="0.293974" width="49.4121" height="39.4121" rx="4.70603" fill="url(#paint0_linear_1314_533)"/>
<rect x="0.293974" y="0.293974" width="49.4121" height="39.4121" rx="4.70603" stroke="url(#paint1_linear_1314_533)" stroke-width="0.587948"/>
<path d="M11.204 25V15.13H12.352L16.244 23.894H15.824L19.716 15.13H20.85V25H19.66V16.866H20.094L16.44 25H15.614L11.96 16.866H12.394V25H11.204ZM23.2626 25V15.13L27.3506 15.13C28.4053 15.13 29.2126 15.382 29.7726 15.886C30.3326 16.39 30.6126 17.0853 30.6126 17.972C30.6126 18.8587 30.3326 19.5587 29.7726 20.072C29.2126 20.576 28.4053 20.828 27.3506 20.828H24.5646V25H23.2626ZM24.5646 19.764H27.2246C27.9153 19.764 28.4379 19.61 28.7926 19.302C29.1473 18.9847 29.3246 18.5413 29.3246 17.972C29.3246 17.4027 29.1473 16.964 28.7926 16.656C28.4379 16.348 27.9153 16.194 27.2246 16.194H24.5646V19.764ZM35.3624 25.126C34.6904 25.126 34.0464 25.0233 33.4304 24.818C32.8238 24.6127 32.3151 24.3233 31.9044 23.95L32.3664 22.942C32.8238 23.3153 33.2951 23.586 33.7804 23.754C34.2658 23.922 34.7791 24.006 35.3204 24.006C36.0391 24.006 36.5851 23.8567 36.9584 23.558C37.3318 23.25 37.5184 22.8113 37.5184 22.242C37.5184 21.682 37.3271 21.2573 36.9444 20.968C36.5711 20.6787 36.0204 20.534 35.2924 20.534H33.7804V19.456H35.1944C35.8104 19.456 36.3051 19.2973 36.6784 18.98C37.0518 18.6627 37.2384 18.2287 37.2384 17.678C37.2384 17.174 37.0658 16.7913 36.7204 16.53C36.3844 16.2593 35.9038 16.124 35.2784 16.124C34.2238 16.124 33.3091 16.4927 32.5344 17.23L32.0724 16.236C32.4644 15.844 32.9498 15.5407 33.5284 15.326C34.1071 15.1113 34.7184 15.004 35.3624 15.004C36.3424 15.004 37.1124 15.228 37.6724 15.676C38.2324 16.124 38.5124 16.7493 38.5124 17.552C38.5124 18.1587 38.3398 18.6813 37.9944 19.12C37.6584 19.5493 37.1964 19.834 36.6084 19.974V19.82C37.2991 19.9413 37.8358 20.226 38.2184 20.674C38.6011 21.1127 38.7924 21.6633 38.7924 22.326C38.7924 23.194 38.4844 23.88 37.8684 24.384C37.2618 24.8787 36.4264 25.126 35.3624 25.126Z" fill="white"/>
<defs>
<linearGradient id="paint0_linear_1314_533" x1="29.6317" y1="41.1763" x2="29.4152" y2="-0.106017" gradientUnits="userSpaceOnUse">
<stop stop-color="#08466B"/>
<stop offset="0.5" stop-color="#71BDEB"/>
<stop offset="1" stop-color="#08466B"/>
</linearGradient>
<linearGradient id="paint1_linear_1314_533" x1="1.14682e-06" y1="18.0725" x2="49.2223" y2="26.4803" gradientUnits="userSpaceOnUse">
<stop stop-color="white" stop-opacity="0.2"/>
<stop offset="0.5" stop-color="#CCCCCC"/>
<stop offset="1" stop-color="white" stop-opacity="0.2"/>
</linearGradient>
</defs>
</svg>
