<svg width="50" height="40" viewBox="0 0 50 40" fill="none" xmlns="http://www.w3.org/2000/svg">
<rect x="0.293974" y="0.293974" width="49.4121" height="39.4121" rx="4.70603" fill="url(#paint0_linear_1314_582)"/>
<rect x="0.293974" y="0.293974" width="49.4121" height="39.4121" rx="4.70603" stroke="url(#paint1_linear_1314_582)" stroke-width="0.587948"/>
<path d="M9.906 25L6.448 15.13H7.82L10.746 23.838H10.242L13.35 15.13H14.372L17.284 23.838H16.836L19.86 15.13H21.148L17.662 25H16.528L13.686 16.67H13.98L11.026 25H9.906ZM22.8036 25V15.13H23.9516L27.8436 23.894H27.4236L31.3156 15.13H32.4496V25H31.2596V16.866H31.6936L28.0396 25H27.2136L23.5596 16.866H23.9936V25H22.8036ZM33.8542 25L38.2222 15.13L39.3562 15.13L43.7942 25H42.4502L41.2322 22.2L41.7922 22.536H35.7862L36.4022 22.2L35.1842 25H33.8542ZM38.7682 16.586L36.5842 21.766L36.2482 21.472H41.3302L41.0642 21.766L38.8242 16.586H38.7682Z" fill="white"/>
<defs>
<linearGradient id="paint0_linear_1314_582" x1="29.6317" y1="41.1763" x2="29.4152" y2="-0.106017" gradientUnits="userSpaceOnUse">
<stop stop-color="#08466B"/>
<stop offset="0.5" stop-color="#71BDEB"/>
<stop offset="1" stop-color="#08466B"/>
</linearGradient>
<linearGradient id="paint1_linear_1314_582" x1="1.14682e-06" y1="18.0725" x2="49.2223" y2="26.4803" gradientUnits="userSpaceOnUse">
<stop stop-color="white" stop-opacity="0.2"/>
<stop offset="0.5" stop-color="#CCCCCC"/>
<stop offset="1" stop-color="white" stop-opacity="0.2"/>
</linearGradient>
</defs>
</svg>
