<svg width="50" height="40" viewBox="0 0 50 40" fill="none" xmlns="http://www.w3.org/2000/svg">
<rect x="0.293974" y="0.293974" width="49.4121" height="39.4121" rx="4.70603" fill="url(#paint0_linear_1357_647)"/>
<rect x="0.293974" y="0.293974" width="49.4121" height="39.4121" rx="4.70603" stroke="url(#paint1_linear_1357_647)" stroke-width="0.587948"/>
<path d="M11.9404 25L9.54785 14.9785H11.6191L13.1299 21.8623L14.9619 14.9785H17.3682L19.125 21.9785L20.6631 14.9785H22.7002L20.2666 25H18.1201L16.124 17.5078L14.1348 25H11.9404ZM31.9971 25H29.7959L28.9209 22.7236H24.915L24.0879 25H21.9414L25.8447 14.9785H27.9844L31.9971 25ZM28.2715 21.0352L26.8906 17.3164L25.5371 21.0352H28.2715ZM34.5947 25L31.0127 14.9785H33.207L35.7432 22.3955L38.1973 14.9785H40.3438L36.7549 25H34.5947Z" fill="white"/>
<defs>
<linearGradient id="paint0_linear_1357_647" x1="29.6317" y1="41.1763" x2="29.4152" y2="-0.106017" gradientUnits="userSpaceOnUse">
<stop stop-color="#08466B"/>
<stop offset="0.5" stop-color="#71BDEB"/>
<stop offset="1" stop-color="#08466B"/>
</linearGradient>
<linearGradient id="paint1_linear_1357_647" x1="1.14682e-06" y1="18.0725" x2="49.2223" y2="26.4803" gradientUnits="userSpaceOnUse">
<stop stop-color="white" stop-opacity="0.2"/>
<stop offset="0.5" stop-color="#CCCCCC"/>
<stop offset="1" stop-color="white" stop-opacity="0.2"/>
</linearGradient>
</defs>
</svg>
