<svg width="116" height="44" viewBox="0 0 116 44" fill="none" xmlns="http://www.w3.org/2000/svg">
<rect x="0.924914" y="0.444445" width="114.331" height="42.6511" rx="4" fill="#2B2B2B"/>
<rect x="0.924914" y="0.444445" width="114.331" height="42.6511" rx="4" stroke="url(#paint0_linear_1357_562)" stroke-width="0.88889"/>
<g clip-path="url(#clip0_1357_562)">
<path d="M49.7602 35.5396H46.4802V28.6096H47.8402C48.3002 27.8396 48.6402 26.7296 48.8502 25.2796C49.0602 23.8096 49.2102 21.8796 49.2802 19.4796L49.5702 11.1896H61.4002V28.6096H63.2802V35.5396H60.0002V31.3396H49.7402V35.5396H49.7602ZM52.6102 19.9396C52.5302 22.3396 52.3802 24.2096 52.1502 25.5596C51.9402 26.8896 51.6902 27.9096 51.4002 28.5996H57.9202V13.9096H52.8202L52.6202 19.9396H52.6102Z" fill="black"/>
<path d="M69.48 28.9002C70.29 28.9002 70.9001 28.7402 71.3101 28.4102C71.7401 28.0602 71.9501 27.6002 71.9501 27.0202C71.9501 26.3602 71.76 25.9002 71.37 25.6302C71 25.3402 70.37 25.2002 69.49 25.2002H67.46V22.6502H69.49C70.9 22.6502 71.6101 22.0602 71.6101 20.8802C71.6101 20.3402 71.42 19.9202 71.03 19.6302C70.66 19.3402 70.16 19.2002 69.5201 19.2002C68.5701 19.2002 67.7701 19.3402 67.1101 19.6302C66.4501 19.9002 65.89 20.1902 65.43 20.5002V17.6902C65.86 17.4202 66.4401 17.1502 67.2001 16.8802C67.9501 16.6102 68.89 16.4702 70.01 16.4702C71.58 16.4702 72.8101 16.8002 73.7201 17.4602C74.6301 18.1202 75.08 19.0602 75.08 20.3002C75.08 21.1102 74.8801 21.8302 74.4701 22.4402C74.0601 23.0402 73.42 23.4802 72.53 23.7702C73.5 23.9802 74.23 24.3702 74.73 24.9302C75.25 25.4902 75.51 26.2002 75.51 27.0502C75.51 28.5202 75.0301 29.6502 74.0601 30.4402C73.1101 31.2302 71.72 31.6302 69.89 31.6302C68.65 31.6302 67.6201 31.4902 66.7901 31.2202C65.9601 30.9302 65.38 30.6502 65.05 30.3802V27.5702C65.51 27.9202 66.14 28.2302 66.93 28.5002C67.74 28.7702 68.59 28.9102 69.48 28.9102V28.9002Z" fill="black"/>
<path d="M88.7302 30.3502C88.2302 30.7002 87.5702 31.0002 86.7602 31.2502C85.9502 31.5002 84.9902 31.6302 83.8902 31.6302C81.6902 31.6302 79.9902 31.0102 78.7902 29.7702C77.5902 28.5102 76.9902 26.6202 76.9902 24.0902C76.9902 22.6202 77.2102 21.3202 77.6602 20.1802C78.1202 19.0202 78.8102 18.1102 79.7202 17.4602C80.6502 16.8002 81.8102 16.4702 83.2002 16.4702C84.3602 16.4702 85.3602 16.7002 86.2102 17.1702C87.0602 17.6302 87.7202 18.3802 88.1802 19.4002C88.6402 20.4002 88.8802 21.7602 88.8802 23.4602V25.2902H80.5602C80.6402 26.5102 80.9502 27.4202 81.4902 28.0102C82.0302 28.6102 82.9302 28.9102 84.1902 28.9102C85.0402 28.9102 85.8702 28.7702 86.6802 28.5002C87.5102 28.2302 88.2002 27.9102 88.7402 27.5402V30.3502H88.7302ZM83.1402 19.1902C81.5202 19.1902 80.6602 20.3702 80.5602 22.7302H85.3702V22.4402C85.3702 21.5302 85.2102 20.7702 84.8802 20.1502C84.5702 19.5102 83.9902 19.1902 83.1402 19.1902Z" fill="black"/>
<path d="M99.2504 16.7508H102.7V31.3308H99.2504V25.2408H94.6404V31.3308H91.1904V16.7508H94.6404V22.5208H99.2504V16.7508Z" fill="black"/>
<path d="M24.0305 18.55C26.0805 16.51 26.4505 13.45 26.5205 8C19.4105 8.21 13.7005 13.93 13.4805 21.04C18.9205 20.97 21.9905 20.6 24.0305 18.56V18.55Z" fill="black"/>
<path d="M13.4805 21.04C13.4805 21.17 13.4805 21.31 13.4805 21.44C13.4805 21.57 13.4805 21.71 13.4805 21.84C18.9205 21.91 21.9905 22.28 24.0305 24.32C26.0705 26.36 26.4505 29.42 26.5105 34.87C26.6405 34.87 26.7805 34.87 26.9105 34.87C27.0405 34.87 27.1805 34.87 27.3105 34.87C27.3805 29.43 27.7505 26.36 29.7905 24.32C31.8305 22.28 34.8905 21.9 40.3405 21.84C40.3405 21.71 40.3405 21.57 40.3405 21.44C40.3405 21.31 40.3405 21.17 40.3405 21.04C34.9005 20.97 31.8305 20.6 29.7905 18.56C27.7605 16.51 27.3905 13.45 27.3205 8C27.1905 8 27.0505 8 26.9205 8C26.7905 8 26.6505 8 26.5205 8C26.4505 13.44 26.0805 16.51 24.0405 18.55C22.0005 20.59 18.9305 20.97 13.4805 21.04Z" fill="white"/>
<path d="M27.3206 7.99966C27.3906 13.4397 27.7606 16.5097 29.8006 18.5497C31.8406 20.5897 34.9006 20.9697 40.3506 21.0297C40.1506 13.9297 34.4306 8.20966 27.3206 7.99966Z" fill="black"/>
<path d="M13.4802 21.8394C13.6902 28.9394 19.4102 34.6594 26.5102 34.8694C26.4402 29.4294 26.0702 26.3594 24.0302 24.3194C21.9902 22.2794 18.9302 21.9094 13.4802 21.8394Z" fill="black"/>
<path d="M29.8096 24.3295C27.7696 26.3695 27.3896 29.4295 27.3296 34.8795C34.4296 34.6695 40.1496 28.9495 40.3596 21.8495C34.9196 21.9195 31.8496 22.2895 29.8096 24.3295Z" fill="black"/>
</g>
<defs>
<linearGradient id="paint0_linear_1357_562" x1="0.480471" y1="19.672" x2="103.718" y2="57.0044" gradientUnits="userSpaceOnUse">
<stop stop-color="white" stop-opacity="0.2"/>
<stop offset="0.5" stop-color="#CCCCCC"/>
<stop offset="1" stop-color="white" stop-opacity="0.2"/>
</linearGradient>
<clipPath id="clip0_1357_562">
<rect width="89.22" height="27.54" fill="white" transform="translate(13.4805 8)"/>
</clipPath>
</defs>
</svg>
