<svg width="158" height="53" viewBox="0 0 158 53" fill="none" xmlns="http://www.w3.org/2000/svg">
<g filter="url(#filter0_d_1_61)">
<rect x="7.15747" y="0.44838" width="144" height="40" rx="7.7527" fill="url(#paint0_linear_1_61)" fill-opacity="0.36" shape-rendering="crispEdges"/>
<rect x="7.47151" y="0.762413" width="143.372" height="39.3719" rx="7.43867" stroke="url(#paint1_linear_1_61)" stroke-width="0.628067" shape-rendering="crispEdges"/>
<path d="M59.581 26.2011H56.5808L52.3118 14.2014H54.5234L57.9352 24.0905H58.2781L61.8098 14.2014H63.9872L59.581 26.2011Z" fill="white"/>
<path d="M69.6992 19.9885L75.254 26.2011H72.5452L68.0191 21.0608H67.5047V26.2011H65.4474V14.2014H67.5047V19.0864H68.0019L72.288 14.2014H74.8254L69.6992 19.9885Z" fill="white"/>
<path d="M87.0566 20.0396C87.7081 20.2325 88.2167 20.5785 88.5825 21.0778C88.9597 21.5657 89.1483 22.1558 89.1483 22.848C89.1483 23.5061 88.9825 24.0905 88.6511 24.6011C88.3196 25.1004 87.8567 25.4919 87.2624 25.7756C86.668 26.0592 85.9822 26.2011 85.205 26.2011H80.1474V14.2014H84.8621C85.6279 14.2014 86.308 14.3433 86.9023 14.6269C87.4967 14.8993 87.9596 15.2851 88.291 15.7844C88.6225 16.2836 88.7882 16.8453 88.7882 17.4694C88.7882 18.0708 88.6339 18.5985 88.3253 19.0523C88.0167 19.5062 87.5938 19.8353 87.0566 20.0396ZM82.2048 15.9886V19.2736H84.8621C85.4108 19.2736 85.8565 19.1261 86.1994 18.8311C86.5423 18.5247 86.7137 18.1275 86.7137 17.6396C86.7137 17.1517 86.5423 16.7545 86.1994 16.4482C85.8565 16.1418 85.4108 15.9886 84.8621 15.9886H82.2048ZM85.205 24.4139C85.7422 24.4139 86.1823 24.2607 86.5252 23.9543C86.868 23.6366 87.0395 23.2281 87.0395 22.7288C87.0395 22.2409 86.868 21.8438 86.5252 21.5374C86.1823 21.2197 85.7422 21.0608 85.205 21.0608H82.2048V24.4139H85.205Z" fill="white"/>
<path d="M93.8207 26.2011H91.0261V17.3503H92.912V23.9203H93.1863L96.5123 17.3503H99.3069V26.2011H97.421V19.6311H97.1467L93.8207 26.2011Z" fill="white"/>
<path d="M100.598 28.8393V24.4139H100.82C101.735 24.4139 102.272 23.5685 102.432 21.8778L102.878 17.3503H109.41V24.4139H110.953V28.8393H108.981V26.2011H102.569V28.8393H100.598ZM107.438 24.4139V19.1374H104.695L104.421 21.8438C104.352 22.5359 104.255 23.0806 104.129 23.4778C104.004 23.8749 103.826 24.187 103.598 24.4139H107.438Z" fill="white"/>
<path d="M120.899 21.6735C120.899 21.8438 120.888 22.0537 120.865 22.3033H113.698C113.79 22.9955 114.075 23.5515 114.556 23.9714C115.036 24.3799 115.647 24.5841 116.39 24.5841C116.893 24.5841 117.344 24.4877 117.744 24.2947C118.156 24.1018 118.47 23.8409 118.687 23.5118L120.539 23.8182C120.219 24.6352 119.665 25.2649 118.876 25.7075C118.099 26.15 117.23 26.3713 116.27 26.3713C115.378 26.3713 114.578 26.1784 113.87 25.7926C113.173 25.3954 112.624 24.8508 112.224 24.1586C111.835 23.4551 111.641 22.6608 111.641 21.7757C111.641 20.8906 111.835 20.102 112.224 19.4098C112.624 18.7063 113.173 18.1616 113.87 17.7758C114.578 17.3786 115.378 17.1801 116.27 17.1801C117.161 17.1801 117.956 17.3786 118.653 17.7758C119.362 18.1616 119.91 18.7006 120.299 19.3928C120.699 20.0736 120.899 20.8339 120.899 21.6735ZM116.27 18.8821C115.676 18.8821 115.156 19.0523 114.71 19.3928C114.276 19.7332 113.978 20.1927 113.818 20.7714H118.756C118.584 20.2041 118.276 19.7502 117.83 19.4098C117.396 19.058 116.876 18.8821 116.27 18.8821Z" fill="white"/>
<path d="M126.687 26.3713C125.773 26.3713 124.95 26.1784 124.218 25.7926C123.498 25.3954 122.932 24.8508 122.521 24.1586C122.121 23.4551 121.921 22.6608 121.921 21.7757C121.921 20.8906 122.121 20.102 122.521 19.4098C122.932 18.7063 123.498 18.1616 124.218 17.7758C124.95 17.3786 125.773 17.1801 126.687 17.1801C127.601 17.1801 128.419 17.3786 129.139 17.7758C129.87 18.1616 130.436 18.7063 130.836 19.4098C131.248 20.102 131.453 20.8906 131.453 21.7757C131.453 22.6608 131.248 23.4551 130.836 24.1586C130.436 24.8508 129.87 25.3954 129.139 25.7926C128.419 26.1784 127.601 26.3713 126.687 26.3713ZM126.687 24.5841C127.487 24.5841 128.139 24.3288 128.642 23.8182C129.144 23.2962 129.396 22.6154 129.396 21.7757C129.396 20.936 129.144 20.2608 128.642 19.7502C128.139 19.2282 127.487 18.9672 126.687 18.9672C125.887 18.9672 125.236 19.2282 124.733 19.7502C124.23 20.2608 123.978 20.936 123.978 21.7757C123.978 22.6154 124.23 23.2962 124.733 23.8182C125.236 24.3288 125.887 24.5841 126.687 24.5841Z" fill="white"/>
<path d="M20.1575 19.7211C20.1575 14.2899 20.1575 11.5755 21.8569 9.88828C23.5564 8.20108 26.2905 8.20108 31.7612 8.20108H32.7281C38.1988 8.20108 40.9329 8.20108 42.6324 9.88828C44.3318 11.5755 44.3318 14.2899 44.3318 19.7211V20.6811C44.3318 26.1123 44.3318 28.8267 42.6324 30.5139C40.9329 32.2011 38.1988 32.2011 32.7281 32.2011H31.7612C26.2905 32.2011 23.5564 32.2011 21.8569 30.5139C20.1575 28.8267 20.1575 26.1123 20.1575 20.6811V19.7211Z" fill="#0077FF"/>
<path d="M34.2584 8.20108C29.7934 8.21548 27.417 8.36428 25.8844 9.88588C24.1849 11.5731 24.1849 14.2875 24.1849 19.7187V20.6787C24.1849 26.1099 24.1849 28.8243 25.8844 30.5115C27.417 32.0331 29.7934 32.1819 34.2584 32.1963C38.7234 32.1819 41.0997 32.0331 42.6324 30.5115C44.3318 28.8243 44.3318 26.1099 44.3318 20.6787V19.7187C44.3318 14.2875 44.3318 11.5731 42.6324 9.88588C41.0997 8.36668 38.7234 8.21788 34.2584 8.20108Z" fill="#FF2B42"/>
<path d="M37.2149 18.0675C38.4381 18.7683 39.0473 19.1187 39.2528 19.5747C39.4317 19.9731 39.4317 20.4291 39.2528 20.8275C39.0473 21.2859 38.4357 21.6339 37.2149 22.3347L33.8668 24.2547C32.6435 24.9555 32.0343 25.3059 31.5315 25.2531C31.094 25.2075 30.6975 24.9795 30.4388 24.6267C30.1415 24.2211 30.1415 23.5203 30.1415 22.1211V18.2811C30.1415 16.8795 30.1415 16.1787 30.4388 15.7755C30.6975 15.4227 31.094 15.1947 31.5315 15.1491C32.0319 15.0963 32.6435 15.4467 33.8668 16.1475L37.2149 18.0675Z" fill="white"/>
</g>
<defs>
<filter id="filter0_d_1_61" x="0.955316" y="0.44838" width="156.404" height="52.4043" filterUnits="userSpaceOnUse" color-interpolation-filters="sRGB">
<feFlood flood-opacity="0" result="BackgroundImageFix"/>
<feColorMatrix in="SourceAlpha" type="matrix" values="0 0 0 0 0 0 0 0 0 0 0 0 0 0 0 0 0 0 127 0" result="hardAlpha"/>
<feOffset dy="6.20216"/>
<feGaussianBlur stdDeviation="3.10108"/>
<feComposite in2="hardAlpha" operator="out"/>
<feColorMatrix type="matrix" values="0 0 0 0 0 0 0 0 0 0 0 0 0 0 0 0 0 0 0.25 0"/>
<feBlend mode="normal" in2="BackgroundImageFix" result="effect1_dropShadow_1_61"/>
<feBlend mode="normal" in="SourceGraphic" in2="effect1_dropShadow_1_61" result="shape"/>
</filter>
<linearGradient id="paint0_linear_1_61" x1="7.15747" y1="20.4484" x2="151.157" y2="20.4484" gradientUnits="userSpaceOnUse">
<stop stop-color="#1D1D1D"/>
<stop offset="0.5" stop-color="#838383"/>
<stop offset="1" stop-color="#1D1D1D"/>
</linearGradient>
<linearGradient id="paint1_linear_1_61" x1="7.15748" y1="18.5209" x2="124.626" y2="76.3083" gradientUnits="userSpaceOnUse">
<stop stop-color="white" stop-opacity="0.2"/>
<stop offset="0.5" stop-color="#CCCCCC"/>
<stop offset="1" stop-color="white" stop-opacity="0.2"/>
</linearGradient>
</defs>
</svg>
