<svg width="50" height="40" viewBox="0 0 50 40" fill="none" xmlns="http://www.w3.org/2000/svg">
<rect x="0.5" y="0.5" width="49" height="39" rx="4.5" fill="url(#paint0_linear_1357_632)" fill-opacity="0.8"/>
<rect x="0.5" y="0.5" width="49" height="39" rx="4.5" stroke="url(#paint1_linear_1357_632)"/>
<path d="M23.5557 25H21.3545L20.4795 22.7236H16.4736L15.6465 25H13.5L17.4033 14.9785H19.543L23.5557 25ZM19.8301 21.0352L18.4492 17.3164L17.0957 21.0352H19.8301ZM26.1533 25L22.5713 14.9785H24.7656L27.3018 22.3955L29.7559 14.9785H31.9023L28.3135 25H26.1533ZM32.873 25V14.9785H34.8965V25H32.873Z" fill="#191919"/>
<defs>
<linearGradient id="paint0_linear_1357_632" x1="22.4261" y1="39.1462" x2="20.5112" y2="-0.00934709" gradientUnits="userSpaceOnUse">
<stop stop-color="#696969"/>
<stop offset="0.5" stop-color="white"/>
<stop offset="1" stop-color="#696969"/>
</linearGradient>
<linearGradient id="paint1_linear_1357_632" x1="1.14682e-06" y1="18.0725" x2="49.2223" y2="26.4803" gradientUnits="userSpaceOnUse">
<stop stop-color="white" stop-opacity="0.2"/>
<stop offset="0.5" stop-color="#CCCCCC"/>
<stop offset="1" stop-color="white" stop-opacity="0.2"/>
</linearGradient>
</defs>
</svg>
