<svg width="183" height="40" viewBox="0 0 183 40" fill="none" xmlns="http://www.w3.org/2000/svg">
<rect x="0.444445" y="0.444445" width="182.111" height="39.1111" rx="4" fill="#2B2B2B"/>
<rect x="0.444445" y="0.444445" width="182.111" height="39.1111" rx="4" stroke="url(#paint0_linear_1314_591)" stroke-width="0.88889"/>
<g clip-path="url(#clip0_1314_591)">
<path d="M34.2715 10.5725C35.8865 10.5725 37.2001 11.8861 37.2001 13.5011C37.2001 15.1147 35.8862 16.4284 34.2715 16.4284C32.6575 16.4284 31.3435 15.1147 31.3435 13.5011C31.3432 11.8858 32.6579 10.5725 34.2715 10.5725ZM34.2715 20.5718C38.1725 20.5718 41.3449 17.4004 41.3449 13.5011C41.3449 9.59975 38.1729 6.427 34.2715 6.427C30.3708 6.427 27.1981 9.60009 27.1981 13.5011C27.1981 17.4004 30.3708 20.5718 34.2715 20.5718ZM37.1331 26.3414C38.5882 26.01 39.9769 25.435 41.2403 24.6408C41.7054 24.3481 42.0353 23.8827 42.1572 23.3469C42.2792 22.811 42.1833 22.2487 41.8907 21.7836C41.746 21.553 41.5572 21.3533 41.3352 21.1957C41.1132 21.0382 40.8624 20.926 40.597 20.8655C40.3316 20.805 40.0569 20.7974 39.7885 20.8431C39.5202 20.8889 39.2635 20.9871 39.0332 21.1321C36.1353 22.954 32.4056 22.9526 29.5102 21.1321C29.2799 20.9871 29.0232 20.8888 28.7549 20.8431C28.4866 20.7973 28.2119 20.8049 27.9465 20.8654C27.6811 20.9259 27.4303 21.0381 27.2083 21.1957C26.9864 21.3532 26.7977 21.553 26.653 21.7836C26.3603 22.2486 26.2642 22.8108 26.386 23.3466C26.5078 23.8824 26.8374 24.3479 27.3024 24.6408C28.5657 25.4347 29.9541 26.0097 31.4089 26.3414L27.4547 30.2962C27.0661 30.685 26.8479 31.2121 26.848 31.7618C26.8481 32.3114 27.0665 32.8385 27.4552 33.2271C27.844 33.6157 28.3711 33.8339 28.9208 33.8338C29.4704 33.8337 29.9975 33.6153 30.3861 33.2266L34.2708 29.3411L38.158 33.2269C38.3502 33.4194 38.5784 33.5721 38.8297 33.6763C39.0809 33.7805 39.3503 33.8341 39.6223 33.8341C39.8943 33.8341 40.1636 33.7805 40.4149 33.6763C40.6661 33.5721 40.8944 33.4194 41.0866 33.2269C41.2794 33.0347 41.4323 32.8064 41.5367 32.555C41.641 32.3036 41.6947 32.0341 41.6947 31.7619C41.6947 31.4897 41.641 31.2202 41.5367 30.9688C41.4323 30.7174 41.2794 30.4891 41.0866 30.2969L37.1331 26.3414ZM88.3768 19.9333C88.736 19.7423 89.4003 19.143 89.6255 18.3626L90.1604 16.2872C90.1654 16.2714 90.1667 16.2547 90.164 16.2383C90.1614 16.222 90.1549 16.2065 90.1452 16.1931C90.1358 16.1797 90.1234 16.1688 90.109 16.1612C90.0946 16.1536 90.0785 16.1496 90.0622 16.1494H88.6771C88.6548 16.1495 88.6331 16.1569 88.6153 16.1705C88.5975 16.1841 88.5846 16.203 88.5786 16.2246C88.5786 16.2246 88.2326 17.848 88.0606 18.2844C87.8889 18.7208 87.4529 19.116 87.1972 19.2731C87.073 19.3508 86.9339 19.402 86.7889 19.4234C86.6416 19.4457 86.4876 19.4566 86.3315 19.4566H84.9816V16.255C84.9819 16.2274 84.9712 16.2007 84.952 16.1809C84.9327 16.161 84.9064 16.1496 84.8787 16.1491H83.4936C83.4659 16.1495 83.4395 16.1609 83.4201 16.1808C83.4008 16.2006 83.3901 16.2273 83.3903 16.255V24.8622C83.3903 24.9208 83.4361 24.9678 83.4936 24.9678H84.8787C84.8924 24.9676 84.9059 24.9648 84.9185 24.9594C84.9311 24.954 84.9425 24.9461 84.952 24.9363C84.9616 24.9265 84.9691 24.9149 84.9742 24.9022C84.9793 24.8895 84.9818 24.8759 84.9816 24.8622V20.8308H86.516C86.7737 20.8308 88.2637 21.0197 88.3961 22.091L88.6974 24.8913C88.7033 24.9132 88.7161 24.9326 88.7339 24.9466C88.7517 24.9606 88.7736 24.9684 88.7963 24.9688H90.2149C90.2313 24.9685 90.2473 24.9643 90.2617 24.9567C90.2762 24.9491 90.2887 24.9382 90.2982 24.925C90.3077 24.9117 90.314 24.8964 90.3166 24.8803C90.3192 24.8641 90.318 24.8476 90.3131 24.8321C90.3131 24.8321 90.0544 22.9364 89.8428 21.6143C89.6312 20.2911 88.3518 19.9224 88.3768 19.9333ZM113.871 22.6571C113.861 22.6462 113.849 22.6375 113.836 22.6314C113.823 22.6253 113.809 22.6221 113.794 22.6219C113.755 22.6148 113.737 22.6351 113.717 22.6571C113.523 22.8792 113.273 23.0796 112.974 23.2509C112.685 23.4202 112.355 23.5089 112.02 23.5079C111.266 23.5079 110.676 23.2655 110.266 22.7874C109.852 22.308 109.642 21.5645 109.642 20.5759C109.642 19.5764 109.851 18.8292 110.266 18.3555C110.675 17.8836 111.265 17.6445 112.02 17.6445C112.331 17.6445 112.64 17.7207 112.938 17.8693C113.237 18.0155 113.502 18.2221 113.717 18.4761C113.727 18.4869 113.739 18.4957 113.752 18.5019C113.766 18.5081 113.78 18.5116 113.795 18.5123C113.809 18.5123 113.824 18.5092 113.837 18.503C113.851 18.4969 113.863 18.4879 113.872 18.4767L114.767 17.4353C114.785 17.4147 114.794 17.3882 114.793 17.361C114.792 17.3339 114.781 17.3082 114.762 17.289C114.399 16.9274 113.979 16.6277 113.519 16.402C113.055 16.1765 112.528 16.0614 111.955 16.0614C111.462 16.0614 110.976 16.1457 110.511 16.3102C110.039 16.4792 109.611 16.7513 109.257 17.1069C108.894 17.4688 108.599 17.9391 108.38 18.5055C108.162 19.0709 108.051 19.7677 108.051 20.5752C108.051 21.3722 108.162 22.0629 108.38 22.6269C108.599 23.1951 108.894 23.6657 109.257 24.0276C109.61 24.3838 110.038 24.6559 110.511 24.8236C110.976 24.9885 111.462 25.0724 111.955 25.0724C112.542 25.0724 113.074 24.958 113.536 24.7325C114 24.5043 114.421 24.1978 114.78 23.8265C114.799 23.8069 114.81 23.781 114.81 23.7538C114.811 23.7265 114.802 23.7001 114.784 23.6796L113.873 22.6567L113.871 22.6571ZM121.148 22.6571C121.139 22.6462 121.127 22.6375 121.114 22.6314C121.101 22.6253 121.086 22.6221 121.072 22.6219C121.053 22.6164 121.014 22.6351 120.995 22.6574C120.805 22.8754 120.556 23.0742 120.254 23.2506C119.964 23.4198 119.634 23.5084 119.299 23.5072C118.546 23.5072 117.956 23.2651 117.544 22.7871C117.129 22.305 116.919 21.5615 116.919 20.5752C116.919 19.5784 117.129 18.8312 117.543 18.3549C117.955 17.8836 118.546 17.6439 119.299 17.6439C119.61 17.6439 119.918 17.72 120.217 17.8687C120.516 18.0147 120.78 18.2213 120.995 18.4754C121.004 18.4868 121.016 18.4959 121.029 18.5022C121.043 18.5084 121.057 18.5116 121.072 18.5116H121.073C121.102 18.5116 121.13 18.4991 121.15 18.4761L122.046 17.4346C122.063 17.414 122.073 17.3875 122.072 17.3604C122.07 17.3333 122.059 17.3076 122.04 17.2884C121.677 16.9267 121.257 16.6271 120.797 16.4013C120.332 16.1758 119.805 16.0607 119.233 16.0607C118.74 16.0607 118.253 16.145 117.788 16.3095C117.316 16.4788 116.888 16.751 116.535 17.1062C116.171 17.4681 115.876 17.9384 115.658 18.5048C115.44 19.0726 115.329 19.7694 115.329 20.5745C115.329 21.3688 115.44 22.0592 115.658 22.6259C115.876 23.194 116.171 23.665 116.535 24.0266C116.888 24.3824 117.316 24.6546 117.788 24.8229C118.253 24.9875 118.74 25.0714 119.233 25.0714C119.819 25.0714 120.351 24.957 120.813 24.7315C121.277 24.5035 121.698 24.197 122.058 23.8255C122.077 23.8059 122.087 23.78 122.088 23.7528C122.089 23.7257 122.079 23.6993 122.061 23.6789L121.149 22.6557V22.6571H121.148ZM105.332 22.0669C105.332 22.3703 105.275 22.6178 105.162 22.801C105.05 22.9866 104.893 23.1417 104.707 23.2526C104.504 23.3715 104.282 23.4522 104.05 23.4906C103.791 23.537 103.537 23.558 103.275 23.558C102.682 23.558 102.24 23.4432 101.962 23.2171C101.687 22.9933 101.555 22.4905 101.555 22.1154C101.555 21.7426 101.684 21.2534 101.95 21.0533C102.224 20.8477 102.624 20.7435 103.14 20.7435H105.333V22.0666L105.332 22.0669ZM106.924 18.9436C106.924 18.3874 106.83 17.9154 106.642 17.5426C106.455 17.1699 106.198 16.8699 105.875 16.6532C105.56 16.4382 105.185 16.2845 104.762 16.1938C104.332 16.1046 103.893 16.0602 103.454 16.0614C102.873 16.0614 102.323 16.1596 101.817 16.3539C101.307 16.5523 100.885 16.8458 100.562 17.2261C100.545 17.2461 100.536 17.2717 100.537 17.2979C100.538 17.3241 100.548 17.3491 100.566 17.3683L101.444 18.322C101.454 18.3327 101.466 18.3411 101.479 18.3469C101.493 18.3526 101.507 18.3554 101.521 18.3552C101.536 18.3547 101.551 18.3511 101.564 18.3447C101.577 18.3383 101.589 18.3292 101.598 18.3179C101.779 18.0999 102.016 17.9262 102.304 17.8013C102.593 17.674 103 17.6097 103.512 17.6097C104.161 17.6097 104.634 17.7197 104.919 17.936C105.197 18.1476 105.333 18.4659 105.333 18.9098V19.353H102.803C102.34 19.353 101.931 19.4258 101.591 19.5686C101.246 19.7115 100.956 19.9069 100.727 20.1479C100.498 20.3907 100.321 20.6777 100.206 20.9913C100.09 21.3062 100.03 21.8543 100.03 22.2027C100.03 22.9723 100.3 23.8255 100.833 24.3242C101.361 24.8212 102.126 25.0721 103.106 25.0721C103.69 25.0721 104.197 24.9875 104.611 24.8229C104.916 24.702 105.157 24.5504 105.332 24.375L105.509 24.8622C105.509 24.9211 105.555 24.9682 105.612 24.9682H106.999C107.026 24.9677 107.053 24.9563 107.072 24.9365C107.091 24.9166 107.102 24.8899 107.102 24.8622C107.102 24.8622 106.925 24.2819 106.925 23.4856L106.924 18.9436ZM155.622 16.1491H154.454C154.42 16.1491 154.389 16.1657 154.37 16.1938L151.252 20.7069L150.187 22.3039V16.255C150.187 16.2274 150.176 16.2007 150.157 16.1809C150.138 16.161 150.111 16.1496 150.084 16.1491H148.698C148.671 16.1497 148.644 16.1611 148.625 16.1809C148.606 16.2008 148.595 16.2274 148.595 16.255V24.8622C148.595 24.8898 148.606 24.9165 148.625 24.9362C148.644 24.956 148.671 24.9674 148.698 24.9678H150.032C150.048 24.9679 150.065 24.9638 150.08 24.9558C150.095 24.9479 150.107 24.9365 150.117 24.9224L154.102 19.0073V24.8622C154.102 24.9208 154.148 24.9678 154.205 24.9678H155.623C155.68 24.9678 155.726 24.9204 155.726 24.8622V16.2554C155.726 16.2276 155.715 16.2009 155.696 16.181C155.677 16.1612 155.65 16.1497 155.622 16.1491ZM145.511 19.9333C145.87 19.7423 146.534 19.143 146.759 18.3626L147.294 16.2872C147.299 16.2714 147.3 16.2547 147.298 16.2383C147.295 16.222 147.289 16.2065 147.279 16.1931C147.27 16.1798 147.257 16.1689 147.243 16.1613C147.229 16.1537 147.213 16.1496 147.196 16.1494H145.81C145.788 16.1496 145.766 16.157 145.749 16.1706C145.731 16.1842 145.718 16.2031 145.712 16.2246C145.712 16.2246 145.366 17.848 145.194 18.2844C145.022 18.7208 144.586 19.116 144.331 19.2731C144.206 19.3509 144.067 19.4021 143.922 19.4234C143.774 19.4457 143.62 19.4566 143.464 19.4566H142.115V16.255C142.115 16.2273 142.104 16.2006 142.085 16.1808C142.066 16.1609 142.039 16.1495 142.012 16.1491H140.626C140.598 16.1496 140.572 16.161 140.553 16.1809C140.534 16.2007 140.523 16.2274 140.523 16.255V24.8622C140.523 24.9208 140.569 24.9678 140.626 24.9678H142.012C142.025 24.9677 142.039 24.9648 142.051 24.9595C142.064 24.9541 142.075 24.9463 142.085 24.9364C142.095 24.9266 142.102 24.915 142.107 24.9023C142.112 24.8895 142.115 24.8759 142.115 24.8622V20.8308H143.649C143.907 20.8308 145.397 21.0197 145.529 22.091L145.831 24.8913C145.836 24.9133 145.849 24.9328 145.867 24.9468C145.885 24.9608 145.907 24.9685 145.929 24.9688H147.348C147.364 24.9687 147.38 24.9647 147.394 24.9572C147.409 24.9496 147.421 24.9388 147.431 24.9255C147.44 24.9121 147.447 24.8968 147.449 24.8806C147.452 24.8644 147.451 24.8478 147.446 24.8321C147.446 24.8321 147.187 22.9364 146.975 21.6143C146.764 20.2911 145.485 19.9224 145.511 19.9333ZM138.769 16.1491H137.6C137.583 16.149 137.567 16.1531 137.552 16.1609C137.538 16.1687 137.525 16.18 137.516 16.1938L134.399 20.7069L133.334 22.306V16.255C133.334 16.2274 133.323 16.2008 133.304 16.181C133.285 16.1611 133.259 16.1497 133.231 16.1491H131.846C131.818 16.1495 131.792 16.1609 131.772 16.1808C131.753 16.2006 131.742 16.2273 131.743 16.255V24.8622C131.743 24.9208 131.789 24.9678 131.846 24.9678H133.18C133.197 24.9679 133.213 24.9638 133.228 24.9559C133.243 24.9479 133.255 24.9364 133.265 24.9224L137.248 19.0083V24.8622C137.248 24.9208 137.294 24.9678 137.351 24.9678H138.769C138.826 24.9678 138.873 24.9204 138.873 24.8622V16.2554C138.873 16.2277 138.862 16.201 138.843 16.1812C138.823 16.1613 138.797 16.1498 138.769 16.1491ZM129.871 16.1491H128.486C128.459 16.1495 128.432 16.1609 128.413 16.1808C128.393 16.2006 128.383 16.2273 128.383 16.255V19.4217H124.705V16.255C124.705 16.2273 124.694 16.2006 124.675 16.1808C124.656 16.1609 124.629 16.1495 124.602 16.1491H123.216C123.188 16.1495 123.162 16.1609 123.143 16.1808C123.123 16.2006 123.113 16.2273 123.113 16.255V24.8622C123.113 24.9208 123.159 24.9678 123.216 24.9678H124.602C124.615 24.9677 124.629 24.9648 124.641 24.9595C124.654 24.9541 124.665 24.9463 124.675 24.9364C124.685 24.9266 124.692 24.915 124.697 24.9023C124.702 24.8895 124.705 24.8759 124.705 24.8622V20.779H128.383V24.8629C128.383 24.9214 128.429 24.9685 128.486 24.9685H129.871C129.885 24.9683 129.898 24.9654 129.911 24.96C129.923 24.9546 129.935 24.9468 129.944 24.937C129.954 24.9272 129.961 24.9156 129.967 24.9029C129.972 24.8902 129.974 24.8766 129.974 24.8629V16.255C129.974 16.2274 129.964 16.2007 129.944 16.1809C129.925 16.161 129.899 16.1496 129.871 16.1491ZM80.5619 21.6491C80.5619 22.7096 79.6833 23.5692 78.5999 23.5692C77.5161 23.5692 76.6372 22.7096 76.6372 21.6491V19.5148C76.6372 18.4544 77.5161 17.5948 78.5999 17.5948C79.6833 17.5948 80.5619 18.4544 80.5619 19.5148V21.6491ZM78.6063 16.0786C76.6491 16.0786 75.0618 17.6344 75.0618 19.5527V21.597C75.0618 23.516 76.6491 25.0721 78.6063 25.0721C80.564 25.0721 82.1508 23.516 82.1508 21.597V19.5527C82.1508 17.634 80.5643 16.0786 78.6063 16.0786ZM63.0087 23.4889H59.2743C59.4761 23.1141 59.6108 22.655 59.6765 22.1242C59.7496 21.531 59.861 20.7733 59.9064 19.87L60.1048 17.61H63.0094L63.0087 23.4889ZM65.4078 23.4889H64.6325V16.2547C64.6328 16.227 64.6221 16.2004 64.6028 16.1805C64.5836 16.1607 64.5572 16.1493 64.5296 16.1487H58.7915C58.7647 16.1492 58.7391 16.16 58.72 16.1787C58.7008 16.1975 58.6896 16.2228 58.6886 16.2496L58.4163 19.9089C58.3818 20.4635 58.2965 20.9371 58.263 21.3299C58.2291 21.7175 58.1763 22.0527 58.1059 22.3266C58.0344 22.6002 57.9379 22.8216 57.8103 23.0038C57.6861 23.1781 57.5381 23.3715 57.3133 23.4774C57.0885 23.5831 56.4889 23.6294 56.4889 23.6294C56.4648 23.634 56.443 23.6469 56.4276 23.666C56.4121 23.685 56.4038 23.7089 56.4042 23.7334V27.2044C56.4042 27.263 56.4503 27.3101 56.5075 27.3101H57.8933C57.9501 27.3101 57.9962 27.2626 57.9962 27.2044V24.9682L63.9202 24.9682V27.2044C63.9202 27.263 63.9659 27.3101 64.0231 27.3101H65.4072C65.4349 27.3097 65.4613 27.2984 65.4807 27.2786C65.5002 27.2588 65.5109 27.2321 65.5108 27.2044V23.5946C65.5109 23.5669 65.5002 23.5402 65.4807 23.5204C65.4613 23.5006 65.4349 23.4893 65.4072 23.4889H65.4078ZM73.5285 16.1487H72.1427C72.115 16.1493 72.0887 16.1607 72.0694 16.1805C72.0501 16.2004 72.0395 16.227 72.0398 16.2547V19.4214H68.3619V16.2547C68.3621 16.227 68.3515 16.2004 68.3322 16.1805C68.3129 16.1607 68.2866 16.1493 68.2589 16.1487H66.8735C66.8459 16.1493 66.8195 16.1607 66.8002 16.1805C66.781 16.2004 66.7703 16.227 66.7706 16.2547V24.8615C66.7706 24.9204 66.8163 24.9678 66.8735 24.9678H68.2589C68.2867 24.9673 68.313 24.9558 68.3323 24.9359C68.3516 24.916 68.3622 24.8892 68.3619 24.8615V20.779H72.0398V24.8622C72.0398 24.9211 72.0858 24.9682 72.1427 24.9682H73.5285C73.5853 24.9682 73.6314 24.9208 73.6314 24.8622V16.2547C73.6317 16.227 73.621 16.2004 73.6017 16.1805C73.5824 16.1607 73.5561 16.1493 73.5285 16.1487ZM54.3227 21.6488C54.3227 22.7092 53.4438 23.5688 52.3603 23.5688C51.2766 23.5688 50.3976 22.7092 50.3976 21.6488V19.5145C50.3976 18.4541 51.2766 17.5944 52.3603 17.5944C53.4438 17.5944 54.3227 18.4541 54.3227 19.5145V21.6488ZM52.3671 16.0783C50.4095 16.0783 48.8226 17.634 48.8226 19.5524V21.5963C48.8226 23.516 50.4095 25.0714 52.3671 25.0714C54.3247 25.0714 55.9116 23.516 55.9116 21.5963V19.5524C55.9116 17.6337 54.3247 16.0783 52.3671 16.0783ZM98.8075 16.1484H93.1927C93.1649 16.1488 93.1385 16.1602 93.1192 16.1801C93.0998 16.1999 93.0891 16.2266 93.0894 16.2544C93.0894 16.2544 93.1165 20.2404 92.8002 21.9332C92.6743 22.611 92.61 22.7062 92.4712 22.9415C92.3364 23.172 92.1603 23.3423 91.9481 23.4473C91.7131 23.5655 91.447 23.6806 91.1568 23.7909C91.1318 23.801 91.1114 23.82 91.0997 23.8444C91.0881 23.8687 91.086 23.8965 91.0939 23.9223L91.4642 25.1202C91.4781 25.1649 91.5184 25.1936 91.5624 25.1936L91.5814 25.192C92.0297 25.11 92.4343 24.9736 92.7837 24.7914C93.1409 24.6052 93.4469 24.3228 93.6927 23.9494C93.9345 23.5841 94.1234 23.0959 94.2561 22.5C94.3881 21.9075 94.4792 21.1105 94.532 20.2641L94.6482 17.61H97.2877V24.8618C97.2877 24.9204 97.3334 24.9675 97.3909 24.9675H98.8089C98.8226 24.9673 98.8361 24.9644 98.8487 24.959C98.8613 24.9536 98.8727 24.9458 98.8822 24.936C98.8918 24.9262 98.8993 24.9146 98.9044 24.9019C98.9094 24.8891 98.912 24.8755 98.9118 24.8618V16.2544C98.9121 16.2267 98.9014 16.2 98.8821 16.1802C98.8629 16.1604 98.8365 16.1489 98.8089 16.1484" fill="#EB722E"/>
</g>
<defs>
<linearGradient id="paint0_linear_1314_591" x1="4.19736e-06" y1="18.0725" x2="133.308" y2="101.413" gradientUnits="userSpaceOnUse">
<stop stop-color="white" stop-opacity="0.2"/>
<stop offset="0.5" stop-color="#CCCCCC"/>
<stop offset="1" stop-color="white" stop-opacity="0.2"/>
</linearGradient>
<clipPath id="clip0_1314_591">
<rect x="13" y="6" width="157" height="28" rx="5" fill="white"/>
</clipPath>
</defs>
</svg>
