<svg width="50" height="40" viewBox="0 0 50 40" fill="none" xmlns="http://www.w3.org/2000/svg">
<rect x="0.293974" y="0.293974" width="49.4121" height="39.4121" rx="4.70603" fill="url(#paint0_linear_1314_541)"/>
<rect x="0.293974" y="0.293974" width="49.4121" height="39.4121" rx="4.70603" stroke="url(#paint1_linear_1314_541)" stroke-width="0.587948"/>
<path d="M10.196 25L14.564 15.13H15.698L20.136 25H18.792L17.574 22.2L18.134 22.536H12.128L12.744 22.2L11.526 25H10.196ZM15.11 16.586L12.926 21.766L12.59 21.472H17.672L17.406 21.766L15.166 16.586H15.11ZM20.5319 25L24.8999 15.13H26.0339L30.4719 25H29.1279L27.9099 22.2L28.4699 22.536H22.4639L23.0799 22.2L21.8619 25H20.5319ZM25.4459 16.586L23.2619 21.766L22.9259 21.472H28.0079L27.7419 21.766L25.5019 16.586H25.4459ZM35.8881 25.126C34.8987 25.126 34.0494 24.9207 33.3401 24.51C32.6401 24.0993 32.1034 23.516 31.7301 22.76C31.3567 21.9947 31.1701 21.094 31.1701 20.058C31.1701 19.022 31.3567 18.126 31.7301 17.37C32.1034 16.614 32.6401 16.0307 33.3401 15.62C34.0494 15.2093 34.8987 15.004 35.8881 15.004C36.5974 15.004 37.2274 15.1113 37.7781 15.326C38.3287 15.5313 38.8094 15.8347 39.2201 16.236L38.7441 17.286C38.2961 16.894 37.8527 16.614 37.4141 16.446C36.9847 16.2687 36.4854 16.18 35.9161 16.18C34.8241 16.18 33.9887 16.516 33.4101 17.188C32.8314 17.86 32.5421 18.8167 32.5421 20.058C32.5421 21.2993 32.8314 22.2607 33.4101 22.942C33.9887 23.614 34.8241 23.95 35.9161 23.95C36.4854 23.95 36.9847 23.866 37.4141 23.698C37.8527 23.5207 38.2961 23.236 38.7441 22.844L39.2201 23.88C38.8094 24.2813 38.3241 24.5893 37.7641 24.804C37.2134 25.0187 36.5881 25.126 35.8881 25.126Z" fill="white"/>
<defs>
<linearGradient id="paint0_linear_1314_541" x1="29.6317" y1="41.1763" x2="29.4152" y2="-0.106017" gradientUnits="userSpaceOnUse">
<stop stop-color="#08466B"/>
<stop offset="0.5" stop-color="#71BDEB"/>
<stop offset="1" stop-color="#08466B"/>
</linearGradient>
<linearGradient id="paint1_linear_1314_541" x1="1.14682e-06" y1="18.0725" x2="49.2223" y2="26.4803" gradientUnits="userSpaceOnUse">
<stop stop-color="white" stop-opacity="0.2"/>
<stop offset="0.5" stop-color="#CCCCCC"/>
<stop offset="1" stop-color="white" stop-opacity="0.2"/>
</linearGradient>
</defs>
</svg>
