<svg width="51" height="40" viewBox="0 0 51 40" fill="none" xmlns="http://www.w3.org/2000/svg">
<rect x="1.27835" y="0.293974" width="49.4121" height="39.4121" rx="4.70603" fill="url(#paint0_linear_1314_545)" fill-opacity="0.8"/>
<rect x="1.27835" y="0.293974" width="49.4121" height="39.4121" rx="4.70603" stroke="url(#paint1_linear_1314_545)" stroke-width="0.587948"/>
<path d="M10.6884 25V15.13H11.8364L15.7284 23.894H15.3084L19.2004 15.13H20.3344V25H19.1444V16.866H19.5784L15.9244 25H15.0984L11.4444 16.866H11.8784V25H10.6884ZM22.383 20.058C22.383 19.022 22.565 18.126 22.929 17.37C23.293 16.614 23.8156 16.0307 24.497 15.62C25.1876 15.2093 26.009 15.004 26.961 15.004C27.9036 15.004 28.7156 15.2093 29.397 15.62C30.0876 16.0307 30.6196 16.614 30.993 17.37C31.3663 18.126 31.553 19.0173 31.553 20.044C31.553 21.08 31.3663 21.9807 30.993 22.746C30.6196 23.502 30.0876 24.09 29.397 24.51C28.7156 24.9207 27.9036 25.126 26.961 25.126C26.009 25.126 25.1923 24.9207 24.511 24.51C23.8296 24.09 23.3023 23.502 22.929 22.746C22.565 21.9807 22.383 21.0847 22.383 20.058ZM23.755 20.058C23.755 21.29 24.0256 22.2513 24.567 22.942C25.1083 23.6327 25.9063 23.978 26.961 23.978C27.9783 23.978 28.767 23.6373 29.327 22.956C29.8963 22.2653 30.181 21.2993 30.181 20.058C30.181 18.8167 29.901 17.8553 29.341 17.174C28.781 16.4927 27.9876 16.152 26.961 16.152C25.9063 16.152 25.1083 16.4927 24.567 17.174C24.0256 17.8553 23.755 18.8167 23.755 20.058ZM36.5057 25L32.1797 15.13H33.5937L37.3597 23.922H36.8837L40.6637 15.13H42.0217L37.6677 25H36.5057Z" fill="#191919"/>
<defs>
<linearGradient id="paint0_linear_1314_545" x1="25.3513" y1="40" x2="21.6186" y2="0.472094" gradientUnits="userSpaceOnUse">
<stop stop-color="#696969"/>
<stop offset="0.5" stop-color="white"/>
<stop offset="1" stop-color="#696969"/>
</linearGradient>
<linearGradient id="paint1_linear_1314_545" x1="0.984376" y1="18.0725" x2="50.2067" y2="26.4803" gradientUnits="userSpaceOnUse">
<stop stop-color="white" stop-opacity="0.2"/>
<stop offset="0.5" stop-color="#CCCCCC"/>
<stop offset="1" stop-color="white" stop-opacity="0.2"/>
</linearGradient>
</defs>
</svg>
