<svg width="59" height="49" viewBox="0 0 59 49" fill="none" xmlns="http://www.w3.org/2000/svg">
<g filter="url(#filter0_d_1_55)">
<rect x="4.83172" y="0.978283" width="50" height="40" rx="5" fill="url(#paint0_linear_1_55)" shape-rendering="crispEdges"/>
<rect x="5.12569" y="1.27226" width="49.4121" height="39.4121" rx="4.70603" stroke="url(#paint1_linear_1_55)" stroke-width="0.587948" shape-rendering="crispEdges"/>
<path d="M16.0357 25.9783V16.1083H19.3817C20.4831 16.1083 21.4117 16.2996 22.1677 16.6823C22.9331 17.0649 23.5117 17.6249 23.9037 18.3623C24.2957 19.0903 24.4917 19.9816 24.4917 21.0363C24.4917 22.0909 24.2957 22.9869 23.9037 23.7243C23.5117 24.4616 22.9331 25.0216 22.1677 25.4043C21.4117 25.7869 20.4831 25.9783 19.3817 25.9783H16.0357ZM17.3377 24.8723H19.2837C20.5997 24.8723 21.5751 24.5549 22.2097 23.9203C22.8444 23.2856 23.1617 22.3243 23.1617 21.0363C23.1617 19.7483 22.8444 18.7916 22.2097 18.1663C21.5751 17.5316 20.5997 17.2143 19.2837 17.2143H17.3377V24.8723ZM29.7977 26.1043C29.0044 26.1043 28.2904 26.0016 27.6557 25.7963C27.0211 25.5909 26.4704 25.3016 26.0037 24.9283L26.4517 23.8923C26.7784 24.1349 27.1097 24.3403 27.4457 24.5083C27.7817 24.6669 28.1411 24.7883 28.5237 24.8723C28.9157 24.9469 29.3404 24.9843 29.7977 24.9843C30.6097 24.9843 31.2071 24.8396 31.5897 24.5503C31.9817 24.2516 32.1777 23.8596 32.1777 23.3743C32.1777 22.9543 32.0424 22.6323 31.7717 22.4083C31.5011 22.1843 31.0297 22.0069 30.3577 21.8763L28.8597 21.5683C27.9544 21.3816 27.2777 21.0783 26.8297 20.6583C26.3911 20.2289 26.1717 19.6503 26.1717 18.9223C26.1717 18.3343 26.3257 17.8209 26.6337 17.3823C26.9511 16.9343 27.3851 16.5889 27.9357 16.3463C28.4957 16.1036 29.1491 15.9823 29.8957 15.9823C30.5864 15.9823 31.2257 16.0849 31.8137 16.2903C32.4017 16.4956 32.8964 16.7989 33.2977 17.2003L32.8497 18.1943C32.4297 17.8116 31.9771 17.5363 31.4917 17.3683C31.0157 17.1909 30.4744 17.1023 29.8677 17.1023C29.1304 17.1023 28.5471 17.2609 28.1177 17.5783C27.6884 17.8956 27.4737 18.3249 27.4737 18.8663C27.4737 19.2956 27.6091 19.6363 27.8797 19.8883C28.1504 20.1309 28.5984 20.3176 29.2237 20.4483L30.7217 20.7423C31.6737 20.9289 32.3691 21.2229 32.8077 21.6243C33.2557 22.0256 33.4797 22.5809 33.4797 23.2903C33.4797 23.8503 33.3304 24.3449 33.0317 24.7743C32.7331 25.1943 32.3084 25.5209 31.7577 25.7543C31.2071 25.9876 30.5537 26.1043 29.7977 26.1043ZM35.3267 25.9783V16.1083H38.6727C39.7741 16.1083 40.7027 16.2996 41.4587 16.6823C42.2241 17.0649 42.8027 17.6249 43.1947 18.3623C43.5867 19.0903 43.7827 19.9816 43.7827 21.0363C43.7827 22.0909 43.5867 22.9869 43.1947 23.7243C42.8027 24.4616 42.2241 25.0216 41.4587 25.4043C40.7027 25.7869 39.7741 25.9783 38.6727 25.9783H35.3267ZM36.6287 24.8723H38.5747C39.8907 24.8723 40.8661 24.5549 41.5007 23.9203C42.1354 23.2856 42.4527 22.3243 42.4527 21.0363C42.4527 19.7483 42.1354 18.7916 41.5007 18.1663C40.8661 17.5316 39.8907 17.2143 38.5747 17.2143H36.6287V24.8723Z" fill="white"/>
</g>
<defs>
<filter id="filter0_d_1_55" x="0.831718" y="0.978283" width="58" height="48" filterUnits="userSpaceOnUse" color-interpolation-filters="sRGB">
<feFlood flood-opacity="0" result="BackgroundImageFix"/>
<feColorMatrix in="SourceAlpha" type="matrix" values="0 0 0 0 0 0 0 0 0 0 0 0 0 0 0 0 0 0 127 0" result="hardAlpha"/>
<feOffset dy="4"/>
<feGaussianBlur stdDeviation="2"/>
<feComposite in2="hardAlpha" operator="out"/>
<feColorMatrix type="matrix" values="0 0 0 0 0 0 0 0 0 0 0 0 0 0 0 0 0 0 0.25 0"/>
<feBlend mode="normal" in2="BackgroundImageFix" result="effect1_dropShadow_1_55"/>
<feBlend mode="normal" in="SourceGraphic" in2="effect1_dropShadow_1_55" result="shape"/>
</filter>
<linearGradient id="paint0_linear_1_55" x1="34.4634" y1="42.1546" x2="34.2469" y2="0.872266" gradientUnits="userSpaceOnUse">
<stop stop-color="#08466B"/>
<stop offset="0.5" stop-color="#71BDEB"/>
<stop offset="1" stop-color="#08466B"/>
</linearGradient>
<linearGradient id="paint1_linear_1_55" x1="4.83172" y1="19.0508" x2="54.054" y2="27.4586" gradientUnits="userSpaceOnUse">
<stop stop-color="white" stop-opacity="0.2"/>
<stop offset="0.5" stop-color="#CCCCCC"/>
<stop offset="1" stop-color="white" stop-opacity="0.2"/>
</linearGradient>
</defs>
</svg>
