<svg width="59" height="49" viewBox="0 0 59 49" fill="none" xmlns="http://www.w3.org/2000/svg">
<g filter="url(#filter0_d_1_53)">
<rect x="4.08556" y="0.962616" width="50" height="40" rx="5" fill="url(#paint0_linear_1_53)" shape-rendering="crispEdges"/>
<rect x="4.37954" y="1.25659" width="49.4121" height="39.4121" rx="4.70603" stroke="url(#paint1_linear_1_53)" stroke-width="0.587948" shape-rendering="crispEdges"/>
<path d="M13.9256 21.0206C13.9256 19.9846 14.1076 19.0886 14.4716 18.3326C14.8356 17.5766 15.3582 16.9933 16.0396 16.5826C16.7302 16.1719 17.5516 15.9666 18.5036 15.9666C19.4462 15.9666 20.2582 16.1719 20.9396 16.5826C21.6302 16.9933 22.1622 17.5766 22.5356 18.3326C22.9089 19.0886 23.0956 19.9799 23.0956 21.0066C23.0956 22.0426 22.9089 22.9433 22.5356 23.7086C22.1622 24.4646 21.6302 25.0526 20.9396 25.4726C20.2582 25.8833 19.4462 26.0886 18.5036 26.0886C17.5516 26.0886 16.7349 25.8833 16.0536 25.4726C15.3722 25.0526 14.8449 24.4646 14.4716 23.7086C14.1076 22.9433 13.9256 22.0473 13.9256 21.0206ZM15.2976 21.0206C15.2976 22.2526 15.5682 23.2139 16.1096 23.9046C16.6509 24.5953 17.4489 24.9406 18.5036 24.9406C19.5209 24.9406 20.3096 24.5999 20.8696 23.9186C21.4389 23.2279 21.7236 22.2619 21.7236 21.0206C21.7236 19.7793 21.4436 18.8179 20.8836 18.1366C20.3236 17.4553 19.5302 17.1146 18.5036 17.1146C17.4489 17.1146 16.6509 17.4553 16.1096 18.1366C15.5682 18.8179 15.2976 19.7793 15.2976 21.0206ZM29.7367 26.0886C28.654 26.0886 27.744 25.8879 27.0067 25.4866C26.2694 25.0759 25.714 24.4926 25.3407 23.7366C24.9767 22.9806 24.7947 22.0799 24.7947 21.0346C24.7947 19.9893 24.9907 19.0886 25.3827 18.3326C25.7747 17.5766 26.3347 16.9933 27.0627 16.5826C27.8 16.1719 28.682 15.9666 29.7087 15.9666C30.4274 15.9666 31.0527 16.0693 31.5847 16.2746C32.1167 16.4799 32.5927 16.7786 33.0127 17.1706L32.5227 18.2066C32.224 17.9453 31.9347 17.7353 31.6547 17.5766C31.3747 17.4179 31.0807 17.3059 30.7727 17.2406C30.474 17.1659 30.1194 17.1286 29.7087 17.1286C28.5607 17.1286 27.6834 17.4693 27.0767 18.1506C26.47 18.8319 26.1667 19.7979 26.1667 21.0486C26.1667 22.3179 26.4607 23.2839 27.0487 23.9466C27.6367 24.6093 28.5514 24.9406 29.7927 24.9406C30.2314 24.9406 30.6607 24.8986 31.0807 24.8146C31.5007 24.7306 31.902 24.6093 32.2847 24.4506L32.0187 25.1086V21.7626H29.5407V20.7546H33.1387V25.3746C32.7187 25.5893 32.2007 25.7619 31.5847 25.8926C30.9687 26.0233 30.3527 26.0886 29.7367 26.0886ZM40.0043 26.0886C38.9216 26.0886 38.0116 25.8879 37.2743 25.4866C36.5369 25.0759 35.9816 24.4926 35.6083 23.7366C35.2443 22.9806 35.0623 22.0799 35.0623 21.0346C35.0623 19.9893 35.2583 19.0886 35.6503 18.3326C36.0423 17.5766 36.6023 16.9933 37.3303 16.5826C38.0676 16.1719 38.9496 15.9666 39.9763 15.9666C40.6949 15.9666 41.3203 16.0693 41.8523 16.2746C42.3843 16.4799 42.8603 16.7786 43.2803 17.1706L42.7903 18.2066C42.4916 17.9453 42.2023 17.7353 41.9223 17.5766C41.6423 17.4179 41.3483 17.3059 41.0403 17.2406C40.7416 17.1659 40.3869 17.1286 39.9763 17.1286C38.8283 17.1286 37.9509 17.4693 37.3443 18.1506C36.7376 18.8319 36.4343 19.7979 36.4343 21.0486C36.4343 22.3179 36.7283 23.2839 37.3163 23.9466C37.9043 24.6093 38.8189 24.9406 40.0603 24.9406C40.4989 24.9406 40.9283 24.8986 41.3483 24.8146C41.7683 24.7306 42.1696 24.6093 42.5523 24.4506L42.2863 25.1086V21.7626H39.8083V20.7546H43.4063V25.3746C42.9863 25.5893 42.4683 25.7619 41.8523 25.8926C41.2363 26.0233 40.6203 26.0886 40.0043 26.0886Z" fill="white"/>
</g>
<defs>
<filter id="filter0_d_1_53" x="0.0855637" y="0.962616" width="58" height="48" filterUnits="userSpaceOnUse" color-interpolation-filters="sRGB">
<feFlood flood-opacity="0" result="BackgroundImageFix"/>
<feColorMatrix in="SourceAlpha" type="matrix" values="0 0 0 0 0 0 0 0 0 0 0 0 0 0 0 0 0 0 127 0" result="hardAlpha"/>
<feOffset dy="4"/>
<feGaussianBlur stdDeviation="2"/>
<feComposite in2="hardAlpha" operator="out"/>
<feColorMatrix type="matrix" values="0 0 0 0 0 0 0 0 0 0 0 0 0 0 0 0 0 0 0.25 0"/>
<feBlend mode="normal" in2="BackgroundImageFix" result="effect1_dropShadow_1_53"/>
<feBlend mode="normal" in="SourceGraphic" in2="effect1_dropShadow_1_53" result="shape"/>
</filter>
<linearGradient id="paint0_linear_1_53" x1="33.7172" y1="42.1389" x2="33.5007" y2="0.856599" gradientUnits="userSpaceOnUse">
<stop stop-color="#08466B"/>
<stop offset="0.5" stop-color="#71BDEB"/>
<stop offset="1" stop-color="#08466B"/>
</linearGradient>
<linearGradient id="paint1_linear_1_53" x1="4.08556" y1="19.0352" x2="53.3079" y2="27.4429" gradientUnits="userSpaceOnUse">
<stop stop-color="white" stop-opacity="0.2"/>
<stop offset="0.5" stop-color="#CCCCCC"/>
<stop offset="1" stop-color="white" stop-opacity="0.2"/>
</linearGradient>
</defs>
</svg>
