<svg width="59" height="49" viewBox="0 0 59 49" fill="none" xmlns="http://www.w3.org/2000/svg">
<g filter="url(#filter0_d_1_49)">
<rect x="4.74484" y="0.195637" width="50" height="40" rx="5" fill="url(#paint0_linear_1_49)" shape-rendering="crispEdges"/>
<rect x="5.03882" y="0.489611" width="49.412" height="39.412" rx="4.70603" stroke="url(#paint1_linear_1_49)" stroke-width="0.587948" shape-rendering="crispEdges"/>
<path d="M12.9488 25.1956V15.3256H19.1928V16.3896H14.2508V19.6936H18.8708V20.7576H14.2508V25.1956H12.9488ZM20.8649 25.1956V15.3256H22.1669V24.0756H27.0809V25.1956H20.8649ZM27.267 25.1956L31.635 15.3256H32.769L37.207 25.1956H35.863L34.645 22.3956L35.205 22.7316H29.199L29.815 22.3956L28.597 25.1956H27.267ZM32.181 16.7816L29.997 21.9616L29.661 21.6676H34.743L34.477 21.9616L32.237 16.7816H32.181ZM42.7872 25.3216C41.7979 25.3216 40.9485 25.1163 40.2392 24.7056C39.5392 24.295 39.0025 23.7116 38.6292 22.9556C38.2559 22.1903 38.0692 21.2896 38.0692 20.2536C38.0692 19.2176 38.2559 18.3216 38.6292 17.5656C39.0025 16.8096 39.5392 16.2263 40.2392 15.8156C40.9485 15.405 41.7979 15.1996 42.7872 15.1996C43.4965 15.1996 44.1265 15.307 44.6772 15.5216C45.2279 15.727 45.7085 16.0303 46.1192 16.4316L45.6432 17.4816C45.1952 17.0896 44.7519 16.8096 44.3132 16.6416C43.8839 16.4643 43.3845 16.3756 42.8152 16.3756C41.7232 16.3756 40.8879 16.7116 40.3092 17.3836C39.7305 18.0556 39.4412 19.0123 39.4412 20.2536C39.4412 21.495 39.7305 22.4563 40.3092 23.1376C40.8879 23.8096 41.7232 24.1456 42.8152 24.1456C43.3845 24.1456 43.8839 24.0616 44.3132 23.8936C44.7519 23.7163 45.1952 23.4316 45.6432 23.0396L46.1192 24.0756C45.7085 24.477 45.2232 24.785 44.6632 24.9996C44.1125 25.2143 43.4872 25.3216 42.7872 25.3216Z" fill="white"/>
</g>
<defs>
<filter id="filter0_d_1_49" x="0.744843" y="0.195637" width="58" height="48" filterUnits="userSpaceOnUse" color-interpolation-filters="sRGB">
<feFlood flood-opacity="0" result="BackgroundImageFix"/>
<feColorMatrix in="SourceAlpha" type="matrix" values="0 0 0 0 0 0 0 0 0 0 0 0 0 0 0 0 0 0 127 0" result="hardAlpha"/>
<feOffset dy="4"/>
<feGaussianBlur stdDeviation="2"/>
<feComposite in2="hardAlpha" operator="out"/>
<feColorMatrix type="matrix" values="0 0 0 0 0 0 0 0 0 0 0 0 0 0 0 0 0 0 0.25 0"/>
<feBlend mode="normal" in2="BackgroundImageFix" result="effect1_dropShadow_1_49"/>
<feBlend mode="normal" in="SourceGraphic" in2="effect1_dropShadow_1_49" result="shape"/>
</filter>
<linearGradient id="paint0_linear_1_49" x1="34.3765" y1="41.3719" x2="34.16" y2="0.0896196" gradientUnits="userSpaceOnUse">
<stop stop-color="#08466B"/>
<stop offset="0.5" stop-color="#71BDEB"/>
<stop offset="1" stop-color="#08466B"/>
</linearGradient>
<linearGradient id="paint1_linear_1_49" x1="4.74484" y1="18.2682" x2="53.9672" y2="26.676" gradientUnits="userSpaceOnUse">
<stop stop-color="white" stop-opacity="0.2"/>
<stop offset="0.5" stop-color="#CCCCCC"/>
<stop offset="1" stop-color="white" stop-opacity="0.2"/>
</linearGradient>
</defs>
</svg>
