<svg width="59" height="49" viewBox="0 0 59 49" fill="none" xmlns="http://www.w3.org/2000/svg">
<g filter="url(#filter0_d_1_67)">
<rect x="4.67426" y="0.925262" width="50" height="40" rx="5" fill="url(#paint0_linear_1_67)" fill-opacity="0.8" shape-rendering="crispEdges"/>
<rect x="4.96823" y="1.21924" width="49.412" height="39.412" rx="4.70603" stroke="url(#paint1_linear_1_67)" stroke-width="0.587948" shape-rendering="crispEdges"/>
<path d="M17.8703 25.9253L22.2383 16.0553H23.3723L27.8103 25.9253H26.4663L25.2483 23.1253L25.8083 23.4613H19.8023L20.4183 23.1253L19.2003 25.9253H17.8703ZM22.7843 17.5113L20.6003 22.6913L20.2643 22.3973H25.3463L25.0803 22.6913L22.8403 17.5113H22.7843ZM31.5569 25.9253L27.2309 16.0553H28.6449L32.4109 24.8473H31.9349L35.7149 16.0553H37.0729L32.7189 25.9253H31.5569ZM38.2786 25.9253V16.0553H39.5806V25.9253H38.2786Z" fill="#191919"/>
</g>
<defs>
<filter id="filter0_d_1_67" x="0.674255" y="0.925262" width="58" height="48" filterUnits="userSpaceOnUse" color-interpolation-filters="sRGB">
<feFlood flood-opacity="0" result="BackgroundImageFix"/>
<feColorMatrix in="SourceAlpha" type="matrix" values="0 0 0 0 0 0 0 0 0 0 0 0 0 0 0 0 0 0 127 0" result="hardAlpha"/>
<feOffset dy="4"/>
<feGaussianBlur stdDeviation="2"/>
<feComposite in2="hardAlpha" operator="out"/>
<feColorMatrix type="matrix" values="0 0 0 0 0 0 0 0 0 0 0 0 0 0 0 0 0 0 0.25 0"/>
<feBlend mode="normal" in2="BackgroundImageFix" result="effect1_dropShadow_1_67"/>
<feBlend mode="normal" in="SourceGraphic" in2="effect1_dropShadow_1_67" result="shape"/>
</filter>
<linearGradient id="paint0_linear_1_67" x1="27.1004" y1="40.0715" x2="25.1855" y2="0.915915" gradientUnits="userSpaceOnUse">
<stop stop-color="#696969"/>
<stop offset="0.5" stop-color="white"/>
<stop offset="1" stop-color="#696969"/>
</linearGradient>
<linearGradient id="paint1_linear_1_67" x1="4.67426" y1="18.9978" x2="53.8966" y2="27.4056" gradientUnits="userSpaceOnUse">
<stop stop-color="white" stop-opacity="0.2"/>
<stop offset="0.5" stop-color="#CCCCCC"/>
<stop offset="1" stop-color="white" stop-opacity="0.2"/>
</linearGradient>
</defs>
</svg>
