<svg width="126" height="40" viewBox="0 0 126 40" fill="none" xmlns="http://www.w3.org/2000/svg">
<rect x="0.314033" y="0.314033" width="124.966" height="39.3719" rx="4.68597" fill="#2B2B2B"/>
<rect x="0.314033" y="0.314033" width="124.966" height="39.3719" rx="4.68597" stroke="url(#paint0_linear_1314_521)" stroke-width="0.628067"/>
<mask id="mask0_1314_521" style="mask-type:luminance" maskUnits="userSpaceOnUse" x="13" y="7" width="95" height="26">
<path d="M13 7.75269H107.794V32.2473H13V7.75269Z" fill="white"/>
</mask>
<g mask="url(#mask0_1314_521)">
<path d="M53.0583 26.1463H49.9632L45.5586 13.6748H47.8404L51.3607 23.9525H51.7143L55.3583 13.6754H57.6049L53.059 26.147L53.0583 26.1463ZM63.4987 19.6898L69.2304 26.1463H66.4355L61.7652 20.804H61.2345V26.1463H59.1116V13.6748H61.2345V18.7521H61.7476L66.1699 13.6748H68.7876L63.4993 19.6892L63.4987 19.6898ZM74.2795 26.1463V13.6748H78.7017C79.5508 13.6748 80.3171 13.8576 81.0017 14.2231C81.6969 14.5773 82.2396 15.0723 82.629 15.7091C83.0178 16.346 83.2125 17.0714 83.2125 17.8854C83.2125 18.6868 83.0178 19.4122 82.629 20.061C82.2396 20.6978 81.6969 21.199 81.0017 21.5646C80.3171 21.9182 79.5508 22.0953 78.7017 22.0953H76.4023V26.1463H74.2795ZM78.7017 20.1495C79.3976 20.1495 79.9578 19.9429 80.3824 19.5303C80.8183 19.1057 81.0368 18.5568 81.0368 17.8847C81.0368 17.2127 80.8183 16.6701 80.3824 16.258C79.9578 15.8328 79.3976 15.6206 78.7017 15.6206H76.4023V20.1489H78.7017V20.1495ZM86.9356 26.1463H84.9013V13.6748H86.9356V26.1463ZM93.0718 16.7705C94.2514 16.7705 95.1771 17.1424 95.8492 17.8847C96.5331 18.6164 96.8754 19.6483 96.8754 20.9811V26.1463H95.3718L94.9473 24.6955C94.6879 25.132 94.3041 25.5151 93.7973 25.8455C93.2904 26.1639 92.6887 26.3228 91.9928 26.3228C91.3798 26.3228 90.8253 26.1991 90.3303 25.9516C89.8617 25.7178 89.4691 25.3558 89.1979 24.9078C88.9266 24.46 88.7909 23.9531 88.7909 23.3866C88.7909 22.5136 89.1332 21.8183 89.8172 21.2995C90.5131 20.7688 91.5211 20.5031 92.842 20.5031H94.8235C94.7758 19.8902 94.5874 19.4065 94.257 19.0523C93.9386 18.6868 93.5084 18.504 92.9657 18.504C92.5292 18.504 92.1524 18.6108 91.8339 18.8224C91.5155 19.0347 91.2793 19.2941 91.1261 19.6012L89.2507 19.2828C89.4749 18.504 89.9353 17.891 90.6306 17.4426C91.3384 16.9948 92.1524 16.7705 93.0718 16.7705ZM92.4708 24.6069C93.178 24.6069 93.7502 24.3771 94.1867 23.9173C94.6225 23.4576 94.8411 22.8496 94.8411 22.0953H92.9129C91.5331 22.0953 90.8428 22.496 90.8428 23.298C90.8428 23.6994 90.9904 24.0172 91.2856 24.2533C91.5802 24.4895 91.9752 24.6069 92.4708 24.6069ZM105.282 16.9477H107.352L103.584 27.2963C103.265 28.1687 102.853 28.7999 102.345 29.1887C101.85 29.5781 101.184 29.7728 100.347 29.7728H98.9493L98.7722 27.915H100.488C100.83 27.915 101.09 27.8383 101.266 27.6851C101.455 27.5438 101.614 27.29 101.744 26.9245L101.85 26.6419L97.7635 16.9477H99.9398L102.646 23.5813H102.929L105.282 16.9477Z" fill="white"/>
<path d="M25.7617 7.75269C31.2975 7.75269 34.0654 7.75269 35.78 9.46731C37.4946 11.1819 37.4946 13.9498 37.4946 19.4856V20.5144C37.4946 26.0502 37.4946 28.818 35.78 30.5327C34.0654 32.2473 31.2975 32.2473 25.7617 32.2473H24.7329C19.1971 32.2473 16.4292 32.2473 14.7146 30.5327C13 28.818 13 26.0502 13 20.515V19.485C13 13.9492 13 11.1819 14.7146 9.46731C16.4292 7.75269 19.1971 7.75269 24.7329 7.75269H25.7617Z" fill="#0077FF"/>
<path d="M13.074 14.6363C13.0005 15.9577 13.0005 17.5505 13.0005 19.485V20.5137C13.0005 21.9834 13.0005 23.2333 13.025 24.3349C16.2338 25.9038 20.5448 26.8585 25.2478 26.8585C29.9508 26.8585 34.2618 25.9038 37.4706 24.3355C37.4951 23.2333 37.4951 21.9596 37.4951 20.515V19.4862C37.4951 17.5518 37.4951 15.959 37.4216 14.6124H13.074V14.6363Z" fill="#0009B4"/>
<path d="M30.0238 22.4495C31.3089 22.4495 32.3508 21.4077 32.3508 20.1225C32.3508 18.8374 31.3089 17.7955 30.0238 17.7955C28.7386 17.7955 27.6968 18.8374 27.6968 20.1225C27.6968 21.4077 28.7386 22.4495 30.0238 22.4495Z" stroke="white" stroke-width="2.44758"/>
<path d="M23.2877 22.9393L17.8989 17.5505M23.2877 17.5505L17.8989 22.9393" stroke="white" stroke-width="2.44758"/>
</g>
<defs>
<linearGradient id="paint0_linear_1314_521" x1="2.88067e-06" y1="18.0725" x2="107.464" y2="64.1811" gradientUnits="userSpaceOnUse">
<stop stop-color="white" stop-opacity="0.2"/>
<stop offset="0.5" stop-color="#CCCCCC"/>
<stop offset="1" stop-color="white" stop-opacity="0.2"/>
</linearGradient>
</defs>
</svg>
