<svg width="59" height="49" viewBox="0 0 59 49" fill="none" xmlns="http://www.w3.org/2000/svg">
<g filter="url(#filter0_d_1_69)">
<rect x="4.84535" y="0.110031" width="50" height="40" rx="5" fill="url(#paint0_linear_1_69)" fill-opacity="0.8" shape-rendering="crispEdges"/>
<rect x="5.13933" y="0.404005" width="49.4121" height="39.4121" rx="4.70603" stroke="url(#paint1_linear_1_69)" stroke-width="0.587948" shape-rendering="crispEdges"/>
<path d="M15.5494 25.11V15.24H16.6974L20.5894 24.004H20.1694L24.0614 15.24H25.1954V25.11H24.0054V16.976H24.4394L20.7854 25.11H19.9594L16.3054 16.976H16.7394V25.11H15.5494ZM27.6079 25.11V15.24H28.9099V19.706H28.9379L33.5719 15.24H35.2099L29.8339 20.35L29.8479 19.72L35.5879 25.11H33.8939L28.9379 20.476H28.9099V25.11H27.6079ZM39.4799 25.11L35.1539 15.24H36.5679L40.3339 24.032H39.8579L43.6379 15.24H44.9959L40.6419 25.11H39.4799Z" fill="#191919"/>
</g>
<defs>
<filter id="filter0_d_1_69" x="0.845352" y="0.110031" width="58" height="48" filterUnits="userSpaceOnUse" color-interpolation-filters="sRGB">
<feFlood flood-opacity="0" result="BackgroundImageFix"/>
<feColorMatrix in="SourceAlpha" type="matrix" values="0 0 0 0 0 0 0 0 0 0 0 0 0 0 0 0 0 0 127 0" result="hardAlpha"/>
<feOffset dy="4"/>
<feGaussianBlur stdDeviation="2"/>
<feComposite in2="hardAlpha" operator="out"/>
<feColorMatrix type="matrix" values="0 0 0 0 0 0 0 0 0 0 0 0 0 0 0 0 0 0 0.25 0"/>
<feBlend mode="normal" in2="BackgroundImageFix" result="effect1_dropShadow_1_69"/>
<feBlend mode="normal" in="SourceGraphic" in2="effect1_dropShadow_1_69" result="shape"/>
</filter>
<linearGradient id="paint0_linear_1_69" x1="27.2715" y1="39.2563" x2="25.3566" y2="0.100684" gradientUnits="userSpaceOnUse">
<stop stop-color="#696969"/>
<stop offset="0.5" stop-color="white"/>
<stop offset="1" stop-color="#696969"/>
</linearGradient>
<linearGradient id="paint1_linear_1_69" x1="4.84535" y1="18.1826" x2="54.0677" y2="26.5904" gradientUnits="userSpaceOnUse">
<stop stop-color="white" stop-opacity="0.2"/>
<stop offset="0.5" stop-color="#CCCCCC"/>
<stop offset="1" stop-color="white" stop-opacity="0.2"/>
</linearGradient>
</defs>
</svg>
