<svg width="126" height="40" viewBox="0 0 126 40" fill="none" xmlns="http://www.w3.org/2000/svg">
<rect x="0.444445" y="0.444445" width="124.653" height="39.1111" rx="4" fill="#2B2B2B"/>
<rect x="0.444445" y="0.444445" width="124.653" height="39.1111" rx="4" stroke="url(#paint0_linear_1314_559)" stroke-width="0.88889"/>
<path d="M44.0807 13.4703C43.715 12.1036 42.6409 11.0296 41.2742 10.6637C38.7996 10 28.8722 10 28.8722 10C28.8722 10 18.9449 10 16.4703 10.6637C15.1036 11.0296 14.0296 12.1036 13.6637 13.4703C13 15.9449 13 21.1111 13 21.1111C13 21.1111 13 26.2773 13.6637 28.752C14.0296 30.1186 15.1036 31.1926 16.4703 31.5584C18.9449 32.2222 28.8722 32.2222 28.8722 32.2222C28.8722 32.2222 38.7996 32.2222 41.2742 31.5584C42.6409 31.1926 43.715 30.1186 44.0807 28.752C44.7445 26.2773 44.7445 21.1111 44.7445 21.1111C44.7445 21.1111 44.7419 15.9449 44.0807 13.4703Z" fill="#FF0000"/>
<path d="M25.6948 25.8725L33.9419 21.1114L25.6948 16.3502V25.8725Z" fill="white"/>
<path d="M51.4471 24.4483L47.8828 11.5759H50.9925L52.2416 17.4111C52.5604 18.8483 52.7929 20.0739 52.9445 21.0878H53.0359C53.1405 20.3613 53.3757 19.1436 53.7389 17.432L55.0324 11.5759H58.142L54.5333 24.4483V30.6232H51.4446V24.4483H51.4471Z" fill="white"/>
<path d="M59.0775 30.215C58.4504 29.7917 58.0035 29.1331 57.737 28.2395C57.4731 27.3458 57.3398 26.1595 57.3398 24.6751V22.6552C57.3398 21.1578 57.4914 19.9532 57.7945 19.0464C58.0976 18.1397 58.5706 17.4759 59.2134 17.0605C59.8563 16.645 60.7003 16.4359 61.7456 16.4359C62.7752 16.4359 63.5983 16.6476 64.2202 17.0709C64.8395 17.4942 65.2942 18.158 65.5816 19.0569C65.8691 19.9584 66.0128 21.1578 66.0128 22.6552V24.6751C66.0128 26.1595 65.8717 27.351 65.5922 28.2499C65.3125 29.1515 64.8578 29.81 64.2306 30.2255C63.6035 30.641 62.7516 30.85 61.6776 30.85C60.5696 30.8526 59.7047 30.6384 59.0775 30.215ZM62.5948 28.0357C62.7673 27.581 62.8562 26.8415 62.8562 25.8119V21.4767C62.8562 20.4785 62.7699 19.7468 62.5948 19.2869C62.4197 18.8243 62.1141 18.5944 61.675 18.5944C61.2517 18.5944 60.9512 18.8243 60.7787 19.2869C60.6036 19.7494 60.5174 20.4785 60.5174 21.4767V25.8119C60.5174 26.8415 60.601 27.5836 60.7683 28.0357C60.9355 28.4904 61.236 28.7177 61.675 28.7177C62.1141 28.7177 62.4197 28.4904 62.5948 28.0357Z" fill="white"/>
<path d="M76.1283 30.6258H73.6772L73.4054 28.922H73.3375C72.6711 30.2077 71.6728 30.8505 70.3402 30.8505C69.4177 30.8505 68.7357 30.5474 68.2967 29.9438C67.8577 29.3375 67.6382 28.3916 67.6382 27.1059V16.7082H70.7714V26.9229C70.7714 27.5449 70.8393 27.9865 70.9752 28.2505C71.1111 28.5144 71.3384 28.6476 71.6572 28.6476C71.929 28.6476 72.1903 28.564 72.4412 28.3968C72.6921 28.2295 72.875 28.0178 72.9977 27.7618V16.7056H76.1283V30.6258Z" fill="white"/>
<path d="M84.6395 14.0972H81.5299V30.6253H78.4646V14.0972H75.355V11.5781H84.6395V14.0972Z" fill="white"/>
<path d="M92.1966 30.6258H89.7455L89.4738 28.922H89.4059C88.7395 30.2077 87.7413 30.8505 86.4085 30.8505C85.4861 30.8505 84.8041 30.5474 84.3651 29.9438C83.9261 29.3375 83.7065 28.3916 83.7065 27.1059V16.7082H86.8398V26.9229C86.8398 27.5449 86.9077 27.9865 87.0435 28.2505C87.1794 28.5144 87.4068 28.6476 87.7256 28.6476C87.9973 28.6476 88.2586 28.564 88.5095 28.3968C88.7604 28.2295 88.9433 28.0178 89.0661 27.7618V16.7056H92.1966V30.6258Z" fill="white"/>
<path d="M102.566 18.9317C102.375 18.0537 102.069 17.4187 101.646 17.0241C101.222 16.6296 100.64 16.4336 99.8976 16.4336C99.3227 16.4336 98.7844 16.5956 98.2853 16.9222C97.7862 17.2489 97.3994 17.6748 97.1276 18.2053H97.1042V10.8728H94.0859V30.623H96.6729L96.9917 29.306H97.0597C97.3027 29.7763 97.6659 30.1447 98.1494 30.4192C98.6328 30.691 99.1712 30.8268 99.7617 30.8268C100.82 30.8268 101.601 30.3382 102.1 29.3634C102.6 28.3861 102.85 26.8626 102.85 24.7879V22.585C102.85 21.0301 102.754 19.8098 102.566 18.9317ZM99.6937 24.6101C99.6937 25.624 99.6519 26.4184 99.5683 26.9933C99.4847 27.5682 99.3462 27.9785 99.1476 28.2188C98.9516 28.4618 98.685 28.5821 98.3532 28.5821C98.0945 28.5821 97.8567 28.522 97.6372 28.3992C97.4177 28.279 97.24 28.0961 97.1042 27.8556V19.9561C97.2086 19.5772 97.3916 19.2688 97.6503 19.0258C97.9064 18.7828 98.1886 18.6626 98.489 18.6626C98.8079 18.6626 99.0535 18.788 99.226 19.0363C99.401 19.2871 99.5213 19.7052 99.5893 20.2958C99.6571 20.8864 99.6912 21.7252 99.6912 22.8149V24.6101H99.6937Z" fill="white"/>
<path d="M107.295 25.4123C107.295 26.306 107.321 26.975 107.373 27.4219C107.426 27.8687 107.535 28.1928 107.703 28.3992C107.87 28.603 108.126 28.7049 108.474 28.7049C108.941 28.7049 109.265 28.522 109.438 28.1588C109.613 27.7956 109.707 27.1893 109.723 26.3427L112.425 26.502C112.44 26.6222 112.448 26.7894 112.448 27.0011C112.448 28.2868 112.095 29.2484 111.392 29.8834C110.69 30.5184 109.694 30.8372 108.408 30.8372C106.864 30.8372 105.782 30.3538 105.163 29.3843C104.541 28.4149 104.232 26.9176 104.232 24.8897V22.4594C104.232 20.3716 104.554 18.8455 105.197 17.8839C105.84 16.9222 106.94 16.4414 108.5 16.4414C109.574 16.4414 110.399 16.6374 110.974 17.032C111.549 17.4266 111.954 18.038 112.189 18.8716C112.425 19.7052 112.542 20.855 112.542 22.3236V24.7068H107.295V25.4123ZM107.692 18.8533C107.533 19.0493 107.428 19.3707 107.373 19.8176C107.321 20.2644 107.295 20.9412 107.295 21.8507V22.8489H109.587V21.8507C109.587 20.9569 109.555 20.2801 109.495 19.8176C109.435 19.3551 109.325 19.031 109.166 18.8403C109.007 18.6521 108.761 18.5554 108.429 18.5554C108.095 18.5581 107.849 18.6574 107.692 18.8533Z" fill="white"/>
<defs>
<linearGradient id="paint0_linear_1314_559" x1="2.87949e-06" y1="18.0725" x2="107.434" y2="64.1493" gradientUnits="userSpaceOnUse">
<stop stop-color="white" stop-opacity="0.2"/>
<stop offset="0.5" stop-color="#CCCCCC"/>
<stop offset="1" stop-color="white" stop-opacity="0.2"/>
</linearGradient>
</defs>
</svg>
