<svg width="144" height="40" viewBox="0 0 144 40" fill="none" xmlns="http://www.w3.org/2000/svg">
<rect x="0.314033" y="0.314033" width="143.372" height="39.3719" rx="7.43867" fill="#2B2B2B"/>
<rect x="0.314033" y="0.314033" width="143.372" height="39.3719" rx="7.43867" stroke="url(#paint0_linear_1314_543)" stroke-width="0.628067"/>
<path d="M52.4235 25.7527H49.4233L45.1543 13.7531H47.3659L50.7777 23.6421H51.1206L54.6523 13.7531H56.8297L52.4235 25.7527Z" fill="white"/>
<path d="M62.5417 19.5401L68.0965 25.7527H65.3877L60.8616 20.6124H60.3472V25.7527H58.2899V13.7531H60.3472V18.638H60.8444L65.1305 13.7531H67.6679L62.5417 19.5401Z" fill="white"/>
<path d="M79.8991 19.5912C80.5506 19.7841 81.0593 20.1302 81.425 20.6295C81.8022 21.1174 81.9908 21.7074 81.9908 22.3996C81.9908 23.0578 81.825 23.6421 81.4936 24.1528C81.1621 24.652 80.6992 25.0435 80.1049 25.3272C79.5105 25.6109 78.8248 25.7527 78.0475 25.7527H72.9899V13.7531H77.7047C78.4704 13.7531 79.1505 13.8949 79.7448 14.1786C80.3392 14.4509 80.8021 14.8367 81.1335 15.336C81.465 15.8353 81.6307 16.3969 81.6307 17.021C81.6307 17.6224 81.4764 18.1501 81.1678 18.604C80.8592 19.0579 80.4363 19.3869 79.8991 19.5912ZM75.0473 15.5402V18.8253H77.7047C78.2533 18.8253 78.699 18.6777 79.0419 18.3827C79.3848 18.0763 79.5563 17.6792 79.5563 17.1913C79.5563 16.7033 79.3848 16.3062 79.0419 15.9998C78.699 15.6934 78.2533 15.5402 77.7047 15.5402H75.0473ZM78.0475 23.9655C78.5847 23.9655 79.0248 23.8123 79.3677 23.506C79.7106 23.1882 79.882 22.7797 79.882 22.2805C79.882 21.7925 79.7106 21.3954 79.3677 21.089C79.0248 20.7713 78.5847 20.6124 78.0475 20.6124H75.0473V23.9655H78.0475Z" fill="white"/>
<path d="M86.6632 25.7527H83.8686V16.9019H85.7545V23.4719H86.0288L89.3548 16.9019H92.1494V25.7527H90.2635V19.1827H89.9892L86.6632 25.7527Z" fill="white"/>
<path d="M93.44 28.3909V23.9655H93.6629C94.5773 23.9655 95.1145 23.1202 95.2745 21.4294L95.7203 16.9019H102.252V23.9655H103.795V28.3909H101.824V25.7527H95.4117V28.3909H93.44ZM100.281 23.9655V18.6891H97.5376L97.2633 21.3954C97.1947 22.0876 97.0975 22.6322 96.9718 23.0294C96.8461 23.4265 96.6689 23.7386 96.4403 23.9655H100.281Z" fill="white"/>
<path d="M113.741 21.2252C113.741 21.3954 113.73 21.6053 113.707 21.855H106.541C106.632 22.5471 106.918 23.1031 107.398 23.523C107.878 23.9315 108.49 24.1357 109.232 24.1357C109.735 24.1357 110.187 24.0393 110.587 23.8464C110.998 23.6535 111.313 23.3925 111.53 23.0634L113.381 23.3698C113.061 24.1868 112.507 24.8166 111.718 25.2591C110.941 25.7017 110.073 25.9229 109.112 25.9229C108.221 25.9229 107.421 25.73 106.712 25.3442C106.015 24.9471 105.466 24.4024 105.066 23.7102C104.678 23.0067 104.483 22.2124 104.483 21.3273C104.483 20.4422 104.678 19.6536 105.066 18.9614C105.466 18.2579 106.015 17.7132 106.712 17.3274C107.421 16.9303 108.221 16.7317 109.112 16.7317C110.004 16.7317 110.798 16.9303 111.496 17.3274C112.204 17.7132 112.753 18.2522 113.141 18.9444C113.541 19.6252 113.741 20.3855 113.741 21.2252ZM109.112 18.4338C108.518 18.4338 107.998 18.604 107.552 18.9444C107.118 19.2848 106.821 19.7444 106.661 20.3231H111.598C111.427 19.7557 111.118 19.3018 110.673 18.9614C110.238 18.6097 109.718 18.4338 109.112 18.4338Z" fill="white"/>
<path d="M119.53 25.9229C118.615 25.9229 117.792 25.73 117.061 25.3442C116.341 24.9471 115.775 24.4024 115.364 23.7102C114.963 23.0067 114.763 22.2124 114.763 21.3273C114.763 20.4422 114.963 19.6536 115.364 18.9614C115.775 18.2579 116.341 17.7132 117.061 17.3274C117.792 16.9303 118.615 16.7317 119.53 16.7317C120.444 16.7317 121.261 16.9303 121.981 17.3274C122.713 17.7132 123.279 18.2579 123.679 18.9614C124.09 19.6536 124.296 20.4422 124.296 21.3273C124.296 22.2124 124.09 23.0067 123.679 23.7102C123.279 24.4024 122.713 24.9471 121.981 25.3442C121.261 25.73 120.444 25.9229 119.53 25.9229ZM119.53 24.1357C120.33 24.1357 120.981 23.8804 121.484 23.3698C121.987 22.8478 122.238 22.167 122.238 21.3273C122.238 20.4876 121.987 19.8125 121.484 19.3018C120.981 18.7799 120.33 18.5189 119.53 18.5189C118.73 18.5189 118.078 18.7799 117.575 19.3018C117.072 19.8125 116.821 20.4876 116.821 21.3273C116.821 22.167 117.072 22.8478 117.575 23.3698C118.078 23.8804 118.73 24.1357 119.53 24.1357Z" fill="white"/>
<path d="M13 19.2727C13 13.8415 13 11.1271 14.6995 9.43989C16.3989 7.75269 19.133 7.75269 24.6037 7.75269H25.5707C31.0413 7.75269 33.7754 7.75269 35.4749 9.43989C37.1744 11.1271 37.1744 13.8415 37.1744 19.2727V20.2327C37.1744 25.6639 37.1744 28.3783 35.4749 30.0655C33.7754 31.7527 31.0413 31.7527 25.5707 31.7527H24.6037C19.133 31.7527 16.3989 31.7527 14.6995 30.0655C13 28.3783 13 25.6639 13 20.2327V19.2727Z" fill="#0077FF"/>
<path d="M27.1008 7.75269C22.6358 7.76709 20.2595 7.91589 18.7268 9.43749C17.0273 11.1247 17.0273 13.8391 17.0273 19.2703V20.2303C17.0273 25.6615 17.0273 28.3759 18.7268 30.0631C20.2595 31.5847 22.6358 31.7335 27.1008 31.7479C31.5658 31.7335 33.9421 31.5847 35.4748 30.0631C37.1743 28.3759 37.1743 25.6615 37.1743 20.2303V19.2703C37.1743 13.8391 37.1743 11.1247 35.4748 9.43749C33.9421 7.91829 31.5658 7.76949 27.1008 7.75269Z" fill="#FF2B42"/>
<path d="M30.0575 17.619C31.2808 18.3198 31.89 18.6702 32.0954 19.1262C32.2743 19.5246 32.2743 19.9806 32.0954 20.379C31.89 20.8374 31.2784 21.1854 30.0575 21.8862L26.7094 23.8062C25.4862 24.507 24.877 24.8574 24.3742 24.8046C23.9366 24.759 23.5401 24.531 23.2815 24.1782C22.9841 23.7726 22.9841 23.0718 22.9841 21.6726V17.8326C22.9841 16.431 22.9841 15.7302 23.2815 15.327C23.5401 14.9742 23.9366 14.7462 24.3742 14.7006C24.8746 14.6478 25.4862 14.9982 26.7094 15.699L30.0575 17.619Z" fill="white"/>
<defs>
<linearGradient id="paint0_linear_1314_543" x1="3.30284e-06" y1="18.0725" x2="117.468" y2="75.86" gradientUnits="userSpaceOnUse">
<stop stop-color="white" stop-opacity="0.2"/>
<stop offset="0.5" stop-color="#CCCCCC"/>
<stop offset="1" stop-color="white" stop-opacity="0.2"/>
</linearGradient>
</defs>
</svg>
