<svg width="50" height="40" viewBox="0 0 50 40" fill="none" xmlns="http://www.w3.org/2000/svg">
<rect x="0.293974" y="0.293974" width="49.4121" height="39.4121" rx="4.70603" fill="url(#paint0_linear_1357_636)" fill-opacity="0.8"/>
<rect x="0.293974" y="0.293974" width="49.4121" height="39.4121" rx="4.70603" stroke="url(#paint1_linear_1357_636)" stroke-width="0.587948"/>
<path d="M4.99121 25L4.99121 14.9785H8.01953L9.83789 21.8145L11.6357 14.9785H14.6709V25H12.791V17.1113L10.8018 25H8.85352L6.87109 17.1113V25H4.99121ZM16.6807 25V14.9785H19.9277C21.1582 14.9785 21.9603 15.0286 22.334 15.1289C22.9082 15.2793 23.389 15.6074 23.7764 16.1133C24.1637 16.6146 24.3574 17.264 24.3574 18.0615C24.3574 18.6768 24.2458 19.194 24.0225 19.6133C23.7992 20.0326 23.5143 20.363 23.168 20.6045C22.8262 20.8415 22.4775 20.9987 22.1221 21.0762C21.639 21.1719 20.9395 21.2197 20.0234 21.2197H18.7041V25H16.6807ZM18.7041 16.6738V19.5176H19.8115C20.609 19.5176 21.1423 19.4652 21.4111 19.3604C21.68 19.2555 21.8896 19.0915 22.04 18.8682C22.195 18.6449 22.2725 18.3851 22.2725 18.0889C22.2725 17.7243 22.1654 17.4235 21.9512 17.1865C21.737 16.9495 21.4658 16.8014 21.1377 16.7422C20.8962 16.6966 20.4108 16.6738 19.6816 16.6738H18.7041ZM26.0186 25V14.9785H33.4492V16.6738H28.042V18.8955H33.0732V20.584H28.042V23.3115H33.6406V25H26.0186ZM40.0186 21.3154V19.627L44.3799 19.627V23.6191C43.9561 24.0293 43.3408 24.3916 42.5342 24.7061C41.7321 25.016 40.9186 25.1709 40.0938 25.1709C39.0456 25.1709 38.1318 24.9521 37.3525 24.5146C36.5732 24.0726 35.9876 23.4437 35.5957 22.6279C35.2038 21.8076 35.0078 20.9167 35.0078 19.9551C35.0078 18.9115 35.2266 17.984 35.6641 17.1729C36.1016 16.3617 36.7419 15.7396 37.585 15.3066C38.2275 14.974 39.0273 14.8076 39.9844 14.8076C41.2285 14.8076 42.1992 15.0697 42.8965 15.5937C43.5983 16.1133 44.0495 16.8333 44.25 17.7539L42.2402 18.1299C42.099 17.6377 41.8324 17.2503 41.4404 16.9678C41.0531 16.6807 40.5677 16.5371 39.9844 16.5371C39.1003 16.5371 38.3962 16.8174 37.8721 17.3779C37.3525 17.9385 37.0928 18.7702 37.0928 19.873C37.0928 21.0625 37.3571 21.9557 37.8857 22.5527C38.4144 23.1452 39.1071 23.4414 39.9639 23.4414C40.3877 23.4414 40.8115 23.3594 41.2354 23.1953C41.6637 23.0267 42.0306 22.8239 42.3359 22.5869V21.3154H40.0186Z" fill="#191919"/>
<defs>
<linearGradient id="paint0_linear_1357_636" x1="22.4261" y1="39.1462" x2="20.5112" y2="-0.00934709" gradientUnits="userSpaceOnUse">
<stop stop-color="#696969"/>
<stop offset="0.5" stop-color="white"/>
<stop offset="1" stop-color="#696969"/>
</linearGradient>
<linearGradient id="paint1_linear_1357_636" x1="1.14682e-06" y1="18.0725" x2="49.2223" y2="26.4803" gradientUnits="userSpaceOnUse">
<stop stop-color="white" stop-opacity="0.2"/>
<stop offset="0.5" stop-color="#CCCCCC"/>
<stop offset="1" stop-color="white" stop-opacity="0.2"/>
</linearGradient>
</defs>
</svg>
