<svg width="105" height="40" viewBox="0 0 105 40" fill="none" xmlns="http://www.w3.org/2000/svg">
<rect x="0.444445" y="0.444445" width="103.611" height="39.1111" rx="4" fill="#2B2B2B"/>
<rect x="0.444445" y="0.444445" width="103.611" height="39.1111" rx="4" stroke="url(#paint0_linear_4351_5726)" stroke-width="0.88889"/>
<path d="M17.166 26L21.166 29.5L87.166 29V18L83.666 14.5H79.416V11H71.166L69.166 14.5L61.666 16V14L57.666 14.5V11H52.666H46.166L44.666 14.5H35.166H28.166L23.666 11H17.666L17.166 26Z" fill="#D9D9D9"/>
<path fill-rule="evenodd" clip-rule="evenodd" d="M87.55 17.6339V29.1064L81.198 33.5004H77.293V31.5474L74.3635 33.5004H70.946V31.5474L68.749 33.5004H62.4025L60.45 31.5474L59.9615 33.5004L54.3595 33.4854L52.1505 31.5474L51.9065 33.5004L45.56 33.4854L45.316 31.5474L43.6075 33.4854L33.8435 33.5004L31.8905 32.5239V33.5004H26.52L20.6615 29.8389L17 26.1774V10.0674H24.567L28.2285 13.7289H44.8275V10.0674H58.4975V13.7289H61.915V15.6819L63.868 13.7289H68.018L71.6795 10.0674H79.4905V13.7289H83.6405L87.55 17.6339ZM26.52 15.4369H23.1025V11.7754H18.7085V25.4454L21.3935 28.3744H26.52V23.7364H23.1025V19.8314H26.52V15.4369ZM44.8275 15.4369H40.4335V23.7369H38.725V15.4369H34.575V23.7369H32.8665V15.4369H28.2285V28.3744H41.8985L44.8275 25.4454V15.4369ZM50.686 15.4369H46.536V28.3744H50.686V15.4369ZM50.686 11.7754H46.536V13.7284H50.686V11.7754ZM60.206 15.4369H56.7885V11.7754H52.395V25.4454L55.08 28.3744H60.205V23.7364H56.7875V19.8314H60.205L60.206 15.4369ZM71.4345 15.4369H64.6L61.915 18.1219V25.4454L64.844 28.3744H71.434V23.7364H66.552V19.8314H71.434L71.4345 15.4369ZM85.8365 18.1219L82.9075 15.4369H77.7815V11.7754H73.1435V28.3744H77.7815V19.8304H81.199V28.3739H85.837L85.8365 18.1219Z" fill="#6441A4"/>
<defs>
<linearGradient id="paint0_linear_4351_5726" x1="2.39685e-06" y1="18.0725" x2="93.9079" y2="51.5975" gradientUnits="userSpaceOnUse">
<stop stop-color="white" stop-opacity="0.2"/>
<stop offset="0.5" stop-color="#CCCCCC"/>
<stop offset="1" stop-color="white" stop-opacity="0.2"/>
</linearGradient>
</defs>
</svg>
