<svg width="127" height="41" viewBox="0 0 127 41" fill="none" xmlns="http://www.w3.org/2000/svg">
<rect x="0.973864" y="0.984453" width="124.653" height="39.1111" rx="4" fill="#2B2B2B"/>
<rect x="0.973864" y="0.984453" width="124.653" height="39.1111" rx="4" stroke="url(#paint0_linear_1357_588)" stroke-width="0.88889"/>
<path d="M44.6102 14.0103C44.2444 12.6436 43.1703 11.5696 41.8036 11.2037C39.3291 10.54 29.4016 10.54 29.4016 10.54C29.4016 10.54 19.4743 10.54 16.9997 11.2037C15.633 11.5696 14.559 12.6436 14.1932 14.0103C13.5294 16.4849 13.5294 21.6511 13.5294 21.6511C13.5294 21.6511 13.5294 26.8173 14.1932 29.292C14.559 30.6587 15.633 31.7327 16.9997 32.0984C19.4743 32.7622 29.4016 32.7622 29.4016 32.7622C29.4016 32.7622 39.3291 32.7622 41.8036 32.0984C43.1703 31.7327 44.2444 30.6587 44.6102 29.292C45.2739 26.8173 45.2739 21.6511 45.2739 21.6511C45.2739 21.6511 45.2713 16.4849 44.6102 14.0103Z" fill="#FF0000"/>
<path d="M26.2244 26.4125L34.4715 21.6514L26.2244 16.8902V26.4125Z" fill="white"/>
<path d="M51.9767 24.9883L48.4124 12.1159H51.522L52.7711 17.9511C53.0899 19.3883 53.3225 20.6139 53.474 21.6278H53.5655C53.67 20.9013 53.9052 19.6836 54.2685 17.972L55.5619 12.1159H58.6716L55.0628 24.9883V31.1632H51.9741V24.9883H51.9767Z" fill="white"/>
<path d="M59.607 30.755C58.9799 30.3317 58.533 29.6732 58.2665 28.7795C58.0026 27.8858 57.8694 26.6995 57.8694 25.2152V23.1952C57.8694 21.6978 58.0209 20.4932 58.324 19.5865C58.6272 18.6797 59.1002 18.016 59.7429 17.6005C60.3858 17.185 61.2298 16.9759 62.2752 16.9759C63.3047 16.9759 64.1278 17.1876 64.7497 17.6109C65.369 18.0342 65.8237 18.698 66.1112 19.5969C66.3986 20.4984 66.5424 21.6978 66.5424 23.1952V25.2152C66.5424 26.6995 66.4013 27.891 66.1217 28.7899C65.842 29.6915 65.3874 30.35 64.7602 30.7655C64.133 31.181 63.2812 31.39 62.2072 31.39C61.0992 31.3926 60.2343 31.1784 59.607 30.755ZM63.1244 28.5757C63.2968 28.121 63.3857 27.3815 63.3857 26.3519V22.0167C63.3857 21.0185 63.2995 20.2868 63.1244 19.8269C62.9493 19.3643 62.6436 19.1344 62.2045 19.1344C61.7813 19.1344 61.4807 19.3643 61.3083 19.8269C61.1332 20.2894 61.0469 21.0185 61.0469 22.0167V26.3519C61.0469 27.3815 61.1305 28.1236 61.2978 28.5757C61.4651 29.0304 61.7655 29.2577 62.2045 29.2577C62.6436 29.2577 62.9493 29.0304 63.1244 28.5757Z" fill="white"/>
<path d="M76.6578 31.1658H74.2067L73.9349 29.4621H73.8671C73.2006 30.7477 72.2024 31.3905 70.8697 31.3905C69.9473 31.3905 69.2653 31.0874 68.8263 30.4838C68.3873 29.8775 68.1677 28.9316 68.1677 27.6459V17.2482H71.3009V27.4629C71.3009 28.0849 71.3688 28.5265 71.5047 28.7905C71.6406 29.0544 71.8679 29.1876 72.1867 29.1876C72.4585 29.1876 72.7198 29.1041 72.9707 28.9368C73.2216 28.7695 73.4045 28.5578 73.5273 28.3018V17.2456H76.6578V31.1658Z" fill="white"/>
<path d="M85.1692 14.6372H82.0595V31.1653H78.9943V14.6372H75.8846V12.1181H85.1692V14.6372Z" fill="white"/>
<path d="M92.7259 31.1658H90.2748L90.0031 29.4621H89.9352C89.2688 30.7477 88.2706 31.3905 86.9378 31.3905C86.0154 31.3905 85.3334 31.0874 84.8944 30.4838C84.4554 29.8775 84.2358 28.9316 84.2358 27.6459V17.2482H87.3691V27.4629C87.3691 28.0849 87.4369 28.5265 87.5728 28.7905C87.7087 29.0544 87.9361 29.1876 88.2549 29.1876C88.5266 29.1876 88.7879 29.1041 89.0388 28.9368C89.2897 28.7695 89.4726 28.5578 89.5954 28.3018V17.2456H92.7259V31.1658Z" fill="white"/>
<path d="M103.095 19.4717C102.904 18.5937 102.599 17.9587 102.175 17.5641C101.752 17.1695 101.169 16.9736 100.427 16.9736C99.8523 16.9736 99.3139 17.1356 98.8148 17.4622C98.3157 17.7889 97.9289 18.2148 97.6571 18.7453H97.6337V11.4128H94.6155V31.1629H97.2025L97.5212 29.8459H97.5893C97.8323 30.3163 98.1955 30.6847 98.6789 30.9592C99.1624 31.2309 99.7007 31.3668 100.291 31.3668C101.35 31.3668 102.131 30.8782 102.63 29.9034C103.129 28.926 103.38 27.4026 103.38 25.3278V23.1249C103.38 21.5701 103.283 20.3497 103.095 19.4717ZM100.223 25.1501C100.223 26.1639 100.181 26.9584 100.098 27.5333C100.014 28.1082 99.8757 28.5185 99.6771 28.7588C99.4811 29.0018 99.2146 29.122 98.8827 29.122C98.624 29.122 98.3863 29.0619 98.1667 28.9392C97.9473 28.8189 97.7696 28.636 97.6337 28.3956V20.4961C97.7381 20.1172 97.9211 19.8088 98.1798 19.5658C98.4359 19.3228 98.7181 19.2026 99.0186 19.2026C99.3375 19.2026 99.583 19.328 99.7556 19.5763C99.9306 19.8271 100.051 20.2452 100.119 20.8358C100.187 21.4264 100.221 22.2652 100.221 23.3548V25.1501H100.223Z" fill="white"/>
<path d="M107.825 25.9523C107.825 26.8459 107.851 27.5149 107.903 27.9618C107.955 28.4086 108.065 28.7327 108.232 28.9392C108.4 29.1429 108.656 29.2448 109.003 29.2448C109.471 29.2448 109.795 29.0619 109.968 28.6987C110.143 28.3355 110.237 27.7293 110.252 26.8826L112.954 27.0419C112.97 27.1622 112.978 27.3294 112.978 27.5411C112.978 28.8267 112.625 29.7884 111.922 30.4234C111.219 31.0584 110.224 31.3772 108.938 31.3772C107.394 31.3772 106.312 30.8937 105.692 29.9243C105.071 28.9548 104.762 27.4575 104.762 25.4296V22.9994C104.762 20.9115 105.084 19.3855 105.726 18.4238C106.369 17.4622 107.469 16.9814 109.029 16.9814C110.103 16.9814 110.929 17.1773 111.504 17.5719C112.079 17.9665 112.484 18.578 112.719 19.4116C112.954 20.2452 113.072 21.395 113.072 22.8635V25.2467H107.825V25.9523ZM108.222 19.3933C108.063 19.5893 107.958 19.9107 107.903 20.3575C107.851 20.8044 107.825 21.4812 107.825 22.3906V23.3888H110.117V22.3906C110.117 21.4969 110.085 20.8201 110.025 20.3575C109.965 19.895 109.855 19.571 109.696 19.3802C109.536 19.1921 109.291 19.0954 108.959 19.0954C108.624 19.098 108.379 19.1973 108.222 19.3933Z" fill="white"/>
<defs>
<linearGradient id="paint0_linear_1357_588" x1="0.529422" y1="18.6125" x2="107.964" y2="64.6893" gradientUnits="userSpaceOnUse">
<stop stop-color="white" stop-opacity="0.2"/>
<stop offset="0.5" stop-color="#CCCCCC"/>
<stop offset="1" stop-color="white" stop-opacity="0.2"/>
</linearGradient>
</defs>
</svg>
