<svg width="134" height="49" viewBox="0 0 134 49" fill="none" xmlns="http://www.w3.org/2000/svg">
<g filter="url(#filter0_d_1_39)">
<rect x="3.99998" y="0.317902" width="125.594" height="40" rx="5" fill="url(#paint0_linear_1_39)" fill-opacity="0.36" shape-rendering="crispEdges"/>
<rect x="4.31402" y="0.631935" width="124.966" height="39.3719" rx="4.68597" stroke="url(#paint1_linear_1_39)" stroke-width="0.628067" shape-rendering="crispEdges"/>
<mask id="mask0_1_39" style="mask-type:luminance" maskUnits="userSpaceOnUse" x="17" y="8" width="95" height="25">
<path d="M17 8.0706L111.794 8.0706V32.5652H17V8.0706Z" fill="white"/>
</mask>
<g mask="url(#mask0_1_39)">
<path d="M57.0583 26.4642H53.9632L49.5586 13.9927H51.8403L55.3606 24.2703H55.7142L59.3583 13.9933H61.6049L57.0589 26.4648L57.0583 26.4642ZM67.4987 20.0077L73.2304 26.4642H70.4355L65.7652 21.1218H65.2345V26.4642H63.1116V13.9927H65.2345V19.07H65.7476L70.1698 13.9927H72.7876L67.4993 20.007L67.4987 20.0077ZM78.2794 26.4642V13.9927H82.7017C83.5508 13.9927 84.317 14.1754 85.0016 14.541C85.6969 14.8952 86.2396 15.3901 86.629 16.027C87.0177 16.6638 87.2124 17.3892 87.2124 18.2032C87.2124 19.0046 87.0177 19.7301 86.629 20.3788C86.2396 21.0157 85.6969 21.5169 85.0016 21.8824C84.317 22.236 83.5508 22.4132 82.7017 22.4132H80.4023V26.4642H78.2794ZM82.7017 20.4674C83.3975 20.4674 83.9578 20.2608 84.3824 19.8481C84.8182 19.4236 85.0368 18.8746 85.0368 18.2026C85.0368 17.5306 84.8182 16.9879 84.3824 16.5759C83.9578 16.1507 83.3975 15.9384 82.7017 15.9384H80.4023V20.4668H82.7017V20.4674ZM90.9356 26.4642H88.9013V13.9927H90.9356V26.4642ZM97.0718 17.0884C98.2513 17.0884 99.1771 17.4602 99.8491 18.2026C100.533 18.9343 100.875 19.9662 100.875 21.299V26.4642H99.3718L98.9472 25.0133C98.6878 25.4499 98.3041 25.833 97.7972 26.1633C97.2904 26.4818 96.6887 26.6407 95.9928 26.6407C95.3798 26.6407 94.8252 26.5169 94.3303 26.2695C93.8617 26.0356 93.469 25.6737 93.1979 25.2256C92.9266 24.7778 92.7909 24.271 92.7909 23.7045C92.7909 22.8314 93.1332 22.1362 93.8172 21.6174C94.5131 21.0867 95.5211 20.821 96.8419 20.821H98.8235C98.7758 20.208 98.5873 19.7244 98.257 19.3702C97.9386 19.0046 97.5083 18.8219 96.9657 18.8219C96.5292 18.8219 96.1523 18.9286 95.8339 19.1403C95.5155 19.3526 95.2793 19.612 95.1261 19.9191L93.2507 19.6007C93.4749 18.8219 93.9353 18.2089 94.6305 17.7604C95.3384 17.3126 96.1523 17.0884 97.0718 17.0884ZM96.4708 24.9248C97.178 24.9248 97.7501 24.6949 98.1866 24.2352C98.6225 23.7754 98.8411 23.1675 98.8411 22.4132H96.9129C95.5331 22.4132 94.8428 22.8139 94.8428 23.6159C94.8428 24.0172 94.9904 24.335 95.2856 24.5712C95.5802 24.8073 95.9752 24.9248 96.4708 24.9248ZM109.282 17.2655H111.352L107.584 27.6142C107.265 28.4866 106.853 29.1178 106.345 29.5065C105.85 29.8959 105.184 30.0906 104.347 30.0906H102.949L102.772 28.2328H104.488C104.83 28.2328 105.09 28.1562 105.266 28.0029C105.455 27.8616 105.614 27.6079 105.744 27.2424L105.85 26.9597L101.763 17.2655H103.94L106.646 23.8992H106.929L109.282 17.2655Z" fill="white"/>
<path d="M29.7617 8.0706C35.2975 8.0706 38.0653 8.0706 39.78 9.78522C41.4946 11.4998 41.4946 14.2677 41.4946 19.8035V20.8323C41.4946 26.3681 41.4946 29.136 39.78 30.8506C38.0653 32.5652 35.2975 32.5652 29.7617 32.5652H28.7329C23.1971 32.5652 20.4292 32.5652 18.7146 30.8506C17 29.136 17 26.3681 17 20.8329V19.8029C17 14.2671 17 11.4998 18.7146 9.78522C20.4292 8.0706 23.1971 8.0706 28.7329 8.0706H29.7617Z" fill="#0077FF"/>
<path d="M17.0738 14.9542C17.0003 16.2757 17.0003 17.8685 17.0003 19.8029V20.8317C17.0003 22.3014 17.0003 23.5512 17.0248 24.6528C20.2336 26.2217 24.5446 27.1764 29.2476 27.1764C33.9506 27.1764 38.2616 26.2217 41.4704 24.6535C41.4949 23.5512 41.4949 22.2775 41.4949 20.8329V19.8042C41.4949 17.8697 41.4949 16.2769 41.4214 14.9304H17.0738V14.9542Z" fill="#0009B4"/>
<path d="M34.024 22.7674C35.3091 22.7674 36.351 21.7256 36.351 20.4404C36.351 19.1552 35.3091 18.1134 34.024 18.1134C32.7388 18.1134 31.697 19.1552 31.697 20.4404C31.697 21.7256 32.7388 22.7674 34.024 22.7674Z" stroke="white" stroke-width="2.44758"/>
<path d="M27.2879 23.2573L21.8991 17.8684M27.2879 17.8684L21.8991 23.2573" stroke="white" stroke-width="2.44758"/>
</g>
</g>
<defs>
<filter id="filter0_d_1_39" x="-1.52588e-05" y="0.317902" width="133.594" height="48" filterUnits="userSpaceOnUse" color-interpolation-filters="sRGB">
<feFlood flood-opacity="0" result="BackgroundImageFix"/>
<feColorMatrix in="SourceAlpha" type="matrix" values="0 0 0 0 0 0 0 0 0 0 0 0 0 0 0 0 0 0 127 0" result="hardAlpha"/>
<feOffset dy="4"/>
<feGaussianBlur stdDeviation="2"/>
<feComposite in2="hardAlpha" operator="out"/>
<feColorMatrix type="matrix" values="0 0 0 0 0 0 0 0 0 0 0 0 0 0 0 0 0 0 0.25 0"/>
<feBlend mode="normal" in2="BackgroundImageFix" result="effect1_dropShadow_1_39"/>
<feBlend mode="normal" in="SourceGraphic" in2="effect1_dropShadow_1_39" result="shape"/>
</filter>
<linearGradient id="paint0_linear_1_39" x1="3.99998" y1="20.3179" x2="129.594" y2="20.3179" gradientUnits="userSpaceOnUse">
<stop stop-color="#1D1D1D"/>
<stop offset="0.5" stop-color="#838383"/>
<stop offset="1" stop-color="#1D1D1D"/>
</linearGradient>
<linearGradient id="paint1_linear_1_39" x1="3.99999" y1="18.3904" x2="111.464" y2="64.499" gradientUnits="userSpaceOnUse">
<stop stop-color="white" stop-opacity="0.2"/>
<stop offset="0.5" stop-color="#CCCCCC"/>
<stop offset="1" stop-color="white" stop-opacity="0.2"/>
</linearGradient>
</defs>
</svg>
