<svg width="50" height="40" viewBox="0 0 50 40" fill="none" xmlns="http://www.w3.org/2000/svg">
<rect x="0.293974" y="0.293974" width="49.4121" height="39.4121" rx="4.70603" fill="url(#paint0_linear_1357_641)"/>
<rect x="0.293974" y="0.293974" width="49.4121" height="39.4121" rx="4.70603" stroke="url(#paint1_linear_1357_641)" stroke-width="0.587948"/>
<path d="M7.03223 25V14.9785H13.9023V16.6738H9.05566V19.0459H13.2393V20.7412H9.05566V25H7.03223ZM15.6318 25V15.0605H17.6553V23.3115H22.6865V25H15.6318ZM33.1729 25H30.9717L30.0967 22.7236H26.0908L25.2637 25H23.1172L27.0205 14.9785H29.1602L33.1729 25ZM29.4473 21.0352L28.0664 17.3164L26.7129 21.0352H29.4473ZM40.665 21.3154L42.627 21.9375C42.3262 23.0312 41.8249 23.8447 41.123 24.3779C40.4258 24.9066 39.5394 25.1709 38.4639 25.1709C37.1331 25.1709 36.0394 24.7174 35.1826 23.8105C34.3258 22.8991 33.8975 21.6549 33.8975 20.0781C33.8975 18.4102 34.3281 17.1159 35.1895 16.1953C36.0508 15.2702 37.1833 14.8076 38.5869 14.8076C39.8128 14.8076 40.8086 15.1699 41.5742 15.8945C42.0299 16.3229 42.3717 16.9382 42.5996 17.7402L40.5967 18.2188C40.4782 17.6992 40.2298 17.2891 39.8516 16.9883C39.4779 16.6875 39.0221 16.5371 38.4844 16.5371C37.7415 16.5371 37.1377 16.8037 36.6729 17.3369C36.2126 17.8701 35.9824 18.7337 35.9824 19.9277C35.9824 21.1947 36.2103 22.097 36.666 22.6348C37.1217 23.1725 37.7142 23.4414 38.4434 23.4414C38.9811 23.4414 39.4437 23.2705 39.8311 22.9287C40.2184 22.5869 40.4964 22.0492 40.665 21.3154Z" fill="white"/>
<defs>
<linearGradient id="paint0_linear_1357_641" x1="29.6317" y1="41.1763" x2="29.4152" y2="-0.106017" gradientUnits="userSpaceOnUse">
<stop stop-color="#08466B"/>
<stop offset="0.5" stop-color="#71BDEB"/>
<stop offset="1" stop-color="#08466B"/>
</linearGradient>
<linearGradient id="paint1_linear_1357_641" x1="1.14682e-06" y1="18.0725" x2="49.2223" y2="26.4803" gradientUnits="userSpaceOnUse">
<stop stop-color="white" stop-opacity="0.2"/>
<stop offset="0.5" stop-color="#CCCCCC"/>
<stop offset="1" stop-color="white" stop-opacity="0.2"/>
</linearGradient>
</defs>
</svg>
