<svg width="147" height="40" viewBox="0 0 147 40" fill="none" xmlns="http://www.w3.org/2000/svg">
<rect x="0.444445" y="0.444445" width="145.52" height="39.1111" rx="4" fill="#2B2B2B"/>
<rect x="0.444445" y="0.444445" width="145.52" height="39.1111" rx="4" stroke="url(#paint0_linear_1314_573)" stroke-width="0.88889"/>
<g clip-path="url(#clip0_1314_573)">
<path d="M25.0435 20.0974L16.5874 20.0977L16.5873 16.7098L25.0433 16.7095C25.5373 16.7095 25.8807 16.7967 26.0531 16.9489C26.2255 17.1011 26.3322 17.3834 26.3323 17.7958L26.3323 19.0123C26.3323 19.4469 26.2255 19.7292 26.0532 19.8814C25.8808 20.0337 25.5374 20.0987 25.0435 20.0987L25.0435 20.0974ZM25.6234 13.5154L13.001 13.5158L13.0015 28.0043L16.5876 28.0042L16.5875 23.2905L23.1964 23.2903L26.3326 28.0039L30.3484 28.0038L26.8907 23.268C28.1654 23.0767 28.7378 22.6812 29.2098 22.0294C29.6819 21.3775 29.9185 20.3354 29.9185 18.9446L29.9184 17.8582C29.9184 17.0333 29.8322 16.3815 29.6817 15.8819C29.5312 15.3823 29.2739 14.9477 28.9086 14.5575C28.5227 14.188 28.0931 13.9278 27.5772 13.7534C27.0614 13.6012 26.417 13.5141 25.6234 13.5141L25.6234 13.5154Z" fill="white"/>
<path d="M35.367 23.7237L35.3667 13.5134L31.7759 13.5135L31.7762 23.6366C31.7762 24.4616 31.8406 25.1356 31.9914 25.6352C32.1421 26.157 32.3997 26.5915 32.7873 26.9598C33.1531 27.3501 33.5833 27.6116 34.0984 27.7639C34.6149 27.9369 35.2588 28.0032 36.0768 28.0032L44.4147 28.0029C45.2106 28.0029 45.8559 27.9378 46.371 27.7635C46.8876 27.6112 47.3178 27.351 47.7041 26.9593C48.0698 26.5897 48.3273 26.1551 48.4781 25.6347C48.6287 25.135 48.715 24.461 48.715 23.6361L48.7147 13.513L45.1238 13.5131L45.1242 23.7234C45.1242 24.158 45.0175 24.4403 44.8448 24.5925C44.6722 24.7448 44.3283 24.8099 43.8338 24.8099L36.6575 24.8101C36.1409 24.8101 35.7971 24.7451 35.6258 24.5929C35.4532 24.4406 35.3683 24.1583 35.3683 23.7237L35.367 23.7237Z" fill="white"/>
<path d="M61.7271 28.0023L61.7268 16.7055L68.5106 16.7053L68.5105 13.5123L51.3677 13.5128L51.3678 16.7059L58.1517 16.7057L58.152 28.0024L61.7271 28.0023Z" fill="white"/>
<path d="M74.7537 23.722L74.7534 13.5117L71.1626 13.5118L71.1629 23.6349C71.163 24.4599 71.2275 25.1339 71.3781 25.6335C71.5287 26.1553 71.7863 26.5898 72.1741 26.9581C72.5398 27.3484 72.97 27.6099 73.4851 27.7622C74.0016 27.9352 74.6455 28.0015 75.4635 28.0015L83.8014 28.0012C84.5974 28.0012 85.2427 27.9361 85.7578 27.7617C86.2743 27.6095 86.7045 27.3492 87.0908 26.9576C87.4565 26.588 87.714 26.1534 87.8648 25.633C88.0154 25.1333 88.1017 24.4593 88.1017 23.6344L88.1014 13.5113L84.5106 13.5114L84.5109 23.7217C84.5109 24.1563 84.4042 24.4386 84.2315 24.5908C84.0603 24.7431 83.715 24.8082 83.2205 24.8082L76.0442 24.8084C75.5277 24.8084 75.1838 24.7434 75.0126 24.5911C74.8399 24.4389 74.755 24.1566 74.755 23.722L74.7537 23.722Z" fill="white"/>
<path d="M94.3506 24.8078L94.3505 22.2016L102.85 22.2013C103.345 22.2013 103.69 22.2885 103.863 22.4407C104.035 22.5929 104.142 22.8753 104.142 23.2877L104.142 23.7223C104.142 24.1569 104.035 24.4393 103.863 24.5915C103.691 24.7438 103.345 24.8089 102.85 24.8089L94.3506 24.8092L94.3506 24.8078ZM94.3504 19.3117L94.3503 16.7055L101.986 16.7052C102.503 16.7052 102.847 16.7924 103.019 16.9446C103.192 17.0968 103.277 17.3792 103.277 17.7917L103.277 18.2262C103.277 18.6608 103.191 18.9432 103.019 19.0954C102.848 19.2477 102.502 19.3127 101.986 19.3128L94.3504 19.313L94.3504 19.3117ZM106.852 17.7252L106.852 17.4428C106.852 16.0961 106.507 15.0968 105.819 14.4671C105.13 13.8374 104.031 13.5108 102.568 13.5108L90.7549 13.5112L90.7554 28.001L103.41 28.0006C104.874 28.0006 105.972 27.6961 106.661 27.0663C107.35 26.4365 107.694 25.4372 107.694 24.0905L107.694 23.786C107.694 22.4393 107.35 21.4829 106.661 20.9183C106.532 20.8311 106.403 20.766 106.273 20.701C106.144 20.6359 105.818 20.5488 105.581 20.4616C106.055 20.2013 106.379 19.8539 106.572 19.4622C106.745 19.0706 106.852 18.4851 106.852 17.7239L106.852 17.7252Z" fill="white"/>
<path d="M113.119 16.7037L126.062 16.7033L126.062 13.5102L109.531 13.5107L109.532 28.0005L126.062 28L126.062 24.8069L113.119 24.8074L113.119 22.3521L124.414 22.3517L124.414 19.1586L113.119 19.159L113.119 16.7037Z" fill="white"/>
<path d="M130.654 13.5105C132.175 13.5104 133.409 12.2769 133.409 10.7553C133.409 9.23369 132.175 8.00023 130.654 8.00028C129.132 8.00033 127.898 9.23387 127.899 10.7555C127.899 12.2771 129.132 13.5105 130.654 13.5105Z" fill="#ED143B"/>
</g>
<defs>
<linearGradient id="paint0_linear_1314_573" x1="3.35809e-06" y1="18.0725" x2="118.653" y2="77.4193" gradientUnits="userSpaceOnUse">
<stop stop-color="white" stop-opacity="0.2"/>
<stop offset="0.5" stop-color="#CCCCCC"/>
<stop offset="1" stop-color="white" stop-opacity="0.2"/>
</linearGradient>
<clipPath id="clip0_1314_573">
<rect width="120.408" height="20" fill="white" transform="translate(13 8.00391)"/>
</clipPath>
</defs>
</svg>
