<svg width="50" height="40" viewBox="0 0 50 40" fill="none" xmlns="http://www.w3.org/2000/svg">
<rect x="0.293974" y="0.293974" width="49.4121" height="39.4121" rx="4.70603" fill="url(#paint0_linear_1357_643)"/>
<rect x="0.293974" y="0.293974" width="49.4121" height="39.4121" rx="4.70603" stroke="url(#paint1_linear_1357_643)" stroke-width="0.587948"/>
<path d="M11.4912 25V14.9785H14.5195L16.3379 21.8145L18.1357 14.9785H21.1709V25H19.291V17.1113L17.3018 25H15.3535L13.3711 17.1113V25H11.4912ZM23.1807 25V14.9785H26.4277C27.6582 14.9785 28.4603 15.0286 28.834 15.1289C29.4082 15.2793 29.889 15.6074 30.2764 16.1133C30.6637 16.6146 30.8574 17.264 30.8574 18.0615C30.8574 18.6768 30.7458 19.194 30.5225 19.6133C30.2992 20.0326 30.0143 20.363 29.668 20.6045C29.3262 20.8415 28.9775 20.9987 28.6221 21.0762C28.139 21.1719 27.4395 21.2197 26.5234 21.2197H25.2041V25H23.1807ZM25.2041 16.6738V19.5176H26.3115C27.109 19.5176 27.6423 19.4652 27.9111 19.3604C28.18 19.2555 28.3896 19.0915 28.54 18.8682C28.695 18.6449 28.7725 18.3851 28.7725 18.0889C28.7725 17.7243 28.6654 17.4235 28.4512 17.1865C28.237 16.9495 27.9658 16.8014 27.6377 16.7422C27.3962 16.6966 26.9108 16.6738 26.1816 16.6738H25.2041ZM32.0264 22.3408L33.8857 22.1152C33.945 22.5892 34.1045 22.9515 34.3643 23.2021C34.624 23.4528 34.9385 23.5781 35.3076 23.5781C35.7041 23.5781 36.0368 23.4277 36.3057 23.127C36.5791 22.8262 36.7158 22.4206 36.7158 21.9102C36.7158 21.4271 36.5859 21.0443 36.3262 20.7617C36.0664 20.4792 35.7497 20.3379 35.376 20.3379C35.1299 20.3379 34.8359 20.3857 34.4941 20.4814L34.7061 18.916C35.2256 18.9297 35.6221 18.818 35.8955 18.5811C36.1689 18.3395 36.3057 18.0205 36.3057 17.624C36.3057 17.2868 36.2054 17.0179 36.0049 16.8174C35.8044 16.6169 35.5378 16.5166 35.2051 16.5166C34.877 16.5166 34.5967 16.6305 34.3643 16.8584C34.1318 17.0863 33.9906 17.4189 33.9404 17.8564L32.1699 17.5557C32.293 16.9495 32.4775 16.4665 32.7236 16.1064C32.9743 15.7419 33.3206 15.457 33.7627 15.252C34.2093 15.0423 34.7083 14.9375 35.2598 14.9375C36.2031 14.9375 36.9596 15.2383 37.5293 15.8398C37.9987 16.332 38.2334 16.888 38.2334 17.5078C38.2334 18.3874 37.7526 19.0892 36.791 19.6133C37.3652 19.7363 37.8232 20.012 38.165 20.4404C38.5114 20.8688 38.6846 21.3861 38.6846 21.9922C38.6846 22.8717 38.3633 23.6214 37.7207 24.2412C37.0781 24.861 36.2783 25.1709 35.3213 25.1709C34.4144 25.1709 33.6624 24.9111 33.0654 24.3916C32.4684 23.8675 32.1221 23.1839 32.0264 22.3408Z" fill="white"/>
<defs>
<linearGradient id="paint0_linear_1357_643" x1="29.6317" y1="41.1763" x2="29.4152" y2="-0.106017" gradientUnits="userSpaceOnUse">
<stop stop-color="#08466B"/>
<stop offset="0.5" stop-color="#71BDEB"/>
<stop offset="1" stop-color="#08466B"/>
</linearGradient>
<linearGradient id="paint1_linear_1357_643" x1="1.14682e-06" y1="18.0725" x2="49.2223" y2="26.4803" gradientUnits="userSpaceOnUse">
<stop stop-color="white" stop-opacity="0.2"/>
<stop offset="0.5" stop-color="#CCCCCC"/>
<stop offset="1" stop-color="white" stop-opacity="0.2"/>
</linearGradient>
</defs>
</svg>
