<svg width="50" height="40" viewBox="0 0 50 40" fill="none" xmlns="http://www.w3.org/2000/svg">
<rect width="50" height="40" rx="5" fill="url(#paint0_linear_1357_645)"/>
<path d="M9.1084 20.0508C9.1084 19.0299 9.26107 18.1732 9.56641 17.4805C9.79427 16.9701 10.1042 16.512 10.4961 16.1064C10.8926 15.7008 11.3255 15.4001 11.7949 15.2041C12.4193 14.9398 13.1393 14.8076 13.9551 14.8076C15.4316 14.8076 16.612 15.2656 17.4961 16.1816C18.3848 17.0977 18.8291 18.3714 18.8291 20.0029C18.8291 21.6208 18.3893 22.8877 17.5098 23.8037C16.6302 24.7152 15.4544 25.1709 13.9824 25.1709C12.4922 25.1709 11.3073 24.7174 10.4277 23.8105C9.54818 22.8991 9.1084 21.6458 9.1084 20.0508ZM11.1934 19.9824C11.1934 21.1172 11.4554 21.9785 11.9795 22.5664C12.5036 23.1497 13.1689 23.4414 13.9756 23.4414C14.7822 23.4414 15.443 23.152 15.958 22.5732C16.4775 21.9899 16.7373 21.1172 16.7373 19.9551C16.7373 18.8066 16.4844 17.9499 15.9785 17.3848C15.4772 16.8197 14.8096 16.5371 13.9756 16.5371C13.1416 16.5371 12.4694 16.8242 11.959 17.3984C11.4486 17.9681 11.1934 18.8294 11.1934 19.9824ZM25.0771 21.3154V19.627L29.4385 19.627V23.6191C29.0146 24.0293 28.3994 24.3916 27.5928 24.7061C26.7907 25.0159 25.9772 25.1709 25.1523 25.1709C24.1042 25.1709 23.1904 24.9521 22.4111 24.5146C21.6318 24.0726 21.0462 23.4437 20.6543 22.6279C20.2624 21.8076 20.0664 20.9167 20.0664 19.9551C20.0664 18.9115 20.2852 17.984 20.7227 17.1729C21.1602 16.3617 21.8005 15.7396 22.6436 15.3066C23.2861 14.974 24.0859 14.8076 25.043 14.8076C26.2871 14.8076 27.2578 15.0697 27.9551 15.5937C28.6569 16.1133 29.1081 16.8333 29.3086 17.7539L27.2988 18.1299C27.1576 17.6377 26.8909 17.2503 26.499 16.9678C26.1117 16.6807 25.6263 16.5371 25.043 16.5371C24.1589 16.5371 23.4548 16.8174 22.9307 17.3779C22.4111 17.9385 22.1514 18.7702 22.1514 19.873C22.1514 21.0625 22.4157 21.9557 22.9443 22.5527C23.473 23.1452 24.1657 23.4414 25.0225 23.4414C25.4463 23.4414 25.8701 23.3594 26.2939 23.1953C26.7223 23.0267 27.0892 22.8239 27.3945 22.5869V21.3154L25.0771 21.3154ZM35.9736 21.3154V19.627H40.335V23.6191C39.9111 24.0293 39.2959 24.3916 38.4893 24.7061C37.6872 25.0159 36.8737 25.1709 36.0488 25.1709C35.0006 25.1709 34.0869 24.9521 33.3076 24.5146C32.5283 24.0726 31.9427 23.4437 31.5508 22.6279C31.1589 21.8076 30.9629 20.9167 30.9629 19.9551C30.9629 18.9115 31.1816 17.984 31.6191 17.1729C32.0566 16.3617 32.6969 15.7396 33.54 15.3066C34.1826 14.974 34.9824 14.8076 35.9395 14.8076C37.1836 14.8076 38.1543 15.0697 38.8516 15.5937C39.5534 16.1133 40.0046 16.8333 40.2051 17.7539L38.1953 18.1299C38.054 17.6377 37.7874 17.2503 37.3955 16.9678C37.0081 16.6807 36.5228 16.5371 35.9395 16.5371C35.0553 16.5371 34.3512 16.8174 33.8271 17.3779C33.3076 17.9385 33.0479 18.7702 33.0479 19.873C33.0479 21.0625 33.3122 21.9557 33.8408 22.5527C34.3695 23.1452 35.0622 23.4414 35.9189 23.4414C36.3428 23.4414 36.7666 23.3594 37.1904 23.1953C37.6188 23.0267 37.9857 22.8239 38.291 22.5869V21.3154H35.9736Z" fill="white"/>
<defs>
<linearGradient id="paint0_linear_1357_645" x1="29.6317" y1="41.1763" x2="29.4152" y2="-0.106017" gradientUnits="userSpaceOnUse">
<stop stop-color="#08466B"/>
<stop offset="0.5" stop-color="#71BDEB"/>
<stop offset="1" stop-color="#08466B"/>
</linearGradient>
</defs>
</svg>
