<svg width="50" height="40" viewBox="0 0 50 40" fill="none" xmlns="http://www.w3.org/2000/svg">
<rect x="0.293974" y="0.293974" width="49.412" height="39.412" rx="4.70603" fill="url(#paint0_linear_1314_537)"/>
<rect x="0.293974" y="0.293974" width="49.412" height="39.412" rx="4.70603" stroke="url(#paint1_linear_1314_537)" stroke-width="0.587948"/>
<path d="M11.204 25V15.13H14.55C15.6513 15.13 16.58 15.3213 17.336 15.704C18.1013 16.0867 18.68 16.6467 19.072 17.384C19.464 18.112 19.66 19.0033 19.66 20.058C19.66 21.1127 19.464 22.0087 19.072 22.746C18.68 23.4833 18.1013 24.0433 17.336 24.426C16.58 24.8087 15.6513 25 14.55 25H11.204ZM12.506 23.894H14.452C15.768 23.894 16.7433 23.5767 17.378 22.942C18.0127 22.3073 18.33 21.346 18.33 20.058C18.33 18.77 18.0127 17.8133 17.378 17.188C16.7433 16.5533 15.768 16.236 14.452 16.236H12.506V23.894ZM24.966 25.126C24.1727 25.126 23.4587 25.0233 22.824 24.818C22.1893 24.6127 21.6387 24.3233 21.172 23.95L21.62 22.914C21.9467 23.1567 22.278 23.362 22.614 23.53C22.95 23.6887 23.3093 23.81 23.692 23.894C24.084 23.9687 24.5087 24.006 24.966 24.006C25.778 24.006 26.3753 23.8613 26.758 23.572C27.15 23.2733 27.346 22.8813 27.346 22.396C27.346 21.976 27.2107 21.654 26.94 21.43C26.6693 21.206 26.198 21.0287 25.526 20.898L24.028 20.59C23.1227 20.4033 22.446 20.1 21.998 19.68C21.5593 19.2507 21.34 18.672 21.34 17.944C21.34 17.356 21.494 16.8427 21.802 16.404C22.1193 15.956 22.5533 15.6107 23.104 15.368C23.664 15.1253 24.3173 15.004 25.064 15.004C25.7547 15.004 26.394 15.1067 26.982 15.312C27.57 15.5173 28.0647 15.8207 28.466 16.222L28.018 17.216C27.598 16.8333 27.1453 16.558 26.66 16.39C26.184 16.2127 25.6427 16.124 25.036 16.124C24.2987 16.124 23.7153 16.2827 23.286 16.6C22.8567 16.9173 22.642 17.3467 22.642 17.888C22.642 18.3173 22.7773 18.658 23.048 18.91C23.3187 19.1527 23.7667 19.3393 24.392 19.47L25.89 19.764C26.842 19.9507 27.5373 20.2447 27.976 20.646C28.424 21.0473 28.648 21.6027 28.648 22.312C28.648 22.872 28.4987 23.3667 28.2 23.796C27.9013 24.216 27.4767 24.5427 26.926 24.776C26.3753 25.0093 25.722 25.126 24.966 25.126ZM30.495 25V15.13H33.841C34.9423 15.13 35.871 15.3213 36.627 15.704C37.3923 16.0867 37.971 16.6467 38.363 17.384C38.755 18.112 38.951 19.0033 38.951 20.058C38.951 21.1127 38.755 22.0087 38.363 22.746C37.971 23.4833 37.3923 24.0433 36.627 24.426C35.871 24.8087 34.9423 25 33.841 25H30.495ZM31.797 23.894H33.743C35.059 23.894 36.0343 23.5767 36.669 22.942C37.3037 22.3073 37.621 21.346 37.621 20.058C37.621 18.77 37.3037 17.8133 36.669 17.188C36.0343 16.5533 35.059 16.236 33.743 16.236H31.797V23.894Z" fill="white"/>
<defs>
<linearGradient id="paint0_linear_1314_537" x1="29.6317" y1="41.1763" x2="29.4152" y2="-0.106017" gradientUnits="userSpaceOnUse">
<stop stop-color="#08466B"/>
<stop offset="0.5" stop-color="#71BDEB"/>
<stop offset="1" stop-color="#08466B"/>
</linearGradient>
<linearGradient id="paint1_linear_1314_537" x1="1.14682e-06" y1="18.0725" x2="49.2223" y2="26.4803" gradientUnits="userSpaceOnUse">
<stop stop-color="white" stop-opacity="0.2"/>
<stop offset="0.5" stop-color="#CCCCCC"/>
<stop offset="1" stop-color="white" stop-opacity="0.2"/>
</linearGradient>
</defs>
</svg>
