<svg width="58" height="49" viewBox="0 0 58 49" fill="none" xmlns="http://www.w3.org/2000/svg">
<g filter="url(#filter0_d_1_51)">
<rect x="4.00899" y="0.962543" width="50" height="40" rx="5" fill="url(#paint0_linear_1_51)" shape-rendering="crispEdges"/>
<rect x="4.30296" y="1.25652" width="49.412" height="39.412" rx="4.70603" stroke="url(#paint1_linear_1_51)" stroke-width="0.587948" shape-rendering="crispEdges"/>
<path d="M15.213 25.9625L15.213 16.0925H16.361L20.253 24.8565H19.833L23.725 16.0925L24.859 16.0925V25.9625H23.669V17.8285H24.103L20.449 25.9625H19.623L15.969 17.8285H16.403V25.9625H15.213ZM27.2716 25.9625V16.0925H31.3596C32.4142 16.0925 33.2216 16.3445 33.7816 16.8485C34.3416 17.3525 34.6216 18.0479 34.6216 18.9345C34.6216 19.8212 34.3416 20.5212 33.7816 21.0345C33.2216 21.5385 32.4142 21.7905 31.3596 21.7905H28.5736V25.9625H27.2716ZM28.5736 20.7265H31.2336C31.9242 20.7265 32.4469 20.5725 32.8016 20.2645C33.1562 19.9472 33.3336 19.5039 33.3336 18.9345C33.3336 18.3652 33.1562 17.9265 32.8016 17.6185C32.4469 17.3105 31.9242 17.1565 31.2336 17.1565H28.5736V20.7265ZM39.3714 26.0885C38.6994 26.0885 38.0554 25.9859 37.4394 25.7805C36.8327 25.5752 36.3241 25.2859 35.9134 24.9125L36.3754 23.9045C36.8327 24.2779 37.3041 24.5485 37.7894 24.7165C38.2747 24.8845 38.7881 24.9685 39.3294 24.9685C40.0481 24.9685 40.5941 24.8192 40.9674 24.5205C41.3407 24.2125 41.5274 23.7739 41.5274 23.2045C41.5274 22.6445 41.3361 22.2199 40.9534 21.9305C40.5801 21.6412 40.0294 21.4965 39.3014 21.4965H37.7894V20.4185H39.2034C39.8194 20.4185 40.3141 20.2599 40.6874 19.9425C41.0607 19.6252 41.2474 19.1912 41.2474 18.6405C41.2474 18.1365 41.0747 17.7539 40.7294 17.4925C40.3934 17.2219 39.9127 17.0865 39.2874 17.0865C38.2327 17.0865 37.3181 17.4552 36.5434 18.1925L36.0814 17.1985C36.4734 16.8065 36.9587 16.5032 37.5374 16.2885C38.1161 16.0739 38.7274 15.9665 39.3714 15.9665C40.3514 15.9665 41.1214 16.1905 41.6814 16.6385C42.2414 17.0865 42.5214 17.7119 42.5214 18.5145C42.5214 19.1212 42.3487 19.6439 42.0034 20.0825C41.6674 20.5119 41.2054 20.7965 40.6174 20.9365V20.7825C41.3081 20.9039 41.8447 21.1885 42.2274 21.6365C42.6101 22.0752 42.8014 22.6259 42.8014 23.2885C42.8014 24.1565 42.4934 24.8425 41.8774 25.3465C41.2707 25.8412 40.4354 26.0885 39.3714 26.0885Z" fill="white"/>
</g>
<defs>
<filter id="filter0_d_1_51" x="0.00898743" y="0.962543" width="58" height="48" filterUnits="userSpaceOnUse" color-interpolation-filters="sRGB">
<feFlood flood-opacity="0" result="BackgroundImageFix"/>
<feColorMatrix in="SourceAlpha" type="matrix" values="0 0 0 0 0 0 0 0 0 0 0 0 0 0 0 0 0 0 127 0" result="hardAlpha"/>
<feOffset dy="4"/>
<feGaussianBlur stdDeviation="2"/>
<feComposite in2="hardAlpha" operator="out"/>
<feColorMatrix type="matrix" values="0 0 0 0 0 0 0 0 0 0 0 0 0 0 0 0 0 0 0.25 0"/>
<feBlend mode="normal" in2="BackgroundImageFix" result="effect1_dropShadow_1_51"/>
<feBlend mode="normal" in="SourceGraphic" in2="effect1_dropShadow_1_51" result="shape"/>
</filter>
<linearGradient id="paint0_linear_1_51" x1="33.6407" y1="42.1388" x2="33.4241" y2="0.856526" gradientUnits="userSpaceOnUse">
<stop stop-color="#08466B"/>
<stop offset="0.5" stop-color="#71BDEB"/>
<stop offset="1" stop-color="#08466B"/>
</linearGradient>
<linearGradient id="paint1_linear_1_51" x1="4.00899" y1="19.0351" x2="53.2313" y2="27.4429" gradientUnits="userSpaceOnUse">
<stop stop-color="white" stop-opacity="0.2"/>
<stop offset="0.5" stop-color="#CCCCCC"/>
<stop offset="1" stop-color="white" stop-opacity="0.2"/>
</linearGradient>
</defs>
</svg>
