<svg width="192" height="49" viewBox="0 0 192 49" fill="none" xmlns="http://www.w3.org/2000/svg">
<g filter="url(#filter0_d_1_109)">
<rect x="4.79524" y="0.735268" width="183" height="40" rx="4.44445" fill="url(#paint0_linear_1_109)" fill-opacity="0.36" shape-rendering="crispEdges"/>
<rect x="5.23969" y="1.17971" width="182.111" height="39.1111" rx="4" stroke="url(#paint1_linear_1_109)" stroke-width="0.88889" shape-rendering="crispEdges"/>
<g clip-path="url(#clip0_1_109)">
<path d="M39.0667 11.3078C40.6817 11.3078 41.9953 12.6214 41.9953 14.2364C41.9953 15.8501 40.6813 17.1637 39.0667 17.1637C37.4527 17.1637 36.1387 15.8501 36.1387 14.2364C36.1384 12.6211 37.453 11.3078 39.0667 11.3078ZM39.0667 21.3071C42.9677 21.3071 46.1401 18.1357 46.1401 14.2364C46.1401 10.3351 42.968 7.16232 39.0667 7.16232C35.166 7.16232 31.9933 10.3354 31.9933 14.2364C31.9933 18.1357 35.166 21.3071 39.0667 21.3071ZM41.9283 27.0767C43.3834 26.7453 44.772 26.1703 46.0355 25.3761C46.5006 25.0834 46.8304 24.618 46.9524 24.0822C47.0744 23.5463 46.9785 22.984 46.6859 22.5189C46.5411 22.2883 46.3524 22.0886 46.1304 21.9311C45.9084 21.7735 45.6575 21.6613 45.3921 21.6008C45.1267 21.5403 44.852 21.5327 44.5837 21.5785C44.3154 21.6242 44.0587 21.7224 43.8283 21.8675C40.9305 23.6893 37.2008 23.688 34.3054 21.8675C34.075 21.7224 33.8184 21.6242 33.5501 21.5784C33.2818 21.5326 33.0071 21.5402 32.7417 21.6007C32.4763 21.6612 32.2254 21.7734 32.0035 21.931C31.7815 22.0885 31.5928 22.2883 31.4482 22.5189C31.1554 22.9839 31.0594 23.5461 31.1812 24.082C31.303 24.6178 31.6326 25.0833 32.0975 25.3761C33.3609 26.1701 34.7493 26.745 36.2041 27.0767L32.2499 31.0316C31.8613 31.4203 31.6431 31.9475 31.6431 32.4971C31.6432 33.0467 31.8617 33.5738 32.2504 33.9624C32.6391 34.351 33.1663 34.5692 33.7159 34.5691C34.2656 34.5691 34.7927 34.3506 35.1812 33.9619L39.066 30.0765L42.9531 33.9622C43.1453 34.1547 43.3736 34.3074 43.6248 34.4116C43.8761 34.5158 44.1454 34.5694 44.4174 34.5694C44.6895 34.5694 44.9588 34.5158 45.2101 34.4116C45.4613 34.3074 45.6896 34.1547 45.8818 33.9622C46.0745 33.7701 46.2275 33.5417 46.3318 33.2903C46.4362 33.0389 46.4899 32.7694 46.4899 32.4972C46.4899 32.225 46.4362 31.9555 46.3318 31.7041C46.2275 31.4527 46.0745 31.2244 45.8818 31.0322L41.9283 27.0767ZM93.172 20.6686C93.5312 20.4776 94.1955 19.8784 94.4206 19.098L94.9556 17.0225C94.9606 17.0067 94.9618 16.99 94.9592 16.9736C94.9565 16.9573 94.9501 16.9418 94.9403 16.9284C94.931 16.9151 94.9186 16.9041 94.9041 16.8965C94.8897 16.8889 94.8737 16.8849 94.8574 16.8847H93.4723C93.4499 16.8848 93.4282 16.8923 93.4105 16.9058C93.3927 16.9194 93.3798 16.9384 93.3738 16.9599C93.3738 16.9599 93.0278 18.5833 92.8558 19.0197C92.6841 19.4562 92.248 19.8513 91.9924 20.0084C91.8681 20.0861 91.7291 20.1373 91.5841 20.1587C91.4368 20.181 91.2828 20.1919 91.1267 20.1919H89.7768V16.9904C89.7771 16.9627 89.7664 16.936 89.7471 16.9162C89.7279 16.8964 89.7015 16.8849 89.6739 16.8844H88.2888C88.2611 16.8848 88.2346 16.8962 88.2153 16.9161C88.1959 16.9359 88.1852 16.9626 88.1855 16.9904V25.5975C88.1855 25.6561 88.2312 25.7031 88.2888 25.7031H89.6739C89.6876 25.703 89.7011 25.7001 89.7137 25.6947C89.7263 25.6893 89.7377 25.6814 89.7472 25.6716C89.7568 25.6618 89.7643 25.6502 89.7694 25.6375C89.7745 25.6248 89.777 25.6112 89.7768 25.5975V21.5661H91.3112C91.5689 21.5661 93.0589 21.7551 93.1913 22.8263L93.4926 25.6266C93.4984 25.6485 93.5112 25.668 93.5291 25.6819C93.5469 25.6959 93.5688 25.7037 93.5915 25.7042H95.0101C95.0264 25.7038 95.0424 25.6997 95.0569 25.692C95.0713 25.6844 95.0838 25.6736 95.0933 25.6603C95.1029 25.647 95.1092 25.6317 95.1118 25.6156C95.1144 25.5995 95.1132 25.583 95.1083 25.5674C95.1083 25.5674 94.8496 23.6717 94.638 22.3496C94.4264 21.0265 93.1469 20.6578 93.172 20.6686ZM118.666 23.3924C118.656 23.3815 118.644 23.3728 118.631 23.3667C118.618 23.3607 118.604 23.3574 118.589 23.3572C118.551 23.3501 118.532 23.3704 118.513 23.3924C118.318 23.6145 118.068 23.8149 117.769 23.9862C117.48 24.1555 117.15 24.2442 116.815 24.2432C116.061 24.2432 115.471 24.0008 115.061 23.5227C114.647 23.0433 114.437 22.2998 114.437 21.3112C114.437 20.3117 114.646 19.5645 115.061 19.0908C115.471 18.6189 116.06 18.3799 116.815 18.3799C117.126 18.3799 117.435 18.456 117.733 18.6047C118.032 18.7509 118.297 18.9574 118.512 19.2114C118.522 19.2222 118.534 19.231 118.547 19.2372C118.561 19.2434 118.575 19.247 118.59 19.2476C118.605 19.2477 118.619 19.2445 118.633 19.2384C118.646 19.2322 118.658 19.2233 118.667 19.2121L119.563 18.1706C119.58 18.15 119.589 18.1235 119.588 18.0964C119.587 18.0692 119.576 18.0435 119.557 18.0244C119.194 17.6627 118.774 17.363 118.314 17.1373C117.85 16.9118 117.324 16.7967 116.75 16.7967C116.257 16.7967 115.771 16.881 115.306 17.0455C114.834 17.2145 114.406 17.4867 114.052 17.8422C113.689 18.2041 113.394 18.6744 113.175 19.2408C112.957 19.8062 112.846 20.503 112.846 21.3105C112.846 22.1075 112.957 22.7982 113.175 23.3623C113.394 23.9304 113.689 24.401 114.052 24.7629C114.405 25.1192 114.834 25.3912 115.306 25.5589C115.771 25.7238 116.257 25.8078 116.75 25.8078C117.337 25.8078 117.869 25.6933 118.331 25.4678C118.795 25.2396 119.216 24.9331 119.575 24.5618C119.594 24.5422 119.605 24.5163 119.606 24.4891C119.606 24.4619 119.597 24.4354 119.579 24.4149L118.668 23.3921L118.666 23.3924ZM125.943 23.3924C125.934 23.3815 125.922 23.3728 125.909 23.3667C125.896 23.3607 125.882 23.3574 125.867 23.3572C125.848 23.3518 125.81 23.3704 125.791 23.3927C125.6 23.6108 125.351 23.8095 125.049 23.9859C124.759 24.1551 124.429 24.2437 124.094 24.2425C123.341 24.2425 122.751 24.0005 122.339 23.5224C121.924 23.0403 121.715 22.2968 121.715 21.3105C121.715 20.3138 121.924 19.5665 122.339 19.0902C122.75 18.6189 123.341 18.3792 124.094 18.3792C124.405 18.3792 124.713 18.4554 125.012 18.604C125.311 18.75 125.576 18.9566 125.79 19.2107C125.799 19.2221 125.811 19.2312 125.825 19.2375C125.838 19.2437 125.853 19.247 125.867 19.2469H125.868C125.897 19.2469 125.925 19.2344 125.945 19.2114L126.841 18.1699C126.858 18.1493 126.868 18.1228 126.867 18.0957C126.866 18.0687 126.855 18.0429 126.835 18.0237C126.472 17.6621 126.052 17.3624 125.593 17.1366C125.127 16.9111 124.6 16.796 124.029 16.796C123.535 16.796 123.048 16.8803 122.583 17.0449C122.111 17.2142 121.684 17.4863 121.33 17.8415C120.966 18.2035 120.671 18.6737 120.453 19.2402C120.235 19.8079 120.124 20.5047 120.124 21.3098C120.124 22.1041 120.235 22.7945 120.453 23.3612C120.671 23.9294 120.966 24.4003 121.33 24.7619C121.683 25.1178 122.111 25.3899 122.583 25.5582C123.048 25.7228 123.535 25.8067 124.029 25.8067C124.614 25.8067 125.146 25.6923 125.608 25.4668C126.072 25.2388 126.493 24.9323 126.853 24.5608C126.872 24.5412 126.883 24.5153 126.883 24.4882C126.884 24.461 126.874 24.4346 126.856 24.4142L125.944 23.391V23.3924H125.943ZM110.128 22.8023C110.128 23.1056 110.07 23.3531 109.958 23.5363C109.845 23.7219 109.689 23.877 109.502 23.9879C109.3 24.1069 109.077 24.1876 108.845 24.226C108.586 24.2723 108.332 24.2933 108.07 24.2933C107.477 24.2933 107.035 24.1786 106.757 23.9524C106.482 23.7286 106.35 23.2258 106.35 22.8507C106.35 22.4779 106.479 21.9887 106.745 21.7886C107.019 21.5831 107.419 21.4788 107.935 21.4788H110.129V22.8019L110.128 22.8023ZM111.719 19.6789C111.719 19.1227 111.625 18.6507 111.437 18.2779C111.251 17.9052 110.993 17.6052 110.67 17.3885C110.355 17.1735 109.98 17.0198 109.557 16.9291C109.127 16.8399 108.688 16.7955 108.249 16.7967C107.668 16.7967 107.118 16.8949 106.612 17.0892C106.102 17.2876 105.68 17.5812 105.357 17.9614C105.341 17.9814 105.332 18.007 105.332 18.0332C105.333 18.0594 105.343 18.0844 105.361 18.1036L106.239 19.0573C106.249 19.068 106.261 19.0765 106.275 19.0822C106.288 19.0879 106.302 19.0907 106.317 19.0905C106.331 19.09 106.346 19.0864 106.359 19.08C106.372 19.0736 106.384 19.0645 106.393 19.0533C106.574 18.8352 106.811 18.6615 107.099 18.5366C107.388 18.4093 107.796 18.345 108.307 18.345C108.956 18.345 109.429 18.455 109.714 18.6714C109.992 18.883 110.129 19.2012 110.129 19.6451V20.0883H107.598C107.135 20.0883 106.726 20.1611 106.386 20.3039C106.041 20.4468 105.751 20.6422 105.522 20.8832C105.293 21.126 105.116 21.413 105.002 21.7266C104.885 22.0415 104.826 22.5896 104.826 22.938C104.826 23.7076 105.095 24.5608 105.628 25.0595C106.157 25.5565 106.921 25.8074 107.901 25.8074C108.485 25.8074 108.992 25.7228 109.406 25.5582C109.711 25.4374 109.953 25.2857 110.128 25.1103L110.304 25.5975C110.304 25.6564 110.35 25.7035 110.407 25.7035H111.794C111.821 25.703 111.848 25.6916 111.867 25.6718C111.887 25.6519 111.897 25.6252 111.897 25.5975C111.897 25.5975 111.721 25.0172 111.721 24.2209L111.719 19.6789ZM160.418 16.8844H159.249C159.215 16.8844 159.184 16.901 159.165 16.9291L156.047 21.4422L154.982 23.0393V16.9904C154.982 16.9627 154.971 16.936 154.952 16.9162C154.933 16.8964 154.907 16.8849 154.879 16.8844H153.493C153.466 16.885 153.439 16.8965 153.42 16.9163C153.401 16.9361 153.39 16.9627 153.39 16.9904V25.5975C153.39 25.6252 153.401 25.6518 153.42 25.6716C153.439 25.6913 153.466 25.7027 153.493 25.7031H154.827C154.844 25.7032 154.86 25.6991 154.875 25.6912C154.89 25.6832 154.902 25.6718 154.912 25.6578L158.897 19.7426V25.5975C158.897 25.6561 158.943 25.7031 159 25.7031H160.418C160.475 25.7031 160.521 25.6557 160.521 25.5975V16.9907C160.521 16.9629 160.51 16.9362 160.491 16.9164C160.472 16.8965 160.445 16.885 160.418 16.8844ZM150.306 20.6686C150.665 20.4776 151.329 19.8784 151.554 19.098L152.089 17.0225C152.094 17.0067 152.096 16.99 152.093 16.9736C152.09 16.9573 152.084 16.9418 152.074 16.9284C152.065 16.9151 152.052 16.9042 152.038 16.8966C152.024 16.8891 152.008 16.885 151.992 16.8847H150.605C150.583 16.8849 150.562 16.8924 150.544 16.9059C150.526 16.9195 150.513 16.9384 150.507 16.9599C150.507 16.9599 150.161 18.5833 149.989 19.0197C149.818 19.4562 149.382 19.8513 149.126 20.0084C149.001 20.0862 148.862 20.1374 148.717 20.1587C148.57 20.181 148.416 20.1919 148.259 20.1919H146.91V16.9904C146.91 16.9626 146.9 16.9359 146.88 16.9161C146.861 16.8962 146.834 16.8848 146.807 16.8844H145.421C145.394 16.8849 145.367 16.8964 145.348 16.9162C145.329 16.936 145.318 16.9627 145.318 16.9904V25.5975C145.318 25.6561 145.364 25.7031 145.421 25.7031H146.807C146.82 25.703 146.834 25.7002 146.847 25.6948C146.859 25.6894 146.871 25.6816 146.88 25.6718C146.89 25.6619 146.897 25.6503 146.902 25.6376C146.908 25.6249 146.91 25.6112 146.91 25.5975V21.5661H148.444C148.702 21.5661 150.192 21.7551 150.324 22.8263L150.626 25.6266C150.631 25.6486 150.644 25.6681 150.662 25.6821C150.68 25.6961 150.702 25.7038 150.725 25.7042H152.143C152.159 25.704 152.175 25.7 152.19 25.6925C152.204 25.685 152.216 25.6741 152.226 25.6608C152.235 25.6474 152.242 25.6321 152.244 25.6159C152.247 25.5997 152.246 25.5831 152.241 25.5674C152.241 25.5674 151.982 23.6717 151.77 22.3496C151.559 21.0265 150.28 20.6578 150.306 20.6686ZM143.565 16.8844H142.395C142.378 16.8844 142.362 16.8884 142.347 16.8962C142.333 16.904 142.32 16.9153 142.311 16.9291L139.194 21.4422L138.129 23.0413V16.9904C138.129 16.9627 138.119 16.9361 138.099 16.9163C138.08 16.8965 138.054 16.885 138.026 16.8844H136.641C136.613 16.8848 136.587 16.8962 136.568 16.9161C136.548 16.9359 136.538 16.9626 136.538 16.9904V25.5975C136.538 25.6561 136.584 25.7031 136.641 25.7031H137.975C137.992 25.7032 138.008 25.6991 138.023 25.6912C138.038 25.6832 138.05 25.6718 138.06 25.6578L142.043 19.7436V25.5975C142.043 25.6561 142.089 25.7031 142.146 25.7031H143.565C143.621 25.7031 143.668 25.6557 143.668 25.5975V16.9907C143.668 16.963 143.657 16.9364 143.638 16.9165C143.619 16.8966 143.592 16.8851 143.565 16.8844ZM134.666 16.8844H133.281C133.254 16.8848 133.227 16.8962 133.208 16.9161C133.189 16.9359 133.178 16.9626 133.178 16.9904V20.157H129.5V16.9904C129.5 16.9626 129.49 16.9359 129.47 16.9161C129.451 16.8962 129.424 16.8848 129.397 16.8844H128.011C127.984 16.8848 127.957 16.8962 127.938 16.9161C127.918 16.9359 127.908 16.9626 127.908 16.9904V25.5975C127.908 25.6561 127.954 25.7031 128.011 25.7031H129.397C129.41 25.703 129.424 25.7002 129.437 25.6948C129.449 25.6894 129.461 25.6816 129.47 25.6718C129.48 25.6619 129.487 25.6503 129.493 25.6376C129.498 25.6249 129.5 25.6112 129.5 25.5975V21.5143H133.178V25.5982C133.178 25.6568 133.224 25.7038 133.281 25.7038H134.666C134.68 25.7036 134.693 25.7008 134.706 25.6954C134.719 25.69 134.73 25.6821 134.74 25.6723C134.749 25.6625 134.757 25.6509 134.762 25.6382C134.767 25.6255 134.769 25.6119 134.769 25.5982V16.9904C134.769 16.9627 134.759 16.936 134.739 16.9162C134.72 16.8964 134.694 16.8849 134.666 16.8844ZM85.3571 22.3845C85.3571 23.4449 84.4785 24.3045 83.3951 24.3045C82.3113 24.3045 81.4324 23.4449 81.4324 22.3845V20.2501C81.4324 19.1897 82.3113 18.3301 83.3951 18.3301C84.4785 18.3301 85.3571 19.1897 85.3571 20.2501V22.3845ZM83.4015 16.814C81.4442 16.814 79.857 18.3697 79.857 20.288V22.3323C79.857 24.2513 81.4442 25.8074 83.4015 25.8074C85.3591 25.8074 86.946 24.2513 86.946 22.3323V20.288C86.946 18.3694 85.3595 16.814 83.4015 16.814ZM67.8039 24.2243H64.0695C64.2712 23.8495 64.406 23.3904 64.4717 22.8595C64.5448 22.2663 64.6562 21.5086 64.7016 20.6053L64.9 18.3453H67.8046L67.8039 24.2243ZM70.203 24.2243H69.4277V16.99C69.4279 16.9624 69.4173 16.9357 69.398 16.9159C69.3787 16.896 69.3524 16.8846 69.3247 16.884H63.5866C63.5599 16.8845 63.5343 16.8953 63.5151 16.914C63.496 16.9328 63.4848 16.9582 63.4837 16.9849L63.2115 20.6442C63.177 21.1988 63.0917 21.6725 63.0581 22.0652C63.0243 22.4529 62.9715 22.788 62.901 23.0619C62.8296 23.3355 62.7331 23.5569 62.6055 23.7391C62.4812 23.9135 62.3333 24.1068 62.1084 24.2127C61.8836 24.3184 61.284 24.3648 61.284 24.3648C61.2599 24.3693 61.2382 24.3822 61.2227 24.4013C61.2072 24.4203 61.199 24.4442 61.1994 24.4687V27.9397C61.1994 27.9983 61.2454 28.0454 61.3027 28.0454H62.6884C62.7453 28.0454 62.7913 27.998 62.7913 27.9397V25.7035L68.7153 25.7035V27.9397C68.7153 27.9983 68.761 28.0454 68.8182 28.0454H70.2023C70.23 28.045 70.2565 28.0337 70.2759 28.0139C70.2953 27.9941 70.3061 27.9675 70.3059 27.9397V24.3299C70.3061 24.3022 70.2953 24.2755 70.2759 24.2557C70.2565 24.2359 70.23 24.2246 70.2023 24.2243H70.203ZM78.3236 16.884H76.9379C76.9102 16.8846 76.8839 16.896 76.8646 16.9159C76.8453 16.9357 76.8347 16.9624 76.8349 16.99V20.1567H73.157V16.99C73.1573 16.9624 73.1466 16.9357 73.1274 16.9159C73.1081 16.896 73.0818 16.8846 73.0541 16.884H71.6687C71.641 16.8846 71.6147 16.896 71.5954 16.9159C71.5761 16.9357 71.5655 16.9624 71.5657 16.99V25.5968C71.5657 25.6557 71.6115 25.7031 71.6687 25.7031H73.0541C73.0818 25.7026 73.1082 25.6911 73.1275 25.6712C73.1468 25.6513 73.1574 25.6245 73.157 25.5968V21.5143H76.8349V25.5975C76.8349 25.6564 76.881 25.7035 76.9379 25.7035H78.3236C78.3805 25.7035 78.4265 25.6561 78.4265 25.5975V16.99C78.4268 16.9624 78.4162 16.9357 78.3969 16.9159C78.3776 16.896 78.3513 16.8846 78.3236 16.884ZM59.1179 22.3841C59.1179 23.4445 58.2389 24.3042 57.1555 24.3042C56.0717 24.3042 55.1928 23.4445 55.1928 22.3841V20.2498C55.1928 19.1894 56.0717 18.3297 57.1555 18.3297C58.2389 18.3297 59.1179 19.1894 59.1179 20.2498V22.3841ZM57.1623 16.8136C55.2047 16.8136 53.6178 18.3694 53.6178 20.2877V22.3316C53.6178 24.2513 55.2047 25.8067 57.1623 25.8067C59.1199 25.8067 60.7068 24.2513 60.7068 22.3316V20.2877C60.7068 18.369 59.1199 16.8136 57.1623 16.8136ZM103.603 16.8837H97.9878C97.9601 16.8842 97.9337 16.8955 97.9143 16.9154C97.895 16.9353 97.8843 16.962 97.8846 16.9897C97.8846 16.9897 97.9116 20.9757 97.5954 22.6685C97.4695 23.3463 97.4051 23.4415 97.2663 23.6768C97.1316 23.9074 96.9555 24.0777 96.7432 24.1826C96.5083 24.3008 96.2421 24.4159 95.952 24.5263C95.9269 24.5363 95.9066 24.5554 95.8949 24.5797C95.8832 24.604 95.8811 24.6318 95.889 24.6576L96.2594 25.8555C96.2733 25.9002 96.3136 25.929 96.3576 25.929L96.3766 25.9273C96.8248 25.8453 97.2294 25.7089 97.5788 25.5267C97.936 25.3405 98.2421 25.0582 98.4879 24.6847C98.7296 24.3194 98.9185 23.8312 99.0513 23.2353C99.1833 22.6428 99.2744 21.8458 99.3272 20.9994L99.4433 18.3453H102.083V25.5972C102.083 25.6557 102.129 25.7028 102.186 25.7028H103.604C103.618 25.7026 103.631 25.6997 103.644 25.6943C103.656 25.6889 103.668 25.6811 103.677 25.6713C103.687 25.6615 103.694 25.6499 103.7 25.6372C103.705 25.6245 103.707 25.6109 103.707 25.5972V16.9897C103.707 16.962 103.697 16.9354 103.677 16.9155C103.658 16.8957 103.632 16.8842 103.604 16.8837" fill="#EB722E"/>
</g>
</g>
<defs>
<filter id="filter0_d_1_109" x="0.795242" y="0.735268" width="191" height="48" filterUnits="userSpaceOnUse" color-interpolation-filters="sRGB">
<feFlood flood-opacity="0" result="BackgroundImageFix"/>
<feColorMatrix in="SourceAlpha" type="matrix" values="0 0 0 0 0 0 0 0 0 0 0 0 0 0 0 0 0 0 127 0" result="hardAlpha"/>
<feOffset dy="4"/>
<feGaussianBlur stdDeviation="2"/>
<feComposite in2="hardAlpha" operator="out"/>
<feColorMatrix type="matrix" values="0 0 0 0 0 0 0 0 0 0 0 0 0 0 0 0 0 0 0.25 0"/>
<feBlend mode="normal" in2="BackgroundImageFix" result="effect1_dropShadow_1_109"/>
<feBlend mode="normal" in="SourceGraphic" in2="effect1_dropShadow_1_109" result="shape"/>
</filter>
<linearGradient id="paint0_linear_1_109" x1="4.79524" y1="20.7353" x2="187.795" y2="20.7353" gradientUnits="userSpaceOnUse">
<stop stop-color="#1D1D1D"/>
<stop offset="0.5" stop-color="#838383"/>
<stop offset="1" stop-color="#1D1D1D"/>
</linearGradient>
<linearGradient id="paint1_linear_1_109" x1="4.79525" y1="18.8078" x2="138.103" y2="102.148" gradientUnits="userSpaceOnUse">
<stop stop-color="white" stop-opacity="0.2"/>
<stop offset="0.5" stop-color="#CCCCCC"/>
<stop offset="1" stop-color="white" stop-opacity="0.2"/>
</linearGradient>
<clipPath id="clip0_1_109">
<rect x="17.7952" y="6.73527" width="157" height="28" rx="5" fill="white"/>
</clipPath>
</defs>
</svg>
