<svg width="147" height="41" viewBox="0 0 147 41" fill="none" xmlns="http://www.w3.org/2000/svg">
<rect x="0.516222" y="0.984423" width="145.52" height="39.1111" rx="4" fill="#2B2B2B"/>
<rect x="0.516222" y="0.984423" width="145.52" height="39.1111" rx="4" stroke="url(#paint0_linear_1357_602)" stroke-width="0.88889"/>
<g filter="url(#filter0_d_1357_602)">
<path d="M25.1151 20.6374L16.659 20.6377L16.6589 17.2498L25.115 17.2495C25.6089 17.2495 25.9524 17.3366 26.1247 17.4889C26.2971 17.6411 26.4039 17.9234 26.4039 18.3358L26.404 19.5523C26.404 19.9869 26.2972 20.2692 26.1248 20.4214C25.9525 20.5737 25.6091 20.6387 25.1151 20.6387L25.1151 20.6374ZM25.695 14.0554L13.0726 14.0558L13.0731 28.5443L16.6593 28.5442L16.6591 23.8305L23.2681 23.8303L26.4043 28.5439L30.42 28.5437L26.9623 23.808C28.237 23.6167 28.8094 23.2212 29.2815 22.5693C29.7535 21.9175 29.9902 20.8754 29.9901 19.4845L29.9901 18.3982C29.9901 17.5733 29.9039 16.9215 29.7533 16.4219C29.6028 15.9223 29.3456 15.4877 28.9802 15.0974C28.5943 14.7279 28.1647 14.4677 27.6489 14.2934C27.1331 14.1412 26.4887 14.0541 25.695 14.0541L25.695 14.0554Z" fill="white"/>
<path d="M35.4386 24.2636L35.4382 14.0534L31.8474 14.0535L31.8477 24.1766C31.8478 25.0015 31.9122 25.6755 32.0629 26.1752C32.2136 26.6969 32.4712 27.1315 32.8589 27.4997C33.2247 27.8901 33.6548 28.1516 34.1699 28.3038C34.6865 28.4768 35.3303 28.5432 36.1483 28.5432L44.4863 28.5429C45.2822 28.5429 45.9275 28.4778 46.4426 28.3034C46.9591 28.1511 47.3893 27.8909 47.7756 27.4992C48.1413 27.1297 48.3988 26.6951 48.5496 26.1746C48.7002 25.675 48.7865 25.001 48.7865 24.176L48.7862 14.0529L45.1954 14.0531L45.1957 24.2633C45.1957 24.6979 45.089 24.9803 44.9163 25.1325C44.7437 25.2847 44.3998 25.3498 43.9053 25.3498L36.729 25.3501C36.2125 25.3501 35.8686 25.285 35.6974 25.1328C35.5247 24.9806 35.4398 24.6982 35.4398 24.2636L35.4386 24.2636Z" fill="white"/>
<path d="M61.7988 28.5423L61.7984 17.2456L68.5823 17.2454L68.5822 14.0523L51.4393 14.0529L51.4394 17.2459L58.2233 17.2457L58.2237 28.5424L61.7988 28.5423Z" fill="white"/>
<path d="M74.8256 24.262L74.8253 14.0517L71.2345 14.0518L71.2348 24.1749C71.2349 24.9998 71.2994 25.6738 71.45 26.1735C71.6006 26.6953 71.8582 27.1298 72.246 27.4981C72.6117 27.8884 73.0419 28.1499 73.557 28.3021C74.0735 28.4752 74.7174 28.5415 75.5354 28.5415L83.8733 28.5412C84.6693 28.5412 85.3146 28.4761 85.8297 28.3017C86.3462 28.1495 86.7764 27.8892 87.1627 27.4976C87.5284 27.128 87.7859 26.6934 87.9367 26.1729C88.0873 25.6733 88.1736 24.9993 88.1736 24.1743L88.1733 14.0513L84.5825 14.0514L84.5828 24.2616C84.5828 24.6962 84.4761 24.9786 84.3034 25.1308C84.1322 25.2831 83.7869 25.3481 83.2924 25.3482L76.1161 25.3484C75.5996 25.3484 75.2557 25.2834 75.0845 25.1311C74.9118 24.9789 74.8269 24.6966 74.8269 24.262L74.8256 24.262Z" fill="white"/>
<path d="M94.4221 25.3479L94.422 22.7416L102.922 22.7414C103.417 22.7413 103.761 22.8285 103.934 22.9807C104.107 23.133 104.214 23.4153 104.214 23.8278L104.214 24.2624C104.214 24.697 104.107 24.9793 103.934 25.1316C103.763 25.2838 103.417 25.3489 102.922 25.3489L94.4221 25.3492L94.4221 25.3479ZM94.4219 19.8518L94.4218 17.2455L102.058 17.2453C102.575 17.2453 102.919 17.3324 103.091 17.4846C103.263 17.6369 103.348 17.9192 103.348 18.3317L103.348 18.7663C103.348 19.2009 103.262 19.4832 103.091 19.6355C102.919 19.7877 102.574 19.8528 102.058 19.8528L94.4219 19.853L94.4219 19.8518ZM106.923 18.2652L106.923 17.9829C106.923 16.6362 106.579 15.6369 105.89 15.0071C105.202 14.3774 104.103 14.0508 102.639 14.0509L90.8264 14.0513L90.8269 28.5411L103.482 28.5406C104.945 28.5406 106.044 28.2361 106.733 27.6063C107.421 26.9765 107.766 25.9772 107.766 24.6305L107.766 24.326C107.765 22.9793 107.421 22.023 106.732 21.4583C106.604 21.3711 106.475 21.3061 106.344 21.241C106.215 21.1759 105.889 21.0888 105.653 21.0016C106.126 20.7414 106.45 20.3939 106.643 20.0023C106.816 19.6106 106.923 19.0251 106.923 18.2639L106.923 18.2652Z" fill="white"/>
<path d="M113.191 17.2437L126.134 17.2433L126.134 14.0502L109.603 14.0508L109.604 28.5405L126.134 28.54L126.134 25.3469L113.191 25.3474L113.191 22.8921L124.486 22.8917L124.485 19.6986L113.191 19.699L113.191 17.2437Z" fill="white"/>
<path d="M130.725 14.0505C132.247 14.0505 133.48 12.8169 133.48 11.2953C133.48 9.77373 132.247 8.54026 130.725 8.54031C129.203 8.54036 127.97 9.77391 127.97 11.2955C127.97 12.8171 129.204 14.0506 130.725 14.0505Z" fill="#ED143B"/>
</g>
<defs>
<filter id="filter0_d_1357_602" x="11.0718" y="6.53995" width="124.409" height="24.0044" filterUnits="userSpaceOnUse" color-interpolation-filters="sRGB">
<feFlood flood-opacity="0" result="BackgroundImageFix"/>
<feColorMatrix in="SourceAlpha" type="matrix" values="0 0 0 0 0 0 0 0 0 0 0 0 0 0 0 0 0 0 127 0" result="hardAlpha"/>
<feOffset/>
<feGaussianBlur stdDeviation="1"/>
<feComposite in2="hardAlpha" operator="out"/>
<feColorMatrix type="matrix" values="0 0 0 0 0 0 0 0 0 0 0 0 0 0 0 0 0 0 1 0"/>
<feBlend mode="normal" in2="BackgroundImageFix" result="effect1_dropShadow_1357_602"/>
<feBlend mode="normal" in="SourceGraphic" in2="effect1_dropShadow_1357_602" result="shape"/>
</filter>
<linearGradient id="paint0_linear_1357_602" x1="0.0717807" y1="18.6125" x2="118.725" y2="77.9593" gradientUnits="userSpaceOnUse">
<stop stop-color="white" stop-opacity="0.2"/>
<stop offset="0.5" stop-color="#CCCCCC"/>
<stop offset="1" stop-color="white" stop-opacity="0.2"/>
</linearGradient>
</defs>
</svg>
