<svg width="51" height="40" viewBox="0 0 51 40" fill="none" xmlns="http://www.w3.org/2000/svg">
<rect x="1.27835" y="0.293974" width="49.4121" height="39.4121" rx="4.70603" fill="url(#paint0_linear_1314_547)" fill-opacity="0.8"/>
<rect x="1.27835" y="0.293974" width="49.4121" height="39.4121" rx="4.70603" stroke="url(#paint1_linear_1314_547)" stroke-width="0.587948"/>
<path d="M12.1884 25V15.13H13.3364L17.2284 23.894H16.8084L20.7004 15.13H21.8344V25H20.6444V16.866H21.0784L17.4244 25H16.5984L12.9444 16.866H13.3784V25H12.1884ZM24.247 25V15.13L28.335 15.13C29.3896 15.13 30.197 15.382 30.757 15.886C31.317 16.39 31.597 17.0853 31.597 17.972C31.597 18.8587 31.317 19.5587 30.757 20.072C30.197 20.576 29.3896 20.828 28.335 20.828H25.549V25H24.247ZM25.549 19.764H28.209C28.8996 19.764 29.4223 19.61 29.777 19.302C30.1316 18.9847 30.309 18.5413 30.309 17.972C30.309 17.4027 30.1316 16.964 29.777 16.656C29.4223 16.348 28.8996 16.194 28.209 16.194H25.549V19.764ZM37.5228 25V22.914H32.8888V21.976L37.7328 15.13H38.7968V21.878H40.2808V22.914H38.7968V25H37.5228ZM37.5228 21.878V16.67H37.8448L33.9388 22.186V21.878H37.5228Z" fill="#191919"/>
<defs>
<linearGradient id="paint0_linear_1314_547" x1="23.4105" y1="39.1462" x2="21.4956" y2="-0.00934709" gradientUnits="userSpaceOnUse">
<stop stop-color="#696969"/>
<stop offset="0.5" stop-color="white"/>
<stop offset="1" stop-color="#696969"/>
</linearGradient>
<linearGradient id="paint1_linear_1314_547" x1="0.984376" y1="18.0725" x2="50.2067" y2="26.4803" gradientUnits="userSpaceOnUse">
<stop stop-color="white" stop-opacity="0.2"/>
<stop offset="0.5" stop-color="#CCCCCC"/>
<stop offset="1" stop-color="white" stop-opacity="0.2"/>
</linearGradient>
</defs>
</svg>
