<svg width="50" height="40" viewBox="0 0 50 40" fill="none" xmlns="http://www.w3.org/2000/svg">
<rect x="0.293974" y="0.293974" width="49.412" height="39.412" rx="4.70603" fill="url(#paint0_linear_1314_535)"/>
<rect x="0.293974" y="0.293974" width="49.412" height="39.412" rx="4.70603" stroke="url(#paint1_linear_1314_535)" stroke-width="0.587948"/>
<path d="M9.84 20.058C9.84 19.022 10.022 18.126 10.386 17.37C10.75 16.614 11.2727 16.0307 11.954 15.62C12.6447 15.2093 13.466 15.004 14.418 15.004C15.3607 15.004 16.1727 15.2093 16.854 15.62C17.5447 16.0307 18.0767 16.614 18.45 17.37C18.8233 18.126 19.01 19.0173 19.01 20.044C19.01 21.08 18.8233 21.9807 18.45 22.746C18.0767 23.502 17.5447 24.09 16.854 24.51C16.1727 24.9207 15.3607 25.126 14.418 25.126C13.466 25.126 12.6493 24.9207 11.968 24.51C11.2867 24.09 10.7593 23.502 10.386 22.746C10.022 21.9807 9.84 21.0847 9.84 20.058ZM11.212 20.058C11.212 21.29 11.4827 22.2513 12.024 22.942C12.5653 23.6327 13.3633 23.978 14.418 23.978C15.4353 23.978 16.224 23.6373 16.784 22.956C17.3533 22.2653 17.638 21.2993 17.638 20.058C17.638 18.8167 17.358 17.8553 16.798 17.174C16.238 16.4927 15.4447 16.152 14.418 16.152C13.3633 16.152 12.5653 16.4927 12.024 17.174C11.4827 17.8553 11.212 18.8167 11.212 20.058ZM25.6511 25.126C24.5685 25.126 23.6585 24.9253 22.9211 24.524C22.1838 24.1133 21.6285 23.53 21.2551 22.774C20.8911 22.018 20.7091 21.1173 20.7091 20.072C20.7091 19.0267 20.9051 18.126 21.2971 17.37C21.6891 16.614 22.2491 16.0307 22.9771 15.62C23.7145 15.2093 24.5965 15.004 25.6231 15.004C26.3418 15.004 26.9671 15.1067 27.4991 15.312C28.0311 15.5173 28.5071 15.816 28.9271 16.208L28.4371 17.244C28.1385 16.9827 27.8491 16.7727 27.5691 16.614C27.2891 16.4553 26.9951 16.3433 26.6871 16.278C26.3885 16.2033 26.0338 16.166 25.6231 16.166C24.4751 16.166 23.5978 16.5067 22.9911 17.188C22.3845 17.8693 22.0811 18.8353 22.0811 20.086C22.0811 21.3553 22.3751 22.3213 22.9631 22.984C23.5511 23.6467 24.4658 23.978 25.7071 23.978C26.1458 23.978 26.5751 23.936 26.9951 23.852C27.4151 23.768 27.8165 23.6467 28.1991 23.488L27.9331 24.146V20.8L25.4551 20.8V19.792H29.0531V24.412C28.6331 24.6267 28.1151 24.7993 27.4991 24.93C26.8831 25.0607 26.2671 25.126 25.6511 25.126ZM35.9187 25.126C34.8361 25.126 33.9261 24.9253 33.1887 24.524C32.4514 24.1133 31.8961 23.53 31.5227 22.774C31.1587 22.018 30.9767 21.1173 30.9767 20.072C30.9767 19.0267 31.1727 18.126 31.5647 17.37C31.9567 16.614 32.5167 16.0307 33.2447 15.62C33.9821 15.2093 34.8641 15.004 35.8907 15.004C36.6094 15.004 37.2347 15.1067 37.7667 15.312C38.2987 15.5173 38.7747 15.816 39.1947 16.208L38.7047 17.244C38.4061 16.9827 38.1167 16.7727 37.8367 16.614C37.5567 16.4553 37.2627 16.3433 36.9547 16.278C36.6561 16.2033 36.3014 16.166 35.8907 16.166C34.7427 16.166 33.8654 16.5067 33.2587 17.188C32.6521 17.8693 32.3487 18.8353 32.3487 20.086C32.3487 21.3553 32.6427 22.3213 33.2307 22.984C33.8187 23.6467 34.7334 23.978 35.9747 23.978C36.4134 23.978 36.8427 23.936 37.2627 23.852C37.6827 23.768 38.0841 23.6467 38.4667 23.488L38.2007 24.146V20.8H35.7227V19.792H39.3207V24.412C38.9007 24.6267 38.3827 24.7993 37.7667 24.93C37.1507 25.0607 36.5347 25.126 35.9187 25.126Z" fill="white"/>
<defs>
<linearGradient id="paint0_linear_1314_535" x1="29.6317" y1="41.1763" x2="29.4152" y2="-0.106017" gradientUnits="userSpaceOnUse">
<stop stop-color="#08466B"/>
<stop offset="0.5" stop-color="#71BDEB"/>
<stop offset="1" stop-color="#08466B"/>
</linearGradient>
<linearGradient id="paint1_linear_1314_535" x1="1.14682e-06" y1="18.0725" x2="49.2223" y2="26.4803" gradientUnits="userSpaceOnUse">
<stop stop-color="white" stop-opacity="0.2"/>
<stop offset="0.5" stop-color="#CCCCCC"/>
<stop offset="1" stop-color="white" stop-opacity="0.2"/>
</linearGradient>
</defs>
</svg>
