<svg width="89" height="41" viewBox="0 0 89 41" fill="none" xmlns="http://www.w3.org/2000/svg">
<rect x="0.925036" y="0.984453" width="87.1111" height="39.1111" rx="4" fill="#2B2B2B"/>
<rect x="0.925036" y="0.984453" width="87.1111" height="39.1111" rx="4" stroke="url(#paint0_linear_1357_618)" stroke-width="0.88889"/>
<g clip-path="url(#clip0_1357_618)">
<mask id="mask0_1357_618" style="mask-type:luminance" maskUnits="userSpaceOnUse" x="13" y="6" width="63" height="30">
<path d="M75.3795 6.04001H13.5985V35.04H75.3795V6.04001Z" fill="white"/>
</mask>
<g mask="url(#mask0_1357_618)">
<path fill-rule="evenodd" clip-rule="evenodd" d="M58.7507 20.5739C58.7507 18.0131 57.0322 16.1985 54.5219 16.1985C51.9947 16.1985 50.2763 17.9961 50.2763 20.5739C50.2763 23.0839 51.9947 24.9154 54.5219 24.9154C57.0154 24.9154 58.7507 23.0839 58.7507 20.5739ZM54.5219 27.6798C50.529 27.6798 47.3279 24.661 47.3279 20.5739C47.3279 16.5037 50.5458 13.4341 54.5219 13.4341C58.4811 13.4341 61.6991 16.5037 61.6991 20.5739C61.6991 24.661 58.4811 27.6798 54.5219 27.6798ZM63.1143 13.9938C63.1143 13.7733 63.2322 13.6377 63.4681 13.6377H65.692C65.911 13.6377 66.0458 13.7564 66.0458 13.9938V19.3698L71.0159 13.8412C71.1507 13.6885 71.2855 13.6377 71.4877 13.6377H74.6888C74.9078 13.6377 74.9246 13.8581 74.7898 14.0108L68.5561 20.3534L75.1268 27.1371C75.2616 27.2897 75.2447 27.5102 75.0257 27.5102H71.8583C71.5888 27.5102 71.5214 27.4423 71.3697 27.3236L66.0458 21.4558V27.154C66.0458 27.3745 65.9279 27.5102 65.692 27.5102H63.4681C63.2491 27.5102 63.1143 27.3915 63.1143 27.154V13.9938Z" fill="#FF7700"/>
<path d="M13.8175 19.9804C13.8175 13.4681 13.8175 10.195 15.8224 8.17685C17.8441 6.15872 21.0789 6.15872 27.5485 6.15872H28.6941C35.1637 6.15872 38.4153 6.15872 40.4202 8.17685C42.4251 10.195 42.4251 13.4681 42.4251 19.9804V21.1336C42.4251 27.6459 42.4251 30.919 40.4202 32.9371C38.4153 34.9552 35.1637 34.9552 28.6941 34.9552H27.5485C21.0789 34.9552 17.8273 34.9552 15.8224 32.9371C13.8175 30.919 13.8175 27.6628 13.8175 21.1336V19.9804Z" fill="#FF7700"/>
<path d="M28.1214 20.4891C29.5197 20.4891 30.7833 19.9125 31.6931 18.9967C32.6029 18.0809 33.1757 16.809 33.1757 15.4014C33.1757 13.9938 32.6029 12.7219 31.6931 11.8061C30.7833 10.8903 29.5197 10.3137 28.1214 10.3137C26.723 10.3137 25.4594 10.8903 24.5496 11.8061C23.6398 12.7219 23.067 13.9938 23.067 15.4014C23.067 16.809 23.6398 18.0809 24.5496 18.9967C25.4594 19.9125 26.7398 20.4891 28.1214 20.4891ZM26.504 13.7564C26.9252 13.3324 27.498 13.078 28.1214 13.078C28.7616 13.078 29.3344 13.3324 29.7388 13.7564C30.16 14.1804 30.4127 14.757 30.4127 15.3844C30.4127 16.0289 30.16 16.6055 29.7388 17.0125C29.3176 17.4365 28.7447 17.6909 28.1214 17.6909C27.4811 17.6909 26.9083 17.4365 26.504 17.0125C26.0828 16.5885 25.8301 16.0119 25.8301 15.3844C25.8301 14.757 26.0996 14.1804 26.504 13.7564Z" fill="white"/>
<path d="M34.9278 22.5412L33.4452 20.5061C33.361 20.3874 33.1925 20.3704 33.0914 20.4722C31.693 21.6763 29.9746 22.4564 28.1213 22.4564C26.268 22.4564 24.5496 21.6763 23.1512 20.4722C23.0501 20.3874 22.8816 20.4043 22.7974 20.5061L21.3148 22.5412C21.2474 22.6429 21.2642 22.7786 21.3485 22.8634C22.5952 23.881 24.0441 24.5763 25.5604 24.9324L22.4267 30.495C22.3425 30.6476 22.4604 30.8511 22.6289 30.8511H25.6952C25.7963 30.8511 25.8805 30.8002 25.9142 30.6985L28.1045 25.7804L30.2947 30.6985C30.3284 30.7833 30.4126 30.8511 30.5137 30.8511H33.58C33.7653 30.8511 33.8664 30.6646 33.7822 30.495L30.6485 24.9324C32.1648 24.5763 33.6137 23.8979 34.8604 22.8634C34.9952 22.7786 35.0121 22.6429 34.9278 22.5412Z" fill="white"/>
</g>
</g>
<defs>
<linearGradient id="paint0_linear_1357_618" x1="0.480593" y1="18.6125" x2="82.2494" y2="43.1947" gradientUnits="userSpaceOnUse">
<stop stop-color="white" stop-opacity="0.2"/>
<stop offset="0.5" stop-color="#CCCCCC"/>
<stop offset="1" stop-color="white" stop-opacity="0.2"/>
</linearGradient>
<clipPath id="clip0_1357_618">
<rect width="62" height="29" fill="white" transform="translate(13.4806 6.04001)"/>
</clipPath>
</defs>
</svg>
