<svg width="50" height="40" viewBox="0 0 50 40" fill="none" xmlns="http://www.w3.org/2000/svg">
<rect x="0.293974" y="0.293974" width="49.4121" height="39.4121" rx="4.70603" fill="url(#paint0_linear_1357_649)"/>
<rect x="0.293974" y="0.293974" width="49.4121" height="39.4121" rx="4.70603" stroke="url(#paint1_linear_1357_649)" stroke-width="0.587948"/>
<path d="M20.0557 25H17.8545L16.9795 22.7236H12.9736L12.1465 25H10L13.9033 14.9785H16.043L20.0557 25ZM16.3301 21.0352L14.9492 17.3164L13.5957 21.0352H16.3301ZM30.1729 25H27.9717L27.0967 22.7236H23.0908L22.2637 25H20.1172L24.0205 14.9785H26.1602L30.1729 25ZM26.4473 21.0352L25.0664 17.3164L23.7129 21.0352H26.4473ZM37.3096 21.3154L39.2715 21.9375C38.9707 23.0312 38.4694 23.8447 37.7676 24.3779C37.0703 24.9066 36.1839 25.1709 35.1084 25.1709C33.7777 25.1709 32.6839 24.7174 31.8271 23.8105C30.9704 22.8991 30.542 21.6549 30.542 20.0781C30.542 18.4102 30.9727 17.1159 31.834 16.1953C32.6953 15.2702 33.8278 14.8076 35.2314 14.8076C36.4574 14.8076 37.4531 15.1699 38.2188 15.8945C38.6745 16.3229 39.0163 16.9382 39.2441 17.7402L37.2412 18.2188C37.1227 17.6992 36.8743 17.2891 36.4961 16.9883C36.1224 16.6875 35.6667 16.5371 35.1289 16.5371C34.3861 16.5371 33.7822 16.8037 33.3174 17.3369C32.8571 17.8701 32.627 18.7337 32.627 19.9277C32.627 21.1947 32.8548 22.097 33.3105 22.6348C33.7663 23.1725 34.3587 23.4414 35.0879 23.4414C35.6257 23.4414 36.0882 23.2705 36.4756 22.9287C36.863 22.5869 37.141 22.0492 37.3096 21.3154Z" fill="white"/>
<defs>
<linearGradient id="paint0_linear_1357_649" x1="29.6317" y1="41.1763" x2="29.4152" y2="-0.106017" gradientUnits="userSpaceOnUse">
<stop stop-color="#08466B"/>
<stop offset="0.5" stop-color="#71BDEB"/>
<stop offset="1" stop-color="#08466B"/>
</linearGradient>
<linearGradient id="paint1_linear_1357_649" x1="1.14682e-06" y1="18.0725" x2="49.2223" y2="26.4803" gradientUnits="userSpaceOnUse">
<stop stop-color="white" stop-opacity="0.2"/>
<stop offset="0.5" stop-color="#CCCCCC"/>
<stop offset="1" stop-color="white" stop-opacity="0.2"/>
</linearGradient>
</defs>
</svg>
