<svg width="106" height="41" viewBox="0 0 106 41" fill="none" xmlns="http://www.w3.org/2000/svg">
<rect x="1.14513" y="0.984453" width="103.611" height="39.1111" rx="4" fill="#2B2B2B"/>
<rect x="1.14513" y="0.984453" width="103.611" height="39.1111" rx="4" stroke="url(#paint0_linear_1357_611)" stroke-width="0.88889"/>
<path d="M17.8667 26.54L21.8667 30.04L87.8667 29.54V18.54L84.3667 15.04H80.1167V11.54H71.8667L69.8667 15.04L62.3667 16.54V14.54L58.3667 15.04V11.54H53.3667H46.8667L45.3667 15.04H35.8667H28.8667L24.3667 11.54H18.3667L17.8667 26.54Z" fill="#D9D9D9"/>
<path fill-rule="evenodd" clip-rule="evenodd" d="M88.2507 18.1739V29.6464L81.8987 34.0404H77.9937V32.0874L75.0642 34.0404H71.6467V32.0874L69.4497 34.0404H63.1032L61.1507 32.0874L60.6622 34.0404L55.0602 34.0254L52.8512 32.0874L52.6072 34.0404L46.2607 34.0254L46.0167 32.0874L44.3082 34.0254L34.5442 34.0404L32.5912 33.0639V34.0404H27.2207L21.3622 30.3789L17.7007 26.7174V10.6074H25.2677L28.9292 14.2689H45.5282V10.6074H59.1982V14.2689H62.6157V16.2219L64.5687 14.2689H68.7187L72.3802 10.6074H80.1912V14.2689H84.3412L88.2507 18.1739ZM27.2207 15.9769H23.8032V12.3154H19.4092V25.9854L22.0942 28.9144H27.2207V24.2764H23.8032V20.3714H27.2207V15.9769ZM45.5282 15.9769H41.1342V24.2769H39.4257V15.9769H35.2757V24.2769H33.5672V15.9769H28.9292V28.9144H42.5992L45.5282 25.9854V15.9769ZM51.3867 15.9769H47.2367V28.9144H51.3867V15.9769ZM51.3867 12.3154H47.2367V14.2684H51.3867V12.3154ZM60.9067 15.9769H57.4892V12.3154H53.0957V25.9854L55.7807 28.9144H60.9057V24.2764H57.4882V20.3714H60.9057L60.9067 15.9769ZM72.1352 15.9769H65.3007L62.6157 18.6619V25.9854L65.5447 28.9144H72.1347V24.2764H67.2527V20.3714H72.1347L72.1352 15.9769ZM86.5372 18.6619L83.6082 15.9769H78.4822V12.3154H73.8442V28.9144H78.4822V20.3704H81.8997V28.9139H86.5377L86.5372 18.6619Z" fill="#6441A4"/>
<defs>
<linearGradient id="paint0_linear_1357_611" x1="0.700686" y1="18.6125" x2="94.6085" y2="52.1375" gradientUnits="userSpaceOnUse">
<stop stop-color="white" stop-opacity="0.2"/>
<stop offset="0.5" stop-color="#CCCCCC"/>
<stop offset="1" stop-color="white" stop-opacity="0.2"/>
</linearGradient>
</defs>
</svg>
