<svg width="144" height="41" viewBox="0 0 144 41" fill="none" xmlns="http://www.w3.org/2000/svg">
<rect x="0.314033" y="0.854042" width="143.372" height="39.3719" rx="7.43867" fill="#2B2B2B"/>
<rect x="0.314033" y="0.854042" width="143.372" height="39.3719" rx="7.43867" stroke="url(#paint0_linear_1357_586)" stroke-width="0.628067"/>
<path d="M52.4235 26.2927H49.4233L45.1543 14.293H47.3659L50.7777 24.1821H51.1206L54.6523 14.293H56.8297L52.4235 26.2927Z" fill="white"/>
<path d="M62.5417 20.0801L68.0965 26.2927H65.3877L60.8616 21.1524H60.3472V26.2927H58.2899V14.293H60.3472V19.178H60.8444L65.1305 14.293H67.6679L62.5417 20.0801Z" fill="white"/>
<path d="M79.8991 20.1312C80.5506 20.3241 81.0592 20.6702 81.425 21.1694C81.8022 21.6574 81.9908 22.2474 81.9908 22.9396C81.9908 23.5977 81.825 24.1821 81.4936 24.6927C81.1621 25.192 80.6992 25.5835 80.1049 25.8672C79.5105 26.1509 78.8248 26.2927 78.0475 26.2927H72.9899V14.293H77.7047C78.4704 14.293 79.1505 14.4349 79.7448 14.7186C80.3392 14.9909 80.8021 15.3767 81.1335 15.876C81.465 16.3752 81.6307 16.9369 81.6307 17.561C81.6307 18.1624 81.4764 18.6901 81.1678 19.144C80.8592 19.5978 80.4363 19.9269 79.8991 20.1312ZM75.0473 16.0802V19.3652H77.7047C78.2533 19.3652 78.699 19.2177 79.0419 18.9227C79.3848 18.6163 79.5563 18.2192 79.5563 17.7312C79.5563 17.2433 79.3848 16.8462 79.0419 16.5398C78.699 16.2334 78.2533 16.0802 77.7047 16.0802H75.0473ZM78.0475 24.5055C78.5847 24.5055 79.0248 24.3523 79.3677 24.0459C79.7106 23.7282 79.882 23.3197 79.882 22.8205C79.882 22.3325 79.7106 21.9354 79.3677 21.629C79.0248 21.3113 78.5847 21.1524 78.0475 21.1524H75.0473V24.5055H78.0475Z" fill="white"/>
<path d="M86.6632 26.2927H83.8686V17.4419H85.7545V24.0119H86.0288L89.3548 17.4419H92.1494V26.2927H90.2635V19.7227H89.9892L86.6632 26.2927Z" fill="white"/>
<path d="M93.44 28.9309V24.5055H93.6629C94.5773 24.5055 95.1145 23.6601 95.2745 21.9694L95.7203 17.4419H102.252V24.5055H103.795V28.9309H101.824V26.2927H95.4117V28.9309H93.44ZM100.281 24.5055V19.2291H97.5376L97.2633 21.9354C97.1947 22.6275 97.0975 23.1722 96.9718 23.5694C96.8461 23.9665 96.6689 24.2786 96.4403 24.5055H100.281Z" fill="white"/>
<path d="M113.741 21.7652C113.741 21.9354 113.73 22.1453 113.707 22.3949H106.541C106.632 23.0871 106.918 23.6431 107.398 24.063C107.878 24.4715 108.49 24.6757 109.232 24.6757C109.735 24.6757 110.187 24.5793 110.587 24.3864C110.998 24.1935 111.313 23.9325 111.53 23.6034L113.381 23.9098C113.061 24.7268 112.507 25.3565 111.718 25.7991C110.941 26.2416 110.073 26.4629 109.112 26.4629C108.221 26.4629 107.421 26.27 106.712 25.8842C106.015 25.487 105.466 24.9424 105.066 24.2502C104.678 23.5467 104.483 22.7524 104.483 21.8673C104.483 20.9822 104.678 20.1936 105.066 19.5014C105.466 18.7979 106.015 18.2532 106.712 17.8674C107.421 17.4702 108.221 17.2717 109.112 17.2717C110.004 17.2717 110.798 17.4702 111.496 17.8674C112.204 18.2532 112.753 18.7922 113.141 19.4844C113.541 20.1652 113.741 20.9255 113.741 21.7652ZM109.112 18.9738C108.518 18.9738 107.998 19.144 107.552 19.4844C107.118 19.8248 106.821 20.2844 106.661 20.8631H111.598C111.427 20.2957 111.118 19.8418 110.673 19.5014C110.238 19.1496 109.718 18.9738 109.112 18.9738Z" fill="white"/>
<path d="M119.53 26.4629C118.615 26.4629 117.792 26.27 117.061 25.8842C116.341 25.487 115.775 24.9424 115.364 24.2502C114.963 23.5467 114.763 22.7524 114.763 21.8673C114.763 20.9822 114.963 20.1936 115.364 19.5014C115.775 18.7979 116.341 18.2532 117.061 17.8674C117.792 17.4702 118.615 17.2717 119.53 17.2717C120.444 17.2717 121.261 17.4702 121.981 17.8674C122.713 18.2532 123.279 18.7979 123.679 19.5014C124.09 20.1936 124.296 20.9822 124.296 21.8673C124.296 22.7524 124.09 23.5467 123.679 24.2502C123.279 24.9424 122.713 25.487 121.981 25.8842C121.261 26.27 120.444 26.4629 119.53 26.4629ZM119.53 24.6757C120.33 24.6757 120.981 24.4204 121.484 23.9098C121.987 23.3878 122.238 22.707 122.238 21.8673C122.238 21.0276 121.987 20.3524 121.484 19.8418C120.981 19.3198 120.33 19.0589 119.53 19.0589C118.73 19.0589 118.078 19.3198 117.575 19.8418C117.072 20.3524 116.821 21.0276 116.821 21.8673C116.821 22.707 117.072 23.3878 117.575 23.9098C118.078 24.4204 118.73 24.6757 119.53 24.6757Z" fill="white"/>
<path d="M13 19.8127C13 14.3815 13 11.6671 14.6995 9.97989C16.3989 8.29269 19.133 8.29269 24.6037 8.29269H25.5707C31.0413 8.29269 33.7754 8.29269 35.4749 9.97989C37.1744 11.6671 37.1744 14.3815 37.1744 19.8127V20.7727C37.1744 26.2039 37.1744 28.9183 35.4749 30.6055C33.7754 32.2927 31.0413 32.2927 25.5707 32.2927H24.6037C19.133 32.2927 16.3989 32.2927 14.6995 30.6055C13 28.9183 13 26.2039 13 20.7727V19.8127Z" fill="#0077FF"/>
<path d="M27.1009 8.29269C22.6359 8.30709 20.2596 8.45589 18.7269 9.97749C17.0275 11.6647 17.0275 14.3791 17.0275 19.8103V20.7703C17.0275 26.2015 17.0275 28.9159 18.7269 30.6031C20.2596 32.1247 22.6359 32.2735 27.1009 32.2879C31.5659 32.2735 33.9423 32.1247 35.4749 30.6031C37.1744 28.9159 37.1744 26.2015 37.1744 20.7703V19.8103C37.1744 14.3791 37.1744 11.6647 35.4749 9.97749C33.9423 8.45829 31.5659 8.30949 27.1009 8.29269Z" fill="#FF2B42"/>
<path d="M30.0574 18.1591C31.2806 18.8599 31.8898 19.2103 32.0953 19.6663C32.2742 20.0647 32.2742 20.5207 32.0953 20.9191C31.8898 21.3775 31.2782 21.7255 30.0574 22.4263L26.7093 24.3463C25.4861 25.0471 24.8769 25.3975 24.374 25.3447C23.9365 25.2991 23.54 25.0711 23.2814 24.7183C22.984 24.3127 22.984 23.6119 22.984 22.2127V18.3727C22.984 16.9711 22.984 16.2703 23.2814 15.8671C23.54 15.5143 23.9365 15.2863 24.374 15.2407C24.8744 15.1879 25.4861 15.5383 26.7093 16.2391L30.0574 18.1591Z" fill="white"/>
<defs>
<linearGradient id="paint0_linear_1357_586" x1="3.30284e-06" y1="18.6125" x2="117.468" y2="76.4" gradientUnits="userSpaceOnUse">
<stop stop-color="white" stop-opacity="0.2"/>
<stop offset="0.5" stop-color="#CCCCCC"/>
<stop offset="1" stop-color="white" stop-opacity="0.2"/>
</linearGradient>
</defs>
</svg>
