<svg width="51" height="40" viewBox="0 0 51 40" fill="none" xmlns="http://www.w3.org/2000/svg">
<rect x="1.27835" y="0.293974" width="49.4121" height="39.4121" rx="4.70603" fill="url(#paint0_linear_1314_553)" fill-opacity="0.8"/>
<rect x="1.27835" y="0.293974" width="49.4121" height="39.4121" rx="4.70603" stroke="url(#paint1_linear_1314_553)" stroke-width="0.587948"/>
<path d="M7.18838 25V15.13H8.33638L12.2284 23.894H11.8084L15.7004 15.13H16.8344V25H15.6444V16.866H16.0784L12.4244 25H11.5984L7.94438 16.866H8.37838V25H7.18838ZM19.247 25V15.13L23.335 15.13C24.3896 15.13 25.197 15.382 25.757 15.886C26.317 16.39 26.597 17.0853 26.597 17.972C26.597 18.8587 26.317 19.5587 25.757 20.072C25.197 20.576 24.3896 20.828 23.335 20.828H20.549V25H19.247ZM20.549 19.764H23.209C23.8996 19.764 24.4223 19.61 24.777 19.302C25.1316 18.9847 25.309 18.5413 25.309 17.972C25.309 17.4027 25.1316 16.964 24.777 16.656C24.4223 16.348 23.8996 16.194 23.209 16.194H20.549V19.764ZM28.4208 25V15.13H34.8048V16.194H29.6808V19.456H34.4828V20.52H29.6808V23.936H34.8048V25H28.4208ZM41.2156 25.126C40.1329 25.126 39.2229 24.9253 38.4856 24.524C37.7483 24.1133 37.1929 23.53 36.8196 22.774C36.4556 22.018 36.2736 21.1173 36.2736 20.072C36.2736 19.0267 36.4696 18.126 36.8616 17.37C37.2536 16.614 37.8136 16.0307 38.5416 15.62C39.2789 15.2093 40.1609 15.004 41.1876 15.004C41.9063 15.004 42.5316 15.1067 43.0636 15.312C43.5956 15.5173 44.0716 15.816 44.4916 16.208L44.0016 17.244C43.7029 16.9827 43.4136 16.7727 43.1336 16.614C42.8536 16.4553 42.5596 16.3433 42.2516 16.278C41.9529 16.2033 41.5983 16.166 41.1876 16.166C40.0396 16.166 39.1623 16.5067 38.5556 17.188C37.9489 17.8693 37.6456 18.8353 37.6456 20.086C37.6456 21.3553 37.9396 22.3213 38.5276 22.984C39.1156 23.6467 40.0303 23.978 41.2716 23.978C41.7103 23.978 42.1396 23.936 42.5596 23.852C42.9796 23.768 43.3809 23.6467 43.7636 23.488L43.4976 24.146V20.8H41.0196V19.792H44.6176V24.412C44.1976 24.6267 43.6796 24.7993 43.0636 24.93C42.4476 25.0607 41.8316 25.126 41.2156 25.126Z" fill="#191919"/>
<defs>
<linearGradient id="paint0_linear_1314_553" x1="23.4105" y1="39.1462" x2="21.4956" y2="-0.00934709" gradientUnits="userSpaceOnUse">
<stop stop-color="#696969"/>
<stop offset="0.5" stop-color="white"/>
<stop offset="1" stop-color="#696969"/>
</linearGradient>
<linearGradient id="paint1_linear_1314_553" x1="0.984376" y1="18.0725" x2="50.2067" y2="26.4803" gradientUnits="userSpaceOnUse">
<stop stop-color="white" stop-opacity="0.2"/>
<stop offset="0.5" stop-color="#CCCCCC"/>
<stop offset="1" stop-color="white" stop-opacity="0.2"/>
</linearGradient>
</defs>
</svg>
