<svg width="50" height="40" viewBox="0 0 50 40" fill="none" xmlns="http://www.w3.org/2000/svg">
<rect x="0.293974" y="0.293974" width="49.4121" height="39.4121" rx="4.70603" fill="url(#paint0_linear_1357_638)" fill-opacity="0.8"/>
<rect x="0.293974" y="0.293974" width="49.4121" height="39.4121" rx="4.70603" stroke="url(#paint1_linear_1357_638)" stroke-width="0.587948"/>
<path d="M4.94043 25L2.54785 14.9785H4.61914L6.12988 21.8623L7.96191 14.9785H10.3682L12.125 21.9785L13.6631 14.9785H15.7002L13.2666 25H11.1201L9.12402 17.5078L7.13477 25H4.94043ZM16.7393 25V14.9785H24.1699V16.6738H18.7627V18.8955H23.7939V20.584H18.7627V23.3115H24.3613V25H16.7393ZM26.084 14.9785H30.0898C30.8828 14.9785 31.473 15.0127 31.8604 15.0811C32.2523 15.1449 32.6009 15.2816 32.9062 15.4912C33.2161 15.7008 33.4736 15.9811 33.6787 16.332C33.8838 16.6784 33.9863 17.068 33.9863 17.501C33.9863 17.9704 33.8587 18.401 33.6035 18.793C33.3529 19.1849 33.0111 19.4788 32.5781 19.6748C33.1888 19.8525 33.6582 20.1556 33.9863 20.584C34.3145 21.0124 34.4785 21.516 34.4785 22.0947C34.4785 22.5505 34.3714 22.9948 34.1572 23.4277C33.9476 23.8561 33.6582 24.2002 33.2891 24.46C32.9245 24.7152 32.4733 24.8724 31.9355 24.9316C31.5983 24.9681 30.7848 24.9909 29.4951 25H26.084V14.9785ZM28.1074 16.6465V18.9639H29.4336C30.222 18.9639 30.7119 18.9525 30.9033 18.9297C31.2497 18.8887 31.5208 18.7702 31.7168 18.5742C31.9173 18.3737 32.0176 18.1117 32.0176 17.7881C32.0176 17.4782 31.931 17.2275 31.7578 17.0361C31.5892 16.8402 31.3363 16.7217 30.999 16.6807C30.7985 16.6579 30.222 16.6465 29.2695 16.6465H28.1074ZM28.1074 20.6318V23.3115H29.9805C30.7096 23.3115 31.1722 23.291 31.3682 23.25C31.6689 23.1953 31.9128 23.0632 32.0996 22.8535C32.291 22.6393 32.3867 22.3545 32.3867 21.999C32.3867 21.6982 32.3138 21.443 32.168 21.2334C32.0221 21.0238 31.8102 20.8711 31.5322 20.7754C31.2588 20.6797 30.6618 20.6318 29.7412 20.6318H28.1074ZM36.167 25V14.9785H39.1953L41.0137 21.8145L42.8115 14.9785H45.8467V25H43.9668V17.1113L41.9775 25H40.0293L38.0469 17.1113V25H36.167Z" fill="#191919"/>
<defs>
<linearGradient id="paint0_linear_1357_638" x1="22.4261" y1="39.1462" x2="20.5112" y2="-0.00934709" gradientUnits="userSpaceOnUse">
<stop stop-color="#696969"/>
<stop offset="0.5" stop-color="white"/>
<stop offset="1" stop-color="#696969"/>
</linearGradient>
<linearGradient id="paint1_linear_1357_638" x1="1.14682e-06" y1="18.0725" x2="49.2223" y2="26.4803" gradientUnits="userSpaceOnUse">
<stop stop-color="white" stop-opacity="0.2"/>
<stop offset="0.5" stop-color="#CCCCCC"/>
<stop offset="1" stop-color="white" stop-opacity="0.2"/>
</linearGradient>
</defs>
</svg>
