<svg width="50" height="40" viewBox="0 0 50 40" fill="none" xmlns="http://www.w3.org/2000/svg">
<rect x="0.293974" y="0.293974" width="49.4121" height="39.4121" rx="4.70603" fill="url(#paint0_linear_1357_634)" fill-opacity="0.8"/>
<rect x="0.293974" y="0.293974" width="49.4121" height="39.4121" rx="4.70603" stroke="url(#paint1_linear_1357_634)" stroke-width="0.587948"/>
<path d="M9.99121 25V14.9785H13.0195L14.8379 21.8145L16.6357 14.9785H19.6709V25H17.791V17.1113L15.8018 25H13.8535L11.8711 17.1113V25H9.99121ZM21.708 25V14.9785H23.7314V19.4287L27.8193 14.9785H30.54L26.7666 18.8818L30.7451 25H28.127L25.3721 20.2969L23.7314 21.9717V25H21.708ZM34.3545 25L30.7725 14.9785H32.9668L35.5029 22.3955L37.957 14.9785H40.1035L36.5146 25H34.3545Z" fill="#191919"/>
<defs>
<linearGradient id="paint0_linear_1357_634" x1="22.4261" y1="39.1462" x2="20.5112" y2="-0.00934709" gradientUnits="userSpaceOnUse">
<stop stop-color="#696969"/>
<stop offset="0.5" stop-color="white"/>
<stop offset="1" stop-color="#696969"/>
</linearGradient>
<linearGradient id="paint1_linear_1357_634" x1="1.14682e-06" y1="18.0725" x2="49.2223" y2="26.4803" gradientUnits="userSpaceOnUse">
<stop stop-color="white" stop-opacity="0.2"/>
<stop offset="0.5" stop-color="#CCCCCC"/>
<stop offset="1" stop-color="white" stop-opacity="0.2"/>
</linearGradient>
</defs>
</svg>
