<svg width="156" height="49" viewBox="0 0 156 49" fill="none" xmlns="http://www.w3.org/2000/svg">
<g filter="url(#filter0_d_1_91)">
<rect x="4.66395" y="0.434002" width="146.409" height="40" rx="4.44445" fill="url(#paint0_linear_1_91)" fill-opacity="0.36" shape-rendering="crispEdges"/>
<rect x="5.1084" y="0.878447" width="145.52" height="39.1111" rx="4" stroke="url(#paint1_linear_1_91)" stroke-width="0.88889" shape-rendering="crispEdges"/>
<g clip-path="url(#clip0_1_91)">
<path d="M29.7073 20.5314L21.2512 20.5317L21.2511 17.1438L29.7072 17.1435C30.2011 17.1435 30.5446 17.2307 30.7169 17.3829C30.8893 17.5351 30.9961 17.8174 30.9961 18.2299L30.9962 19.4463C30.9962 19.8809 30.8894 20.1632 30.717 20.3155C30.5447 20.4677 30.2013 20.5327 29.7073 20.5328L29.7073 20.5314ZM30.2872 13.9494L17.6648 13.9498L17.6653 28.4383L21.2515 28.4382L21.2513 23.7245L27.8603 23.7243L30.9965 28.4379L35.0122 28.4378L31.5545 23.7021C32.8293 23.5108 33.4016 23.1152 33.8737 22.4634C34.3457 21.8115 34.5824 20.7694 34.5823 19.3786L34.5823 18.2922C34.5823 17.4673 34.4961 16.8155 34.3455 16.3159C34.195 15.8163 33.9378 15.3818 33.5724 14.9915C33.1866 14.622 32.7569 14.3618 32.2411 14.1874C31.7253 14.0352 31.0809 13.9481 30.2872 13.9481L30.2872 13.9494Z" fill="white"/>
<path d="M40.0308 24.1577L40.0305 13.9474L36.4396 13.9475L36.44 24.0706C36.44 24.8956 36.5044 25.5696 36.6551 26.0692C36.8058 26.591 37.0634 27.0255 37.4511 27.3938C37.8169 27.7841 38.247 28.0456 38.7622 28.1979C39.2787 28.3709 39.9226 28.4372 40.7405 28.4372L49.0785 28.4369C49.8744 28.4369 50.5197 28.3718 51.0348 28.1974C51.5513 28.0452 51.9815 27.7849 52.3678 27.3933C52.7335 27.0237 52.9911 26.5891 53.1419 26.0687C53.2925 25.569 53.3788 24.895 53.3788 24.0701L53.3784 13.947L49.7876 13.9471L49.7879 24.1574C49.788 24.592 49.6812 24.8743 49.5086 25.0265C49.3359 25.1788 48.9921 25.2439 48.4976 25.2439L41.3212 25.2441C40.8047 25.2441 40.4608 25.1791 40.2896 25.0268C40.1169 24.8746 40.032 24.5923 40.032 24.1577L40.0308 24.1577Z" fill="white"/>
<path d="M66.3909 28.4364L66.3906 17.1396L73.1744 17.1394L73.1743 13.9463L56.0315 13.9469L56.0316 17.14L62.8155 17.1397L62.8158 28.4365L66.3909 28.4364Z" fill="white"/>
<path d="M79.4179 24.156L79.4176 13.9457L75.8267 13.9459L75.8271 24.0689C75.8271 24.8939 75.8916 25.5679 76.0422 26.0675C76.1929 26.5893 76.4504 27.0239 76.8382 27.3921C77.2039 27.7824 77.6341 28.0439 78.1492 28.1962C78.6658 28.3692 79.3097 28.4355 80.1276 28.4355L88.4656 28.4352C89.2615 28.4352 89.9068 28.3701 90.4219 28.1958C90.9384 28.0435 91.3686 27.7833 91.7549 27.3916C92.1206 27.0221 92.3782 26.5874 92.529 26.067C92.6796 25.5673 92.7659 24.8933 92.7658 24.0684L92.7655 13.9453L89.1747 13.9454L89.175 24.1557C89.175 24.5903 89.0683 24.8726 88.8957 25.0248C88.7245 25.1771 88.3791 25.2422 87.8847 25.2422L80.7083 25.2424C80.1918 25.2424 79.8479 25.1774 79.6767 25.0252C79.504 24.8729 79.4191 24.5906 79.4191 24.156L79.4179 24.156Z" fill="white"/>
<path d="M99.0143 25.2419L99.0142 22.6357L107.514 22.6354C108.009 22.6354 108.354 22.7225 108.526 22.8748C108.699 23.027 108.806 23.3093 108.806 23.7218L108.806 24.1564C108.806 24.591 108.699 24.8734 108.526 25.0256C108.355 25.1779 108.009 25.2429 107.514 25.2429L99.0143 25.2432L99.0143 25.2419ZM99.0141 19.7458L99.014 17.1395L106.65 17.1393C107.167 17.1393 107.511 17.2265 107.683 17.3787C107.855 17.5309 107.941 17.8133 107.941 18.2257L107.941 18.6603C107.941 19.0949 107.854 19.3773 107.683 19.5295C107.511 19.6817 107.166 19.7468 106.65 19.7468L99.0141 19.7471L99.0141 19.7458ZM111.515 18.1593L111.515 17.8769C111.515 16.5302 111.171 15.5309 110.482 14.9012C109.794 14.2714 108.695 13.9449 107.231 13.9449L95.4186 13.9453L95.4191 28.4351L108.074 28.4347C109.537 28.4346 110.636 28.1301 111.325 27.5003C112.014 26.8705 112.358 25.8712 112.358 24.5245L112.358 24.22C112.358 22.8734 112.013 21.917 111.325 21.3523C111.196 21.2651 111.067 21.2001 110.936 21.135C110.808 21.07 110.481 20.9828 110.245 20.8956C110.719 20.6354 111.042 20.288 111.236 19.8963C111.408 19.5046 111.515 18.9191 111.515 18.158L111.515 18.1593Z" fill="white"/>
<path d="M117.783 17.1377L130.726 17.1373L130.726 13.9442L114.195 13.9448L114.196 28.4346L130.726 28.434L130.726 25.241L117.783 25.2414L117.783 22.7861L129.078 22.7857L129.078 19.5927L117.783 19.593L117.783 17.1377Z" fill="white"/>
<path d="M135.317 13.9445C136.839 13.9445 138.072 12.7109 138.072 11.1894C138.072 9.66775 136.839 8.43429 135.317 8.43434C133.796 8.43439 132.562 9.66794 132.562 11.1895C132.562 12.7111 133.796 13.9446 135.317 13.9445Z" fill="#ED143B"/>
</g>
</g>
<defs>
<filter id="filter0_d_1_91" x="0.663954" y="0.434002" width="154.409" height="48" filterUnits="userSpaceOnUse" color-interpolation-filters="sRGB">
<feFlood flood-opacity="0" result="BackgroundImageFix"/>
<feColorMatrix in="SourceAlpha" type="matrix" values="0 0 0 0 0 0 0 0 0 0 0 0 0 0 0 0 0 0 127 0" result="hardAlpha"/>
<feOffset dy="4"/>
<feGaussianBlur stdDeviation="2"/>
<feComposite in2="hardAlpha" operator="out"/>
<feColorMatrix type="matrix" values="0 0 0 0 0 0 0 0 0 0 0 0 0 0 0 0 0 0 0.25 0"/>
<feBlend mode="normal" in2="BackgroundImageFix" result="effect1_dropShadow_1_91"/>
<feBlend mode="normal" in="SourceGraphic" in2="effect1_dropShadow_1_91" result="shape"/>
</filter>
<linearGradient id="paint0_linear_1_91" x1="4.66395" y1="20.434" x2="151.073" y2="20.434" gradientUnits="userSpaceOnUse">
<stop stop-color="#1D1D1D"/>
<stop offset="0.5" stop-color="#838383"/>
<stop offset="1" stop-color="#1D1D1D"/>
</linearGradient>
<linearGradient id="paint1_linear_1_91" x1="4.66396" y1="18.5065" x2="123.317" y2="77.8533" gradientUnits="userSpaceOnUse">
<stop stop-color="white" stop-opacity="0.2"/>
<stop offset="0.5" stop-color="#CCCCCC"/>
<stop offset="1" stop-color="white" stop-opacity="0.2"/>
</linearGradient>
<clipPath id="clip0_1_91">
<rect width="120.408" height="20" fill="white" transform="translate(17.664 8.43795)"/>
</clipPath>
</defs>
</svg>
