<svg width="59" height="48" viewBox="0 0 59 48" fill="none" xmlns="http://www.w3.org/2000/svg">
<g filter="url(#filter0_d_1_75)">
<rect x="4.54141" y="-0.000808716" width="50" height="40" rx="5" fill="url(#paint0_linear_1_75)" fill-opacity="0.8" shape-rendering="crispEdges"/>
<rect x="4.83539" y="0.293165" width="49.412" height="39.412" rx="4.70603" stroke="url(#paint1_linear_1_75)" stroke-width="0.587948" shape-rendering="crispEdges"/>
<path d="M13.7454 24.9992V15.1292H17.0914C18.1927 15.1292 19.1214 15.3205 19.8774 15.7032C20.6427 16.0859 21.2214 16.6459 21.6134 17.3832C22.0054 18.1112 22.2014 19.0025 22.2014 20.0572C22.2014 21.1119 22.0054 22.0079 21.6134 22.7452C21.2214 23.4825 20.6427 24.0425 19.8774 24.4252C19.1214 24.8079 18.1927 24.9992 17.0914 24.9992H13.7454ZM15.0474 23.8932H16.9934C18.3094 23.8932 19.2847 23.5759 19.9194 22.9412C20.5541 22.3065 20.8714 21.3452 20.8714 20.0572C20.8714 18.7692 20.5541 17.8125 19.9194 17.1872C19.2847 16.5525 18.3094 16.2352 16.9934 16.2352H15.0474V23.8932ZM24.2454 24.9992V15.1292H25.5474V24.9992H24.2454ZM31.0588 24.9992L26.7328 15.1292H28.1468L31.9128 23.9212H31.4368L35.2168 15.1292H36.5748L32.2208 24.9992H31.0588ZM36.4415 24.9992L40.4175 19.7072V20.2112L36.6095 15.1292H38.1495L41.1875 19.2732H40.7815L43.7775 15.1292L45.3315 15.1292L41.5235 20.2112V19.7072L45.4995 24.9992H43.9455L40.7255 20.6032H41.2155L37.9815 24.9992H36.4415Z" fill="#191919"/>
</g>
<defs>
<filter id="filter0_d_1_75" x="0.541412" y="-0.000808716" width="58" height="48" filterUnits="userSpaceOnUse" color-interpolation-filters="sRGB">
<feFlood flood-opacity="0" result="BackgroundImageFix"/>
<feColorMatrix in="SourceAlpha" type="matrix" values="0 0 0 0 0 0 0 0 0 0 0 0 0 0 0 0 0 0 127 0" result="hardAlpha"/>
<feOffset dy="4"/>
<feGaussianBlur stdDeviation="2"/>
<feComposite in2="hardAlpha" operator="out"/>
<feColorMatrix type="matrix" values="0 0 0 0 0 0 0 0 0 0 0 0 0 0 0 0 0 0 0.25 0"/>
<feBlend mode="normal" in2="BackgroundImageFix" result="effect1_dropShadow_1_75"/>
<feBlend mode="normal" in="SourceGraphic" in2="effect1_dropShadow_1_75" result="shape"/>
</filter>
<linearGradient id="paint0_linear_1_75" x1="26.9675" y1="39.1454" x2="25.0526" y2="-0.0101558" gradientUnits="userSpaceOnUse">
<stop stop-color="#696969"/>
<stop offset="0.5" stop-color="white"/>
<stop offset="1" stop-color="#696969"/>
</linearGradient>
<linearGradient id="paint1_linear_1_75" x1="4.54141" y1="18.0717" x2="53.7637" y2="26.4795" gradientUnits="userSpaceOnUse">
<stop stop-color="white" stop-opacity="0.2"/>
<stop offset="0.5" stop-color="#CCCCCC"/>
<stop offset="1" stop-color="white" stop-opacity="0.2"/>
</linearGradient>
</defs>
</svg>
