<svg width="126" height="41" viewBox="0 0 126 41" fill="none" xmlns="http://www.w3.org/2000/svg">
<rect x="0.514717" y="0.854042" width="124.966" height="39.3719" rx="4.68597" fill="#2B2B2B"/>
<rect x="0.514717" y="0.854042" width="124.966" height="39.3719" rx="4.68597" stroke="url(#paint0_linear_1357_576)" stroke-width="0.628067"/>
<mask id="mask0_1357_576" style="mask-type:luminance" maskUnits="userSpaceOnUse" x="13" y="8" width="95" height="25">
<path d="M13.2007 8.29269H107.995V32.7873H13.2007V8.29269Z" fill="white"/>
</mask>
<g mask="url(#mask0_1357_576)">
<path d="M53.259 26.6863H50.1639L45.7593 14.2148H48.041L51.5614 24.4924H51.915L55.559 14.2154H57.8056L53.2596 26.6869L53.259 26.6863ZM63.6994 20.2297L69.4311 26.6863H66.6362L61.9659 21.3439H61.4352V26.6863H59.3123V14.2148H61.4352V19.292H61.9483L66.3705 14.2148H68.9883L63.7 20.2291L63.6994 20.2297ZM74.4801 26.6863V14.2148H78.9024C79.7515 14.2148 80.5177 14.3975 81.2023 14.7631C81.8976 15.1173 82.4403 15.6122 82.8297 16.2491C83.2184 16.8859 83.4131 17.6113 83.4131 18.4253C83.4131 19.2267 83.2184 19.9521 82.8297 20.6009C82.4403 21.2378 81.8976 21.739 81.2023 22.1045C80.5177 22.4581 79.7515 22.6352 78.9024 22.6352H76.603V26.6863H74.4801ZM78.9024 20.6895C79.5983 20.6895 80.1585 20.4829 80.5831 20.0702C81.0189 19.6456 81.2375 19.0967 81.2375 18.4247C81.2375 17.7527 81.0189 17.21 80.5831 16.798C80.1585 16.3728 79.5983 16.1605 78.9024 16.1605H76.603V20.6889H78.9024V20.6895ZM87.1363 26.6863H85.102V14.2148H87.1363V26.6863ZM93.2725 17.3105C94.452 17.3105 95.3778 17.6823 96.0498 18.4247C96.7338 19.1564 97.0761 20.1883 97.0761 21.5211V26.6863H95.5725L95.1479 25.2354C94.8885 25.6719 94.5048 26.0551 93.9979 26.3854C93.4911 26.7039 92.8894 26.8628 92.1935 26.8628C91.5805 26.8628 91.0259 26.739 90.531 26.4916C90.0624 26.2577 89.6698 25.8958 89.3986 25.4477C89.1273 24.9999 88.9916 24.4931 88.9916 23.9265C88.9916 23.0535 89.3339 22.3583 90.0179 21.8395C90.7138 21.3088 91.7218 21.0431 93.0427 21.0431H95.0242C94.9765 20.4301 94.7881 19.9465 94.4577 19.5923C94.1393 19.2267 93.709 19.044 93.1664 19.044C92.7299 19.044 92.353 19.1507 92.0346 19.3624C91.7162 19.5747 91.48 19.8341 91.3268 20.1412L89.4514 19.8228C89.6756 19.044 90.136 18.431 90.8312 17.9825C91.5391 17.5347 92.353 17.3105 93.2725 17.3105ZM92.6715 25.1469C93.3787 25.1469 93.9508 24.917 94.3873 24.4573C94.8232 23.9975 95.0418 23.3896 95.0418 22.6352H93.1136C91.7338 22.6352 91.0435 23.0359 91.0435 23.838C91.0435 24.2393 91.1911 24.5571 91.4863 24.7933C91.7809 25.0294 92.1759 25.1469 92.6715 25.1469ZM105.483 17.4876H107.552L103.784 27.8363C103.466 28.7086 103.053 29.3399 102.546 29.7286C102.051 30.118 101.385 30.3127 100.547 30.3127H99.15L98.9729 28.4549H100.689C101.03 28.4549 101.29 28.3783 101.467 28.225C101.656 28.0837 101.815 27.83 101.945 27.4644L102.051 27.1818L97.9642 17.4876H100.14L102.847 24.1212H103.13L105.483 17.4876Z" fill="white"/>
<path d="M25.9624 8.29269C31.4982 8.29269 34.266 8.29269 35.9807 10.0073C37.6953 11.7219 37.6953 14.4898 37.6953 20.0256V21.0544C37.6953 26.5902 37.6953 29.3581 35.9807 31.0727C34.266 32.7873 31.4982 32.7873 25.9624 32.7873H24.9336C19.3978 32.7873 16.6299 32.7873 14.9153 31.0727C13.2007 29.3581 13.2007 26.5902 13.2007 21.055V20.025C13.2007 14.4892 13.2007 11.7219 14.9153 10.0073C16.6299 8.29269 19.3978 8.29269 24.9336 8.29269H25.9624Z" fill="#0077FF"/>
<path d="M13.2744 15.1763C13.2009 16.4978 13.2009 18.0906 13.2009 20.025V21.0538C13.2009 22.5235 13.2009 23.7733 13.2254 24.8749C16.4342 26.4438 20.7453 27.3985 25.4482 27.3985C30.1512 27.3985 34.4622 26.4438 37.671 24.8756C37.6955 23.7733 37.6955 22.4996 37.6955 21.055V20.0263C37.6955 18.0918 37.6955 16.499 37.622 15.1525H13.2744V15.1763Z" fill="#0009B4"/>
<path d="M30.2247 22.9895C31.5099 22.9895 32.5517 21.9476 32.5517 20.6625C32.5517 19.3773 31.5099 18.3355 30.2247 18.3355C28.9395 18.3355 27.8977 19.3773 27.8977 20.6625C27.8977 21.9476 28.9395 22.9895 30.2247 22.9895Z" stroke="white" stroke-width="2.44758"/>
<path d="M23.4887 23.4794L18.0999 18.0905M23.4887 18.0905L18.0999 23.4794" stroke="white" stroke-width="2.44758"/>
</g>
<defs>
<linearGradient id="paint0_linear_1357_576" x1="0.200686" y1="18.6125" x2="107.665" y2="64.7212" gradientUnits="userSpaceOnUse">
<stop stop-color="white" stop-opacity="0.2"/>
<stop offset="0.5" stop-color="#CCCCCC"/>
<stop offset="1" stop-color="white" stop-opacity="0.2"/>
</linearGradient>
</defs>
</svg>
