<svg width="184" height="41" viewBox="0 0 184 41" fill="none" xmlns="http://www.w3.org/2000/svg">
<rect x="0.925036" y="0.984453" width="182.111" height="39.1111" rx="4" fill="#2B2B2B"/>
<rect x="0.925036" y="0.984453" width="182.111" height="39.1111" rx="4" stroke="url(#paint0_linear_1357_618)" stroke-width="0.88889"/>
<g clip-path="url(#clip0_1357_618)">
<path d="M34.752 11.1125C36.367 11.1125 37.6806 12.4262 37.6806 14.0412C37.6806 15.6548 36.3666 16.9685 34.752 16.9685C33.138 16.9685 31.824 15.6548 31.824 14.0412C31.8237 12.4258 33.1383 11.1125 34.752 11.1125ZM34.752 21.1119C38.653 21.1119 41.8254 17.9405 41.8254 14.0412C41.8254 10.1398 38.6533 6.96707 34.752 6.96707C30.8513 6.96707 27.6786 10.1402 27.6786 14.0412C27.6786 17.9405 30.8513 21.1119 34.752 21.1119ZM37.6136 26.8815C39.0687 26.5501 40.4573 25.9751 41.7208 25.1808C42.1859 24.8882 42.5157 24.4228 42.6377 23.8869C42.7597 23.3511 42.6638 22.7888 42.3712 22.3236C42.2264 22.0931 42.0377 21.8933 41.8157 21.7358C41.5937 21.5783 41.3428 21.466 41.0774 21.4055C40.8121 21.345 40.5373 21.3375 40.269 21.3832C40.0007 21.429 39.744 21.5272 39.5136 21.6722C36.6158 23.4941 32.8861 23.4927 29.9907 21.6722C29.7603 21.5271 29.5037 21.4289 29.2354 21.3831C28.9671 21.3374 28.6924 21.3449 28.427 21.4054C28.1616 21.4659 27.9107 21.5782 27.6888 21.7357C27.4668 21.8933 27.2781 22.0931 27.1335 22.3236C26.8407 22.7886 26.7447 23.3509 26.8665 23.8867C26.9883 24.4225 27.3179 24.888 27.7828 25.1808C29.0462 25.9748 30.4346 26.5498 31.8894 26.8815L27.9352 30.8363C27.5466 31.225 27.3284 31.7522 27.3285 32.3018C27.3285 32.8515 27.547 33.3786 27.9357 33.7672C28.3244 34.1557 28.8516 34.374 29.4012 34.3739C29.9509 34.3738 30.478 34.1554 30.8665 33.7666L34.7513 29.8812L38.6384 33.767C38.8306 33.9595 39.0589 34.1122 39.3101 34.2163C39.5614 34.3205 39.8307 34.3742 40.1028 34.3742C40.3748 34.3742 40.6441 34.3205 40.8954 34.2163C41.1466 34.1122 41.3749 33.9595 41.5671 33.767C41.7598 33.5748 41.9128 33.3465 42.0171 33.0951C42.1215 32.8437 42.1752 32.5742 42.1752 32.302C42.1752 32.0298 42.1215 31.7603 42.0171 31.5089C41.9128 31.2575 41.7598 31.0292 41.5671 30.837L37.6136 26.8815ZM88.8573 20.4733C89.2165 20.2824 89.8808 19.6831 90.1059 18.9027L90.6409 16.8273C90.6459 16.8115 90.6471 16.7947 90.6445 16.7784C90.6418 16.762 90.6354 16.7465 90.6256 16.7331C90.6163 16.7198 90.6039 16.7089 90.5895 16.7013C90.575 16.6937 90.559 16.6896 90.5427 16.6895H89.1576C89.1352 16.6896 89.1135 16.697 89.0958 16.7106C89.078 16.7241 89.0651 16.7431 89.0591 16.7646C89.0591 16.7646 88.7131 18.3881 88.5411 18.8245C88.3694 19.2609 87.9333 19.656 87.6777 19.8131C87.5534 19.8909 87.4144 19.9421 87.2694 19.9635C87.1221 19.9858 86.9681 19.9966 86.812 19.9966H85.4621V16.7951C85.4624 16.7674 85.4517 16.7408 85.4324 16.7209C85.4132 16.7011 85.3868 16.6897 85.3592 16.6891H83.9741C83.9464 16.6896 83.9199 16.701 83.9006 16.7208C83.8813 16.7407 83.8705 16.7674 83.8708 16.7951V25.4023C83.8708 25.4608 83.9165 25.5079 83.9741 25.5079H85.3592C85.3729 25.5077 85.3864 25.5048 85.399 25.4994C85.4116 25.494 85.423 25.4862 85.4325 25.4764C85.4421 25.4666 85.4496 25.455 85.4547 25.4423C85.4598 25.4295 85.4623 25.4159 85.4621 25.4023V21.3709H86.9965C87.2542 21.3709 88.7442 21.5598 88.8766 22.6311L89.1779 25.4314C89.1837 25.4533 89.1965 25.4727 89.2144 25.4867C89.2322 25.5007 89.2541 25.5085 89.2768 25.5089H90.6954C90.7117 25.5085 90.7277 25.5044 90.7422 25.4968C90.7566 25.4892 90.7691 25.4783 90.7786 25.465C90.7882 25.4518 90.7945 25.4365 90.7971 25.4203C90.7997 25.4042 90.7985 25.3877 90.7936 25.3721C90.7936 25.3721 90.5349 23.4765 90.3233 22.1543C90.1117 20.8312 88.8322 20.4625 88.8573 20.4733ZM114.351 23.1971C114.341 23.1863 114.33 23.1775 114.316 23.1715C114.303 23.1654 114.289 23.1622 114.274 23.1619C114.236 23.1548 114.218 23.1751 114.198 23.1971C114.003 23.4192 113.753 23.6197 113.455 23.791C113.165 23.9602 112.836 24.049 112.5 24.048C111.746 24.048 111.157 23.8056 110.746 23.3275C110.332 22.8481 110.122 22.1046 110.122 21.1159C110.122 20.1165 110.331 19.3693 110.746 18.8956C111.156 18.4236 111.745 18.1846 112.5 18.1846C112.812 18.1846 113.12 18.2608 113.419 18.4094C113.717 18.5556 113.983 18.7622 114.198 19.0161C114.208 19.027 114.219 19.0357 114.233 19.042C114.246 19.0482 114.26 19.0517 114.275 19.0524C114.29 19.0524 114.304 19.0493 114.318 19.0431C114.331 19.037 114.343 19.028 114.353 19.0168L115.248 17.9754C115.266 17.9547 115.275 17.9282 115.274 17.9011C115.273 17.874 115.261 17.8483 115.242 17.8291C114.879 17.4674 114.459 17.1678 114 16.942C113.535 16.7166 113.009 16.6014 112.436 16.6014C111.942 16.6014 111.456 16.6857 110.991 16.8503C110.519 17.0192 110.091 17.2914 109.738 17.6469C109.374 18.0089 109.079 18.4792 108.861 19.0456C108.642 19.611 108.532 20.3078 108.532 21.1153C108.532 21.9123 108.642 22.6029 108.861 23.167C109.079 23.7351 109.374 24.2057 109.738 24.5677C110.09 24.9239 110.519 25.196 110.991 25.3637C111.456 25.5285 111.942 25.6125 112.436 25.6125C113.022 25.6125 113.554 25.4981 114.016 25.2726C114.48 25.0444 114.901 24.7379 115.26 24.3666C115.279 24.347 115.29 24.321 115.291 24.2938C115.292 24.2666 115.282 24.2401 115.264 24.2196L114.353 23.1968L114.351 23.1971ZM121.629 23.1971C121.619 23.1863 121.607 23.1775 121.594 23.1715C121.581 23.1654 121.567 23.1622 121.552 23.1619C121.534 23.1565 121.495 23.1751 121.476 23.1975C121.286 23.4155 121.036 23.6143 120.734 23.7907C120.444 23.9598 120.115 24.0485 119.779 24.0473C119.026 24.0473 118.436 23.8052 118.024 23.3272C117.61 22.845 117.4 22.1015 117.4 21.1153C117.4 20.1185 117.61 19.3713 118.024 18.8949C118.436 18.4236 119.026 18.1839 119.779 18.1839C120.09 18.1839 120.399 18.2601 120.698 18.4087C120.996 18.5547 121.261 18.7614 121.475 19.0155C121.485 19.0268 121.497 19.036 121.51 19.0422C121.523 19.0485 121.538 19.0517 121.553 19.0517H121.553C121.582 19.0517 121.611 19.0392 121.631 19.0161L122.526 17.9747C122.544 17.9541 122.553 17.9276 122.552 17.9005C122.551 17.8734 122.54 17.8477 122.521 17.8284C122.158 17.4668 121.738 17.1671 121.278 16.9414C120.812 16.7159 120.285 16.6008 119.714 16.6008C119.22 16.6008 118.733 16.6851 118.268 16.8496C117.797 17.0189 117.369 17.291 117.016 17.6463C116.652 18.0082 116.356 18.4785 116.139 19.0449C115.92 19.6127 115.809 20.3095 115.809 21.1146C115.809 21.9089 115.92 22.5992 116.139 23.166C116.356 23.7341 116.651 24.2051 117.016 24.5667C117.368 24.9225 117.796 25.1946 118.268 25.363C118.733 25.5275 119.22 25.6115 119.714 25.6115C120.299 25.6115 120.832 25.4971 121.294 25.2716C121.758 25.0436 122.179 24.7371 122.538 24.3655C122.557 24.346 122.568 24.3201 122.569 24.2929C122.569 24.2658 122.56 24.2394 122.542 24.2189L121.63 23.1958V23.1971H121.629ZM105.813 22.607C105.813 22.9104 105.755 23.1579 105.643 23.341C105.53 23.5266 105.374 23.6817 105.187 23.7927C104.985 23.9116 104.762 23.9923 104.531 24.0307C104.271 24.0771 104.017 24.0981 103.755 24.0981C103.163 24.0981 102.72 23.9833 102.442 23.7571C102.168 23.5333 102.035 23.0306 102.035 22.6554C102.035 22.2827 102.164 21.7934 102.431 21.5933C102.704 21.3878 103.104 21.2835 103.62 21.2835H105.814V22.6067L105.813 22.607ZM107.404 19.4837C107.404 18.9274 107.31 18.4555 107.122 18.0827C106.936 17.7099 106.678 17.41 106.356 17.1933C106.04 16.9783 105.665 16.8246 105.242 16.7338C104.812 16.6447 104.374 16.6003 103.935 16.6014C103.354 16.6014 102.803 16.6996 102.297 16.894C101.788 17.0924 101.365 17.3859 101.043 17.7661C101.026 17.7862 101.017 17.8117 101.018 17.8379C101.018 17.8642 101.029 17.8892 101.047 17.9083L101.925 18.8621C101.935 18.8727 101.947 18.8812 101.96 18.8869C101.973 18.8927 101.987 18.8955 102.002 18.8953C102.017 18.8947 102.031 18.8912 102.044 18.8847C102.057 18.8783 102.069 18.8692 102.078 18.858C102.26 18.64 102.496 18.4663 102.784 18.3414C103.073 18.2141 103.481 18.1497 103.992 18.1497C104.641 18.1497 105.114 18.2598 105.399 18.4761C105.677 18.6877 105.814 19.006 105.814 19.4498V19.893H103.283C102.82 19.893 102.412 19.9658 102.071 20.1087C101.726 20.2516 101.436 20.4469 101.208 20.688C100.979 20.9308 100.801 21.2178 100.687 21.5314C100.57 21.8462 100.511 22.3944 100.511 22.7428C100.511 23.5124 100.781 24.3655 101.313 24.8643C101.842 25.3613 102.606 25.6122 103.586 25.6122C104.17 25.6122 104.677 25.5275 105.091 25.363C105.396 25.2421 105.638 25.0904 105.813 24.9151L105.989 25.4023C105.989 25.4612 106.035 25.5082 106.092 25.5082H107.479C107.507 25.5078 107.533 25.4964 107.553 25.4765C107.572 25.4567 107.583 25.43 107.582 25.4023C107.582 25.4023 107.406 24.8219 107.406 24.0256L107.404 19.4837ZM156.103 16.6891H154.934C154.9 16.6891 154.87 16.7057 154.85 16.7338L151.732 21.247L150.667 22.844V16.7951C150.667 16.7674 150.657 16.7408 150.637 16.7209C150.618 16.7011 150.592 16.6897 150.564 16.6891H149.179C149.151 16.6898 149.125 16.7012 149.105 16.721C149.086 16.7408 149.075 16.7674 149.075 16.7951V25.4023C149.075 25.4299 149.086 25.4565 149.105 25.4763C149.125 25.4961 149.151 25.5074 149.179 25.5079H150.512C150.529 25.5079 150.545 25.5038 150.56 25.4959C150.575 25.488 150.588 25.4765 150.597 25.4625L154.582 19.5473V25.4023C154.582 25.4608 154.628 25.5079 154.685 25.5079H156.103C156.16 25.5079 156.206 25.4605 156.206 25.4023V16.7954C156.207 16.7677 156.196 16.741 156.176 16.7211C156.157 16.7012 156.131 16.6898 156.103 16.6891ZM145.991 20.4733C146.351 20.2824 147.015 19.6831 147.24 18.9027L147.775 16.8273C147.78 16.8115 147.781 16.7947 147.778 16.7784C147.776 16.762 147.769 16.7465 147.759 16.7331C147.75 16.7199 147.738 16.709 147.723 16.7014C147.709 16.6938 147.693 16.6897 147.677 16.6895H146.291C146.268 16.6897 146.247 16.6971 146.229 16.7107C146.211 16.7242 146.199 16.7432 146.193 16.7646C146.193 16.7646 145.847 18.3881 145.675 18.8245C145.503 19.2609 145.067 19.656 144.811 19.8131C144.687 19.891 144.547 19.9422 144.402 19.9635C144.255 19.9858 144.101 19.9966 143.945 19.9966H142.595V16.7951C142.596 16.7674 142.585 16.7407 142.565 16.7208C142.546 16.701 142.52 16.6896 142.492 16.6891H141.107C141.079 16.6897 141.053 16.7011 141.033 16.7209C141.014 16.7408 141.003 16.7674 141.004 16.7951V25.4023C141.004 25.4608 141.049 25.5079 141.107 25.5079H142.492C142.506 25.5078 142.519 25.5049 142.532 25.4995C142.545 25.4941 142.556 25.4863 142.566 25.4765C142.575 25.4667 142.583 25.4551 142.588 25.4423C142.593 25.4296 142.595 25.416 142.595 25.4023V21.3709H144.129C144.387 21.3709 145.877 21.5598 146.01 22.6311L146.311 25.4314C146.317 25.4533 146.33 25.4728 146.347 25.4868C146.365 25.5008 146.387 25.5086 146.41 25.5089H147.828C147.844 25.5088 147.86 25.5048 147.875 25.4972C147.889 25.4897 147.902 25.4789 147.911 25.4656C147.921 25.4522 147.927 25.4368 147.93 25.4206C147.932 25.4044 147.931 25.3879 147.927 25.3721C147.927 25.3721 147.667 23.4765 147.455 22.1543C147.245 20.8312 145.966 20.4625 145.991 20.4733ZM139.25 16.6891H138.08C138.064 16.6891 138.047 16.6932 138.033 16.701C138.018 16.7088 138.005 16.72 137.996 16.7338L134.88 21.247L133.814 22.846V16.7951C133.815 16.7675 133.804 16.7409 133.785 16.721C133.765 16.7012 133.739 16.6898 133.711 16.6891H132.326C132.299 16.6896 132.272 16.701 132.253 16.7208C132.234 16.7407 132.223 16.7674 132.223 16.7951V25.4023C132.223 25.4608 132.27 25.5079 132.326 25.5079H133.66C133.677 25.508 133.694 25.5038 133.708 25.4959C133.723 25.488 133.736 25.4765 133.745 25.4625L137.729 19.5484V25.4023C137.729 25.4608 137.775 25.5079 137.832 25.5079H139.25C139.307 25.5079 139.353 25.4605 139.353 25.4023V16.7954C139.353 16.7677 139.342 16.7411 139.323 16.7212C139.304 16.7014 139.278 16.6898 139.25 16.6891ZM130.352 16.6891H128.967C128.939 16.6896 128.913 16.701 128.893 16.7208C128.874 16.7407 128.863 16.7674 128.863 16.7951V19.9618H125.185V16.7951C125.186 16.7674 125.175 16.7407 125.155 16.7208C125.136 16.701 125.11 16.6896 125.082 16.6891H123.697C123.669 16.6896 123.642 16.701 123.623 16.7208C123.604 16.7407 123.593 16.7674 123.593 16.7951V25.4023C123.593 25.4608 123.639 25.5079 123.697 25.5079H125.082C125.096 25.5078 125.109 25.5049 125.122 25.4995C125.135 25.4941 125.146 25.4863 125.156 25.4765C125.165 25.4667 125.173 25.4551 125.178 25.4423C125.183 25.4296 125.185 25.416 125.185 25.4023V21.3191H128.863V25.4029C128.863 25.4615 128.91 25.5086 128.967 25.5086H130.352C130.365 25.5084 130.379 25.5055 130.391 25.5001C130.404 25.4947 130.415 25.4869 130.425 25.4771C130.434 25.4673 130.442 25.4557 130.447 25.4429C130.452 25.4302 130.455 25.4166 130.454 25.4029V16.7951C130.455 16.7674 130.444 16.7408 130.425 16.7209C130.406 16.7011 130.379 16.6897 130.352 16.6891ZM81.0424 22.1892C81.0424 23.2496 80.1638 24.1093 79.0804 24.1093C77.9966 24.1093 77.1177 23.2496 77.1177 22.1892V20.0549C77.1177 18.9945 77.9966 18.1348 79.0804 18.1348C80.1638 18.1348 81.0424 18.9945 81.0424 20.0549V22.1892ZM79.0868 16.6187C77.1295 16.6187 75.5423 18.1744 75.5423 20.0928V22.1371C75.5423 24.0561 77.1295 25.6122 79.0868 25.6122C81.0444 25.6122 82.6313 24.0561 82.6313 22.1371V20.0928C82.6313 18.1741 81.0448 16.6187 79.0868 16.6187ZM63.4892 24.029H59.7548C59.9565 23.6542 60.0913 23.1951 60.157 22.6642C60.2301 22.0711 60.3415 21.3133 60.3869 20.41L60.5853 18.1501H63.4899L63.4892 24.029ZM65.8883 24.029H65.113V16.7948C65.1133 16.7671 65.1026 16.7405 65.0833 16.7206C65.064 16.7008 65.0377 16.6893 65.0101 16.6888H59.272C59.2452 16.6893 59.2196 16.7 59.2004 16.7188C59.1813 16.7375 59.1701 16.7629 59.169 16.7897L58.8968 20.449C58.8623 21.0035 58.777 21.4772 58.7434 21.8699C58.7096 22.2576 58.6568 22.5928 58.5863 22.8667C58.5149 23.1403 58.4184 23.3617 58.2908 23.5438C58.1665 23.7182 58.0186 23.9115 57.7938 24.0175C57.5689 24.1231 56.9693 24.1695 56.9693 24.1695C56.9452 24.1741 56.9235 24.187 56.908 24.206C56.8925 24.225 56.8843 24.2489 56.8847 24.2735V27.7445C56.8847 27.8031 56.9307 27.8501 56.988 27.8501H58.3737C58.4306 27.8501 58.4767 27.8027 58.4767 27.7445V25.5082L64.4006 25.5082V27.7445C64.4006 27.8031 64.4463 27.8501 64.5036 27.8501H65.8876C65.9153 27.8498 65.9418 27.8385 65.9612 27.8187C65.9806 27.7989 65.9914 27.7722 65.9912 27.7445V24.1346C65.9914 24.1069 65.9806 24.0803 65.9612 24.0605C65.9418 24.0407 65.9153 24.0294 65.8876 24.029H65.8883ZM74.0089 16.6888H72.6232C72.5955 16.6893 72.5692 16.7008 72.5499 16.7206C72.5306 16.7405 72.52 16.7671 72.5202 16.7948V19.9614H68.8423V16.7948C68.8426 16.7671 68.832 16.7405 68.8127 16.7206C68.7934 16.7008 68.7671 16.6893 68.7394 16.6888H67.354C67.3263 16.6893 67.3 16.7008 67.2807 16.7206C67.2614 16.7405 67.2508 16.7671 67.2511 16.7948V25.4016C67.2511 25.4605 67.2968 25.5079 67.354 25.5079H68.7394C68.7671 25.5074 68.7935 25.4959 68.8128 25.476C68.8321 25.456 68.8427 25.4293 68.8423 25.4016V21.3191H72.5202V25.4023C72.5202 25.4612 72.5663 25.5082 72.6232 25.5082H74.0089C74.0658 25.5082 74.1119 25.4608 74.1119 25.4023V16.7948C74.1121 16.7671 74.1015 16.7405 74.0822 16.7206C74.0629 16.7008 74.0366 16.6893 74.0089 16.6888ZM54.8032 22.1889C54.8032 23.2493 53.9242 24.1089 52.8408 24.1089C51.757 24.1089 50.8781 23.2493 50.8781 22.1889V20.0545C50.8781 18.9941 51.757 18.1345 52.8408 18.1345C53.9242 18.1345 54.8032 18.9941 54.8032 20.0545V22.1889ZM52.8476 16.6184C50.89 16.6184 49.3031 18.1741 49.3031 20.0924V22.1364C49.3031 24.0561 50.89 25.6115 52.8476 25.6115C54.8052 25.6115 56.3921 24.0561 56.3921 22.1364V20.0924C56.3921 18.1738 54.8052 16.6184 52.8476 16.6184ZM99.288 16.6885H93.6731C93.6454 16.6889 93.619 16.7003 93.5996 16.7202C93.5803 16.74 93.5696 16.7667 93.5699 16.7944C93.5699 16.7944 93.5969 20.7804 93.2807 22.4733C93.1548 23.1511 93.0904 23.2462 92.9516 23.4815C92.8169 23.7121 92.6408 23.8824 92.4285 23.9874C92.1936 24.1055 91.9275 24.2206 91.6373 24.331C91.6123 24.341 91.5919 24.3601 91.5802 24.3844C91.5686 24.4088 91.5665 24.4366 91.5743 24.4624L91.9447 25.6602C91.9586 25.7049 91.9989 25.7337 92.0429 25.7337L92.0619 25.732C92.5101 25.6501 92.9147 25.5136 93.2641 25.3315C93.6213 25.1453 93.9274 24.8629 94.1732 24.4895C94.4149 24.1241 94.6039 23.6359 94.7366 23.04C94.8686 22.4475 94.9597 21.6505 95.0125 20.8041L95.1286 18.1501H97.7681V25.4019C97.7681 25.4605 97.8138 25.5075 97.8714 25.5075H99.2893C99.303 25.5074 99.3166 25.5045 99.3291 25.4991C99.3417 25.4937 99.3531 25.4859 99.3627 25.4761C99.3722 25.4662 99.3798 25.4546 99.3848 25.4419C99.3899 25.4292 99.3924 25.4156 99.3923 25.4019V16.7944C99.3925 16.7668 99.3819 16.7401 99.3626 16.7203C99.3433 16.7004 99.317 16.689 99.2893 16.6885" fill="#EB722E"/>
</g>
<defs>
<linearGradient id="paint0_linear_1357_618" x1="0.480595" y1="18.6125" x2="133.788" y2="101.953" gradientUnits="userSpaceOnUse">
<stop stop-color="white" stop-opacity="0.2"/>
<stop offset="0.5" stop-color="#CCCCCC"/>
<stop offset="1" stop-color="white" stop-opacity="0.2"/>
</linearGradient>
<clipPath id="clip0_1357_618">
<rect x="13.4806" y="6.54001" width="157" height="28" rx="5" fill="white"/>
</clipPath>
</defs>
</svg>
