<svg width="59" height="49" viewBox="0 0 59 49" fill="none" xmlns="http://www.w3.org/2000/svg">
<g filter="url(#filter0_d_1_71)">
<rect x="4.60013" y="0.104622" width="50" height="40" rx="5" fill="url(#paint0_linear_1_71)" fill-opacity="0.8" shape-rendering="crispEdges"/>
<rect x="4.8941" y="0.398596" width="49.4121" height="39.4121" rx="4.70603" stroke="url(#paint1_linear_1_71)" stroke-width="0.587948" shape-rendering="crispEdges"/>
<path d="M10.8041 25.1046V15.2346H11.9521L15.8441 23.9986H15.4241L19.3161 15.2346H20.4501V25.1046H19.2601V16.9706H19.6941L16.0401 25.1046H15.2141L11.5601 16.9706H11.9941V25.1046H10.8041ZM22.8627 25.1046V15.2346L26.9507 15.2346C28.0054 15.2346 28.8127 15.4866 29.3727 15.9906C29.9327 16.4946 30.2127 17.19 30.2127 18.0766C30.2127 18.9633 29.9327 19.6633 29.3727 20.1766C28.8127 20.6806 28.0054 20.9326 26.9507 20.9326H24.1647V25.1046H22.8627ZM24.1647 19.8686H26.8247C27.5154 19.8686 28.0381 19.7146 28.3927 19.4066C28.7474 19.0893 28.9247 18.646 28.9247 18.0766C28.9247 17.5073 28.7474 17.0686 28.3927 16.7606C28.0381 16.4526 27.5154 16.2986 26.8247 16.2986H24.1647V19.8686ZM32.0366 25.1046V15.2346H38.4206V16.2986H33.2966V19.5606H38.0986V20.6246H33.2966V24.0406H38.4206V25.1046H32.0366ZM44.8313 25.2306C43.7487 25.2306 42.8387 25.03 42.1013 24.6286C41.364 24.218 40.8087 23.6346 40.4353 22.8786C40.0713 22.1226 39.8893 21.222 39.8893 20.1766C39.8893 19.1313 40.0853 18.2306 40.4773 17.4746C40.8693 16.7186 41.4293 16.1353 42.1573 15.7246C42.8947 15.314 43.7767 15.1086 44.8033 15.1086C45.522 15.1086 46.1473 15.2113 46.6793 15.4166C47.2113 15.622 47.6873 15.9206 48.1073 16.3126L47.6173 17.3486C47.3187 17.0873 47.0293 16.8773 46.7493 16.7186C46.4693 16.56 46.1753 16.448 45.8673 16.3826C45.5687 16.308 45.214 16.2706 44.8033 16.2706C43.6553 16.2706 42.778 16.6113 42.1713 17.2926C41.5647 17.974 41.2613 18.94 41.2613 20.1906C41.2613 21.46 41.5553 22.426 42.1433 23.0886C42.7313 23.7513 43.646 24.0826 44.8873 24.0826C45.326 24.0826 45.7553 24.0406 46.1753 23.9566C46.5953 23.8726 46.9967 23.7513 47.3793 23.5926L47.1133 24.2506V20.9046H44.6353V19.8966H48.2333V24.5166C47.8133 24.7313 47.2953 24.904 46.6793 25.0346C46.0633 25.1653 45.4473 25.2306 44.8313 25.2306Z" fill="#191919"/>
</g>
<defs>
<filter id="filter0_d_1_71" x="0.600128" y="0.104622" width="58" height="48" filterUnits="userSpaceOnUse" color-interpolation-filters="sRGB">
<feFlood flood-opacity="0" result="BackgroundImageFix"/>
<feColorMatrix in="SourceAlpha" type="matrix" values="0 0 0 0 0 0 0 0 0 0 0 0 0 0 0 0 0 0 127 0" result="hardAlpha"/>
<feOffset dy="4"/>
<feGaussianBlur stdDeviation="2"/>
<feComposite in2="hardAlpha" operator="out"/>
<feColorMatrix type="matrix" values="0 0 0 0 0 0 0 0 0 0 0 0 0 0 0 0 0 0 0.25 0"/>
<feBlend mode="normal" in2="BackgroundImageFix" result="effect1_dropShadow_1_71"/>
<feBlend mode="normal" in="SourceGraphic" in2="effect1_dropShadow_1_71" result="shape"/>
</filter>
<linearGradient id="paint0_linear_1_71" x1="27.0262" y1="39.2508" x2="25.1114" y2="0.0952748" gradientUnits="userSpaceOnUse">
<stop stop-color="#696969"/>
<stop offset="0.5" stop-color="white"/>
<stop offset="1" stop-color="#696969"/>
</linearGradient>
<linearGradient id="paint1_linear_1_71" x1="4.60013" y1="18.1772" x2="53.8224" y2="26.5849" gradientUnits="userSpaceOnUse">
<stop stop-color="white" stop-opacity="0.2"/>
<stop offset="0.5" stop-color="#CCCCCC"/>
<stop offset="1" stop-color="white" stop-opacity="0.2"/>
</linearGradient>
</defs>
</svg>
