<svg width="135" height="49" viewBox="0 0 135 49" fill="none" xmlns="http://www.w3.org/2000/svg">
<g filter="url(#filter0_d_1_77)">
<rect x="4.52172" y="0.0373306" width="125.542" height="40" rx="4.44445" fill="url(#paint0_linear_1_77)" fill-opacity="0.36" shape-rendering="crispEdges"/>
<rect x="4.96617" y="0.481776" width="124.653" height="39.1111" rx="4" stroke="url(#paint1_linear_1_77)" stroke-width="0.88889" shape-rendering="crispEdges"/>
<path d="M48.6025 13.5076C48.2367 12.1409 47.1626 11.0669 45.7959 10.7011C43.3214 10.0373 33.3939 10.0373 33.3939 10.0373C33.3939 10.0373 23.4666 10.0373 20.992 10.7011C19.6253 11.0669 18.5513 12.1409 18.1855 13.5076C17.5217 15.9822 17.5217 21.1484 17.5217 21.1484C17.5217 21.1484 17.5217 26.3146 18.1855 28.7893C18.5513 30.156 19.6253 31.23 20.992 31.5958C23.4666 32.2595 33.3939 32.2595 33.3939 32.2595C33.3939 32.2595 43.3214 32.2595 45.7959 31.5958C47.1626 31.23 48.2367 30.156 48.6025 28.7893C49.2662 26.3146 49.2662 21.1484 49.2662 21.1484C49.2662 21.1484 49.2636 15.9822 48.6025 13.5076Z" fill="#FF0000"/>
<path d="M30.2167 25.9098L38.4638 21.1487L30.2167 16.3875V25.9098Z" fill="white"/>
<path d="M55.969 24.4856L52.4046 11.6132H55.5143L56.7634 17.4484C57.0822 18.8856 57.3147 20.1112 57.4663 21.1251H57.5577C57.6623 20.3986 57.8975 19.1809 58.2607 17.4693L59.5542 11.6132H62.6638L59.0551 24.4856V30.6605H55.9664V24.4856H55.969Z" fill="white"/>
<path d="M63.5993 30.2524C62.9722 29.829 62.5253 29.1705 62.2587 28.2768C61.9948 27.3832 61.8616 26.1968 61.8616 24.7125V22.6925C61.8616 21.1952 62.0132 19.9905 62.3163 19.0838C62.6194 18.177 63.0924 17.5133 63.7352 17.0978C64.3781 16.6823 65.2221 16.4733 66.2674 16.4733C67.2969 16.4733 68.1201 16.6849 68.7419 17.1083C69.3613 17.5316 69.8159 18.1953 70.1034 19.0942C70.3908 19.9958 70.5346 21.1952 70.5346 22.6925V24.7125C70.5346 26.1968 70.3935 27.3884 70.1139 28.2873C69.8343 29.1888 69.3796 29.8474 68.7524 30.2628C68.1253 30.6784 67.2734 30.8874 66.1994 30.8874C65.0914 30.8899 64.2265 30.6757 63.5993 30.2524ZM67.1166 28.073C67.2891 27.6184 67.3779 26.8788 67.3779 25.8493V21.514C67.3779 20.5158 67.2917 19.7841 67.1166 19.3242C66.9415 18.8617 66.6358 18.6317 66.1967 18.6317C65.7735 18.6317 65.473 18.8617 65.3005 19.3242C65.1254 19.7867 65.0392 20.5158 65.0392 21.514V25.8493C65.0392 26.8788 65.1227 27.6209 65.2901 28.073C65.4573 28.5277 65.7577 28.755 66.1967 28.755C66.6358 28.755 66.9415 28.5277 67.1166 28.073Z" fill="white"/>
<path d="M80.65 30.6632H78.1989L77.9272 28.9594H77.8593C77.1928 30.245 76.1946 30.8878 74.8619 30.8878C73.9395 30.8878 73.2575 30.5847 72.8185 29.9812C72.3795 29.3748 72.1599 28.4289 72.1599 27.1433V16.7455H75.2932V26.9603C75.2932 27.5823 75.3611 28.0238 75.4969 28.2878C75.6328 28.5517 75.8602 28.6849 76.1789 28.6849C76.4507 28.6849 76.7121 28.6014 76.9629 28.4342C77.2138 28.2668 77.3967 28.0552 77.5195 27.7992V16.7429H80.65V30.6632Z" fill="white"/>
<path d="M89.1615 14.1345H86.0519V30.6626H82.9866V14.1345H79.877V11.6154H89.1615V14.1345Z" fill="white"/>
<path d="M96.7183 30.6632H94.2671L93.9954 28.9594H93.9275C93.2611 30.245 92.2629 30.8878 90.9301 30.8878C90.0077 30.8878 89.3257 30.5847 88.8867 29.9812C88.4477 29.3748 88.2282 28.4289 88.2282 27.1433V16.7455H91.3614V26.9603C91.3614 27.5823 91.4293 28.0238 91.5651 28.2878C91.701 28.5517 91.9284 28.6849 92.2473 28.6849C92.5189 28.6849 92.7803 28.6014 93.0311 28.4342C93.282 28.2668 93.4649 28.0552 93.5877 27.7992V16.7429H96.7183V30.6632Z" fill="white"/>
<path d="M107.087 18.969C106.897 18.091 106.591 17.456 106.168 17.0615C105.744 16.6669 105.161 16.4709 104.419 16.4709C103.844 16.4709 103.306 16.6329 102.807 16.9595C102.308 17.2862 101.921 17.7121 101.649 18.2426H101.626V10.9101H98.6077V30.6603H101.195L101.513 29.3433H101.581C101.824 29.8136 102.188 30.182 102.671 30.4565C103.155 30.7283 103.693 30.8642 104.283 30.8642C105.342 30.8642 106.123 30.3755 106.622 29.4007C107.121 28.4234 107.372 26.8999 107.372 24.8252V22.6223C107.372 21.0674 107.275 19.8471 107.087 18.969ZM104.215 24.6474C104.215 25.6613 104.174 26.4557 104.09 27.0306C104.006 27.6055 103.868 28.0158 103.669 28.2562C103.473 28.4992 103.207 28.6194 102.875 28.6194C102.616 28.6194 102.378 28.5593 102.159 28.4365C101.939 28.3163 101.762 28.1334 101.626 27.8929V19.9934C101.73 19.6145 101.913 19.3061 102.172 19.0631C102.428 18.8201 102.71 18.6999 103.011 18.6999C103.33 18.6999 103.575 18.8253 103.748 19.0736C103.923 19.3244 104.043 19.7425 104.111 20.3331C104.179 20.9237 104.213 21.7625 104.213 22.8522V24.6474H104.215Z" fill="white"/>
<path d="M111.817 25.4496C111.817 26.3433 111.843 27.0123 111.895 27.4592C111.948 27.9059 112.057 28.23 112.225 28.4365C112.392 28.6403 112.648 28.7422 112.996 28.7422C113.463 28.7422 113.787 28.5593 113.96 28.196C114.135 27.8328 114.229 27.2266 114.245 26.3799L116.947 26.5393C116.962 26.6595 116.97 26.8267 116.97 27.0384C116.97 28.324 116.617 29.2857 115.914 29.9207C115.212 30.5557 114.216 30.8745 112.93 30.8745C111.386 30.8745 110.304 30.391 109.685 29.4216C109.063 28.4522 108.754 26.9548 108.754 24.9269V22.4967C108.754 20.4089 109.076 18.8828 109.719 17.9211C110.362 16.9595 111.462 16.4787 113.022 16.4787C114.096 16.4787 114.921 16.6747 115.496 17.0693C116.071 17.4638 116.476 18.0753 116.711 18.9089C116.947 19.7425 117.064 20.8923 117.064 22.3608V24.744H111.817V25.4496ZM112.214 18.8906C112.055 19.0866 111.95 19.408 111.895 19.8549C111.843 20.3017 111.817 20.9785 111.817 21.8879V22.8862H114.109V21.8879C114.109 20.9942 114.077 20.3174 114.017 19.8549C113.957 19.3923 113.847 19.0683 113.688 18.8776C113.529 18.6894 113.283 18.5927 112.951 18.5927C112.617 18.5953 112.371 18.6946 112.214 18.8906Z" fill="white"/>
</g>
<defs>
<filter id="filter0_d_1_77" x="0.521721" y="0.0373306" width="133.542" height="48" filterUnits="userSpaceOnUse" color-interpolation-filters="sRGB">
<feFlood flood-opacity="0" result="BackgroundImageFix"/>
<feColorMatrix in="SourceAlpha" type="matrix" values="0 0 0 0 0 0 0 0 0 0 0 0 0 0 0 0 0 0 127 0" result="hardAlpha"/>
<feOffset dy="4"/>
<feGaussianBlur stdDeviation="2"/>
<feComposite in2="hardAlpha" operator="out"/>
<feColorMatrix type="matrix" values="0 0 0 0 0 0 0 0 0 0 0 0 0 0 0 0 0 0 0.25 0"/>
<feBlend mode="normal" in2="BackgroundImageFix" result="effect1_dropShadow_1_77"/>
<feBlend mode="normal" in="SourceGraphic" in2="effect1_dropShadow_1_77" result="shape"/>
</filter>
<linearGradient id="paint0_linear_1_77" x1="4.52172" y1="20.0373" x2="130.064" y2="20.0373" gradientUnits="userSpaceOnUse">
<stop stop-color="#1D1D1D"/>
<stop offset="0.5" stop-color="#838383"/>
<stop offset="1" stop-color="#1D1D1D"/>
</linearGradient>
<linearGradient id="paint1_linear_1_77" x1="4.52172" y1="18.1099" x2="111.956" y2="64.1866" gradientUnits="userSpaceOnUse">
<stop stop-color="white" stop-opacity="0.2"/>
<stop offset="0.5" stop-color="#CCCCCC"/>
<stop offset="1" stop-color="white" stop-opacity="0.2"/>
</linearGradient>
</defs>
</svg>
