<svg width="50" height="40" viewBox="0 0 50 40" fill="none" xmlns="http://www.w3.org/2000/svg">
<rect x="0.293974" y="0.293974" width="49.4121" height="39.4121" rx="4.70603" fill="url(#paint0_linear_1357_628)" fill-opacity="0.8"/>
<rect x="0.293974" y="0.293974" width="49.4121" height="39.4121" rx="4.70603" stroke="url(#paint1_linear_1357_628)" stroke-width="0.587948"/>
<path d="M9.99121 25V14.9785H13.0195L14.8379 21.8145L16.6357 14.9785H19.6709V25H17.791V17.1113L15.8018 25H13.8535L11.8711 17.1113V25H9.99121ZM21.2705 20.0508C21.2705 19.0299 21.4232 18.1732 21.7285 17.4805C21.9564 16.9701 22.2663 16.512 22.6582 16.1064C23.0547 15.7008 23.4876 15.4001 23.957 15.2041C24.5814 14.9398 25.3014 14.8076 26.1172 14.8076C27.5938 14.8076 28.7741 15.2656 29.6582 16.1816C30.5469 17.0977 30.9912 18.3714 30.9912 20.0029C30.9912 21.6208 30.5514 22.8877 29.6719 23.8037C28.7923 24.7152 27.6165 25.1709 26.1445 25.1709C24.6543 25.1709 23.4694 24.7174 22.5898 23.8105C21.7103 22.8991 21.2705 21.6458 21.2705 20.0508ZM23.3555 19.9824C23.3555 21.1172 23.6175 21.9785 24.1416 22.5664C24.6657 23.1497 25.3311 23.4414 26.1377 23.4414C26.9443 23.4414 27.6051 23.152 28.1201 22.5732C28.6396 21.9899 28.8994 21.1172 28.8994 19.9551C28.8994 18.8066 28.6465 17.9499 28.1406 17.3848C27.6393 16.8197 26.9717 16.5371 26.1377 16.5371C25.3037 16.5371 24.6315 16.8242 24.1211 17.3984C23.6107 17.9681 23.3555 18.8294 23.3555 19.9824ZM35.1338 25L31.5518 14.9785H33.7461L36.2822 22.3955L38.7363 14.9785H40.8828L37.2939 25H35.1338Z" fill="#191919"/>
<defs>
<linearGradient id="paint0_linear_1357_628" x1="24.3669" y1="40" x2="20.6342" y2="0.472094" gradientUnits="userSpaceOnUse">
<stop stop-color="#696969"/>
<stop offset="0.5" stop-color="white"/>
<stop offset="1" stop-color="#696969"/>
</linearGradient>
<linearGradient id="paint1_linear_1357_628" x1="1.14682e-06" y1="18.0725" x2="49.2223" y2="26.4803" gradientUnits="userSpaceOnUse">
<stop stop-color="white" stop-opacity="0.2"/>
<stop offset="0.5" stop-color="#CCCCCC"/>
<stop offset="1" stop-color="white" stop-opacity="0.2"/>
</linearGradient>
</defs>
</svg>
