<svg width="50" height="40" viewBox="0 0 50 40" fill="none" xmlns="http://www.w3.org/2000/svg">
<rect x="0.293974" y="0.293974" width="49.4121" height="39.4121" rx="4.70603" fill="url(#paint0_linear_1314_557)" fill-opacity="0.8"/>
<rect x="0.293974" y="0.293974" width="49.4121" height="39.4121" rx="4.70603" stroke="url(#paint1_linear_1314_557)" stroke-width="0.587948"/>
<path d="M9.204 25V15.13H12.55C13.6513 15.13 14.58 15.3213 15.336 15.704C16.1013 16.0867 16.68 16.6467 17.072 17.384C17.464 18.112 17.66 19.0033 17.66 20.058C17.66 21.1127 17.464 22.0087 17.072 22.746C16.68 23.4833 16.1013 24.0433 15.336 24.426C14.58 24.8087 13.6513 25 12.55 25H9.204ZM10.506 23.894H12.452C13.768 23.894 14.7433 23.5767 15.378 22.942C16.0127 22.3073 16.33 21.346 16.33 20.058C16.33 18.77 16.0127 17.8133 15.378 17.188C14.7433 16.5533 13.768 16.236 12.452 16.236H10.506V23.894ZM19.704 25V15.13H21.006V25H19.704ZM26.5174 25L22.1914 15.13H23.6054L27.3714 23.922H26.8954L30.6754 15.13H32.0334L27.6794 25H26.5174ZM31.9001 25L35.8761 19.708V20.212L32.0681 15.13H33.6081L36.6461 19.274H36.2401L39.2361 15.13H40.7901L36.9821 20.212V19.708L40.9581 25H39.4041L36.1841 20.604H36.6741L33.4401 25H31.9001Z" fill="#191919"/>
<defs>
<linearGradient id="paint0_linear_1314_557" x1="22.4261" y1="39.1462" x2="20.5112" y2="-0.00934709" gradientUnits="userSpaceOnUse">
<stop stop-color="#696969"/>
<stop offset="0.5" stop-color="white"/>
<stop offset="1" stop-color="#696969"/>
</linearGradient>
<linearGradient id="paint1_linear_1314_557" x1="1.14682e-06" y1="18.0725" x2="49.2223" y2="26.4803" gradientUnits="userSpaceOnUse">
<stop stop-color="white" stop-opacity="0.2"/>
<stop offset="0.5" stop-color="#CCCCCC"/>
<stop offset="1" stop-color="white" stop-opacity="0.2"/>
</linearGradient>
</defs>
</svg>
