<svg width="51" height="40" viewBox="0 0 51 40" fill="none" xmlns="http://www.w3.org/2000/svg">
<rect x="1.27835" y="0.293974" width="49.4121" height="39.4121" rx="4.70603" fill="url(#paint0_linear_1314_551)" fill-opacity="0.8"/>
<rect x="1.27835" y="0.293974" width="49.4121" height="39.4121" rx="4.70603" stroke="url(#paint1_linear_1314_551)" stroke-width="0.587948"/>
<path d="M11.6884 25V15.13H12.8364L16.7284 23.894H16.3084L20.2004 15.13H21.3344V25H20.1444V16.866H20.5784L16.9244 25H16.0984L12.4444 16.866H12.8784V25H11.6884ZM23.747 25V15.13H25.049V19.596H25.077L29.711 15.13H31.349L25.973 20.24L25.987 19.61L31.727 25H30.033L25.077 20.366H25.049V25H23.747ZM35.619 25L31.293 15.13H32.707L36.473 23.922H35.997L39.777 15.13H41.135L36.781 25H35.619Z" fill="#191919"/>
<defs>
<linearGradient id="paint0_linear_1314_551" x1="23.4105" y1="39.1462" x2="21.4956" y2="-0.00934709" gradientUnits="userSpaceOnUse">
<stop stop-color="#696969"/>
<stop offset="0.5" stop-color="white"/>
<stop offset="1" stop-color="#696969"/>
</linearGradient>
<linearGradient id="paint1_linear_1314_551" x1="0.984376" y1="18.0725" x2="50.2067" y2="26.4803" gradientUnits="userSpaceOnUse">
<stop stop-color="white" stop-opacity="0.2"/>
<stop offset="0.5" stop-color="#CCCCCC"/>
<stop offset="1" stop-color="white" stop-opacity="0.2"/>
</linearGradient>
</defs>
</svg>
