<svg width="43" height="40" viewBox="0 0 43 40" fill="none" xmlns="http://www.w3.org/2000/svg">
<g clip-path="url(#clip0_1363_57)">
<path d="M41.167 0H11.833C10.8207 0 10 0.820663 10 1.83301V10L27 15L43 10V1.83301C43 0.820663 42.1793 0 41.167 0Z" fill="#41A5EE"/>
<path d="M43 10H10V20L27 23L43 20V10Z" fill="#2B7CD3"/>
<path d="M10 20V30L26 32L43 30V20H10Z" fill="#185ABD"/>
<path d="M11.833 40H41.167C42.1794 40 43 39.1793 43 38.167V30H10V38.167C10 39.1793 10.8207 40 11.833 40Z" fill="#103F91"/>
<path opacity="0.1" d="M22.167 8H10V33H22.167C23.178 32.9967 23.9967 32.178 24 31.167V9.83301C23.9967 8.82203 23.178 8.00329 22.167 8Z" fill="black"/>
<path opacity="0.2" d="M21.167 9H10V34H21.167C22.178 33.9967 22.9967 33.178 23 32.167V10.833C22.9967 9.82203 22.178 9.00329 21.167 9Z" fill="black"/>
<path opacity="0.2" d="M21.167 9H10V32H21.167C22.178 31.9967 22.9967 31.178 23 30.167V10.833C22.9967 9.82203 22.178 9.00329 21.167 9Z" fill="black"/>
<path opacity="0.2" d="M20.167 9H10V32H20.167C21.178 31.9967 21.9967 31.178 22 30.167V10.833C21.9967 9.82203 21.178 9.00329 20.167 9Z" fill="black"/>
<path d="M1.83301 9H20.167C21.1793 9 22 9.82066 22 10.833V29.167C22 30.1794 21.1793 31 20.167 31H1.83301C0.820663 31 0 30.1794 0 29.167V10.833C0 9.82066 0.820663 9 1.83301 9Z" fill="url(#paint0_linear_1363_57)"/>
<path d="M7.52206 23.058C7.55805 23.341 7.58205 23.587 7.59305 23.798H7.63504C7.65104 23.598 7.68436 23.357 7.73504 23.075C7.78571 22.793 7.83138 22.5547 7.87204 22.36L9.80004 14.042H12.293L14.293 22.235C14.4093 22.7445 14.4924 23.2609 14.5421 23.781H14.5751C14.6123 23.2771 14.6818 22.7761 14.7831 22.281L16.3781 14.038H18.6471L15.845 25.958H13.1941L11.2941 18.064C11.2391 17.837 11.1761 17.54 11.1071 17.175C11.0381 16.81 10.9951 16.543 10.9781 16.375H10.945C10.9231 16.569 10.88 16.857 10.816 17.239C10.752 17.621 10.7007 17.9037 10.662 18.087L8.87602 25.956H6.18002L3.36304 14.042H5.67303L7.41003 22.377C7.44905 22.548 7.48605 22.776 7.52206 23.058Z" fill="white"/>
</g>
<defs>
<linearGradient id="paint0_linear_1363_57" x1="3.82184" y1="7.56773" x2="18.1782" y2="32.4323" gradientUnits="userSpaceOnUse">
<stop stop-color="#2368C4"/>
<stop offset="0.5" stop-color="#1A5DBE"/>
<stop offset="1" stop-color="#1146AC"/>
</linearGradient>
<clipPath id="clip0_1363_57">
<rect width="43" height="40" fill="white"/>
</clipPath>
</defs>
</svg>
