<svg width="50" height="40" viewBox="0 0 50 40" fill="none" xmlns="http://www.w3.org/2000/svg">
<rect x="0.293974" y="0.293974" width="49.4121" height="39.4121" rx="4.70603" fill="url(#paint0_linear_1357_651)"/>
<rect x="0.293974" y="0.293974" width="49.4121" height="39.4121" rx="4.70603" stroke="url(#paint1_linear_1357_651)" stroke-width="0.587948"/>
<path d="M9.94043 25L7.54785 14.9785H9.61914L11.1299 21.8623L12.9619 14.9785H15.3682L17.125 21.9785L18.6631 14.9785H20.7002L18.2666 25H16.1201L14.124 17.5078L12.1348 25H9.94043ZM21.7119 25V14.9785H24.7402L26.5586 21.8145L28.3564 14.9785H31.3916V25H29.5117V17.1113L27.5225 25H25.5742L23.5918 17.1113V25H21.7119ZM42.4385 25H40.2373L39.3623 22.7236H35.3564L34.5293 25H32.3828L36.2861 14.9785H38.4258L42.4385 25ZM38.7129 21.0352L37.332 17.3164L35.9785 21.0352H38.7129Z" fill="white"/>
<defs>
<linearGradient id="paint0_linear_1357_651" x1="29.6317" y1="41.1763" x2="29.4152" y2="-0.106017" gradientUnits="userSpaceOnUse">
<stop stop-color="#08466B"/>
<stop offset="0.5" stop-color="#71BDEB"/>
<stop offset="1" stop-color="#08466B"/>
</linearGradient>
<linearGradient id="paint1_linear_1357_651" x1="1.14682e-06" y1="18.0725" x2="49.2223" y2="26.4803" gradientUnits="userSpaceOnUse">
<stop stop-color="white" stop-opacity="0.2"/>
<stop offset="0.5" stop-color="#CCCCCC"/>
<stop offset="1" stop-color="white" stop-opacity="0.2"/>
</linearGradient>
</defs>
</svg>
