<svg width="50" height="40" viewBox="0 0 50 40" fill="none" xmlns="http://www.w3.org/2000/svg">
<rect x="0.293974" y="0.293974" width="49.4121" height="39.4121" rx="4.70603" fill="url(#paint0_linear_1357_630)" fill-opacity="0.8"/>
<rect x="0.293974" y="0.293974" width="49.4121" height="39.4121" rx="4.70603" stroke="url(#paint1_linear_1357_630)" stroke-width="0.587948"/>
<path d="M11.4912 25V14.9785H14.5195L16.3379 21.8145L18.1357 14.9785H21.1709V25H19.291V17.1113L17.3018 25H15.3535L13.3711 17.1113V25H11.4912ZM23.1807 25V14.9785H26.4277C27.6582 14.9785 28.4603 15.0286 28.834 15.1289C29.4082 15.2793 29.889 15.6074 30.2764 16.1133C30.6637 16.6146 30.8574 17.264 30.8574 18.0615C30.8574 18.6768 30.7458 19.194 30.5225 19.6133C30.2992 20.0326 30.0143 20.363 29.668 20.6045C29.3262 20.8415 28.9775 20.9987 28.6221 21.0762C28.139 21.1719 27.4395 21.2197 26.5234 21.2197H25.2041V25H23.1807ZM25.2041 16.6738V19.5176H26.3115C27.109 19.5176 27.6423 19.4652 27.9111 19.3604C28.18 19.2555 28.3896 19.0915 28.54 18.8682C28.695 18.6449 28.7725 18.3851 28.7725 18.0889C28.7725 17.7243 28.6654 17.4235 28.4512 17.1865C28.237 16.9495 27.9658 16.8014 27.6377 16.7422C27.3962 16.6966 26.9108 16.6738 26.1816 16.6738H25.2041ZM35.8613 25V22.9834H31.7598V21.3018L36.1074 14.9375H37.7207V21.2949H38.9648V22.9834H37.7207V25H35.8613ZM35.8613 21.2949V17.8701L33.5576 21.2949H35.8613Z" fill="#191919"/>
<defs>
<linearGradient id="paint0_linear_1357_630" x1="22.4261" y1="39.1462" x2="20.5112" y2="-0.00934709" gradientUnits="userSpaceOnUse">
<stop stop-color="#696969"/>
<stop offset="0.5" stop-color="white"/>
<stop offset="1" stop-color="#696969"/>
</linearGradient>
<linearGradient id="paint1_linear_1357_630" x1="1.14682e-06" y1="18.0725" x2="49.2223" y2="26.4803" gradientUnits="userSpaceOnUse">
<stop stop-color="white" stop-opacity="0.2"/>
<stop offset="0.5" stop-color="#CCCCCC"/>
<stop offset="1" stop-color="white" stop-opacity="0.2"/>
</linearGradient>
</defs>
</svg>
