<svg width="768" height="128" viewBox="0 0 768 128" fill="none" xmlns="http://www.w3.org/2000/svg">
<g filter="url(#filter0_bd_1268_3933)">
<g clip-path="url(#clip0_1268_3933)">
<rect x="4" y="4" width="760" height="120" rx="5" fill="#DCDCDC"/>
<path d="M33.56 51.384L32.384 49.488C33.056 49.136 33.648 48.712 34.16 48.216C34.688 47.72 35.12 47.096 35.456 46.344C35.808 45.576 36.072 44.616 36.248 43.464C36.424 42.296 36.512 40.88 36.512 39.216V34.08H48.416V51H45.944V36.144H38.84V39.816C38.84 41.512 38.72 42.992 38.48 44.256C38.256 45.52 37.92 46.616 37.472 47.544C37.024 48.456 36.472 49.224 35.816 49.848C35.176 50.456 34.424 50.968 33.56 51.384ZM51.9584 56.448L51.3824 54.48C52.1344 54.32 52.7584 54.128 53.2544 53.904C53.7664 53.68 54.1904 53.384 54.5264 53.016C54.8624 52.664 55.1504 52.208 55.3904 51.648L55.9904 50.232L55.9424 51.216L50.6864 38.904H53.2784L57.3584 48.984H56.7104L60.7904 38.904H63.2864L57.7424 51.864C57.3904 52.664 57.0144 53.336 56.6144 53.88C56.2144 54.424 55.7824 54.864 55.3184 55.2C54.8544 55.536 54.3424 55.8 53.7824 55.992C53.2224 56.184 52.6144 56.336 51.9584 56.448ZM73.0989 51V46.32C72.6509 46.56 72.1709 46.752 71.6589 46.896C71.1469 47.024 70.6029 47.088 70.0269 47.088C68.2829 47.088 66.9869 46.68 66.1389 45.864C65.3069 45.032 64.8909 43.792 64.8909 42.144V38.904H67.2909V41.952C67.2909 43.056 67.5389 43.856 68.0349 44.352C68.5309 44.848 69.3149 45.096 70.3869 45.096C70.9309 45.096 71.4109 45.04 71.8269 44.928C72.2429 44.8 72.6509 44.608 73.0509 44.352V38.904H75.4749V51H73.0989ZM79.1053 51V38.904H81.3853V49.104H86.1133V38.904H88.3933V49.104H93.0973V38.904H95.4013V51H79.1053ZM103.779 51.216C102.707 51.216 101.771 50.968 100.971 50.472C100.171 49.976 99.5466 49.256 99.0986 48.312C98.6666 47.368 98.4506 46.248 98.4506 44.952C98.4506 43.64 98.6666 42.52 99.0986 41.592C99.5466 40.664 100.171 39.952 100.971 39.456C101.771 38.944 102.707 38.688 103.779 38.688C104.835 38.688 105.755 38.952 106.539 39.48C107.323 40.008 107.843 40.728 108.099 41.64H107.835L108.075 38.904H110.427C110.379 39.4 110.331 39.896 110.283 40.392C110.251 40.872 110.235 41.344 110.235 41.808V51H107.811V48.312H108.075C107.819 49.208 107.291 49.92 106.491 50.448C105.707 50.96 104.803 51.216 103.779 51.216ZM104.379 49.32C105.419 49.32 106.251 48.952 106.875 48.216C107.515 47.48 107.835 46.392 107.835 44.952C107.835 43.512 107.515 42.432 106.875 41.712C106.251 40.976 105.419 40.608 104.379 40.608C103.323 40.608 102.475 40.976 101.835 41.712C101.211 42.432 100.899 43.512 100.899 44.952C100.899 46.392 101.211 47.48 101.835 48.216C102.459 48.952 103.307 49.32 104.379 49.32ZM112.973 51L114.869 47.736C115.173 47.208 115.557 46.784 116.021 46.464C116.501 46.128 116.989 45.96 117.485 45.96H117.917L117.893 46.2C116.517 46.2 115.445 45.888 114.677 45.264C113.909 44.64 113.525 43.744 113.525 42.576C113.525 41.408 113.909 40.504 114.677 39.864C115.445 39.224 116.573 38.904 118.061 38.904H123.725V51H121.493V46.512H119.885C119.277 46.512 118.757 46.664 118.325 46.968C117.909 47.272 117.565 47.672 117.293 48.168L115.661 51H112.973ZM118.493 44.88H121.493V40.536H118.493C117.597 40.536 116.925 40.728 116.477 41.112C116.045 41.496 115.829 42.024 115.829 42.696C115.829 43.4 116.045 43.944 116.477 44.328C116.925 44.696 117.597 44.88 118.493 44.88ZM144.226 54.12V51H133.762V38.904H136.162V49.104H141.946V38.904H144.322V49.104H146.266V54.12H144.226ZM154.379 51.216C152.427 51.216 150.891 50.664 149.771 49.56C148.651 48.456 148.091 46.928 148.091 44.976C148.091 43.712 148.331 42.608 148.811 41.664C149.307 40.72 149.987 39.992 150.851 39.48C151.731 38.952 152.747 38.688 153.899 38.688C155.035 38.688 155.987 38.928 156.755 39.408C157.523 39.888 158.107 40.568 158.507 41.448C158.907 42.312 159.107 43.336 159.107 44.52V45.288H149.987V43.896H157.451L157.043 44.208C157.043 43.008 156.771 42.08 156.227 41.424C155.699 40.752 154.931 40.416 153.923 40.416C152.803 40.416 151.939 40.808 151.331 41.592C150.723 42.36 150.419 43.424 150.419 44.784V45.024C150.419 46.448 150.763 47.52 151.451 48.24C152.155 48.96 153.147 49.32 154.427 49.32C155.131 49.32 155.787 49.224 156.395 49.032C157.019 48.824 157.611 48.488 158.171 48.024L158.963 49.68C158.403 50.176 157.723 50.56 156.923 50.832C156.123 51.088 155.275 51.216 154.379 51.216ZM162.074 51V38.904H164.474V43.824H170.594V38.904H172.994V51H170.594V45.72H164.474V51H162.074ZM181.38 51.216C180.308 51.216 179.372 50.968 178.572 50.472C177.772 49.976 177.148 49.256 176.7 48.312C176.268 47.368 176.052 46.248 176.052 44.952C176.052 43.64 176.268 42.52 176.7 41.592C177.148 40.664 177.772 39.952 178.572 39.456C179.372 38.944 180.308 38.688 181.38 38.688C182.436 38.688 183.356 38.952 184.14 39.48C184.924 40.008 185.444 40.728 185.7 41.64H185.436L185.676 38.904H188.028C187.98 39.4 187.932 39.896 187.884 40.392C187.852 40.872 187.836 41.344 187.836 41.808V51H185.412V48.312H185.676C185.42 49.208 184.892 49.92 184.092 50.448C183.308 50.96 182.404 51.216 181.38 51.216ZM181.98 49.32C183.02 49.32 183.852 48.952 184.476 48.216C185.116 47.48 185.436 46.392 185.436 44.952C185.436 43.512 185.116 42.432 184.476 41.712C183.852 40.976 183.02 40.608 181.98 40.608C180.924 40.608 180.076 40.976 179.436 41.712C178.812 42.432 178.5 43.512 178.5 44.952C178.5 46.392 178.812 47.48 179.436 48.216C180.06 48.952 180.908 49.32 181.98 49.32ZM192.374 53.952L191.318 53.136C191.782 52.64 192.094 52.184 192.254 51.768C192.43 51.352 192.518 50.92 192.518 50.472L193.046 51H191.15V48.144H194.006V50.088C194.006 50.808 193.886 51.472 193.646 52.08C193.406 52.704 192.982 53.328 192.374 53.952ZM203.652 51V38.904H206.052V43.824H212.172V38.904H214.572V51H212.172V45.72H206.052V51H203.652ZM222.958 51.216C221.886 51.216 220.95 50.968 220.15 50.472C219.35 49.976 218.726 49.256 218.278 48.312C217.846 47.368 217.63 46.248 217.63 44.952C217.63 43.64 217.846 42.52 218.278 41.592C218.726 40.664 219.35 39.952 220.15 39.456C220.95 38.944 221.886 38.688 222.958 38.688C224.014 38.688 224.934 38.952 225.718 39.48C226.502 40.008 227.022 40.728 227.278 41.64H227.014L227.254 38.904H229.606C229.558 39.4 229.51 39.896 229.462 40.392C229.43 40.872 229.414 41.344 229.414 41.808V51H226.99V48.312H227.254C226.998 49.208 226.47 49.92 225.67 50.448C224.886 50.96 223.982 51.216 222.958 51.216ZM223.558 49.32C224.598 49.32 225.43 48.952 226.054 48.216C226.694 47.48 227.014 46.392 227.014 44.952C227.014 43.512 226.694 42.432 226.054 41.712C225.43 40.976 224.598 40.608 223.558 40.608C222.502 40.608 221.654 40.976 221.014 41.712C220.39 42.432 220.078 43.512 220.078 44.952C220.078 46.392 220.39 47.48 221.014 48.216C221.638 48.952 222.486 49.32 223.558 49.32ZM233.137 51V38.904H235.537V43.848H237.625L241.393 38.904H244.033L239.521 44.856L238.921 44.088C239.385 44.136 239.785 44.256 240.121 44.448C240.457 44.624 240.785 44.888 241.105 45.24C241.425 45.592 241.753 46.056 242.089 46.632L244.609 51H242.017L239.857 47.304C239.617 46.888 239.385 46.568 239.161 46.344C238.937 46.104 238.681 45.944 238.393 45.864C238.105 45.768 237.753 45.72 237.337 45.72H235.537V51H233.137ZM251.659 51.216C250.459 51.216 249.419 50.968 248.539 50.472C247.659 49.96 246.979 49.24 246.499 48.312C246.019 47.368 245.779 46.248 245.779 44.952C245.779 43.656 246.019 42.544 246.499 41.616C246.979 40.672 247.659 39.952 248.539 39.456C249.419 38.944 250.459 38.688 251.659 38.688C252.859 38.688 253.899 38.944 254.779 39.456C255.675 39.952 256.363 40.672 256.843 41.616C257.339 42.544 257.587 43.656 257.587 44.952C257.587 46.248 257.339 47.368 256.843 48.312C256.363 49.24 255.675 49.96 254.779 50.472C253.899 50.968 252.859 51.216 251.659 51.216ZM251.659 49.32C252.715 49.32 253.555 48.952 254.179 48.216C254.803 47.48 255.115 46.392 255.115 44.952C255.115 43.512 254.803 42.432 254.179 41.712C253.555 40.976 252.715 40.608 251.659 40.608C250.619 40.608 249.787 40.976 249.163 41.712C248.539 42.432 248.227 43.512 248.227 44.952C248.227 46.392 248.531 47.48 249.139 48.216C249.763 48.952 250.603 49.32 251.659 49.32ZM260.582 51V38.904H271.43V51H269.03V40.8H262.982V51H260.582ZM275.066 51V38.904H277.274V48.672H276.602L283.898 38.904H285.914V51H283.73V41.208H284.426L277.082 51H275.066ZM292.143 51V40.848H287.871V38.904H298.839V40.848H294.543V51H292.143ZM306.395 51.216C304.443 51.216 302.907 50.664 301.787 49.56C300.667 48.456 300.107 46.928 300.107 44.976C300.107 43.712 300.347 42.608 300.827 41.664C301.323 40.72 302.003 39.992 302.867 39.48C303.747 38.952 304.763 38.688 305.915 38.688C307.051 38.688 308.003 38.928 308.771 39.408C309.539 39.888 310.123 40.568 310.523 41.448C310.923 42.312 311.123 43.336 311.123 44.52V45.288H302.003V43.896H309.467L309.059 44.208C309.059 43.008 308.787 42.08 308.243 41.424C307.715 40.752 306.947 40.416 305.939 40.416C304.819 40.416 303.955 40.808 303.347 41.592C302.739 42.36 302.435 43.424 302.435 44.784V45.024C302.435 46.448 302.779 47.52 303.467 48.24C304.171 48.96 305.163 49.32 306.443 49.32C307.147 49.32 307.803 49.224 308.411 49.032C309.035 48.824 309.627 48.488 310.187 48.024L310.979 49.68C310.419 50.176 309.739 50.56 308.939 50.832C308.139 51.088 307.291 51.216 306.395 51.216ZM313.586 51.312L312.77 49.392C313.314 49.168 313.77 48.888 314.138 48.552C314.522 48.2 314.818 47.752 315.026 47.208C315.25 46.664 315.41 45.992 315.506 45.192C315.602 44.392 315.65 43.424 315.65 42.288V38.904H324.77V51H322.37V40.8H317.882V42.36C317.882 44.184 317.738 45.696 317.45 46.896C317.162 48.096 316.698 49.048 316.058 49.752C315.434 50.44 314.61 50.96 313.586 51.312ZM328.41 51V38.904H330.81V43.128H334.242C335.826 43.128 337.018 43.464 337.818 44.136C338.618 44.792 339.018 45.752 339.018 47.016C339.018 47.832 338.834 48.544 338.466 49.152C338.098 49.744 337.554 50.2 336.834 50.52C336.13 50.84 335.266 51 334.242 51H328.41ZM330.81 49.344H333.978C334.874 49.344 335.562 49.16 336.042 48.792C336.522 48.408 336.762 47.824 336.762 47.04C336.762 46.256 336.522 45.688 336.042 45.336C335.578 44.968 334.89 44.784 333.978 44.784H330.81V49.344ZM341.746 51V38.904H344.146V43.824H350.266V38.904H352.666V51H350.266V45.72H344.146V51H341.746ZM356.324 51V38.904H358.724V43.128H362.156C363.74 43.128 364.932 43.464 365.732 44.136C366.532 44.792 366.932 45.752 366.932 47.016C366.932 47.832 366.748 48.544 366.38 49.152C366.012 49.744 365.468 50.2 364.748 50.52C364.044 50.84 363.18 51 362.156 51H356.324ZM358.724 49.344H361.892C362.804 49.344 363.492 49.16 363.956 48.792C364.436 48.408 364.676 47.824 364.676 47.04C364.676 46.256 364.436 45.688 363.956 45.336C363.492 44.968 362.804 44.784 361.892 44.784H358.724V49.344ZM368.636 51V38.904H371.036V51H368.636ZM380.34 51.216C378.388 51.216 376.852 50.664 375.732 49.56C374.612 48.456 374.052 46.928 374.052 44.976C374.052 43.712 374.292 42.608 374.772 41.664C375.268 40.72 375.948 39.992 376.812 39.48C377.692 38.952 378.708 38.688 379.86 38.688C380.996 38.688 381.948 38.928 382.716 39.408C383.484 39.888 384.068 40.568 384.468 41.448C384.868 42.312 385.068 43.336 385.068 44.52V45.288H375.948V43.896H383.412L383.004 44.208C383.004 43.008 382.732 42.08 382.188 41.424C381.66 40.752 380.892 40.416 379.884 40.416C378.764 40.416 377.9 40.808 377.292 41.592C376.684 42.36 376.38 43.424 376.38 44.784V45.024C376.38 46.448 376.724 47.52 377.412 48.24C378.116 48.96 379.108 49.32 380.388 49.32C381.092 49.32 381.748 49.224 382.356 49.032C382.98 48.824 383.572 48.488 384.132 48.024L384.924 49.68C384.364 50.176 383.684 50.56 382.884 50.832C382.084 51.088 381.236 51.216 380.34 51.216ZM39.224 81.216C38.008 81.216 36.944 80.968 36.032 80.472C35.136 79.96 34.44 79.232 33.944 78.288C33.464 77.328 33.224 76.192 33.224 74.88C33.224 73.584 33.472 72.472 33.968 71.544C34.464 70.616 35.16 69.912 36.056 69.432C36.952 68.936 38.008 68.688 39.224 68.688C40.008 68.688 40.768 68.824 41.504 69.096C42.24 69.352 42.848 69.72 43.328 70.2L42.536 71.904C42.088 71.472 41.584 71.152 41.024 70.944C40.464 70.72 39.92 70.608 39.392 70.608C38.24 70.608 37.336 70.976 36.68 71.712C36.024 72.448 35.696 73.512 35.696 74.904C35.696 76.312 36.024 77.392 36.68 78.144C37.336 78.896 38.24 79.272 39.392 79.272C39.904 79.272 40.44 79.176 41 78.984C41.56 78.776 42.072 78.448 42.536 78L43.328 79.704C42.832 80.184 42.208 80.56 41.456 80.832C40.72 81.088 39.976 81.216 39.224 81.216ZM46.0818 81V68.904H48.4818V73.848H50.5698L54.3378 68.904H56.9778L52.4658 74.856L51.8658 74.088C52.3298 74.136 52.7298 74.256 53.0658 74.448C53.4018 74.624 53.7298 74.888 54.0498 75.24C54.3698 75.592 54.6978 76.056 55.0338 76.632L57.5538 81H54.9618L52.8018 77.304C52.5618 76.888 52.3298 76.568 52.1058 76.344C51.8818 76.104 51.6258 75.944 51.3378 75.864C51.0498 75.768 50.6978 75.72 50.2818 75.72H48.4818V81H46.0818ZM59.324 81V68.904H61.532V78.672H60.86L68.156 68.904H70.172V81H67.988V71.208H68.684L61.34 81H59.324ZM72.6084 84.12V79.128H73.9524C74.4804 78.328 74.8644 77.392 75.1044 76.32C75.3444 75.248 75.4644 73.952 75.4644 72.432V68.904H84.3204V79.128H86.2644V84.12H84.1764V81H74.6964V84.12H72.6084ZM76.1844 79.152H82.0404V70.776H77.5524V72.912C77.5524 74.08 77.4324 75.224 77.1924 76.344C76.9684 77.448 76.6324 78.384 76.1844 79.152ZM88.6678 81V68.904H91.0678V73.848H93.1558L96.9238 68.904H99.5638L95.0518 74.856L94.4518 74.088C94.9158 74.136 95.3158 74.256 95.6518 74.448C95.9878 74.624 96.3158 74.888 96.6358 75.24C96.9558 75.592 97.2838 76.056 97.6198 76.632L100.14 81H97.5478L95.3878 77.304C95.1478 76.888 94.9158 76.568 94.6918 76.344C94.4678 76.104 94.2118 75.944 93.9238 75.864C93.6358 75.768 93.2838 75.72 92.8678 75.72H91.0678V81H88.6678ZM101.91 81V68.904H104.118V78.672H103.446L110.742 68.904H112.758V81H110.574V71.208H111.27L103.926 81H101.91Z" fill="#191919"/>
<g filter="url(#filter1_f_1268_3933)">
<ellipse cx="129.998" cy="46.6601" rx="129.998" ry="46.6601" transform="matrix(0.890932 -0.454137 0.107131 0.994245 551.34 223.757)" fill="#6D6D6F"/>
</g>
<g filter="url(#filter2_f_1268_3933)">
<ellipse cx="160.825" cy="24.035" rx="160.825" ry="24.035" transform="matrix(0.992068 -0.125701 0.445603 0.895231 -17.7266 269.414)" fill="#5C827F"/>
</g>
<g opacity="0.2">
<path d="M624.78 94.6717L627.459 95.6457L638.141 94.6031L624.78 94.6717ZM635.489 93.6217L624.78 94.6717L638.141 94.6031L635.489 93.6217ZM624.72 116.508L627.407 117.408L638.116 116.444L624.72 116.508ZM646.286 40.2456L648.894 41.4108L672.341 38.6966L646.286 40.2456ZM646.286 40.2456L646.28 79.4221L648.894 41.4108L646.286 40.2456ZM646.28 79.4221L648.9 80.4555L648.894 41.4108L646.28 79.4221ZM622.082 93.6907L624.78 94.6717L635.489 93.6217L622.082 93.6907ZM635.457 115.537L624.72 116.508L638.116 116.444L635.457 115.537ZM632.818 92.6334L622.082 93.6907L635.489 93.6217L632.818 92.6334ZM622.015 115.601L624.72 116.508L635.457 115.537L622.015 115.601ZM643.661 39.0722L646.286 40.2456L669.795 37.5123L643.661 39.0722ZM643.661 39.0722L643.642 78.3815L646.286 40.2456L643.661 39.0722ZM669.795 37.5123L646.286 40.2456L672.341 38.6966L669.795 37.5123ZM643.642 78.3815L646.28 79.4221L646.286 40.2456L643.642 78.3815ZM646.277 101.348L648.903 102.307L648.902 93.5526L646.277 101.348ZM619.365 92.7029L622.082 93.6907L632.818 92.6334L619.365 92.7029ZM646.278 92.5638L646.277 101.348L648.902 93.5526L646.278 92.5638ZM669.795 37.5123L672.341 38.6966L674.56 38.619L669.795 37.5123ZM635.431 133.153L638.096 134L648.908 133.093L635.431 133.153ZM632.779 114.624L622.015 115.601L635.457 115.537L632.779 114.624ZM646.278 92.5638L648.902 93.5526L672.498 91.2492L646.278 92.5638ZM672.02 37.4335L674.56 38.619L676.695 38.8948L672.02 37.4335ZM630.129 91.638L619.365 92.7029L632.818 92.6334L630.129 91.638ZM619.29 114.688L622.015 115.601L632.779 114.624L619.29 114.688ZM641.016 37.8906L643.661 39.0722L667.231 36.3196L641.016 37.8906ZM641.016 37.8906L640.985 77.3335L643.661 39.0722L641.016 37.8906ZM672.02 37.4335L669.795 37.5123L674.56 38.619L672.02 37.4335ZM674.16 37.7093L676.695 38.8948L678.724 39.5034L674.16 37.7093ZM667.231 36.3196L643.661 39.0722L669.795 37.5123L667.231 36.3196ZM640.985 77.3335L643.642 78.3815L643.661 39.0722L640.985 77.3335ZM646.272 132.24L648.908 133.093L648.906 115.473L646.272 132.24ZM643.631 100.382L646.277 101.348L646.278 92.5638L643.631 100.382ZM616.629 91.7081L619.365 92.7029L630.129 91.638L616.629 91.7081ZM674.16 37.7093L672.02 37.4335L676.695 38.8948L674.16 37.7093ZM646.275 114.559L646.272 132.24L648.906 115.473L646.275 114.559ZM646.272 132.24L635.431 133.153L648.908 133.093L646.272 132.24ZM643.636 91.568L643.631 100.382L646.278 92.5638L643.636 91.568ZM676.194 38.3191L674.16 37.7093L678.724 39.5034L676.194 38.3191ZM667.231 36.3196L669.795 37.5123L672.02 37.4335L667.231 36.3196ZM632.748 132.3L635.431 133.153L646.272 132.24L632.748 132.3ZM630.082 113.704L619.29 114.688L632.779 114.624L630.082 113.704ZM646.275 114.559L648.906 115.473L678.08 112.848L646.275 114.559ZM643.636 91.568L646.278 92.5638L669.937 90.244L643.636 91.568ZM686.563 29.2615L689.063 30.4809L686.122 28.4732L686.563 29.2615ZM669.462 36.2395L672.02 37.4335L674.16 37.7093L669.462 36.2395ZM669.937 90.244L646.278 92.5638L672.498 91.2492L669.937 90.244ZM627.42 90.6357L616.629 91.7081L630.129 91.638L627.42 90.6357ZM616.546 113.768L619.29 114.688L630.082 113.704L616.546 113.768ZM638.353 36.7005L641.016 37.8906L664.648 35.1184L638.353 36.7005ZM638.353 36.7005L638.309 76.278L641.016 37.8906L638.353 36.7005ZM669.462 36.2395L667.231 36.3196L672.02 37.4335L669.462 36.2395ZM683.615 27.2483L686.563 29.2615L686.122 28.4732L683.615 27.2483ZM671.607 36.5154L674.16 37.7093L676.194 38.3191L671.607 36.5154ZM664.648 35.1184L641.016 37.8906L667.231 36.3196L664.648 35.1184ZM638.309 76.278L640.985 77.3335L641.016 37.8906L638.309 76.278ZM643.617 131.38L646.272 132.24L646.275 114.559L643.617 131.38ZM689.236 31.7313L691.729 32.9435L689.063 30.4809L689.236 31.7313ZM640.967 99.4096L643.631 100.382L643.636 91.568L640.967 99.4096ZM613.873 90.7062L616.629 91.7081L627.42 90.6357L613.873 90.7062ZM671.607 36.5154L669.462 36.2395L674.16 37.7093L671.607 36.5154ZM643.625 113.639L643.617 131.38L646.275 114.559L643.625 113.639ZM643.617 131.38L632.748 132.3L646.272 132.24L643.617 131.38ZM686.563 29.2615L689.236 31.7313L689.063 30.4809L686.563 29.2615ZM640.974 90.5651L640.967 99.4096L643.636 91.568L640.974 90.5651ZM669.937 90.244L672.498 91.2492L676.222 90.5829L669.937 90.244ZM673.647 37.1264L671.607 36.5154L676.194 38.3191L673.647 37.1264ZM691.598 34.6234L694.085 35.8268L691.729 32.9435L691.598 34.6234ZM664.648 35.1184L667.231 36.3196L669.462 36.2395L664.648 35.1184ZM630.045 131.441L632.748 132.3L643.617 131.38L630.045 131.441ZM627.367 112.777L616.546 113.768L630.082 113.704L627.367 112.777ZM643.625 113.639L646.275 114.559L675.526 111.915L643.625 113.639ZM689.236 31.7313L691.598 34.6234L691.729 32.9435L689.236 31.7313ZM640.974 90.5651L643.636 91.568L667.357 89.2317L640.974 90.5651ZM673.67 89.5742L676.222 90.5829L679.801 89.3505L673.67 89.5742ZM684.046 28.0334L686.563 29.2615L683.615 27.2483L684.046 28.0334ZM666.885 35.0371L669.462 36.2395L671.607 36.5154L666.885 35.0371ZM693.615 37.9029L696.098 39.096L694.085 35.8268L693.615 37.9029ZM667.357 89.2317L643.636 91.568L669.937 90.244L667.357 89.2317ZM673.67 89.5742L669.937 90.244L676.222 90.5829L673.67 89.5742ZM624.692 89.6261L613.873 90.7062L627.42 90.6357L624.692 89.6261ZM613.783 112.842L616.546 113.768L627.367 112.777L613.783 112.842ZM635.671 35.5021L638.353 36.7005L662.048 33.9087L635.671 35.5021ZM635.671 35.5021L635.614 75.215L638.353 36.7005L635.671 35.5021ZM675.526 111.915L646.275 114.559L678.08 112.848L675.526 111.915ZM666.885 35.0371L664.648 35.1184L669.462 36.2395L666.885 35.0371ZM681.091 26.0146L684.046 28.0334L683.615 27.2483L681.091 26.0146ZM669.036 35.3129L671.607 36.5154L673.647 37.1264L669.036 35.3129ZM691.598 34.6234L693.615 37.9029L694.085 35.8268L691.598 34.6234ZM677.26 88.3362L679.801 89.3505L683.202 87.5934L677.26 88.3362ZM662.048 33.9087L638.353 36.7005L664.648 35.1184L662.048 33.9087ZM635.614 75.215L638.309 76.278L638.353 36.7005L635.614 75.215ZM695.251 41.5344L697.731 42.7158L696.098 39.096L695.251 41.5344ZM640.943 130.514L643.617 131.38L643.625 113.639L640.943 130.514ZM686.725 30.5105L689.236 31.7313L686.563 29.2615L686.725 30.5105ZM638.284 98.4301L640.967 99.4096L640.974 90.5651L638.284 98.4301ZM677.26 88.3362L673.67 89.5742L679.801 89.3505L677.26 88.3362ZM611.098 89.6972L613.873 90.7062L624.692 89.6261L611.098 89.6972ZM669.036 35.3129L666.885 35.0371L671.607 36.5154L669.036 35.3129ZM640.957 112.712L640.943 130.514L643.625 113.639L640.957 112.712ZM640.943 130.514L630.045 131.441L643.617 131.38L640.943 130.514ZM680.67 86.5718L683.202 87.5934L686.388 85.3538L680.67 86.5718ZM693.615 37.9029L695.251 41.5344L696.098 39.096L693.615 37.9029ZM684.046 28.0334L686.725 30.5105L686.563 29.2615L684.046 28.0334ZM696.471 45.482L698.949 46.6504L697.731 42.7158L696.471 45.482ZM638.294 89.5551L638.284 98.4301L640.974 90.5651L638.294 89.5551ZM667.357 89.2317L669.937 90.244L673.67 89.5742L667.357 89.2317ZM675.526 111.915L678.08 112.848L678.031 99.5524L675.526 111.915ZM671.081 35.9252L669.036 35.3129L673.647 37.1264L671.081 35.9252Z" fill="url(#paint0_linear_1268_3933)" fill-opacity="0.3"/>
<path d="M632.97 34.295L622.15 22.4363L621.986 75.2899L632.97 34.295Z" fill="url(#paint1_linear_1268_3933)" fill-opacity="0.2"/>
<path d="M680.67 86.5718L677.26 88.3362L683.202 87.5934L680.67 86.5718ZM689.092 33.4114L691.598 34.6234L689.236 31.7313L689.092 33.4114ZM683.865 84.3234L686.388 85.3538L689.325 82.6747L683.865 84.3234ZM662.048 33.9087L664.648 35.1184L666.885 35.0371L662.048 33.9087ZM697.24 49.7091L699.717 50.8634L698.949 46.6504L697.24 49.7091ZM627.323 130.575L630.045 131.441L640.943 130.514L627.323 130.575ZM675.481 98.5738L675.526 111.915L678.031 99.5524L675.481 98.5738ZM695.251 41.5344L696.471 45.482L697.731 42.7158L695.251 41.5344ZM624.631 111.844L613.783 112.842L627.367 112.777L624.631 111.844ZM640.957 112.712L643.625 113.639L672.954 110.976L640.957 112.712Z" fill="url(#paint2_linear_1268_3933)" fill-opacity="0.3"/>
<path d="M611.156 76.4265L611.098 89.6972L621.945 88.6094L611.156 76.4265Z" fill="url(#paint3_linear_1268_3933)" fill-opacity="0.2"/>
<path d="M686.725 30.5105L689.092 33.4114L689.236 31.7313L686.725 30.5105ZM683.865 84.3234L680.67 86.5718L686.388 85.3538L683.865 84.3234ZM686.811 81.6339L689.325 82.6747L691.978 79.5993L686.811 81.6339ZM638.294 89.5551L640.974 90.5651L664.758 88.2122L638.294 89.5551ZM671.101 88.5582L673.67 89.5742L677.26 88.3362L671.101 88.5582ZM697.522 54.1786L700 55.3177L699.717 50.8634L697.522 54.1786ZM681.511 26.7965L684.046 28.0334L681.091 26.0146L681.511 26.7965ZM664.291 33.8261L666.885 35.0371L669.036 35.3129L664.291 33.8261ZM691.114 36.7013L693.615 37.9029L691.598 34.6234L691.114 36.7013ZM664.758 88.2122L640.974 90.5651L667.357 89.2317L664.758 88.2122ZM696.471 45.482L697.24 49.7091L698.949 46.6504L696.471 45.482ZM671.101 88.5582L667.357 89.2317L673.67 89.5742L671.101 88.5582ZM621.945 88.6094L611.098 89.6972L624.692 89.6261L621.945 88.6094ZM689.472 78.5469L691.978 79.5993L694.313 76.1715L689.472 78.5469Z" fill="url(#paint4_linear_1268_3933)" fill-opacity="0.3"/>
<path d="M621.986 75.2899L611.156 76.4265L621.945 88.6094L621.986 75.2899Z" fill="url(#paint5_linear_1268_3933)" fill-opacity="0.2"/>
<path d="M697.294 58.709L699.774 59.8324L700 55.3177L697.294 58.709ZM611 111.91L613.783 112.842L624.631 111.844L611 111.91ZM632.97 34.295L635.671 35.5021L659.428 32.6902L632.97 34.295ZM686.811 81.6339L683.865 84.3234L689.325 82.6747L686.811 81.6339ZM632.97 34.295L632.9 74.1444L635.671 35.5021L632.97 34.295ZM672.954 110.976L643.625 113.639L675.526 111.915L672.954 110.976ZM664.291 33.8261L662.048 33.9087L666.885 35.0371L664.291 33.8261ZM691.814 75.1065L694.313 76.1715L696.294 72.4359L691.814 75.1065ZM678.548 24.7721L681.511 26.7965L681.091 26.0146L678.548 24.7721ZM666.447 34.1019L669.036 35.3129L671.081 35.9252L666.447 34.1019ZM696.575 63.1128L699.058 64.2209L699.774 59.8324L696.575 63.1128ZM689.092 33.4114L691.114 36.7013L691.598 34.6234L689.092 33.4114ZM693.801 71.3572L696.294 72.4359L697.887 68.4373L693.801 71.3572ZM674.7 87.3146L677.26 88.3362L680.67 86.5718L674.7 87.3146ZM659.428 32.6902L635.671 35.5021L662.048 33.9087L659.428 32.6902ZM697.24 49.7091L697.522 54.1786L699.717 50.8634L697.24 49.7091ZM695.4 67.3442L697.887 68.4373L699.058 64.2209L695.4 67.3442ZM632.9 74.1444L635.614 75.215L635.671 35.5021L632.9 74.1444ZM692.753 40.3446L695.251 41.5344L693.615 37.9029L692.753 40.3446Z" fill="url(#paint6_linear_1268_3933)" fill-opacity="0.3"/>
<path d="M622.15 22.4363L632.97 34.295L656.79 31.463L622.15 22.4363Z" fill="url(#paint7_linear_1268_3933)" fill-opacity="0.2"/>
<path d="M638.249 129.643L640.943 130.514L640.957 112.712L638.249 129.643ZM689.472 78.5469L686.811 81.6339L691.978 79.5993L689.472 78.5469ZM684.196 29.2809L686.725 30.5105L684.046 28.0334L684.196 29.2809ZM635.582 97.4435L638.284 98.4301L638.294 89.5551L635.582 97.4435ZM674.7 87.3146L671.101 88.5582L677.26 88.3362L674.7 87.3146ZM666.447 34.1019L664.291 33.8261L669.036 35.3129L666.447 34.1019ZM697.522 54.1786L697.294 58.709L700 55.3177L697.522 54.1786ZM638.269 111.778L638.249 129.643L640.957 112.712L638.269 111.778ZM691.814 75.1065L689.472 78.5469L694.313 76.1715L691.814 75.1065ZM638.249 129.643L627.323 130.575L640.943 130.514L638.249 129.643ZM678.119 85.5429L680.67 86.5718L683.865 84.3234L678.119 85.5429ZM697.294 58.709L696.575 63.1128L699.774 59.8324L697.294 58.709ZM691.114 36.7013L692.753 40.3446L693.615 37.9029L691.114 36.7013ZM693.801 71.3572L691.814 75.1065L696.294 72.4359L693.801 71.3572ZM681.511 26.7965L684.196 29.2809L684.046 28.0334L681.511 26.7965ZM693.975 44.3052L696.471 45.482L695.251 41.5344L693.975 44.3052Z" fill="url(#paint8_linear_1268_3933)" fill-opacity="0.3"/>
<path d="M632.9 74.1444L632.97 34.295L621.986 75.2899L632.9 74.1444Z" fill="url(#paint9_linear_1268_3933)" fill-opacity="0.2"/>
<path d="M696.575 63.1128L695.4 67.3442L699.058 64.2209L696.575 63.1128ZM695.4 67.3442L693.801 71.3572L697.887 68.4373L695.4 67.3442ZM635.595 88.5378L635.582 97.4435L638.294 89.5551L635.595 88.5378ZM664.758 88.2122L667.357 89.2317L671.101 88.5582L664.758 88.2122ZM672.954 110.976L675.526 111.915L675.481 98.5738L672.954 110.976ZM668.497 34.7154L666.447 34.1019L671.081 35.9252L668.497 34.7154Z" fill="url(#paint10_linear_1268_3933)" fill-opacity="0.3"/>
<path d="M611.059 98.5679L611 111.91L621.876 110.904L611.059 98.5679Z" fill="url(#paint11_linear_1268_3933)" fill-opacity="0.2"/>
<path d="M678.119 85.5429L674.7 87.3146L680.67 86.5718L678.119 85.5429ZM686.569 32.1907L689.092 33.4114L686.725 30.5105L686.569 32.1907ZM681.324 83.2855L683.865 84.3234L686.811 81.6339L681.324 83.2855ZM659.428 32.6902L662.048 33.9087L664.291 33.8261L659.428 32.6902ZM694.745 48.5466L697.24 49.7091L696.471 45.482L694.745 48.5466ZM624.582 129.704L627.323 130.575L638.249 129.643L624.582 129.704ZM672.914 97.5883L672.954 110.976L675.481 98.5738L672.914 97.5883ZM692.753 40.3446L693.975 44.3052L695.251 41.5344L692.753 40.3446Z" fill="url(#paint12_linear_1268_3933)" fill-opacity="0.3"/>
<path d="M632.9 74.1444L621.986 75.2899L621.945 88.6094L632.9 74.1444Z" fill="url(#paint13_linear_1268_3933)" fill-opacity="0.2"/>
<path d="M621.876 110.904L611 111.91L624.631 111.844L621.876 110.904Z" fill="url(#paint14_linear_1268_3933)" fill-opacity="0.3"/>
<path d="M621.918 97.5129L611.059 98.5679L621.876 110.904L621.918 97.5129Z" fill="url(#paint15_linear_1268_3933)" fill-opacity="0.2"/>
<path d="M638.269 111.778L640.957 112.712L670.364 110.03L638.269 111.778ZM684.196 29.2809L686.569 32.1907L686.725 30.5105L684.196 29.2809Z" fill="url(#paint16_linear_1268_3933)" fill-opacity="0.3"/>
<path d="M660.53 18L656.775 18.1597L622.15 22.4363L660.53 18Z" fill="url(#paint17_linear_1268_3933)" fill-opacity="0.2"/>
<path d="M681.324 83.2855L678.119 85.5429L683.865 84.3234L681.324 83.2855ZM684.278 80.5856L686.811 81.6339L689.472 78.5469L684.278 80.5856ZM635.595 88.5378L638.294 89.5551L662.141 87.1853L635.595 88.5378ZM668.512 87.5349L671.101 88.5582L674.7 87.3146L668.512 87.5349ZM695.027 53.0314L697.522 54.1786L697.24 49.7091L695.027 53.0314ZM678.957 25.5507L681.511 26.7965L678.548 24.7721L678.957 25.5507ZM661.677 32.6064L664.291 33.8261L666.447 34.1019L661.677 32.6064ZM688.595 35.491L691.114 36.7013L689.092 33.4114L688.595 35.491ZM662.141 87.1853L638.294 89.5551L664.758 88.2122L662.141 87.1853ZM693.975 44.3052L694.745 48.5466L696.471 45.482L693.975 44.3052ZM668.512 87.5349L664.758 88.2122L671.101 88.5582L668.512 87.5349Z" fill="url(#paint18_linear_1268_3933)" fill-opacity="0.3"/>
<path d="M632.9 74.1444L621.945 88.6094L621.918 97.5129L632.9 74.1444Z" fill="url(#paint19_linear_1268_3933)" fill-opacity="0.2"/>
<path d="M686.948 77.487L689.472 78.5469L691.814 75.1065L686.948 77.487ZM694.797 57.5774L697.294 58.709L697.522 54.1786L694.797 57.5774ZM684.278 80.5856L681.324 83.2855L686.811 81.6339L684.278 80.5856ZM670.364 110.03L640.957 112.712L672.954 110.976L670.364 110.03Z" fill="url(#paint20_linear_1268_3933)" fill-opacity="0.3"/>
<path d="M622.15 22.4363L656.79 31.463L659.045 31.3779L622.15 22.4363Z" fill="url(#paint21_linear_1268_3933)" fill-opacity="0.2"/>
<path d="M661.677 32.6064L659.428 32.6902L664.291 33.8261L661.677 32.6064ZM689.297 74.0337L691.814 75.1065L693.801 71.3572L689.297 74.0337ZM675.988 23.5207L678.957 25.5507L678.548 24.7721L675.988 23.5207ZM663.84 32.8822L666.447 34.1019L668.497 34.7154L663.84 32.8822ZM694.075 61.9968L696.575 63.1128L697.294 58.709L694.075 61.9968ZM686.569 32.1907L688.595 35.491L689.092 33.4114L686.569 32.1907ZM691.291 70.2707L693.801 71.3572L695.4 67.3442L691.291 70.2707ZM672.121 86.2857L674.7 87.3146L678.119 85.5429L672.121 86.2857ZM656.79 31.463L632.97 34.295L659.428 32.6902L656.79 31.463ZM694.745 48.5466L695.027 53.0314L697.24 49.7091L694.745 48.5466ZM692.895 66.2432L695.4 67.3442L696.575 63.1128L692.895 66.2432Z" fill="url(#paint22_linear_1268_3933)" fill-opacity="0.3"/>
<path d="M667.582 19.4491L660.53 18L622.15 22.4363L667.582 19.4491Z" fill="url(#paint23_linear_1268_3933)" fill-opacity="0.2"/>
<path d="M690.237 39.1462L692.753 40.3446L691.114 36.7013L690.237 39.1462Z" fill="url(#paint24_linear_1268_3933)" fill-opacity="0.3"/>
<path d="M622.15 22.4363L659.045 31.3779L661.213 31.6537L622.15 22.4363Z" fill="url(#paint25_linear_1268_3933)" fill-opacity="0.2"/>
<path d="M635.537 128.764L638.249 129.643L638.269 111.778L635.537 128.764ZM686.948 77.487L684.278 80.5856L689.472 78.5469L686.948 77.487ZM681.649 28.0425L684.196 29.2809L681.511 26.7965L681.649 28.0425ZM632.86 96.4498L635.582 97.4435L635.595 88.5378L632.86 96.4498ZM672.121 86.2857L668.512 87.5349L674.7 87.3146L672.121 86.2857ZM663.84 32.8822L661.677 32.6064L666.447 34.1019L663.84 32.8822ZM695.027 53.0314L694.797 57.5774L697.522 54.1786L695.027 53.0314Z" fill="url(#paint26_linear_1268_3933)" fill-opacity="0.3"/>
<path d="M632.9 74.1444L621.918 97.5129L632.876 87.5133L632.9 74.1444Z" fill="url(#paint27_linear_1268_3933)" fill-opacity="0.2"/>
<path d="M635.563 110.838L635.537 128.764L638.269 111.778L635.563 110.838ZM689.297 74.0337L686.948 77.487L691.814 75.1065L689.297 74.0337Z" fill="url(#paint28_linear_1268_3933)" fill-opacity="0.3"/>
<path d="M621.918 97.5129L621.876 110.904L632.876 87.5133L621.918 97.5129Z" fill="url(#paint29_linear_1268_3933)" fill-opacity="0.2"/>
<path d="M635.537 128.764L624.582 129.704L638.249 129.643L635.537 128.764ZM675.551 84.5066L678.119 85.5429L681.324 83.2855L675.551 84.5066ZM694.797 57.5774L694.075 61.9968L697.294 58.709L694.797 57.5774ZM688.595 35.491L690.237 39.1462L691.114 36.7013L688.595 35.491ZM691.291 70.2707L689.297 74.0337L693.801 71.3572L691.291 70.2707ZM678.957 25.5507L681.649 28.0425L681.511 26.7965L678.957 25.5507ZM691.462 43.12L693.975 44.3052L692.753 40.3446L691.462 43.12ZM694.075 61.9968L692.895 66.2432L696.575 63.1128L694.075 61.9968ZM692.895 66.2432L691.291 70.2707L695.4 67.3442L692.895 66.2432ZM632.876 87.5133L632.86 96.4498L635.595 88.5378L632.876 87.5133ZM662.141 87.1853L664.758 88.2122L668.512 87.5349L662.141 87.1853ZM670.364 110.03L672.954 110.976L672.914 97.5883L670.364 110.03ZM665.895 33.4969L663.84 32.8822L668.497 34.7154L665.895 33.4969ZM675.551 84.5066L672.121 86.2857L678.119 85.5429L675.551 84.5066ZM684.027 30.9613L686.569 32.1907L684.196 29.2809L684.027 30.9613ZM678.764 82.2402L681.324 83.2855L684.278 80.5856L678.764 82.2402ZM656.79 31.463L659.428 32.6902L661.677 32.6064L656.79 31.463ZM692.232 47.3757L694.745 48.5466L693.975 44.3052L692.232 47.3757ZM621.821 128.826L624.582 129.704L635.537 128.764L621.821 128.826ZM670.327 96.5956L670.364 110.03L672.914 97.5883L670.327 96.5956ZM690.237 39.1462L691.462 43.12L692.753 40.3446L690.237 39.1462Z" fill="url(#paint30_linear_1268_3933)" fill-opacity="0.3"/>
<path d="M621.876 110.904L632.86 96.4498L632.876 87.5133L621.876 110.904Z" fill="url(#paint31_linear_1268_3933)" fill-opacity="0.2"/>
<path d="M635.563 110.838L638.269 111.778L667.755 109.077L635.563 110.838ZM681.649 28.0425L684.027 30.9613L684.196 29.2809L681.649 28.0425ZM678.764 82.2402L675.551 84.5066L681.324 83.2855L678.764 82.2402ZM681.728 79.5299L684.278 80.5856L686.948 77.487L681.728 79.5299ZM632.876 87.5133L635.595 88.5378L659.505 86.151L632.876 87.5133ZM665.905 86.5043L668.512 87.5349L672.121 86.2857L665.905 86.5043Z" fill="url(#paint32_linear_1268_3933)" fill-opacity="0.3"/>
<path d="M678.889 28.4757L622.15 22.4363L661.213 31.6537L678.889 28.4757Z" fill="url(#paint33_linear_1268_3933)" fill-opacity="0.2"/>
<path d="M692.514 51.8758L695.027 53.0314L694.745 48.5466L692.514 51.8758ZM676.385 24.296L678.957 25.5507L675.988 23.5207L676.385 24.296ZM659.045 31.3779L661.677 32.6064L663.84 32.8822L659.045 31.3779ZM686.057 34.2721L688.595 35.491L686.569 32.1907L686.057 34.2721Z" fill="url(#paint34_linear_1268_3933)" fill-opacity="0.3"/>
<path d="M678.889 28.4757L667.582 19.4491L622.15 22.4363L678.889 28.4757Z" fill="url(#paint35_linear_1268_3933)" fill-opacity="0.2"/>
<path d="M659.505 86.151L635.595 88.5378L662.141 87.1853L659.505 86.151ZM691.462 43.12L692.232 47.3757L693.975 44.3052L691.462 43.12ZM665.905 86.5043L662.141 87.1853L668.512 87.5349L665.905 86.5043Z" fill="url(#paint36_linear_1268_3933)" fill-opacity="0.3"/>
<path d="M621.876 110.904L621.821 128.826L632.836 109.891L621.876 110.904ZM621.876 110.904L632.836 109.891L632.86 96.4498L621.876 110.904Z" fill="url(#paint37_linear_1268_3933)" fill-opacity="0.2"/>
<path d="M684.405 76.4194L686.948 77.487L689.297 74.0337L684.405 76.4194ZM692.281 56.4377L694.797 57.5774L695.027 53.0314L692.281 56.4377ZM681.728 79.5299L678.764 82.2402L684.278 80.5856L681.728 79.5299ZM667.755 109.077L638.269 111.778L670.364 110.03L667.755 109.077ZM659.045 31.3779L656.79 31.463L661.677 32.6064L659.045 31.3779ZM686.762 72.9533L689.297 74.0337L691.291 70.2707L686.762 72.9533ZM673.409 22.2603L676.385 24.296L675.988 23.5207L673.409 22.2603ZM661.213 31.6537L663.84 32.8822L665.895 33.4969L661.213 31.6537ZM691.556 60.8727L694.075 61.9968L694.797 57.5774L691.556 60.8727ZM684.027 30.9613L686.057 34.2721L686.569 32.1907L684.027 30.9613ZM688.762 69.1765L691.291 70.2707L692.895 66.2432L688.762 69.1765ZM669.524 85.2494L672.121 86.2857L675.551 84.5066L669.524 85.2494ZM692.232 47.3757L692.514 51.8758L694.745 48.5466L692.232 47.3757ZM690.372 65.1343L692.895 66.2432L694.075 61.9968L690.372 65.1343ZM687.704 37.9391L690.237 39.1462L688.595 35.491L687.704 37.9391Z" fill="url(#paint38_linear_1268_3933)" fill-opacity="0.3"/>
<path d="M656.835 71.6323L632.9 74.1444L632.876 87.5133L656.835 71.6323Z" fill="url(#paint39_linear_1268_3933)" fill-opacity="0.2"/>
<path d="M632.805 127.88L635.537 128.764L635.563 110.838L632.805 127.88ZM684.405 76.4194L681.728 79.5299L686.948 77.487L684.405 76.4194ZM679.083 26.7951L681.649 28.0425L678.957 25.5507L679.083 26.7951ZM669.524 85.2494L665.905 86.5043L672.121 86.2857L669.524 85.2494ZM661.213 31.6537L659.045 31.3779L663.84 32.8822L661.213 31.6537ZM692.514 51.8758L692.281 56.4377L695.027 53.0314L692.514 51.8758ZM632.836 109.891L632.805 127.88L635.563 110.838L632.836 109.891ZM686.762 72.9533L684.405 76.4194L689.297 74.0337L686.762 72.9533ZM632.805 127.88L621.821 128.826L635.537 128.764L632.805 127.88ZM672.963 83.4628L675.551 84.5066L678.764 82.2402L672.963 83.4628ZM692.281 56.4377L691.556 60.8727L694.797 57.5774L692.281 56.4377ZM686.057 34.2721L687.704 37.9391L688.595 35.491L686.057 34.2721ZM688.762 69.1765L686.762 72.9533L691.291 70.2707L688.762 69.1765ZM676.385 24.296L679.083 26.7951L678.957 25.5507L676.385 24.296ZM688.93 41.9262L691.462 43.12L690.237 39.1462L688.93 41.9262ZM691.556 60.8727L690.372 65.1343L694.075 61.9968L691.556 60.8727ZM690.372 65.1343L688.762 69.1765L692.895 66.2432L690.372 65.1343ZM659.505 86.151L662.141 87.1853L665.905 86.5043L659.505 86.151ZM667.755 109.077L670.364 110.03L670.327 96.5956L667.755 109.077ZM663.273 32.2697L661.213 31.6537L665.895 33.4969L663.273 32.2697Z" fill="url(#paint40_linear_1268_3933)" fill-opacity="0.3"/>
<path d="M621.821 128.826L632.805 127.88L632.836 109.891L621.821 128.826ZM667.582 19.4491L664.144 18.441L660.53 18L667.582 19.4491Z" fill="url(#paint41_linear_1268_3933)" fill-opacity="0.2"/>
<path d="M672.963 83.4628L669.524 85.2494L675.551 84.5066L672.963 83.4628ZM681.467 29.723L684.027 30.9613L681.649 28.0425L681.467 29.723ZM676.187 81.1874L678.764 82.2402L681.728 79.5299L676.187 81.1874ZM689.701 46.1963L692.232 47.3757L691.462 43.12L689.701 46.1963ZM667.722 95.5959L667.755 109.077L670.327 96.5956L667.722 95.5959ZM687.704 37.9391L688.93 41.9262L690.237 39.1462L687.704 37.9391ZM632.836 109.891L635.563 110.838L665.127 108.117L632.836 109.891ZM679.083 26.7951L681.467 29.723L681.649 28.0425L679.083 26.7951ZM676.187 81.1874L672.963 83.4628L678.764 82.2402L676.187 81.1874ZM679.159 78.4664L681.728 79.5299L684.405 76.4194L679.159 78.4664ZM663.28 85.4663L665.905 86.5043L669.524 85.2494L663.28 85.4663ZM689.982 50.712L692.514 51.8758L692.232 47.3757L689.982 50.712ZM673.795 23.0322L676.385 24.296L673.409 22.2603L673.795 23.0322ZM683.502 33.0443L686.057 34.2721L684.027 30.9613L683.502 33.0443ZM656.85 85.1092L632.876 87.5133L659.505 86.151L656.85 85.1092ZM688.93 41.9262L689.701 46.1963L691.462 43.12L688.93 41.9262ZM663.28 85.4663L659.505 86.151L665.905 86.5043L663.28 85.4663ZM681.844 75.3441L684.405 76.4194L686.762 72.9533L681.844 75.3441ZM689.748 55.2898L692.281 56.4377L692.514 51.8758L689.748 55.2898ZM679.159 78.4664L676.187 81.1874L681.728 79.5299L679.159 78.4664Z" fill="url(#paint42_linear_1268_3933)" fill-opacity="0.3"/>
<path d="M659.101 71.2098L656.835 71.6323L632.876 87.5133L659.101 71.2098Z" fill="url(#paint43_linear_1268_3933)" fill-opacity="0.2"/>
<path d="M665.127 108.117L635.563 110.838L667.755 109.077L665.127 108.117ZM684.208 71.865L686.762 72.9533L688.762 69.1765L684.208 71.865ZM670.811 20.9909L673.795 23.0322L673.409 22.2603L670.811 20.9909ZM689.019 59.7405L691.556 60.8727L692.281 56.4377L689.019 59.7405ZM681.467 29.723L683.502 33.0443L684.027 30.9613L681.467 29.723ZM686.215 68.0743L688.762 69.1765L690.372 65.1343L686.215 68.0743ZM666.909 84.2056L669.524 85.2494L672.963 83.4628L666.909 84.2056ZM689.701 46.1963L689.982 50.712L692.232 47.3757L689.701 46.1963ZM687.83 64.0174L690.372 65.1343L691.556 60.8727L687.83 64.0174Z" fill="url(#paint44_linear_1268_3933)" fill-opacity="0.3"/>
<path d="M661.277 70.4427L659.101 71.2098L632.876 87.5133L661.277 70.4427Z" fill="url(#paint45_linear_1268_3933)" fill-opacity="0.2"/>
<path d="M685.151 36.7234L687.704 37.9391L686.057 34.2721L685.151 36.7234ZM681.844 75.3441L679.159 78.4664L684.405 76.4194L681.844 75.3441ZM676.499 25.5387L679.083 26.7951L676.385 24.296L676.499 25.5387ZM666.909 84.2056L663.28 85.4663L669.524 85.2494L666.909 84.2056Z" fill="url(#paint46_linear_1268_3933)" fill-opacity="0.3"/>
<path d="M632.836 109.891L662.48 107.15L632.86 96.4498L632.836 109.891ZM673.795 23.0322L670.811 20.9909L667.582 19.4491L673.795 23.0322Z" fill="url(#paint47_linear_1268_3933)" fill-opacity="0.2"/>
<path d="M689.982 50.712L689.748 55.2898L692.514 51.8758L689.982 50.712Z" fill="url(#paint48_linear_1268_3933)" fill-opacity="0.3"/>
<path d="M678.889 28.4757L661.213 31.6537L663.273 32.2697L678.889 28.4757Z" fill="url(#paint49_linear_1268_3933)" fill-opacity="0.2"/>
<path d="M684.208 71.865L681.844 75.3441L686.762 72.9533L684.208 71.865Z" fill="url(#paint50_linear_1268_3933)" fill-opacity="0.3"/>
<path d="M632.876 87.5133L656.85 85.1092L660.635 84.4207L632.876 87.5133Z" fill="url(#paint51_linear_1268_3933)" fill-opacity="0.2"/>
<path d="M670.357 82.4115L672.963 83.4628L676.187 81.1874L670.357 82.4115ZM689.748 55.2898L689.019 59.7405L692.281 56.4377L689.748 55.2898ZM683.502 33.0443L685.151 36.7234L686.057 34.2721L683.502 33.0443ZM686.215 68.0743L684.208 71.865L688.762 69.1765L686.215 68.0743ZM673.795 23.0322L676.499 25.5387L676.385 24.296L673.795 23.0322ZM686.38 40.7237L688.93 41.9262L687.704 37.9391L686.38 40.7237ZM689.019 59.7405L687.83 64.0174L691.556 60.8727L689.019 59.7405Z" fill="url(#paint52_linear_1268_3933)" fill-opacity="0.3"/>
<path d="M678.889 28.4757L663.273 32.2697L665.206 33.2048L678.889 28.4757Z" fill="url(#paint53_linear_1268_3933)" fill-opacity="0.2"/>
<path d="M687.83 64.0174L686.215 68.0743L690.372 65.1343L687.83 64.0174ZM656.85 85.1092L659.505 86.151L663.28 85.4663L656.85 85.1092ZM665.127 108.117L667.755 109.077L667.722 95.5959L665.127 108.117ZM670.357 82.4115L666.909 84.2056L672.963 83.4628L670.357 82.4115ZM678.889 28.4757L681.467 29.723L679.083 26.7951L678.889 28.4757Z" fill="url(#paint54_linear_1268_3933)" fill-opacity="0.3"/>
<path d="M678.889 28.4757L665.206 33.2048L666.99 34.4382L678.889 28.4757Z" fill="url(#paint55_linear_1268_3933)" fill-opacity="0.2"/>
<path d="M673.59 80.1269L676.187 81.1874L679.159 78.4664L673.59 80.1269Z" fill="url(#paint56_linear_1268_3933)" fill-opacity="0.3"/>
<path d="M678.889 28.4757L673.795 23.0322L667.582 19.4491L678.889 28.4757Z" fill="url(#paint57_linear_1268_3933)" fill-opacity="0.2"/>
<path d="M687.152 45.0084L689.701 46.1963L688.93 41.9262L687.152 45.0084ZM665.099 94.5889L665.127 108.117L667.722 95.5959L665.099 94.5889ZM685.151 36.7234L686.38 40.7237L687.704 37.9391L685.151 36.7234Z" fill="url(#paint58_linear_1268_3933)" fill-opacity="0.3"/>
<path d="M678.889 28.4757L666.99 34.4382L668.605 35.9486L678.889 28.4757Z" fill="url(#paint59_linear_1268_3933)" fill-opacity="0.2"/>
<path d="M676.499 25.5387L678.889 28.4757L679.083 26.7951L676.499 25.5387ZM673.59 80.1269L670.357 82.4115L676.187 81.1874L673.59 80.1269ZM676.571 77.3953L679.159 78.4664L681.844 75.3441L676.571 77.3953ZM660.635 84.4207L663.28 85.4663L666.909 84.2056L660.635 84.4207Z" fill="url(#paint60_linear_1268_3933)" fill-opacity="0.3"/>
<path d="M661.277 70.4427L632.876 87.5133L682.692 61.7592L661.277 70.4427Z" fill="url(#paint61_linear_1268_3933)" fill-opacity="0.2"/>
<path d="M687.432 49.5396L689.982 50.712L689.701 46.1963L687.432 49.5396ZM680.928 31.8077L683.502 33.0443L681.467 29.723L680.928 31.8077Z" fill="url(#paint62_linear_1268_3933)" fill-opacity="0.3"/>
<path d="M678.889 28.4757L668.605 35.9486L670.03 37.7148L678.889 28.4757Z" fill="url(#paint63_linear_1268_3933)" fill-opacity="0.2"/>
<path d="M686.38 40.7237L687.152 45.0084L688.93 41.9262L686.38 40.7237ZM660.635 84.4207L656.85 85.1092L663.28 85.4663L660.635 84.4207ZM679.265 74.2611L681.844 75.3441L684.208 71.865L679.265 74.2611Z" fill="url(#paint64_linear_1268_3933)" fill-opacity="0.3"/>
<path d="M632.876 87.5133L660.635 84.4207L682.692 61.7592L632.876 87.5133ZM678.889 28.4757L676.499 25.5387L673.795 23.0322L678.889 28.4757Z" fill="url(#paint65_linear_1268_3933)" fill-opacity="0.2"/>
<path d="M687.196 54.1335L689.748 55.2898L689.982 50.712L687.196 54.1335Z" fill="url(#paint66_linear_1268_3933)" fill-opacity="0.3"/>
<path d="M678.889 28.4757L670.03 37.7148L671.245 39.7152L678.889 28.4757Z" fill="url(#paint67_linear_1268_3933)" fill-opacity="0.2"/>
<path d="M676.571 77.3953L673.59 80.1269L679.159 78.4664L676.571 77.3953ZM662.48 107.15L632.836 109.891L665.127 108.117L662.48 107.15ZM681.636 70.7689L684.208 71.865L686.215 68.0743L681.636 70.7689Z" fill="url(#paint68_linear_1268_3933)" fill-opacity="0.3"/>
<path d="M662.48 107.15L662.456 93.5746L632.86 96.4498L662.48 107.15Z" fill="url(#paint69_linear_1268_3933)" fill-opacity="0.2"/>
<path d="M686.464 58.6001L689.019 59.7405L689.748 55.2898L686.464 58.6001ZM678.889 28.4757L680.928 31.8077L681.467 29.723L678.889 28.4757ZM683.65 66.9641L686.215 68.0743L687.83 64.0174L683.65 66.9641ZM664.274 83.1543L666.909 84.2056L670.357 82.4115L664.274 83.1543ZM687.152 45.0084L687.432 49.5396L689.701 46.1963L687.152 45.0084ZM685.271 62.8924L687.83 64.0174L689.019 59.7405L685.271 62.8924Z" fill="url(#paint70_linear_1268_3933)" fill-opacity="0.3"/>
<path d="M678.889 28.4757L671.245 39.7152L672.228 41.9282L678.889 28.4757Z" fill="url(#paint71_linear_1268_3933)" fill-opacity="0.2"/>
<path d="M682.581 35.4988L685.151 36.7234L683.502 33.0443L682.581 35.4988ZM679.265 74.2611L676.571 77.3953L681.844 75.3441L679.265 74.2611Z" fill="url(#paint72_linear_1268_3933)" fill-opacity="0.3"/>
<path d="M678.889 28.4757L672.228 41.9282L672.958 44.3318L678.889 28.4757Z" fill="url(#paint73_linear_1268_3933)" fill-opacity="0.2"/>
<path d="M664.274 83.1543L660.635 84.4207L666.909 84.2056L664.274 83.1543ZM687.432 49.5396L687.196 54.1335L689.982 50.712L687.432 49.5396ZM681.636 70.7689L679.265 74.2611L684.208 71.865L681.636 70.7689Z" fill="url(#paint74_linear_1268_3933)" fill-opacity="0.3"/>
<path d="M678.889 28.4757L672.958 44.3318L673.415 46.9039L678.889 28.4757Z" fill="url(#paint75_linear_1268_3933)" fill-opacity="0.2"/>
<path d="M667.733 81.3526L670.357 82.4115L673.59 80.1269L667.733 81.3526ZM687.196 54.1335L686.464 58.6001L689.748 55.2898L687.196 54.1335ZM680.928 31.8077L682.581 35.4988L683.502 33.0443L680.928 31.8077Z" fill="url(#paint76_linear_1268_3933)" fill-opacity="0.3"/>
<path d="M678.889 28.4757L673.415 46.9039L673.578 49.6221L678.889 28.4757Z" fill="url(#paint77_linear_1268_3933)" fill-opacity="0.2"/>
<path d="M683.65 66.9641L681.636 70.7689L686.215 68.0743L683.65 66.9641ZM683.811 39.5126L686.38 40.7237L685.151 36.7234L683.811 39.5126ZM686.464 58.6001L685.271 62.8924L689.019 59.7405L686.464 58.6001ZM685.271 62.8924L683.65 66.9641L687.83 64.0174L685.271 62.8924Z" fill="url(#paint78_linear_1268_3933)" fill-opacity="0.3"/>
<path d="M678.889 28.4757L673.578 49.6221L673.432 52.3767L678.889 28.4757Z" fill="url(#paint79_linear_1268_3933)" fill-opacity="0.2"/>
<path d="M662.48 107.15L665.127 108.117L665.099 94.5889L662.48 107.15Z" fill="url(#paint80_linear_1268_3933)" fill-opacity="0.3"/>
<path d="M678.889 28.4757L673.432 52.3767L672.991 55.0545L678.889 28.4757Z" fill="url(#paint81_linear_1268_3933)" fill-opacity="0.2"/>
<path d="M667.733 81.3526L664.274 83.1543L670.357 82.4115L667.733 81.3526ZM670.975 79.0587L673.59 80.1269L676.571 77.3953L670.975 79.0587Z" fill="url(#paint82_linear_1268_3933)" fill-opacity="0.3"/>
<path d="M682.581 35.4988L680.928 31.8077L678.889 28.4757L682.581 35.4988ZM663.344 69.357L661.277 70.4427L682.692 61.7592L663.344 69.357Z" fill="url(#paint83_linear_1268_3933)" fill-opacity="0.2"/>
<path d="M684.584 43.8118L687.152 45.0084L686.38 40.7237L684.584 43.8118ZM662.456 93.5746L662.48 107.15L665.099 94.5889L662.456 93.5746ZM682.581 35.4988L683.811 39.5126L685.151 36.7234L682.581 35.4988Z" fill="url(#paint84_linear_1268_3933)" fill-opacity="0.3"/>
<path d="M660.635 84.4207L664.274 83.1543L667.733 81.3526L660.635 84.4207ZM665.28 67.9787L663.344 69.357L682.692 61.7592L665.28 67.9787Z" fill="url(#paint85_linear_1268_3933)" fill-opacity="0.2"/>
<path d="M670.975 79.0587L667.733 81.3526L673.59 80.1269L670.975 79.0587ZM673.964 76.3164L676.571 77.3953L679.265 74.2611L673.964 76.3164Z" fill="url(#paint86_linear_1268_3933)" fill-opacity="0.3"/>
<path d="M667.065 66.3342L665.28 67.9787L682.692 61.7592L667.065 66.3342Z" fill="url(#paint87_linear_1268_3933)" fill-opacity="0.2"/>
<path d="M684.864 48.3588L687.432 49.5396L687.152 45.0084L684.864 48.3588Z" fill="url(#paint88_linear_1268_3933)" fill-opacity="0.3"/>
<path d="M684.584 43.8118L682.581 35.4988L678.889 28.4757L684.584 43.8118ZM668.678 64.4501L667.065 66.3342L682.692 61.7592L668.678 64.4501Z" fill="url(#paint89_linear_1268_3933)" fill-opacity="0.2"/>
<path d="M683.811 39.5126L684.584 43.8118L686.38 40.7237L683.811 39.5126Z" fill="url(#paint90_linear_1268_3933)" fill-opacity="0.3"/>
<path d="M682.692 61.7592L678.889 28.4757L672.991 55.0545L682.692 61.7592ZM660.635 84.4207L667.733 81.3526L673.964 76.3164L660.635 84.4207Z" fill="url(#paint91_linear_1268_3933)" fill-opacity="0.2"/>
<path d="M676.667 73.1701L679.265 74.2611L681.636 70.7689L676.667 73.1701Z" fill="url(#paint92_linear_1268_3933)" fill-opacity="0.3"/>
<path d="M670.097 62.353L668.678 64.4501L682.692 61.7592L670.097 62.353Z" fill="url(#paint93_linear_1268_3933)" fill-opacity="0.2"/>
<path d="M684.625 52.9689L687.196 54.1335L687.432 49.5396L684.625 52.9689Z" fill="url(#paint94_linear_1268_3933)" fill-opacity="0.3"/>
<path d="M671.303 60.07L670.097 62.353L682.692 61.7592L671.303 60.07Z" fill="url(#paint95_linear_1268_3933)" fill-opacity="0.2"/>
<path d="M673.964 76.3164L670.975 79.0587L676.571 77.3953L673.964 76.3164Z" fill="url(#paint96_linear_1268_3933)" fill-opacity="0.3"/>
<path d="M672.275 57.6281L671.303 60.07L682.692 61.7592L672.275 57.6281ZM672.991 55.0545L672.275 57.6281L682.692 61.7592L672.991 55.0545Z" fill="url(#paint97_linear_1268_3933)" fill-opacity="0.2"/>
<path d="M679.045 69.6648L681.636 70.7689L683.65 66.9641L679.045 69.6648ZM683.89 57.4513L686.464 58.6001L687.196 54.1335L683.89 57.4513ZM681.066 65.8458L683.65 66.9641L685.271 62.8924L681.066 65.8458ZM684.584 43.8118L684.864 48.3588L687.152 45.0084L684.584 43.8118ZM682.692 61.7592L685.271 62.8924L686.464 58.6001L682.692 61.7592Z" fill="url(#paint98_linear_1268_3933)" fill-opacity="0.3"/>
<path d="M684.584 43.8118L683.811 39.5126L682.581 35.4988L684.584 43.8118ZM682.692 61.7592L684.584 43.8118L678.889 28.4757L682.692 61.7592Z" fill="url(#paint99_linear_1268_3933)" fill-opacity="0.2"/>
<path d="M676.667 73.1701L673.964 76.3164L679.265 74.2611L676.667 73.1701Z" fill="url(#paint100_linear_1268_3933)" fill-opacity="0.3"/>
<path d="M660.635 84.4207L673.964 76.3164L682.692 61.7592L660.635 84.4207ZM667.733 81.3526L670.975 79.0587L673.964 76.3164L667.733 81.3526Z" fill="url(#paint101_linear_1268_3933)" fill-opacity="0.2"/>
<path d="M684.864 48.3588L684.625 52.9689L687.432 49.5396L684.864 48.3588ZM679.045 69.6648L676.667 73.1701L681.636 70.7689L679.045 69.6648ZM684.625 52.9689L683.89 57.4513L687.196 54.1335L684.625 52.9689ZM681.066 65.8458L679.045 69.6648L683.65 66.9641L681.066 65.8458ZM683.89 57.4513L682.692 61.7592L686.464 58.6001L683.89 57.4513ZM682.692 61.7592L681.066 65.8458L685.271 62.8924L682.692 61.7592Z" fill="url(#paint102_linear_1268_3933)" fill-opacity="0.3"/>
<path d="M684.625 52.9689L684.864 48.3588L684.584 43.8118L684.625 52.9689ZM673.964 76.3164L676.667 73.1701L679.045 69.6648L673.964 76.3164ZM682.692 61.7592L684.625 52.9689L684.584 43.8118L682.692 61.7592ZM673.964 76.3164L679.045 69.6648L682.692 61.7592L673.964 76.3164ZM679.045 69.6648L681.066 65.8458L682.692 61.7592L679.045 69.6648ZM682.692 61.7592L683.89 57.4513L684.625 52.9689L682.692 61.7592Z" fill="url(#paint103_linear_1268_3933)" fill-opacity="0.2"/>
</g>
<g filter="url(#filter3_f_1268_3933)">
<ellipse cx="303.479" cy="27.7411" rx="303.479" ry="27.7411" transform="matrix(0.999846 -0.0175348 0.589594 0.8077 174.031 182.307)" fill="#37779D"/>
</g>
</g>
</g>
<defs>
<filter id="filter0_bd_1268_3933" x="-1" y="-1" width="770" height="130" filterUnits="userSpaceOnUse" color-interpolation-filters="sRGB">
<feFlood flood-opacity="0" result="BackgroundImageFix"/>
<feGaussianBlur in="BackgroundImageFix" stdDeviation="2.5"/>
<feComposite in2="SourceAlpha" operator="in" result="effect1_backgroundBlur_1268_3933"/>
<feColorMatrix in="SourceAlpha" type="matrix" values="0 0 0 0 0 0 0 0 0 0 0 0 0 0 0 0 0 0 127 0" result="hardAlpha"/>
<feOffset/>
<feGaussianBlur stdDeviation="2"/>
<feComposite in2="hardAlpha" operator="out"/>
<feColorMatrix type="matrix" values="0 0 0 0 0 0 0 0 0 0 0 0 0 0 0 0 0 0 0.6 0"/>
<feBlend mode="normal" in2="effect1_backgroundBlur_1268_3933" result="effect2_dropShadow_1268_3933"/>
<feBlend mode="normal" in="SourceGraphic" in2="effect2_dropShadow_1268_3933" result="shape"/>
</filter>
<filter id="filter1_f_1268_3933" x="406.229" y="-13.9747" width="531.858" height="450.173" filterUnits="userSpaceOnUse" color-interpolation-filters="sRGB">
<feFlood flood-opacity="0" result="BackgroundImageFix"/>
<feBlend mode="normal" in="SourceGraphic" in2="BackgroundImageFix" result="shape"/>
<feGaussianBlur stdDeviation="75" result="effect1_foregroundBlur_1268_3933"/>
</filter>
<filter id="filter2_f_1268_3933" x="-157.382" y="91.1912" width="619.829" height="359.048" filterUnits="userSpaceOnUse" color-interpolation-filters="sRGB">
<feFlood flood-opacity="0" result="BackgroundImageFix"/>
<feBlend mode="normal" in="SourceGraphic" in2="BackgroundImageFix" result="shape"/>
<feGaussianBlur stdDeviation="75" result="effect1_foregroundBlur_1268_3933"/>
</filter>
<filter id="filter3_f_1268_3933" x="39.9387" y="26.3567" width="907.762" height="346.07" filterUnits="userSpaceOnUse" color-interpolation-filters="sRGB">
<feFlood flood-opacity="0" result="BackgroundImageFix"/>
<feBlend mode="normal" in="SourceGraphic" in2="BackgroundImageFix" result="shape"/>
<feGaussianBlur stdDeviation="75" result="effect1_foregroundBlur_1268_3933"/>
</filter>
<linearGradient id="paint0_linear_1268_3933" x1="655.5" y1="18" x2="655.5" y2="134" gradientUnits="userSpaceOnUse">
<stop stop-color="#121212"/>
<stop offset="0.07" stop-color="#C6C6C6"/>
<stop offset="0.125" stop-color="#646464"/>
<stop offset="0.25" stop-color="#3E3E3E"/>
<stop offset="0.48" stop-color="#232323"/>
<stop offset="0.57" stop-color="#7C7C7C"/>
<stop offset="0.68" stop-color="#2F2F2F"/>
<stop offset="0.815" stop-color="#606060"/>
<stop offset="1" stop-color="#262626"/>
</linearGradient>
<linearGradient id="paint1_linear_1268_3933" x1="616.006" y1="2.33998" x2="716.103" y2="19.2053" gradientUnits="userSpaceOnUse">
<stop stop-color="#727272"/>
<stop offset="0.19" stop-color="#B1B1B1"/>
<stop offset="0.5" stop-color="white"/>
<stop offset="0.76" stop-color="#A4A4A4"/>
<stop offset="1" stop-color="#424242"/>
</linearGradient>
<linearGradient id="paint2_linear_1268_3933" x1="655.5" y1="18" x2="655.5" y2="134" gradientUnits="userSpaceOnUse">
<stop stop-color="#121212"/>
<stop offset="0.07" stop-color="#C6C6C6"/>
<stop offset="0.125" stop-color="#646464"/>
<stop offset="0.25" stop-color="#3E3E3E"/>
<stop offset="0.48" stop-color="#232323"/>
<stop offset="0.57" stop-color="#7C7C7C"/>
<stop offset="0.68" stop-color="#2F2F2F"/>
<stop offset="0.815" stop-color="#606060"/>
<stop offset="1" stop-color="#262626"/>
</linearGradient>
<linearGradient id="paint3_linear_1268_3933" x1="616.006" y1="2.33998" x2="716.103" y2="19.2053" gradientUnits="userSpaceOnUse">
<stop stop-color="#727272"/>
<stop offset="0.19" stop-color="#B1B1B1"/>
<stop offset="0.5" stop-color="white"/>
<stop offset="0.76" stop-color="#A4A4A4"/>
<stop offset="1" stop-color="#424242"/>
</linearGradient>
<linearGradient id="paint4_linear_1268_3933" x1="655.5" y1="18" x2="655.5" y2="134" gradientUnits="userSpaceOnUse">
<stop stop-color="#121212"/>
<stop offset="0.07" stop-color="#C6C6C6"/>
<stop offset="0.125" stop-color="#646464"/>
<stop offset="0.25" stop-color="#3E3E3E"/>
<stop offset="0.48" stop-color="#232323"/>
<stop offset="0.57" stop-color="#7C7C7C"/>
<stop offset="0.68" stop-color="#2F2F2F"/>
<stop offset="0.815" stop-color="#606060"/>
<stop offset="1" stop-color="#262626"/>
</linearGradient>
<linearGradient id="paint5_linear_1268_3933" x1="616.006" y1="2.33998" x2="716.103" y2="19.2053" gradientUnits="userSpaceOnUse">
<stop stop-color="#727272"/>
<stop offset="0.19" stop-color="#B1B1B1"/>
<stop offset="0.5" stop-color="white"/>
<stop offset="0.76" stop-color="#A4A4A4"/>
<stop offset="1" stop-color="#424242"/>
</linearGradient>
<linearGradient id="paint6_linear_1268_3933" x1="655.5" y1="18" x2="655.5" y2="134" gradientUnits="userSpaceOnUse">
<stop stop-color="#121212"/>
<stop offset="0.07" stop-color="#C6C6C6"/>
<stop offset="0.125" stop-color="#646464"/>
<stop offset="0.25" stop-color="#3E3E3E"/>
<stop offset="0.48" stop-color="#232323"/>
<stop offset="0.57" stop-color="#7C7C7C"/>
<stop offset="0.68" stop-color="#2F2F2F"/>
<stop offset="0.815" stop-color="#606060"/>
<stop offset="1" stop-color="#262626"/>
</linearGradient>
<linearGradient id="paint7_linear_1268_3933" x1="616.006" y1="2.33998" x2="716.103" y2="19.2053" gradientUnits="userSpaceOnUse">
<stop stop-color="#727272"/>
<stop offset="0.19" stop-color="#B1B1B1"/>
<stop offset="0.5" stop-color="white"/>
<stop offset="0.76" stop-color="#A4A4A4"/>
<stop offset="1" stop-color="#424242"/>
</linearGradient>
<linearGradient id="paint8_linear_1268_3933" x1="655.5" y1="18" x2="655.5" y2="134" gradientUnits="userSpaceOnUse">
<stop stop-color="#121212"/>
<stop offset="0.07" stop-color="#C6C6C6"/>
<stop offset="0.125" stop-color="#646464"/>
<stop offset="0.25" stop-color="#3E3E3E"/>
<stop offset="0.48" stop-color="#232323"/>
<stop offset="0.57" stop-color="#7C7C7C"/>
<stop offset="0.68" stop-color="#2F2F2F"/>
<stop offset="0.815" stop-color="#606060"/>
<stop offset="1" stop-color="#262626"/>
</linearGradient>
<linearGradient id="paint9_linear_1268_3933" x1="616.006" y1="2.33998" x2="716.103" y2="19.2053" gradientUnits="userSpaceOnUse">
<stop stop-color="#727272"/>
<stop offset="0.19" stop-color="#B1B1B1"/>
<stop offset="0.5" stop-color="white"/>
<stop offset="0.76" stop-color="#A4A4A4"/>
<stop offset="1" stop-color="#424242"/>
</linearGradient>
<linearGradient id="paint10_linear_1268_3933" x1="655.5" y1="18" x2="655.5" y2="134" gradientUnits="userSpaceOnUse">
<stop stop-color="#121212"/>
<stop offset="0.07" stop-color="#C6C6C6"/>
<stop offset="0.125" stop-color="#646464"/>
<stop offset="0.25" stop-color="#3E3E3E"/>
<stop offset="0.48" stop-color="#232323"/>
<stop offset="0.57" stop-color="#7C7C7C"/>
<stop offset="0.68" stop-color="#2F2F2F"/>
<stop offset="0.815" stop-color="#606060"/>
<stop offset="1" stop-color="#262626"/>
</linearGradient>
<linearGradient id="paint11_linear_1268_3933" x1="616.006" y1="2.33998" x2="716.103" y2="19.2053" gradientUnits="userSpaceOnUse">
<stop stop-color="#727272"/>
<stop offset="0.19" stop-color="#B1B1B1"/>
<stop offset="0.5" stop-color="white"/>
<stop offset="0.76" stop-color="#A4A4A4"/>
<stop offset="1" stop-color="#424242"/>
</linearGradient>
<linearGradient id="paint12_linear_1268_3933" x1="655.5" y1="18" x2="655.5" y2="134" gradientUnits="userSpaceOnUse">
<stop stop-color="#121212"/>
<stop offset="0.07" stop-color="#C6C6C6"/>
<stop offset="0.125" stop-color="#646464"/>
<stop offset="0.25" stop-color="#3E3E3E"/>
<stop offset="0.48" stop-color="#232323"/>
<stop offset="0.57" stop-color="#7C7C7C"/>
<stop offset="0.68" stop-color="#2F2F2F"/>
<stop offset="0.815" stop-color="#606060"/>
<stop offset="1" stop-color="#262626"/>
</linearGradient>
<linearGradient id="paint13_linear_1268_3933" x1="616.006" y1="2.33998" x2="716.103" y2="19.2053" gradientUnits="userSpaceOnUse">
<stop stop-color="#727272"/>
<stop offset="0.19" stop-color="#B1B1B1"/>
<stop offset="0.5" stop-color="white"/>
<stop offset="0.76" stop-color="#A4A4A4"/>
<stop offset="1" stop-color="#424242"/>
</linearGradient>
<linearGradient id="paint14_linear_1268_3933" x1="655.5" y1="18" x2="655.5" y2="134" gradientUnits="userSpaceOnUse">
<stop stop-color="#121212"/>
<stop offset="0.07" stop-color="#C6C6C6"/>
<stop offset="0.125" stop-color="#646464"/>
<stop offset="0.25" stop-color="#3E3E3E"/>
<stop offset="0.48" stop-color="#232323"/>
<stop offset="0.57" stop-color="#7C7C7C"/>
<stop offset="0.68" stop-color="#2F2F2F"/>
<stop offset="0.815" stop-color="#606060"/>
<stop offset="1" stop-color="#262626"/>
</linearGradient>
<linearGradient id="paint15_linear_1268_3933" x1="616.006" y1="2.33998" x2="716.103" y2="19.2053" gradientUnits="userSpaceOnUse">
<stop stop-color="#727272"/>
<stop offset="0.19" stop-color="#B1B1B1"/>
<stop offset="0.5" stop-color="white"/>
<stop offset="0.76" stop-color="#A4A4A4"/>
<stop offset="1" stop-color="#424242"/>
</linearGradient>
<linearGradient id="paint16_linear_1268_3933" x1="655.5" y1="18" x2="655.5" y2="134" gradientUnits="userSpaceOnUse">
<stop stop-color="#121212"/>
<stop offset="0.07" stop-color="#C6C6C6"/>
<stop offset="0.125" stop-color="#646464"/>
<stop offset="0.25" stop-color="#3E3E3E"/>
<stop offset="0.48" stop-color="#232323"/>
<stop offset="0.57" stop-color="#7C7C7C"/>
<stop offset="0.68" stop-color="#2F2F2F"/>
<stop offset="0.815" stop-color="#606060"/>
<stop offset="1" stop-color="#262626"/>
</linearGradient>
<linearGradient id="paint17_linear_1268_3933" x1="616.006" y1="2.33998" x2="716.103" y2="19.2053" gradientUnits="userSpaceOnUse">
<stop stop-color="#727272"/>
<stop offset="0.19" stop-color="#B1B1B1"/>
<stop offset="0.5" stop-color="white"/>
<stop offset="0.76" stop-color="#A4A4A4"/>
<stop offset="1" stop-color="#424242"/>
</linearGradient>
<linearGradient id="paint18_linear_1268_3933" x1="655.5" y1="18" x2="655.5" y2="134" gradientUnits="userSpaceOnUse">
<stop stop-color="#121212"/>
<stop offset="0.07" stop-color="#C6C6C6"/>
<stop offset="0.125" stop-color="#646464"/>
<stop offset="0.25" stop-color="#3E3E3E"/>
<stop offset="0.48" stop-color="#232323"/>
<stop offset="0.57" stop-color="#7C7C7C"/>
<stop offset="0.68" stop-color="#2F2F2F"/>
<stop offset="0.815" stop-color="#606060"/>
<stop offset="1" stop-color="#262626"/>
</linearGradient>
<linearGradient id="paint19_linear_1268_3933" x1="616.006" y1="2.33998" x2="716.103" y2="19.2053" gradientUnits="userSpaceOnUse">
<stop stop-color="#727272"/>
<stop offset="0.19" stop-color="#B1B1B1"/>
<stop offset="0.5" stop-color="white"/>
<stop offset="0.76" stop-color="#A4A4A4"/>
<stop offset="1" stop-color="#424242"/>
</linearGradient>
<linearGradient id="paint20_linear_1268_3933" x1="655.5" y1="18" x2="655.5" y2="134" gradientUnits="userSpaceOnUse">
<stop stop-color="#121212"/>
<stop offset="0.07" stop-color="#C6C6C6"/>
<stop offset="0.125" stop-color="#646464"/>
<stop offset="0.25" stop-color="#3E3E3E"/>
<stop offset="0.48" stop-color="#232323"/>
<stop offset="0.57" stop-color="#7C7C7C"/>
<stop offset="0.68" stop-color="#2F2F2F"/>
<stop offset="0.815" stop-color="#606060"/>
<stop offset="1" stop-color="#262626"/>
</linearGradient>
<linearGradient id="paint21_linear_1268_3933" x1="616.006" y1="2.33998" x2="716.103" y2="19.2053" gradientUnits="userSpaceOnUse">
<stop stop-color="#727272"/>
<stop offset="0.19" stop-color="#B1B1B1"/>
<stop offset="0.5" stop-color="white"/>
<stop offset="0.76" stop-color="#A4A4A4"/>
<stop offset="1" stop-color="#424242"/>
</linearGradient>
<linearGradient id="paint22_linear_1268_3933" x1="655.5" y1="18" x2="655.5" y2="134" gradientUnits="userSpaceOnUse">
<stop stop-color="#121212"/>
<stop offset="0.07" stop-color="#C6C6C6"/>
<stop offset="0.125" stop-color="#646464"/>
<stop offset="0.25" stop-color="#3E3E3E"/>
<stop offset="0.48" stop-color="#232323"/>
<stop offset="0.57" stop-color="#7C7C7C"/>
<stop offset="0.68" stop-color="#2F2F2F"/>
<stop offset="0.815" stop-color="#606060"/>
<stop offset="1" stop-color="#262626"/>
</linearGradient>
<linearGradient id="paint23_linear_1268_3933" x1="616.006" y1="2.33998" x2="716.103" y2="19.2053" gradientUnits="userSpaceOnUse">
<stop stop-color="#727272"/>
<stop offset="0.19" stop-color="#B1B1B1"/>
<stop offset="0.5" stop-color="white"/>
<stop offset="0.76" stop-color="#A4A4A4"/>
<stop offset="1" stop-color="#424242"/>
</linearGradient>
<linearGradient id="paint24_linear_1268_3933" x1="655.5" y1="18" x2="655.5" y2="134" gradientUnits="userSpaceOnUse">
<stop stop-color="#121212"/>
<stop offset="0.07" stop-color="#C6C6C6"/>
<stop offset="0.125" stop-color="#646464"/>
<stop offset="0.25" stop-color="#3E3E3E"/>
<stop offset="0.48" stop-color="#232323"/>
<stop offset="0.57" stop-color="#7C7C7C"/>
<stop offset="0.68" stop-color="#2F2F2F"/>
<stop offset="0.815" stop-color="#606060"/>
<stop offset="1" stop-color="#262626"/>
</linearGradient>
<linearGradient id="paint25_linear_1268_3933" x1="616.006" y1="2.33998" x2="716.103" y2="19.2053" gradientUnits="userSpaceOnUse">
<stop stop-color="#727272"/>
<stop offset="0.19" stop-color="#B1B1B1"/>
<stop offset="0.5" stop-color="white"/>
<stop offset="0.76" stop-color="#A4A4A4"/>
<stop offset="1" stop-color="#424242"/>
</linearGradient>
<linearGradient id="paint26_linear_1268_3933" x1="655.5" y1="18" x2="655.5" y2="134" gradientUnits="userSpaceOnUse">
<stop stop-color="#121212"/>
<stop offset="0.07" stop-color="#C6C6C6"/>
<stop offset="0.125" stop-color="#646464"/>
<stop offset="0.25" stop-color="#3E3E3E"/>
<stop offset="0.48" stop-color="#232323"/>
<stop offset="0.57" stop-color="#7C7C7C"/>
<stop offset="0.68" stop-color="#2F2F2F"/>
<stop offset="0.815" stop-color="#606060"/>
<stop offset="1" stop-color="#262626"/>
</linearGradient>
<linearGradient id="paint27_linear_1268_3933" x1="616.006" y1="2.33998" x2="716.103" y2="19.2053" gradientUnits="userSpaceOnUse">
<stop stop-color="#727272"/>
<stop offset="0.19" stop-color="#B1B1B1"/>
<stop offset="0.5" stop-color="white"/>
<stop offset="0.76" stop-color="#A4A4A4"/>
<stop offset="1" stop-color="#424242"/>
</linearGradient>
<linearGradient id="paint28_linear_1268_3933" x1="655.5" y1="18" x2="655.5" y2="134" gradientUnits="userSpaceOnUse">
<stop stop-color="#121212"/>
<stop offset="0.07" stop-color="#C6C6C6"/>
<stop offset="0.125" stop-color="#646464"/>
<stop offset="0.25" stop-color="#3E3E3E"/>
<stop offset="0.48" stop-color="#232323"/>
<stop offset="0.57" stop-color="#7C7C7C"/>
<stop offset="0.68" stop-color="#2F2F2F"/>
<stop offset="0.815" stop-color="#606060"/>
<stop offset="1" stop-color="#262626"/>
</linearGradient>
<linearGradient id="paint29_linear_1268_3933" x1="616.006" y1="2.33998" x2="716.103" y2="19.2053" gradientUnits="userSpaceOnUse">
<stop stop-color="#727272"/>
<stop offset="0.19" stop-color="#B1B1B1"/>
<stop offset="0.5" stop-color="white"/>
<stop offset="0.76" stop-color="#A4A4A4"/>
<stop offset="1" stop-color="#424242"/>
</linearGradient>
<linearGradient id="paint30_linear_1268_3933" x1="655.5" y1="18" x2="655.5" y2="134" gradientUnits="userSpaceOnUse">
<stop stop-color="#121212"/>
<stop offset="0.07" stop-color="#C6C6C6"/>
<stop offset="0.125" stop-color="#646464"/>
<stop offset="0.25" stop-color="#3E3E3E"/>
<stop offset="0.48" stop-color="#232323"/>
<stop offset="0.57" stop-color="#7C7C7C"/>
<stop offset="0.68" stop-color="#2F2F2F"/>
<stop offset="0.815" stop-color="#606060"/>
<stop offset="1" stop-color="#262626"/>
</linearGradient>
<linearGradient id="paint31_linear_1268_3933" x1="616.006" y1="2.33998" x2="716.103" y2="19.2053" gradientUnits="userSpaceOnUse">
<stop stop-color="#727272"/>
<stop offset="0.19" stop-color="#B1B1B1"/>
<stop offset="0.5" stop-color="white"/>
<stop offset="0.76" stop-color="#A4A4A4"/>
<stop offset="1" stop-color="#424242"/>
</linearGradient>
<linearGradient id="paint32_linear_1268_3933" x1="655.5" y1="18" x2="655.5" y2="134" gradientUnits="userSpaceOnUse">
<stop stop-color="#121212"/>
<stop offset="0.07" stop-color="#C6C6C6"/>
<stop offset="0.125" stop-color="#646464"/>
<stop offset="0.25" stop-color="#3E3E3E"/>
<stop offset="0.48" stop-color="#232323"/>
<stop offset="0.57" stop-color="#7C7C7C"/>
<stop offset="0.68" stop-color="#2F2F2F"/>
<stop offset="0.815" stop-color="#606060"/>
<stop offset="1" stop-color="#262626"/>
</linearGradient>
<linearGradient id="paint33_linear_1268_3933" x1="616.006" y1="2.33998" x2="716.103" y2="19.2053" gradientUnits="userSpaceOnUse">
<stop stop-color="#727272"/>
<stop offset="0.19" stop-color="#B1B1B1"/>
<stop offset="0.5" stop-color="white"/>
<stop offset="0.76" stop-color="#A4A4A4"/>
<stop offset="1" stop-color="#424242"/>
</linearGradient>
<linearGradient id="paint34_linear_1268_3933" x1="655.5" y1="18" x2="655.5" y2="134" gradientUnits="userSpaceOnUse">
<stop stop-color="#121212"/>
<stop offset="0.07" stop-color="#C6C6C6"/>
<stop offset="0.125" stop-color="#646464"/>
<stop offset="0.25" stop-color="#3E3E3E"/>
<stop offset="0.48" stop-color="#232323"/>
<stop offset="0.57" stop-color="#7C7C7C"/>
<stop offset="0.68" stop-color="#2F2F2F"/>
<stop offset="0.815" stop-color="#606060"/>
<stop offset="1" stop-color="#262626"/>
</linearGradient>
<linearGradient id="paint35_linear_1268_3933" x1="616.006" y1="2.33998" x2="716.103" y2="19.2053" gradientUnits="userSpaceOnUse">
<stop stop-color="#727272"/>
<stop offset="0.19" stop-color="#B1B1B1"/>
<stop offset="0.5" stop-color="white"/>
<stop offset="0.76" stop-color="#A4A4A4"/>
<stop offset="1" stop-color="#424242"/>
</linearGradient>
<linearGradient id="paint36_linear_1268_3933" x1="655.5" y1="18" x2="655.5" y2="134" gradientUnits="userSpaceOnUse">
<stop stop-color="#121212"/>
<stop offset="0.07" stop-color="#C6C6C6"/>
<stop offset="0.125" stop-color="#646464"/>
<stop offset="0.25" stop-color="#3E3E3E"/>
<stop offset="0.48" stop-color="#232323"/>
<stop offset="0.57" stop-color="#7C7C7C"/>
<stop offset="0.68" stop-color="#2F2F2F"/>
<stop offset="0.815" stop-color="#606060"/>
<stop offset="1" stop-color="#262626"/>
</linearGradient>
<linearGradient id="paint37_linear_1268_3933" x1="616.006" y1="2.33998" x2="716.103" y2="19.2053" gradientUnits="userSpaceOnUse">
<stop stop-color="#727272"/>
<stop offset="0.19" stop-color="#B1B1B1"/>
<stop offset="0.5" stop-color="white"/>
<stop offset="0.76" stop-color="#A4A4A4"/>
<stop offset="1" stop-color="#424242"/>
</linearGradient>
<linearGradient id="paint38_linear_1268_3933" x1="655.5" y1="18" x2="655.5" y2="134" gradientUnits="userSpaceOnUse">
<stop stop-color="#121212"/>
<stop offset="0.07" stop-color="#C6C6C6"/>
<stop offset="0.125" stop-color="#646464"/>
<stop offset="0.25" stop-color="#3E3E3E"/>
<stop offset="0.48" stop-color="#232323"/>
<stop offset="0.57" stop-color="#7C7C7C"/>
<stop offset="0.68" stop-color="#2F2F2F"/>
<stop offset="0.815" stop-color="#606060"/>
<stop offset="1" stop-color="#262626"/>
</linearGradient>
<linearGradient id="paint39_linear_1268_3933" x1="616.006" y1="2.33998" x2="716.103" y2="19.2053" gradientUnits="userSpaceOnUse">
<stop stop-color="#727272"/>
<stop offset="0.19" stop-color="#B1B1B1"/>
<stop offset="0.5" stop-color="white"/>
<stop offset="0.76" stop-color="#A4A4A4"/>
<stop offset="1" stop-color="#424242"/>
</linearGradient>
<linearGradient id="paint40_linear_1268_3933" x1="655.5" y1="18" x2="655.5" y2="134" gradientUnits="userSpaceOnUse">
<stop stop-color="#121212"/>
<stop offset="0.07" stop-color="#C6C6C6"/>
<stop offset="0.125" stop-color="#646464"/>
<stop offset="0.25" stop-color="#3E3E3E"/>
<stop offset="0.48" stop-color="#232323"/>
<stop offset="0.57" stop-color="#7C7C7C"/>
<stop offset="0.68" stop-color="#2F2F2F"/>
<stop offset="0.815" stop-color="#606060"/>
<stop offset="1" stop-color="#262626"/>
</linearGradient>
<linearGradient id="paint41_linear_1268_3933" x1="616.006" y1="2.33998" x2="716.103" y2="19.2053" gradientUnits="userSpaceOnUse">
<stop stop-color="#727272"/>
<stop offset="0.19" stop-color="#B1B1B1"/>
<stop offset="0.5" stop-color="white"/>
<stop offset="0.76" stop-color="#A4A4A4"/>
<stop offset="1" stop-color="#424242"/>
</linearGradient>
<linearGradient id="paint42_linear_1268_3933" x1="655.5" y1="18" x2="655.5" y2="134" gradientUnits="userSpaceOnUse">
<stop stop-color="#121212"/>
<stop offset="0.07" stop-color="#C6C6C6"/>
<stop offset="0.125" stop-color="#646464"/>
<stop offset="0.25" stop-color="#3E3E3E"/>
<stop offset="0.48" stop-color="#232323"/>
<stop offset="0.57" stop-color="#7C7C7C"/>
<stop offset="0.68" stop-color="#2F2F2F"/>
<stop offset="0.815" stop-color="#606060"/>
<stop offset="1" stop-color="#262626"/>
</linearGradient>
<linearGradient id="paint43_linear_1268_3933" x1="616.006" y1="2.33998" x2="716.103" y2="19.2053" gradientUnits="userSpaceOnUse">
<stop stop-color="#727272"/>
<stop offset="0.19" stop-color="#B1B1B1"/>
<stop offset="0.5" stop-color="white"/>
<stop offset="0.76" stop-color="#A4A4A4"/>
<stop offset="1" stop-color="#424242"/>
</linearGradient>
<linearGradient id="paint44_linear_1268_3933" x1="655.5" y1="18" x2="655.5" y2="134" gradientUnits="userSpaceOnUse">
<stop stop-color="#121212"/>
<stop offset="0.07" stop-color="#C6C6C6"/>
<stop offset="0.125" stop-color="#646464"/>
<stop offset="0.25" stop-color="#3E3E3E"/>
<stop offset="0.48" stop-color="#232323"/>
<stop offset="0.57" stop-color="#7C7C7C"/>
<stop offset="0.68" stop-color="#2F2F2F"/>
<stop offset="0.815" stop-color="#606060"/>
<stop offset="1" stop-color="#262626"/>
</linearGradient>
<linearGradient id="paint45_linear_1268_3933" x1="616.006" y1="2.33998" x2="716.103" y2="19.2053" gradientUnits="userSpaceOnUse">
<stop stop-color="#727272"/>
<stop offset="0.19" stop-color="#B1B1B1"/>
<stop offset="0.5" stop-color="white"/>
<stop offset="0.76" stop-color="#A4A4A4"/>
<stop offset="1" stop-color="#424242"/>
</linearGradient>
<linearGradient id="paint46_linear_1268_3933" x1="655.5" y1="18" x2="655.5" y2="134" gradientUnits="userSpaceOnUse">
<stop stop-color="#121212"/>
<stop offset="0.07" stop-color="#C6C6C6"/>
<stop offset="0.125" stop-color="#646464"/>
<stop offset="0.25" stop-color="#3E3E3E"/>
<stop offset="0.48" stop-color="#232323"/>
<stop offset="0.57" stop-color="#7C7C7C"/>
<stop offset="0.68" stop-color="#2F2F2F"/>
<stop offset="0.815" stop-color="#606060"/>
<stop offset="1" stop-color="#262626"/>
</linearGradient>
<linearGradient id="paint47_linear_1268_3933" x1="616.006" y1="2.33998" x2="716.103" y2="19.2053" gradientUnits="userSpaceOnUse">
<stop stop-color="#727272"/>
<stop offset="0.19" stop-color="#B1B1B1"/>
<stop offset="0.5" stop-color="white"/>
<stop offset="0.76" stop-color="#A4A4A4"/>
<stop offset="1" stop-color="#424242"/>
</linearGradient>
<linearGradient id="paint48_linear_1268_3933" x1="655.5" y1="18" x2="655.5" y2="134" gradientUnits="userSpaceOnUse">
<stop stop-color="#121212"/>
<stop offset="0.07" stop-color="#C6C6C6"/>
<stop offset="0.125" stop-color="#646464"/>
<stop offset="0.25" stop-color="#3E3E3E"/>
<stop offset="0.48" stop-color="#232323"/>
<stop offset="0.57" stop-color="#7C7C7C"/>
<stop offset="0.68" stop-color="#2F2F2F"/>
<stop offset="0.815" stop-color="#606060"/>
<stop offset="1" stop-color="#262626"/>
</linearGradient>
<linearGradient id="paint49_linear_1268_3933" x1="616.006" y1="2.33998" x2="716.103" y2="19.2053" gradientUnits="userSpaceOnUse">
<stop stop-color="#727272"/>
<stop offset="0.19" stop-color="#B1B1B1"/>
<stop offset="0.5" stop-color="white"/>
<stop offset="0.76" stop-color="#A4A4A4"/>
<stop offset="1" stop-color="#424242"/>
</linearGradient>
<linearGradient id="paint50_linear_1268_3933" x1="655.5" y1="18" x2="655.5" y2="134" gradientUnits="userSpaceOnUse">
<stop stop-color="#121212"/>
<stop offset="0.07" stop-color="#C6C6C6"/>
<stop offset="0.125" stop-color="#646464"/>
<stop offset="0.25" stop-color="#3E3E3E"/>
<stop offset="0.48" stop-color="#232323"/>
<stop offset="0.57" stop-color="#7C7C7C"/>
<stop offset="0.68" stop-color="#2F2F2F"/>
<stop offset="0.815" stop-color="#606060"/>
<stop offset="1" stop-color="#262626"/>
</linearGradient>
<linearGradient id="paint51_linear_1268_3933" x1="616.006" y1="2.33998" x2="716.103" y2="19.2053" gradientUnits="userSpaceOnUse">
<stop stop-color="#727272"/>
<stop offset="0.19" stop-color="#B1B1B1"/>
<stop offset="0.5" stop-color="white"/>
<stop offset="0.76" stop-color="#A4A4A4"/>
<stop offset="1" stop-color="#424242"/>
</linearGradient>
<linearGradient id="paint52_linear_1268_3933" x1="655.5" y1="18" x2="655.5" y2="134" gradientUnits="userSpaceOnUse">
<stop stop-color="#121212"/>
<stop offset="0.07" stop-color="#C6C6C6"/>
<stop offset="0.125" stop-color="#646464"/>
<stop offset="0.25" stop-color="#3E3E3E"/>
<stop offset="0.48" stop-color="#232323"/>
<stop offset="0.57" stop-color="#7C7C7C"/>
<stop offset="0.68" stop-color="#2F2F2F"/>
<stop offset="0.815" stop-color="#606060"/>
<stop offset="1" stop-color="#262626"/>
</linearGradient>
<linearGradient id="paint53_linear_1268_3933" x1="616.006" y1="2.33998" x2="716.103" y2="19.2053" gradientUnits="userSpaceOnUse">
<stop stop-color="#727272"/>
<stop offset="0.19" stop-color="#B1B1B1"/>
<stop offset="0.5" stop-color="white"/>
<stop offset="0.76" stop-color="#A4A4A4"/>
<stop offset="1" stop-color="#424242"/>
</linearGradient>
<linearGradient id="paint54_linear_1268_3933" x1="655.5" y1="18" x2="655.5" y2="134" gradientUnits="userSpaceOnUse">
<stop stop-color="#121212"/>
<stop offset="0.07" stop-color="#C6C6C6"/>
<stop offset="0.125" stop-color="#646464"/>
<stop offset="0.25" stop-color="#3E3E3E"/>
<stop offset="0.48" stop-color="#232323"/>
<stop offset="0.57" stop-color="#7C7C7C"/>
<stop offset="0.68" stop-color="#2F2F2F"/>
<stop offset="0.815" stop-color="#606060"/>
<stop offset="1" stop-color="#262626"/>
</linearGradient>
<linearGradient id="paint55_linear_1268_3933" x1="616.006" y1="2.33998" x2="716.103" y2="19.2053" gradientUnits="userSpaceOnUse">
<stop stop-color="#727272"/>
<stop offset="0.19" stop-color="#B1B1B1"/>
<stop offset="0.5" stop-color="white"/>
<stop offset="0.76" stop-color="#A4A4A4"/>
<stop offset="1" stop-color="#424242"/>
</linearGradient>
<linearGradient id="paint56_linear_1268_3933" x1="655.5" y1="18" x2="655.5" y2="134" gradientUnits="userSpaceOnUse">
<stop stop-color="#121212"/>
<stop offset="0.07" stop-color="#C6C6C6"/>
<stop offset="0.125" stop-color="#646464"/>
<stop offset="0.25" stop-color="#3E3E3E"/>
<stop offset="0.48" stop-color="#232323"/>
<stop offset="0.57" stop-color="#7C7C7C"/>
<stop offset="0.68" stop-color="#2F2F2F"/>
<stop offset="0.815" stop-color="#606060"/>
<stop offset="1" stop-color="#262626"/>
</linearGradient>
<linearGradient id="paint57_linear_1268_3933" x1="616.006" y1="2.33998" x2="716.103" y2="19.2053" gradientUnits="userSpaceOnUse">
<stop stop-color="#727272"/>
<stop offset="0.19" stop-color="#B1B1B1"/>
<stop offset="0.5" stop-color="white"/>
<stop offset="0.76" stop-color="#A4A4A4"/>
<stop offset="1" stop-color="#424242"/>
</linearGradient>
<linearGradient id="paint58_linear_1268_3933" x1="655.5" y1="18" x2="655.5" y2="134" gradientUnits="userSpaceOnUse">
<stop stop-color="#121212"/>
<stop offset="0.07" stop-color="#C6C6C6"/>
<stop offset="0.125" stop-color="#646464"/>
<stop offset="0.25" stop-color="#3E3E3E"/>
<stop offset="0.48" stop-color="#232323"/>
<stop offset="0.57" stop-color="#7C7C7C"/>
<stop offset="0.68" stop-color="#2F2F2F"/>
<stop offset="0.815" stop-color="#606060"/>
<stop offset="1" stop-color="#262626"/>
</linearGradient>
<linearGradient id="paint59_linear_1268_3933" x1="616.006" y1="2.33998" x2="716.103" y2="19.2053" gradientUnits="userSpaceOnUse">
<stop stop-color="#727272"/>
<stop offset="0.19" stop-color="#B1B1B1"/>
<stop offset="0.5" stop-color="white"/>
<stop offset="0.76" stop-color="#A4A4A4"/>
<stop offset="1" stop-color="#424242"/>
</linearGradient>
<linearGradient id="paint60_linear_1268_3933" x1="655.5" y1="18" x2="655.5" y2="134" gradientUnits="userSpaceOnUse">
<stop stop-color="#121212"/>
<stop offset="0.07" stop-color="#C6C6C6"/>
<stop offset="0.125" stop-color="#646464"/>
<stop offset="0.25" stop-color="#3E3E3E"/>
<stop offset="0.48" stop-color="#232323"/>
<stop offset="0.57" stop-color="#7C7C7C"/>
<stop offset="0.68" stop-color="#2F2F2F"/>
<stop offset="0.815" stop-color="#606060"/>
<stop offset="1" stop-color="#262626"/>
</linearGradient>
<linearGradient id="paint61_linear_1268_3933" x1="616.006" y1="2.33998" x2="716.103" y2="19.2053" gradientUnits="userSpaceOnUse">
<stop stop-color="#727272"/>
<stop offset="0.19" stop-color="#B1B1B1"/>
<stop offset="0.5" stop-color="white"/>
<stop offset="0.76" stop-color="#A4A4A4"/>
<stop offset="1" stop-color="#424242"/>
</linearGradient>
<linearGradient id="paint62_linear_1268_3933" x1="655.5" y1="18" x2="655.5" y2="134" gradientUnits="userSpaceOnUse">
<stop stop-color="#121212"/>
<stop offset="0.07" stop-color="#C6C6C6"/>
<stop offset="0.125" stop-color="#646464"/>
<stop offset="0.25" stop-color="#3E3E3E"/>
<stop offset="0.48" stop-color="#232323"/>
<stop offset="0.57" stop-color="#7C7C7C"/>
<stop offset="0.68" stop-color="#2F2F2F"/>
<stop offset="0.815" stop-color="#606060"/>
<stop offset="1" stop-color="#262626"/>
</linearGradient>
<linearGradient id="paint63_linear_1268_3933" x1="616.006" y1="2.33998" x2="716.103" y2="19.2053" gradientUnits="userSpaceOnUse">
<stop stop-color="#727272"/>
<stop offset="0.19" stop-color="#B1B1B1"/>
<stop offset="0.5" stop-color="white"/>
<stop offset="0.76" stop-color="#A4A4A4"/>
<stop offset="1" stop-color="#424242"/>
</linearGradient>
<linearGradient id="paint64_linear_1268_3933" x1="655.5" y1="18" x2="655.5" y2="134" gradientUnits="userSpaceOnUse">
<stop stop-color="#121212"/>
<stop offset="0.07" stop-color="#C6C6C6"/>
<stop offset="0.125" stop-color="#646464"/>
<stop offset="0.25" stop-color="#3E3E3E"/>
<stop offset="0.48" stop-color="#232323"/>
<stop offset="0.57" stop-color="#7C7C7C"/>
<stop offset="0.68" stop-color="#2F2F2F"/>
<stop offset="0.815" stop-color="#606060"/>
<stop offset="1" stop-color="#262626"/>
</linearGradient>
<linearGradient id="paint65_linear_1268_3933" x1="616.006" y1="2.33998" x2="716.103" y2="19.2053" gradientUnits="userSpaceOnUse">
<stop stop-color="#727272"/>
<stop offset="0.19" stop-color="#B1B1B1"/>
<stop offset="0.5" stop-color="white"/>
<stop offset="0.76" stop-color="#A4A4A4"/>
<stop offset="1" stop-color="#424242"/>
</linearGradient>
<linearGradient id="paint66_linear_1268_3933" x1="655.5" y1="18" x2="655.5" y2="134" gradientUnits="userSpaceOnUse">
<stop stop-color="#121212"/>
<stop offset="0.07" stop-color="#C6C6C6"/>
<stop offset="0.125" stop-color="#646464"/>
<stop offset="0.25" stop-color="#3E3E3E"/>
<stop offset="0.48" stop-color="#232323"/>
<stop offset="0.57" stop-color="#7C7C7C"/>
<stop offset="0.68" stop-color="#2F2F2F"/>
<stop offset="0.815" stop-color="#606060"/>
<stop offset="1" stop-color="#262626"/>
</linearGradient>
<linearGradient id="paint67_linear_1268_3933" x1="616.006" y1="2.33998" x2="716.103" y2="19.2053" gradientUnits="userSpaceOnUse">
<stop stop-color="#727272"/>
<stop offset="0.19" stop-color="#B1B1B1"/>
<stop offset="0.5" stop-color="white"/>
<stop offset="0.76" stop-color="#A4A4A4"/>
<stop offset="1" stop-color="#424242"/>
</linearGradient>
<linearGradient id="paint68_linear_1268_3933" x1="655.5" y1="18" x2="655.5" y2="134" gradientUnits="userSpaceOnUse">
<stop stop-color="#121212"/>
<stop offset="0.07" stop-color="#C6C6C6"/>
<stop offset="0.125" stop-color="#646464"/>
<stop offset="0.25" stop-color="#3E3E3E"/>
<stop offset="0.48" stop-color="#232323"/>
<stop offset="0.57" stop-color="#7C7C7C"/>
<stop offset="0.68" stop-color="#2F2F2F"/>
<stop offset="0.815" stop-color="#606060"/>
<stop offset="1" stop-color="#262626"/>
</linearGradient>
<linearGradient id="paint69_linear_1268_3933" x1="616.006" y1="2.33998" x2="716.103" y2="19.2053" gradientUnits="userSpaceOnUse">
<stop stop-color="#727272"/>
<stop offset="0.19" stop-color="#B1B1B1"/>
<stop offset="0.5" stop-color="white"/>
<stop offset="0.76" stop-color="#A4A4A4"/>
<stop offset="1" stop-color="#424242"/>
</linearGradient>
<linearGradient id="paint70_linear_1268_3933" x1="655.5" y1="18" x2="655.5" y2="134" gradientUnits="userSpaceOnUse">
<stop stop-color="#121212"/>
<stop offset="0.07" stop-color="#C6C6C6"/>
<stop offset="0.125" stop-color="#646464"/>
<stop offset="0.25" stop-color="#3E3E3E"/>
<stop offset="0.48" stop-color="#232323"/>
<stop offset="0.57" stop-color="#7C7C7C"/>
<stop offset="0.68" stop-color="#2F2F2F"/>
<stop offset="0.815" stop-color="#606060"/>
<stop offset="1" stop-color="#262626"/>
</linearGradient>
<linearGradient id="paint71_linear_1268_3933" x1="616.006" y1="2.33998" x2="716.103" y2="19.2053" gradientUnits="userSpaceOnUse">
<stop stop-color="#727272"/>
<stop offset="0.19" stop-color="#B1B1B1"/>
<stop offset="0.5" stop-color="white"/>
<stop offset="0.76" stop-color="#A4A4A4"/>
<stop offset="1" stop-color="#424242"/>
</linearGradient>
<linearGradient id="paint72_linear_1268_3933" x1="655.5" y1="18" x2="655.5" y2="134" gradientUnits="userSpaceOnUse">
<stop stop-color="#121212"/>
<stop offset="0.07" stop-color="#C6C6C6"/>
<stop offset="0.125" stop-color="#646464"/>
<stop offset="0.25" stop-color="#3E3E3E"/>
<stop offset="0.48" stop-color="#232323"/>
<stop offset="0.57" stop-color="#7C7C7C"/>
<stop offset="0.68" stop-color="#2F2F2F"/>
<stop offset="0.815" stop-color="#606060"/>
<stop offset="1" stop-color="#262626"/>
</linearGradient>
<linearGradient id="paint73_linear_1268_3933" x1="616.006" y1="2.33998" x2="716.103" y2="19.2053" gradientUnits="userSpaceOnUse">
<stop stop-color="#727272"/>
<stop offset="0.19" stop-color="#B1B1B1"/>
<stop offset="0.5" stop-color="white"/>
<stop offset="0.76" stop-color="#A4A4A4"/>
<stop offset="1" stop-color="#424242"/>
</linearGradient>
<linearGradient id="paint74_linear_1268_3933" x1="655.5" y1="18" x2="655.5" y2="134" gradientUnits="userSpaceOnUse">
<stop stop-color="#121212"/>
<stop offset="0.07" stop-color="#C6C6C6"/>
<stop offset="0.125" stop-color="#646464"/>
<stop offset="0.25" stop-color="#3E3E3E"/>
<stop offset="0.48" stop-color="#232323"/>
<stop offset="0.57" stop-color="#7C7C7C"/>
<stop offset="0.68" stop-color="#2F2F2F"/>
<stop offset="0.815" stop-color="#606060"/>
<stop offset="1" stop-color="#262626"/>
</linearGradient>
<linearGradient id="paint75_linear_1268_3933" x1="616.006" y1="2.33998" x2="716.103" y2="19.2053" gradientUnits="userSpaceOnUse">
<stop stop-color="#727272"/>
<stop offset="0.19" stop-color="#B1B1B1"/>
<stop offset="0.5" stop-color="white"/>
<stop offset="0.76" stop-color="#A4A4A4"/>
<stop offset="1" stop-color="#424242"/>
</linearGradient>
<linearGradient id="paint76_linear_1268_3933" x1="655.5" y1="18" x2="655.5" y2="134" gradientUnits="userSpaceOnUse">
<stop stop-color="#121212"/>
<stop offset="0.07" stop-color="#C6C6C6"/>
<stop offset="0.125" stop-color="#646464"/>
<stop offset="0.25" stop-color="#3E3E3E"/>
<stop offset="0.48" stop-color="#232323"/>
<stop offset="0.57" stop-color="#7C7C7C"/>
<stop offset="0.68" stop-color="#2F2F2F"/>
<stop offset="0.815" stop-color="#606060"/>
<stop offset="1" stop-color="#262626"/>
</linearGradient>
<linearGradient id="paint77_linear_1268_3933" x1="616.006" y1="2.33998" x2="716.103" y2="19.2053" gradientUnits="userSpaceOnUse">
<stop stop-color="#727272"/>
<stop offset="0.19" stop-color="#B1B1B1"/>
<stop offset="0.5" stop-color="white"/>
<stop offset="0.76" stop-color="#A4A4A4"/>
<stop offset="1" stop-color="#424242"/>
</linearGradient>
<linearGradient id="paint78_linear_1268_3933" x1="655.5" y1="18" x2="655.5" y2="134" gradientUnits="userSpaceOnUse">
<stop stop-color="#121212"/>
<stop offset="0.07" stop-color="#C6C6C6"/>
<stop offset="0.125" stop-color="#646464"/>
<stop offset="0.25" stop-color="#3E3E3E"/>
<stop offset="0.48" stop-color="#232323"/>
<stop offset="0.57" stop-color="#7C7C7C"/>
<stop offset="0.68" stop-color="#2F2F2F"/>
<stop offset="0.815" stop-color="#606060"/>
<stop offset="1" stop-color="#262626"/>
</linearGradient>
<linearGradient id="paint79_linear_1268_3933" x1="616.006" y1="2.33998" x2="716.103" y2="19.2053" gradientUnits="userSpaceOnUse">
<stop stop-color="#727272"/>
<stop offset="0.19" stop-color="#B1B1B1"/>
<stop offset="0.5" stop-color="white"/>
<stop offset="0.76" stop-color="#A4A4A4"/>
<stop offset="1" stop-color="#424242"/>
</linearGradient>
<linearGradient id="paint80_linear_1268_3933" x1="655.5" y1="18" x2="655.5" y2="134" gradientUnits="userSpaceOnUse">
<stop stop-color="#121212"/>
<stop offset="0.07" stop-color="#C6C6C6"/>
<stop offset="0.125" stop-color="#646464"/>
<stop offset="0.25" stop-color="#3E3E3E"/>
<stop offset="0.48" stop-color="#232323"/>
<stop offset="0.57" stop-color="#7C7C7C"/>
<stop offset="0.68" stop-color="#2F2F2F"/>
<stop offset="0.815" stop-color="#606060"/>
<stop offset="1" stop-color="#262626"/>
</linearGradient>
<linearGradient id="paint81_linear_1268_3933" x1="616.006" y1="2.33998" x2="716.103" y2="19.2053" gradientUnits="userSpaceOnUse">
<stop stop-color="#727272"/>
<stop offset="0.19" stop-color="#B1B1B1"/>
<stop offset="0.5" stop-color="white"/>
<stop offset="0.76" stop-color="#A4A4A4"/>
<stop offset="1" stop-color="#424242"/>
</linearGradient>
<linearGradient id="paint82_linear_1268_3933" x1="655.5" y1="18" x2="655.5" y2="134" gradientUnits="userSpaceOnUse">
<stop stop-color="#121212"/>
<stop offset="0.07" stop-color="#C6C6C6"/>
<stop offset="0.125" stop-color="#646464"/>
<stop offset="0.25" stop-color="#3E3E3E"/>
<stop offset="0.48" stop-color="#232323"/>
<stop offset="0.57" stop-color="#7C7C7C"/>
<stop offset="0.68" stop-color="#2F2F2F"/>
<stop offset="0.815" stop-color="#606060"/>
<stop offset="1" stop-color="#262626"/>
</linearGradient>
<linearGradient id="paint83_linear_1268_3933" x1="616.006" y1="2.33998" x2="716.103" y2="19.2053" gradientUnits="userSpaceOnUse">
<stop stop-color="#727272"/>
<stop offset="0.19" stop-color="#B1B1B1"/>
<stop offset="0.5" stop-color="white"/>
<stop offset="0.76" stop-color="#A4A4A4"/>
<stop offset="1" stop-color="#424242"/>
</linearGradient>
<linearGradient id="paint84_linear_1268_3933" x1="655.5" y1="18" x2="655.5" y2="134" gradientUnits="userSpaceOnUse">
<stop stop-color="#121212"/>
<stop offset="0.07" stop-color="#C6C6C6"/>
<stop offset="0.125" stop-color="#646464"/>
<stop offset="0.25" stop-color="#3E3E3E"/>
<stop offset="0.48" stop-color="#232323"/>
<stop offset="0.57" stop-color="#7C7C7C"/>
<stop offset="0.68" stop-color="#2F2F2F"/>
<stop offset="0.815" stop-color="#606060"/>
<stop offset="1" stop-color="#262626"/>
</linearGradient>
<linearGradient id="paint85_linear_1268_3933" x1="616.006" y1="2.33998" x2="716.103" y2="19.2053" gradientUnits="userSpaceOnUse">
<stop stop-color="#727272"/>
<stop offset="0.19" stop-color="#B1B1B1"/>
<stop offset="0.5" stop-color="white"/>
<stop offset="0.76" stop-color="#A4A4A4"/>
<stop offset="1" stop-color="#424242"/>
</linearGradient>
<linearGradient id="paint86_linear_1268_3933" x1="655.5" y1="18" x2="655.5" y2="134" gradientUnits="userSpaceOnUse">
<stop stop-color="#121212"/>
<stop offset="0.07" stop-color="#C6C6C6"/>
<stop offset="0.125" stop-color="#646464"/>
<stop offset="0.25" stop-color="#3E3E3E"/>
<stop offset="0.48" stop-color="#232323"/>
<stop offset="0.57" stop-color="#7C7C7C"/>
<stop offset="0.68" stop-color="#2F2F2F"/>
<stop offset="0.815" stop-color="#606060"/>
<stop offset="1" stop-color="#262626"/>
</linearGradient>
<linearGradient id="paint87_linear_1268_3933" x1="616.006" y1="2.33998" x2="716.103" y2="19.2053" gradientUnits="userSpaceOnUse">
<stop stop-color="#727272"/>
<stop offset="0.19" stop-color="#B1B1B1"/>
<stop offset="0.5" stop-color="white"/>
<stop offset="0.76" stop-color="#A4A4A4"/>
<stop offset="1" stop-color="#424242"/>
</linearGradient>
<linearGradient id="paint88_linear_1268_3933" x1="655.5" y1="18" x2="655.5" y2="134" gradientUnits="userSpaceOnUse">
<stop stop-color="#121212"/>
<stop offset="0.07" stop-color="#C6C6C6"/>
<stop offset="0.125" stop-color="#646464"/>
<stop offset="0.25" stop-color="#3E3E3E"/>
<stop offset="0.48" stop-color="#232323"/>
<stop offset="0.57" stop-color="#7C7C7C"/>
<stop offset="0.68" stop-color="#2F2F2F"/>
<stop offset="0.815" stop-color="#606060"/>
<stop offset="1" stop-color="#262626"/>
</linearGradient>
<linearGradient id="paint89_linear_1268_3933" x1="616.006" y1="2.33998" x2="716.103" y2="19.2053" gradientUnits="userSpaceOnUse">
<stop stop-color="#727272"/>
<stop offset="0.19" stop-color="#B1B1B1"/>
<stop offset="0.5" stop-color="white"/>
<stop offset="0.76" stop-color="#A4A4A4"/>
<stop offset="1" stop-color="#424242"/>
</linearGradient>
<linearGradient id="paint90_linear_1268_3933" x1="655.5" y1="18" x2="655.5" y2="134" gradientUnits="userSpaceOnUse">
<stop stop-color="#121212"/>
<stop offset="0.07" stop-color="#C6C6C6"/>
<stop offset="0.125" stop-color="#646464"/>
<stop offset="0.25" stop-color="#3E3E3E"/>
<stop offset="0.48" stop-color="#232323"/>
<stop offset="0.57" stop-color="#7C7C7C"/>
<stop offset="0.68" stop-color="#2F2F2F"/>
<stop offset="0.815" stop-color="#606060"/>
<stop offset="1" stop-color="#262626"/>
</linearGradient>
<linearGradient id="paint91_linear_1268_3933" x1="616.006" y1="2.33998" x2="716.103" y2="19.2053" gradientUnits="userSpaceOnUse">
<stop stop-color="#727272"/>
<stop offset="0.19" stop-color="#B1B1B1"/>
<stop offset="0.5" stop-color="white"/>
<stop offset="0.76" stop-color="#A4A4A4"/>
<stop offset="1" stop-color="#424242"/>
</linearGradient>
<linearGradient id="paint92_linear_1268_3933" x1="655.5" y1="18" x2="655.5" y2="134" gradientUnits="userSpaceOnUse">
<stop stop-color="#121212"/>
<stop offset="0.07" stop-color="#C6C6C6"/>
<stop offset="0.125" stop-color="#646464"/>
<stop offset="0.25" stop-color="#3E3E3E"/>
<stop offset="0.48" stop-color="#232323"/>
<stop offset="0.57" stop-color="#7C7C7C"/>
<stop offset="0.68" stop-color="#2F2F2F"/>
<stop offset="0.815" stop-color="#606060"/>
<stop offset="1" stop-color="#262626"/>
</linearGradient>
<linearGradient id="paint93_linear_1268_3933" x1="616.006" y1="2.33998" x2="716.103" y2="19.2053" gradientUnits="userSpaceOnUse">
<stop stop-color="#727272"/>
<stop offset="0.19" stop-color="#B1B1B1"/>
<stop offset="0.5" stop-color="white"/>
<stop offset="0.76" stop-color="#A4A4A4"/>
<stop offset="1" stop-color="#424242"/>
</linearGradient>
<linearGradient id="paint94_linear_1268_3933" x1="655.5" y1="18" x2="655.5" y2="134" gradientUnits="userSpaceOnUse">
<stop stop-color="#121212"/>
<stop offset="0.07" stop-color="#C6C6C6"/>
<stop offset="0.125" stop-color="#646464"/>
<stop offset="0.25" stop-color="#3E3E3E"/>
<stop offset="0.48" stop-color="#232323"/>
<stop offset="0.57" stop-color="#7C7C7C"/>
<stop offset="0.68" stop-color="#2F2F2F"/>
<stop offset="0.815" stop-color="#606060"/>
<stop offset="1" stop-color="#262626"/>
</linearGradient>
<linearGradient id="paint95_linear_1268_3933" x1="616.006" y1="2.33998" x2="716.103" y2="19.2053" gradientUnits="userSpaceOnUse">
<stop stop-color="#727272"/>
<stop offset="0.19" stop-color="#B1B1B1"/>
<stop offset="0.5" stop-color="white"/>
<stop offset="0.76" stop-color="#A4A4A4"/>
<stop offset="1" stop-color="#424242"/>
</linearGradient>
<linearGradient id="paint96_linear_1268_3933" x1="655.5" y1="18" x2="655.5" y2="134" gradientUnits="userSpaceOnUse">
<stop stop-color="#121212"/>
<stop offset="0.07" stop-color="#C6C6C6"/>
<stop offset="0.125" stop-color="#646464"/>
<stop offset="0.25" stop-color="#3E3E3E"/>
<stop offset="0.48" stop-color="#232323"/>
<stop offset="0.57" stop-color="#7C7C7C"/>
<stop offset="0.68" stop-color="#2F2F2F"/>
<stop offset="0.815" stop-color="#606060"/>
<stop offset="1" stop-color="#262626"/>
</linearGradient>
<linearGradient id="paint97_linear_1268_3933" x1="616.006" y1="2.33998" x2="716.103" y2="19.2053" gradientUnits="userSpaceOnUse">
<stop stop-color="#727272"/>
<stop offset="0.19" stop-color="#B1B1B1"/>
<stop offset="0.5" stop-color="white"/>
<stop offset="0.76" stop-color="#A4A4A4"/>
<stop offset="1" stop-color="#424242"/>
</linearGradient>
<linearGradient id="paint98_linear_1268_3933" x1="655.5" y1="18" x2="655.5" y2="134" gradientUnits="userSpaceOnUse">
<stop stop-color="#121212"/>
<stop offset="0.07" stop-color="#C6C6C6"/>
<stop offset="0.125" stop-color="#646464"/>
<stop offset="0.25" stop-color="#3E3E3E"/>
<stop offset="0.48" stop-color="#232323"/>
<stop offset="0.57" stop-color="#7C7C7C"/>
<stop offset="0.68" stop-color="#2F2F2F"/>
<stop offset="0.815" stop-color="#606060"/>
<stop offset="1" stop-color="#262626"/>
</linearGradient>
<linearGradient id="paint99_linear_1268_3933" x1="616.006" y1="2.33998" x2="716.103" y2="19.2053" gradientUnits="userSpaceOnUse">
<stop stop-color="#727272"/>
<stop offset="0.19" stop-color="#B1B1B1"/>
<stop offset="0.5" stop-color="white"/>
<stop offset="0.76" stop-color="#A4A4A4"/>
<stop offset="1" stop-color="#424242"/>
</linearGradient>
<linearGradient id="paint100_linear_1268_3933" x1="655.5" y1="18" x2="655.5" y2="134" gradientUnits="userSpaceOnUse">
<stop stop-color="#121212"/>
<stop offset="0.07" stop-color="#C6C6C6"/>
<stop offset="0.125" stop-color="#646464"/>
<stop offset="0.25" stop-color="#3E3E3E"/>
<stop offset="0.48" stop-color="#232323"/>
<stop offset="0.57" stop-color="#7C7C7C"/>
<stop offset="0.68" stop-color="#2F2F2F"/>
<stop offset="0.815" stop-color="#606060"/>
<stop offset="1" stop-color="#262626"/>
</linearGradient>
<linearGradient id="paint101_linear_1268_3933" x1="616.006" y1="2.33998" x2="716.103" y2="19.2053" gradientUnits="userSpaceOnUse">
<stop stop-color="#727272"/>
<stop offset="0.19" stop-color="#B1B1B1"/>
<stop offset="0.5" stop-color="white"/>
<stop offset="0.76" stop-color="#A4A4A4"/>
<stop offset="1" stop-color="#424242"/>
</linearGradient>
<linearGradient id="paint102_linear_1268_3933" x1="655.5" y1="18" x2="655.5" y2="134" gradientUnits="userSpaceOnUse">
<stop stop-color="#121212"/>
<stop offset="0.07" stop-color="#C6C6C6"/>
<stop offset="0.125" stop-color="#646464"/>
<stop offset="0.25" stop-color="#3E3E3E"/>
<stop offset="0.48" stop-color="#232323"/>
<stop offset="0.57" stop-color="#7C7C7C"/>
<stop offset="0.68" stop-color="#2F2F2F"/>
<stop offset="0.815" stop-color="#606060"/>
<stop offset="1" stop-color="#262626"/>
</linearGradient>
<linearGradient id="paint103_linear_1268_3933" x1="616.006" y1="2.33998" x2="716.103" y2="19.2053" gradientUnits="userSpaceOnUse">
<stop stop-color="#727272"/>
<stop offset="0.19" stop-color="#B1B1B1"/>
<stop offset="0.5" stop-color="white"/>
<stop offset="0.76" stop-color="#A4A4A4"/>
<stop offset="1" stop-color="#424242"/>
</linearGradient>
<clipPath id="clip0_1268_3933">
<rect x="4" y="4" width="760" height="120" rx="5" fill="white"/>
</clipPath>
</defs>
</svg>
