<svg width="54" height="46" viewBox="0 0 54 46" fill="none" xmlns="http://www.w3.org/2000/svg">
<g filter="url(#filter0_ddii_1314_602)">
<path d="M12.4118 11.1065C6.42223 11.8231 2 16.8498 2 22.9626C2 28.3924 5.39224 32.9378 10.5646 34.438C11.9528 34.841 13.565 34.9642 16.6773 34.9194L19.4314 34.8858L19.9688 34.5499C20.6965 34.1021 21.0324 33.464 21.0324 32.5459C21.0212 31.3816 20.439 30.5084 19.4874 30.2397C19.2523 30.1837 17.7969 30.1277 16.1063 30.1277C12.6917 30.1277 12.076 30.0382 10.6317 29.344C9.31067 28.7059 8.14634 27.5416 7.50819 26.2093C6.93722 24.989 6.76929 24.2725 6.76929 22.9626C6.76929 21.6527 6.93722 20.9362 7.497 19.7495C8.29188 18.0813 9.69132 16.8386 11.5162 16.2005L12.4678 15.8646L15.9944 15.7975C18.9836 15.7527 19.577 15.7079 19.8568 15.5512C20.6293 15.1257 21.0324 14.3756 21.0324 13.3568C21.0324 12.4612 20.6853 11.8231 19.9688 11.3752L19.4314 11.0394L16.3414 11.017C14.6397 11.017 12.8708 11.0506 12.4118 11.1065Z" fill="white"/>
<path d="M32.362 11.0953C31.7687 11.2409 31.1529 11.7111 30.8954 12.2373C30.47 13.1329 30.6267 14.4428 31.2537 15.1033C31.8359 15.7303 31.903 15.7415 35.6983 15.7975L39.2249 15.8646L40.1765 16.2005C42.3596 16.973 43.8934 18.5516 44.6211 20.7795C44.8674 21.5408 44.9122 21.8766 44.9122 22.9626C44.901 24.0374 44.8562 24.3956 44.6099 25.1457C43.9942 27.0489 42.7179 28.5491 41.0274 29.3552C39.6167 30.0382 38.9898 30.1277 35.5864 30.1277C33.8958 30.1277 32.4404 30.1837 32.2053 30.2397C31.2537 30.5084 30.6715 31.3816 30.6603 32.5459C30.6603 33.464 30.9962 34.1021 31.7239 34.5499L32.2613 34.8858L35.0154 34.9194C38.1277 34.9642 39.7399 34.841 41.1281 34.438C46.3005 32.9378 49.6927 28.3812 49.6927 22.9626C49.6927 16.7827 45.2481 11.7895 39.1353 11.1065C37.915 10.9722 32.9218 10.961 32.362 11.0953Z" fill="white"/>
<path d="M15.087 20.8691C14.7623 21.037 14.4824 21.3169 14.2585 21.664C13.9786 22.123 13.9338 22.3133 13.9338 22.9627C13.9338 23.612 13.9786 23.8023 14.2585 24.2613C14.4824 24.6084 14.7623 24.8883 15.087 25.0562L15.5796 25.3137H25.8459H36.1121L36.6047 25.0562C36.9294 24.8883 37.2093 24.6084 37.4332 24.2613C37.7131 23.8023 37.7579 23.612 37.7579 22.9627C37.7579 22.3133 37.7131 22.123 37.4332 21.664C37.2093 21.3169 36.9294 21.037 36.6047 20.8691L36.1121 20.6116H25.8459H15.5796L15.087 20.8691Z" fill="white"/>
</g>
<defs>
<filter id="filter0_ddii_1314_602" x="0" y="8" width="53.6926" height="30.9281" filterUnits="userSpaceOnUse" color-interpolation-filters="sRGB">
<feFlood flood-opacity="0" result="BackgroundImageFix"/>
<feColorMatrix in="SourceAlpha" type="matrix" values="0 0 0 0 0 0 0 0 0 0 0 0 0 0 0 0 0 0 127 0" result="hardAlpha"/>
<feOffset dx="1" dy="1"/>
<feGaussianBlur stdDeviation="1.5"/>
<feColorMatrix type="matrix" values="0 0 0 0 0 0 0 0 0 0 0 0 0 0 0 0 0 0 0.4 0"/>
<feBlend mode="normal" in2="BackgroundImageFix" result="effect1_dropShadow_1314_602"/>
<feColorMatrix in="SourceAlpha" type="matrix" values="0 0 0 0 0 0 0 0 0 0 0 0 0 0 0 0 0 0 127 0" result="hardAlpha"/>
<feOffset dy="-1"/>
<feGaussianBlur stdDeviation="1"/>
<feColorMatrix type="matrix" values="0 0 0 0 0 0 0 0 0 0 0 0 0 0 0 0 0 0 0.4 0"/>
<feBlend mode="normal" in2="effect1_dropShadow_1314_602" result="effect2_dropShadow_1314_602"/>
<feBlend mode="normal" in="SourceGraphic" in2="effect2_dropShadow_1314_602" result="shape"/>
<feColorMatrix in="SourceAlpha" type="matrix" values="0 0 0 0 0 0 0 0 0 0 0 0 0 0 0 0 0 0 127 0" result="hardAlpha"/>
<feOffset dx="-1" dy="-1"/>
<feGaussianBlur stdDeviation="1"/>
<feComposite in2="hardAlpha" operator="arithmetic" k2="-1" k3="1"/>
<feColorMatrix type="matrix" values="0 0 0 0 0.392157 0 0 0 0 0.392157 0 0 0 0 0.392157 0 0 0 0.5 0"/>
<feBlend mode="normal" in2="shape" result="effect3_innerShadow_1314_602"/>
<feColorMatrix in="SourceAlpha" type="matrix" values="0 0 0 0 0 0 0 0 0 0 0 0 0 0 0 0 0 0 127 0" result="hardAlpha"/>
<feOffset dx="1" dy="1"/>
<feGaussianBlur stdDeviation="1"/>
<feComposite in2="hardAlpha" operator="arithmetic" k2="-1" k3="1"/>
<feColorMatrix type="matrix" values="0 0 0 0 1 0 0 0 0 1 0 0 0 0 1 0 0 0 0.3 0"/>
<feBlend mode="normal" in2="effect3_innerShadow_1314_602" result="effect4_innerShadow_1314_602"/>
</filter>
</defs>
</svg>
