<svg width="50" height="50" viewBox="0 0 50 50" fill="none" xmlns="http://www.w3.org/2000/svg">
<g filter="url(#filter0_ddii_1314_607)">
<path d="M11.5897 8.05126C11.2704 8.13099 10.7051 8.46321 10.5188 8.68912C10.419 8.79543 10.2661 9.05456 10.1729 9.25389L10 9.61933V25.0011V40.3829L10.1729 40.7483C10.4124 41.2599 10.6252 41.4925 11.0842 41.7317C11.5964 42.0041 12.1285 42.0705 12.634 41.9244C13.1063 41.7848 39.0339 26.8349 39.3864 26.4961C40.2045 25.7187 40.2045 24.2835 39.3864 23.5061C39.0605 23.1938 13.1129 8.22401 12.6673 8.09112C12.3214 7.98481 11.9289 7.97152 11.5897 8.05126Z" fill="#F3F3F3"/>
</g>
<g filter="url(#filter1_d_1314_607)">
<path d="M14.1128 13.0362C13.8893 13.0925 13.4935 13.327 13.3632 13.4864C13.2933 13.5615 13.1862 13.7444 13.1211 13.8851L13 14.1431V25.0008V35.8585L13.1211 36.1164C13.2887 36.4776 13.4377 36.6417 13.7589 36.8106C14.1175 37.0029 14.4899 37.0498 14.8438 36.9466C15.1744 36.8481 33.3237 26.2953 33.5705 26.0561C34.1432 25.5073 34.1432 24.4942 33.5705 23.9455C33.3423 23.7251 15.179 13.1581 14.8671 13.0643C14.625 12.9893 14.3503 12.9799 14.1128 13.0362Z" fill="white"/>
</g>
<defs>
<filter id="filter0_ddii_1314_607" x="7" y="6" width="37" height="40" filterUnits="userSpaceOnUse" color-interpolation-filters="sRGB">
<feFlood flood-opacity="0" result="BackgroundImageFix"/>
<feColorMatrix in="SourceAlpha" type="matrix" values="0 0 0 0 0 0 0 0 0 0 0 0 0 0 0 0 0 0 127 0" result="hardAlpha"/>
<feOffset dx="1" dy="1"/>
<feGaussianBlur stdDeviation="1.5"/>
<feColorMatrix type="matrix" values="0 0 0 0 0 0 0 0 0 0 0 0 0 0 0 0 0 0 0.4 0"/>
<feBlend mode="normal" in2="BackgroundImageFix" result="effect1_dropShadow_1314_607"/>
<feColorMatrix in="SourceAlpha" type="matrix" values="0 0 0 0 0 0 0 0 0 0 0 0 0 0 0 0 0 0 127 0" result="hardAlpha"/>
<feOffset dx="-1" dy="1"/>
<feGaussianBlur stdDeviation="1"/>
<feColorMatrix type="matrix" values="0 0 0 0 0 0 0 0 0 0 0 0 0 0 0 0 0 0 0.4 0"/>
<feBlend mode="normal" in2="effect1_dropShadow_1314_607" result="effect2_dropShadow_1314_607"/>
<feBlend mode="normal" in="SourceGraphic" in2="effect2_dropShadow_1314_607" result="shape"/>
<feColorMatrix in="SourceAlpha" type="matrix" values="0 0 0 0 0 0 0 0 0 0 0 0 0 0 0 0 0 0 127 0" result="hardAlpha"/>
<feOffset dx="-1" dy="-1"/>
<feGaussianBlur stdDeviation="1"/>
<feComposite in2="hardAlpha" operator="arithmetic" k2="-1" k3="1"/>
<feColorMatrix type="matrix" values="0 0 0 0 0.392157 0 0 0 0 0.392157 0 0 0 0 0.392157 0 0 0 0.5 0"/>
<feBlend mode="normal" in2="shape" result="effect3_innerShadow_1314_607"/>
<feColorMatrix in="SourceAlpha" type="matrix" values="0 0 0 0 0 0 0 0 0 0 0 0 0 0 0 0 0 0 127 0" result="hardAlpha"/>
<feOffset dx="1" dy="1"/>
<feGaussianBlur stdDeviation="1"/>
<feComposite in2="hardAlpha" operator="arithmetic" k2="-1" k3="1"/>
<feColorMatrix type="matrix" values="0 0 0 0 1 0 0 0 0 1 0 0 0 0 1 0 0 0 0.3 0"/>
<feBlend mode="normal" in2="effect3_innerShadow_1314_607" result="effect4_innerShadow_1314_607"/>
</filter>
<filter id="filter1_d_1314_607" x="9" y="9" width="29" height="32" filterUnits="userSpaceOnUse" color-interpolation-filters="sRGB">
<feFlood flood-opacity="0" result="BackgroundImageFix"/>
<feColorMatrix in="SourceAlpha" type="matrix" values="0 0 0 0 0 0 0 0 0 0 0 0 0 0 0 0 0 0 127 0" result="hardAlpha"/>
<feOffset/>
<feGaussianBlur stdDeviation="2"/>
<feComposite in2="hardAlpha" operator="out"/>
<feColorMatrix type="matrix" values="0 0 0 0 0 0 0 0 0 0 0 0 0 0 0 0 0 0 0.4 0"/>
<feBlend mode="normal" in2="BackgroundImageFix" result="effect1_dropShadow_1314_607"/>
<feBlend mode="normal" in="SourceGraphic" in2="effect1_dropShadow_1314_607" result="shape"/>
</filter>
</defs>
</svg>
