<svg width="53" height="50" viewBox="0 0 53 50" fill="none" xmlns="http://www.w3.org/2000/svg">
<g filter="url(#filter0_ddii_1314_613)">
<path d="M5.14592 10.1665C4.4918 10.3801 3.37045 11.5281 3.17021 12.2089C2.94326 12.9966 2.94326 36.892 3.17021 37.6796C3.3838 38.4139 4.4918 39.5219 5.22602 39.7355C5.63985 39.8556 9.36434 39.8956 20.658 39.8956C37.5049 39.8956 36.3302 39.9757 37.3581 38.8277C37.6785 38.4806 38.0122 37.9466 38.0923 37.6529C38.3192 36.892 38.3192 12.9966 38.0923 12.2356C38.0122 11.9419 37.6785 11.408 37.3581 11.0609C36.3302 9.91283 37.5316 9.99293 20.5779 10.0063C10.0719 10.0196 5.47966 10.0597 5.14592 10.1665Z" fill="#DDDDDD"/>
<path d="M44.85 15.4272L41 17.8408V24.9999V32.159L44.8625 34.5726C47.2 36.0453 48.8625 36.9999 49.0625 36.9999C49.2375 36.9999 49.525 36.8499 49.6875 36.659L50 36.3317V24.9999V13.6681L49.6875 13.3408C49.5125 13.1362 49.25 12.9999 49.0375 12.9999C48.8125 13.0135 47.25 13.9135 44.85 15.4272Z" fill="#F3F3F3"/>
</g>
<defs>
<filter id="filter0_ddii_1314_613" x="0" y="7" width="53" height="35.8969" filterUnits="userSpaceOnUse" color-interpolation-filters="sRGB">
<feFlood flood-opacity="0" result="BackgroundImageFix"/>
<feColorMatrix in="SourceAlpha" type="matrix" values="0 0 0 0 0 0 0 0 0 0 0 0 0 0 0 0 0 0 127 0" result="hardAlpha"/>
<feOffset dx="1" dy="-1"/>
<feGaussianBlur stdDeviation="1"/>
<feColorMatrix type="matrix" values="0 0 0 0 0 0 0 0 0 0 0 0 0 0 0 0 0 0 0.4 0"/>
<feBlend mode="normal" in2="BackgroundImageFix" result="effect1_dropShadow_1314_613"/>
<feColorMatrix in="SourceAlpha" type="matrix" values="0 0 0 0 0 0 0 0 0 0 0 0 0 0 0 0 0 0 127 0" result="hardAlpha"/>
<feOffset dx="-1" dy="1"/>
<feGaussianBlur stdDeviation="1"/>
<feColorMatrix type="matrix" values="0 0 0 0 0 0 0 0 0 0 0 0 0 0 0 0 0 0 0.4 0"/>
<feBlend mode="normal" in2="effect1_dropShadow_1314_613" result="effect2_dropShadow_1314_613"/>
<feBlend mode="normal" in="SourceGraphic" in2="effect2_dropShadow_1314_613" result="shape"/>
<feColorMatrix in="SourceAlpha" type="matrix" values="0 0 0 0 0 0 0 0 0 0 0 0 0 0 0 0 0 0 127 0" result="hardAlpha"/>
<feOffset dx="-1" dy="-1"/>
<feGaussianBlur stdDeviation="1"/>
<feComposite in2="hardAlpha" operator="arithmetic" k2="-1" k3="1"/>
<feColorMatrix type="matrix" values="0 0 0 0 0.392157 0 0 0 0 0.392157 0 0 0 0 0.392157 0 0 0 0.5 0"/>
<feBlend mode="normal" in2="shape" result="effect3_innerShadow_1314_613"/>
<feColorMatrix in="SourceAlpha" type="matrix" values="0 0 0 0 0 0 0 0 0 0 0 0 0 0 0 0 0 0 127 0" result="hardAlpha"/>
<feOffset dx="1" dy="1"/>
<feGaussianBlur stdDeviation="1"/>
<feComposite in2="hardAlpha" operator="arithmetic" k2="-1" k3="1"/>
<feColorMatrix type="matrix" values="0 0 0 0 1 0 0 0 0 1 0 0 0 0 1 0 0 0 0.3 0"/>
<feBlend mode="normal" in2="effect3_innerShadow_1314_613" result="effect4_innerShadow_1314_613"/>
</filter>
</defs>
</svg>
