<svg width="51" height="40" viewBox="0 0 51 40" fill="none" xmlns="http://www.w3.org/2000/svg">
<rect x="1.27835" y="0.293974" width="49.4121" height="39.4121" rx="4.70603" fill="url(#paint0_linear_1314_555)" fill-opacity="0.8"/>
<rect x="1.27835" y="0.293974" width="49.4121" height="39.4121" rx="4.70603" stroke="url(#paint1_linear_1314_555)" stroke-width="0.587948"/>
<path d="M6.89038 25L3.43238 15.13H4.80438L7.73038 23.838H7.22638L10.3344 15.13H11.3564L14.2684 23.838H13.8204L16.8444 15.13H18.1324L14.6464 25H13.5124L10.6704 16.67H10.9644L8.01038 25H6.89038ZM19.788 25V15.13H26.172V16.194H21.048V19.456H25.85V20.52H21.048V23.936H26.172V25H19.788ZM28.0458 25V15.13H32.0638C33.1278 15.13 33.9445 15.354 34.5138 15.802C35.0831 16.25 35.3678 16.88 35.3678 17.692C35.3678 18.308 35.1811 18.8213 34.8078 19.232C34.4438 19.6427 33.9445 19.918 33.3098 20.058V19.848C34.0378 19.932 34.6025 20.184 35.0038 20.604C35.4145 21.024 35.6198 21.5793 35.6198 22.27C35.6198 23.1473 35.3258 23.824 34.7378 24.3C34.1498 24.7667 33.3191 25 32.2458 25H28.0458ZM29.3058 23.964H32.1198C32.8105 23.964 33.3518 23.8333 33.7438 23.572C34.1451 23.3013 34.3458 22.858 34.3458 22.242C34.3458 21.6167 34.1451 21.1733 33.7438 20.912C33.3518 20.6507 32.8105 20.52 32.1198 20.52H29.3058V23.964ZM29.3058 19.484H31.8818C32.6191 19.484 33.1698 19.344 33.5338 19.064C33.8978 18.7747 34.0798 18.3593 34.0798 17.818C34.0798 17.2767 33.8978 16.866 33.5338 16.586C33.1698 16.2967 32.6191 16.152 31.8818 16.152H29.3058V19.484ZM37.6024 25V15.13H38.7504L42.6424 23.894H42.2224L46.1144 15.13H47.2484V25H46.0584V16.866H46.4924L42.8384 25H42.0124L38.3584 16.866H38.7924V25H37.6024Z" fill="#191919"/>
<defs>
<linearGradient id="paint0_linear_1314_555" x1="23.4105" y1="39.1462" x2="21.4956" y2="-0.00934709" gradientUnits="userSpaceOnUse">
<stop stop-color="#696969"/>
<stop offset="0.5" stop-color="white"/>
<stop offset="1" stop-color="#696969"/>
</linearGradient>
<linearGradient id="paint1_linear_1314_555" x1="0.984376" y1="18.0725" x2="50.2067" y2="26.4803" gradientUnits="userSpaceOnUse">
<stop stop-color="white" stop-opacity="0.2"/>
<stop offset="0.5" stop-color="#CCCCCC"/>
<stop offset="1" stop-color="white" stop-opacity="0.2"/>
</linearGradient>
</defs>
</svg>
