<svg width="121" height="20" viewBox="0 0 121 20" fill="none" xmlns="http://www.w3.org/2000/svg">
<g clip-path="url(#clip0_4384_6968)">
<path d="M12.0435 12.0976L3.58738 12.0978L3.58727 8.70992L12.0433 8.70964C12.5373 8.70962 12.8807 8.79678 13.0531 8.94899C13.2255 9.10121 13.3322 9.38354 13.3323 9.79597L13.3323 11.0125C13.3323 11.447 13.2255 11.7293 13.0532 11.8816C12.8808 12.0338 12.5374 12.0988 12.0435 12.0989L12.0435 12.0976ZM12.6234 5.51554L0.000976605 5.51595L0.00145219 20.0044L3.58764 20.0043L3.58748 15.2906L10.1964 15.2904L13.3326 20.004L17.3484 20.0039L13.8907 15.2682C15.1654 15.0769 15.7378 14.6813 16.2098 14.0295C16.6819 13.3777 16.9185 12.3355 16.9185 10.9447L16.9184 9.8583C16.9184 9.03344 16.8322 8.38161 16.6817 7.88202C16.5312 7.38241 16.2739 6.94787 15.9086 6.55758C15.5227 6.18808 15.0931 5.92789 14.5772 5.75356C14.0614 5.60135 13.417 5.51421 12.6234 5.51423L12.6234 5.51554Z" fill="white"/>
<path d="M22.3668 15.7238L22.3665 5.51355L18.7756 5.51367L18.776 15.6368C18.776 16.4617 18.8404 17.1357 18.9911 17.6353C19.1418 18.1571 19.3994 18.5917 19.7871 18.9599C20.1529 19.3502 20.583 19.6118 21.0981 19.764C21.6147 19.937 22.2586 20.0034 23.0765 20.0033L31.4145 20.0031C32.2104 20.003 32.8557 19.9379 33.3708 19.7636C33.8873 19.6113 34.3175 19.3511 34.7038 18.9594C35.0695 18.5899 35.3271 18.1553 35.4779 17.6348C35.6285 17.1351 35.7148 16.4611 35.7147 15.6362L35.7144 5.51312L32.1236 5.51323L32.1239 15.7235C32.1239 16.1581 32.0172 16.4404 31.8446 16.5927C31.6719 16.7449 31.328 16.81 30.8336 16.81L23.6572 16.8102C23.1407 16.8103 22.7968 16.7452 22.6256 16.593C22.4529 16.4408 22.368 16.1584 22.368 15.7238L22.3668 15.7238Z" fill="white"/>
<path d="M48.7269 20.0021L48.7265 8.70542L55.5104 8.70519L55.5103 5.51213L38.3674 5.5127L38.3675 8.70576L45.1514 8.70553L45.1518 20.0023L48.7269 20.0021Z" fill="white"/>
<path d="M61.754 15.7219L61.7537 5.5116L58.1628 5.51172L58.1632 15.6348C58.1632 16.4597 58.2277 17.1337 58.3783 17.6334C58.529 18.1552 58.7865 18.5897 59.1743 18.958C59.54 19.3483 59.9702 19.6098 60.4853 19.762C61.0019 19.9351 61.6458 20.0014 62.4637 20.0014L70.8017 20.0011C71.5976 20.0011 72.2429 19.936 72.758 19.7616C73.2745 19.6094 73.7047 19.3491 74.091 18.9575C74.4567 18.5879 74.7143 18.1533 74.8651 17.6328C75.0157 17.1332 75.102 16.4592 75.1019 15.6342L75.1016 5.51116L71.5108 5.51128L71.5111 15.7215C71.5111 16.1561 71.4044 16.4385 71.2318 16.5907C71.0606 16.743 70.7153 16.808 70.2208 16.8081L63.0444 16.8083C62.5279 16.8083 62.184 16.7433 62.0128 16.591C61.8401 16.4388 61.7552 16.1565 61.7552 15.7219L61.754 15.7219Z" fill="white"/>
<path d="M81.3503 16.8078L81.3502 14.2016L89.85 14.2013C90.3451 14.2013 90.6896 14.2885 90.8623 14.4407C91.0351 14.5929 91.1421 14.8753 91.1421 15.2877L91.1421 15.7223C91.1421 16.1569 91.0352 16.4393 90.8624 16.5915C90.6909 16.7438 90.3452 16.8089 89.8501 16.8089L81.3503 16.8092L81.3503 16.8078ZM81.3501 11.3117L81.3501 8.70548L88.9858 8.70523C89.5029 8.70521 89.8472 8.79238 90.0188 8.9446C90.1915 9.09684 90.2766 9.37919 90.2766 9.79166L90.2766 10.2262C90.2766 10.6608 90.1903 10.9432 90.0189 11.0954C89.8473 11.2477 89.5018 11.3127 88.9859 11.3128L81.3501 11.313L81.3501 11.3117ZM93.8515 9.72519L93.8515 9.44282C93.8515 8.09613 93.5071 7.09684 92.8183 6.4671C92.1298 5.83735 91.031 5.51079 89.5673 5.51084L77.7546 5.51123L77.7551 20.001L90.4098 20.0006C91.8735 20.0006 92.9722 19.6961 93.6608 19.0663C94.3495 18.4365 94.6938 17.4372 94.6938 16.0905L94.6938 15.786C94.6937 14.4393 94.3494 13.4829 93.6606 12.9183C93.5318 12.8311 93.4028 12.766 93.2724 12.701C93.1436 12.6359 92.8173 12.5488 92.5812 12.4616C93.0547 12.2013 93.3783 11.8539 93.5716 11.4622C93.7444 11.0706 93.8515 10.4851 93.8515 9.72389L93.8515 9.72519Z" fill="white"/>
<path d="M100.119 8.70369L113.062 8.70326L113.062 5.5102L96.5312 5.51074L96.5317 20.0005L113.062 20L113.062 16.8069L100.119 16.8074L100.119 14.3521L111.414 14.3517L111.414 11.1586L100.119 11.159L100.119 8.70369Z" fill="white"/>
<path d="M117.653 5.5106C119.175 5.51055 120.409 4.277 120.408 2.75541C120.408 1.23381 119.175 0.000347898 117.653 0.000397846C116.132 0.000447793 114.898 1.23399 114.898 2.75559C114.898 4.27718 116.132 5.51065 117.653 5.5106Z" fill="#ED143B"/>
</g>
<defs>
<clipPath id="clip0_4384_6968">
<rect width="120.408" height="20" fill="white" transform="translate(0 0.00390625)"/>
</clipPath>
</defs>
</svg>
