<svg width="157" height="28" viewBox="0 0 157 28" fill="none" xmlns="http://www.w3.org/2000/svg">
<g clip-path="url(#clip0_4384_6984)">
<path d="M21.2715 4.57271C22.8865 4.57271 24.2001 5.88636 24.2001 7.50135C24.2001 9.11497 22.8862 10.4286 21.2715 10.4286C19.6575 10.4286 18.3435 9.11497 18.3435 7.50135C18.3432 5.88602 19.6579 4.57271 21.2715 4.57271ZM21.2715 14.5721C25.1725 14.5721 28.3449 11.4007 28.3449 7.50135C28.3449 3.59999 25.1729 0.427246 21.2715 0.427246C17.3708 0.427246 14.1981 3.60033 14.1981 7.50135C14.1981 11.4007 17.3708 14.5721 21.2715 14.5721ZM24.1331 20.3416C25.5882 20.0103 26.9769 19.4353 28.2403 18.641C28.7054 18.3484 29.0353 17.8829 29.1572 17.3471C29.2792 16.8113 29.1833 16.2489 28.8907 15.7838C28.746 15.5533 28.5572 15.3535 28.3352 15.196C28.1132 15.0384 27.8624 14.9262 27.597 14.8657C27.3316 14.8052 27.0569 14.7976 26.7885 14.8434C26.5202 14.8892 26.2635 14.9874 26.0332 15.1324C23.1353 16.9542 19.4056 16.9529 16.5102 15.1324C16.2799 14.9873 16.0232 14.8891 15.7549 14.8433C15.4866 14.7975 15.2119 14.8051 14.9465 14.8656C14.6811 14.9261 14.4303 15.0384 14.2083 15.1959C13.9864 15.3535 13.7977 15.5532 13.653 15.7838C13.3603 16.2488 13.2642 16.8111 13.386 17.3469C13.5078 17.8827 13.8374 18.3482 14.3024 18.641C15.5657 19.435 16.9541 20.0099 18.4089 20.3416L14.4547 24.2965C14.0661 24.6852 13.8479 25.2124 13.848 25.762C13.8481 26.3117 14.0665 26.8387 14.4552 27.2273C14.844 27.6159 15.3711 27.8342 15.9208 27.8341C16.4704 27.834 16.9975 27.6155 17.3861 27.2268L21.2708 23.3414L25.158 27.2272C25.3502 27.4196 25.5784 27.5723 25.8297 27.6765C26.0809 27.7807 26.3503 27.8343 26.6223 27.8343C26.8943 27.8343 27.1636 27.7807 27.4149 27.6765C27.6661 27.5723 27.8944 27.4196 28.0866 27.2272C28.2794 27.035 28.4323 26.8067 28.5367 26.5553C28.641 26.3039 28.6947 26.0344 28.6947 25.7622C28.6947 25.49 28.641 25.2205 28.5367 24.9691C28.4323 24.7177 28.2794 24.4893 28.0866 24.2972L24.1331 20.3416ZM75.3768 13.9335C75.736 13.7426 76.4003 13.1433 76.6255 12.3629L77.1604 10.2874C77.1654 10.2717 77.1667 10.2549 77.164 10.2386C77.1614 10.2222 77.1549 10.2067 77.1452 10.1933C77.1358 10.18 77.1234 10.1691 77.109 10.1615C77.0946 10.1539 77.0785 10.1498 77.0622 10.1496H75.6771C75.6548 10.1498 75.6331 10.1572 75.6153 10.1707C75.5975 10.1843 75.5846 10.2033 75.5786 10.2248C75.5786 10.2248 75.2326 11.8483 75.0606 12.2847C74.8889 12.7211 74.4529 13.1162 74.1972 13.2733C74.073 13.3511 73.9339 13.4022 73.7889 13.4236C73.6416 13.446 73.4876 13.4568 73.3315 13.4568H71.9816V10.2553C71.9819 10.2276 71.9712 10.201 71.952 10.1811C71.9327 10.1613 71.9064 10.1498 71.8787 10.1493H70.4936C70.4659 10.1498 70.4395 10.1611 70.4201 10.181C70.4008 10.2009 70.3901 10.2276 70.3903 10.2553V18.8624C70.3903 18.921 70.4361 18.9681 70.4936 18.9681H71.8787C71.8924 18.9679 71.9059 18.965 71.9185 18.9596C71.9311 18.9542 71.9425 18.9464 71.952 18.9366C71.9616 18.9268 71.9691 18.9152 71.9742 18.9024C71.9793 18.8897 71.9818 18.8761 71.9816 18.8624V14.8311H73.516C73.7737 14.8311 75.2637 15.02 75.3961 16.0912L75.6974 18.8915C75.7033 18.9135 75.7161 18.9329 75.7339 18.9469C75.7517 18.9609 75.7736 18.9687 75.7963 18.9691H77.2149C77.2313 18.9687 77.2473 18.9646 77.2617 18.957C77.2762 18.9493 77.2887 18.9385 77.2982 18.9252C77.3077 18.9119 77.314 18.8966 77.3166 18.8805C77.3192 18.8644 77.318 18.8479 77.3131 18.8323C77.3131 18.8323 77.0544 16.9366 76.8428 15.6145C76.6312 14.2914 75.3518 13.9227 75.3768 13.9335ZM100.871 16.6573C100.861 16.6464 100.849 16.6377 100.836 16.6316C100.823 16.6256 100.809 16.6223 100.794 16.6221C100.755 16.615 100.737 16.6353 100.717 16.6573C100.523 16.8794 100.273 17.0799 99.9743 17.2512C99.6847 17.4204 99.355 17.5091 99.0196 17.5081C98.2656 17.5081 97.6761 17.2657 97.2658 16.7877C96.8517 16.3082 96.6418 15.5647 96.6418 14.5761C96.6418 13.5767 96.851 12.8294 97.2658 12.3558C97.6754 11.8838 98.2649 11.6448 99.0196 11.6448C99.331 11.6448 99.6398 11.721 99.9381 11.8696C100.237 12.0158 100.502 12.2224 100.717 12.4763C100.727 12.4871 100.739 12.4959 100.752 12.5021C100.766 12.5084 100.78 12.5119 100.795 12.5125C100.809 12.5126 100.824 12.5094 100.837 12.5033C100.851 12.4972 100.863 12.4882 100.872 12.477L101.767 11.4355C101.785 11.4149 101.794 11.3884 101.793 11.3613C101.792 11.3342 101.781 11.3084 101.762 11.2893C101.399 10.9276 100.979 10.6279 100.519 10.4022C100.055 10.1767 99.5284 10.0616 98.9552 10.0616C98.4616 10.0616 97.9757 10.1459 97.5109 10.3105C97.0389 10.4794 96.6106 10.7516 96.2572 11.1071C95.8939 11.4691 95.599 11.9393 95.3803 12.5058C95.1615 13.0712 95.0512 13.768 95.0512 14.5754C95.0512 15.3724 95.1615 16.0631 95.3803 16.6272C95.599 17.1953 95.8939 17.6659 96.2572 18.0279C96.6099 18.3841 97.0384 18.6562 97.5109 18.8238C97.9757 18.9887 98.4619 19.0727 98.9552 19.0727C99.5416 19.0727 100.074 18.9582 100.536 18.7328C101 18.5046 101.421 18.1981 101.78 17.8267C101.799 17.8072 101.81 17.7812 101.81 17.754C101.811 17.7268 101.802 17.7003 101.784 17.6798L100.873 16.657L100.871 16.6573ZM108.148 16.6573C108.139 16.6465 108.127 16.6377 108.114 16.6317C108.101 16.6256 108.086 16.6223 108.072 16.6221C108.053 16.6167 108.014 16.6353 107.995 16.6577C107.805 16.8757 107.556 17.0744 107.254 17.2508C106.964 17.42 106.634 17.5086 106.299 17.5075C105.546 17.5075 104.956 17.2654 104.544 16.7873C104.129 16.3052 103.919 15.5617 103.919 14.5754C103.919 13.5787 104.129 12.8315 104.543 12.3551C104.955 11.8838 105.546 11.6441 106.299 11.6441C106.61 11.6441 106.918 11.7203 107.217 11.8689C107.516 12.0149 107.78 12.2215 107.995 12.4756C108.004 12.487 108.016 12.4961 108.029 12.5024C108.043 12.5087 108.057 12.5119 108.072 12.5119H108.073C108.102 12.5119 108.13 12.4993 108.15 12.4763L109.046 11.4349C109.063 11.4143 109.073 11.3878 109.072 11.3607C109.07 11.3336 109.059 11.3078 109.04 11.2886C108.677 10.927 108.257 10.6273 107.797 10.4015C107.332 10.1761 106.805 10.0609 106.233 10.0609C105.74 10.0609 105.253 10.1452 104.788 10.3098C104.316 10.4791 103.888 10.7512 103.535 11.1064C103.171 11.4684 102.876 11.9387 102.658 12.5051C102.44 13.0729 102.329 13.7696 102.329 14.5748C102.329 15.3691 102.44 16.0594 102.658 16.6262C102.876 17.1943 103.171 17.6652 103.535 18.0268C103.888 18.3827 104.316 18.6548 104.788 18.8232C105.253 18.9877 105.74 19.0717 106.233 19.0717C106.819 19.0717 107.351 18.9572 107.813 18.7317C108.277 18.5038 108.698 18.1972 109.058 17.8257C109.077 17.8062 109.087 17.7802 109.088 17.7531C109.089 17.7259 109.079 17.6995 109.061 17.6791L108.149 16.656V16.6573H108.148ZM92.3324 16.0672C92.3324 16.3705 92.2746 16.618 92.1625 16.8012C92.0499 16.9868 91.8934 17.1419 91.7068 17.2529C91.5044 17.3718 91.2819 17.4525 91.0503 17.4909C90.7906 17.5373 90.537 17.5583 90.2746 17.5583C89.6821 17.5583 89.2399 17.4435 88.962 17.2173C88.6871 16.9935 88.5547 16.4907 88.5547 16.1156C88.5547 15.7428 88.6837 15.2536 88.9501 15.0535C89.224 14.848 89.6239 14.7437 90.1399 14.7437H92.3335V16.0668L92.3324 16.0672ZM93.9237 12.9439C93.9237 12.3876 93.8296 11.9156 93.6417 11.5429C93.4555 11.1701 93.1978 10.8701 92.8752 10.6534C92.5596 10.4384 92.1848 10.2847 91.7616 10.194C91.3315 10.1048 90.8933 10.0605 90.4541 10.0616C89.8731 10.0616 89.3226 10.1598 88.8167 10.3541C88.3072 10.5525 87.885 10.8461 87.5623 11.2263C87.5454 11.2463 87.5364 11.2719 87.5371 11.2981C87.5378 11.3243 87.5481 11.3494 87.5661 11.3685L88.4443 12.3223C88.4541 12.3329 88.466 12.3414 88.4793 12.3471C88.4926 12.3528 88.507 12.3557 88.5215 12.3554C88.5361 12.3549 88.5505 12.3513 88.5637 12.3449C88.5769 12.3385 88.5886 12.3294 88.598 12.3182C88.7791 12.1002 89.0158 11.9265 89.3036 11.8015C89.5927 11.6742 90.0004 11.6099 90.5116 11.6099C91.1607 11.6099 91.634 11.7199 91.9187 11.9363C92.197 12.1479 92.3335 12.4661 92.3335 12.91V13.3532H89.8027C89.3398 13.3532 88.9312 13.426 88.5906 13.5689C88.2459 13.7117 87.9557 13.9071 87.7272 14.1482C87.4981 14.391 87.3209 14.6779 87.2065 14.9915C87.09 15.3064 87.0304 15.8546 87.0304 16.203C87.0304 16.9725 87.3003 17.8257 87.8325 18.3244C88.3614 18.8215 89.1258 19.0723 90.106 19.0723C90.6897 19.0723 91.1965 18.9877 91.611 18.8232C91.9157 18.7023 92.1574 18.5506 92.3324 18.3752L92.5088 18.8624C92.5088 18.9213 92.5549 18.9684 92.6118 18.9684H93.9986C94.0263 18.968 94.0527 18.9566 94.072 18.9367C94.0914 18.9169 94.1021 18.8901 94.1018 18.8624C94.1018 18.8624 93.9254 18.2821 93.9254 17.4858L93.9237 12.9439ZM142.622 10.1493H141.454C141.42 10.1493 141.389 10.1659 141.37 10.194L138.252 14.7071L137.187 16.3042V10.2553C137.187 10.2276 137.176 10.201 137.157 10.1811C137.138 10.1613 137.111 10.1498 137.084 10.1493H135.698C135.671 10.1499 135.644 10.1614 135.625 10.1812C135.606 10.201 135.595 10.2276 135.595 10.2553V18.8624C135.595 18.8901 135.606 18.9167 135.625 18.9365C135.644 18.9563 135.671 18.9676 135.698 18.9681H137.032C137.048 18.9681 137.065 18.964 137.08 18.9561C137.095 18.9482 137.107 18.9367 137.117 18.9227L141.102 13.0075V18.8624C141.102 18.921 141.148 18.9681 141.205 18.9681H142.623C142.68 18.9681 142.726 18.9207 142.726 18.8624V10.2556C142.726 10.2279 142.715 10.2012 142.696 10.1813C142.677 10.1614 142.65 10.1499 142.622 10.1493ZM132.511 13.9335C132.87 13.7426 133.534 13.1433 133.759 12.3629L134.294 10.2874C134.299 10.2717 134.3 10.2549 134.298 10.2386C134.295 10.2222 134.289 10.2067 134.279 10.1933C134.27 10.18 134.257 10.1692 134.243 10.1616C134.229 10.154 134.213 10.1499 134.196 10.1496H132.81C132.788 10.1498 132.766 10.1573 132.749 10.1708C132.731 10.1844 132.718 10.2033 132.712 10.2248C132.712 10.2248 132.366 11.8483 132.194 12.2847C132.022 12.7211 131.586 13.1162 131.331 13.2733C131.206 13.3512 131.067 13.4024 130.922 13.4236C130.774 13.446 130.62 13.4568 130.464 13.4568H129.115V10.2553C129.115 10.2276 129.104 10.2009 129.085 10.181C129.066 10.1611 129.039 10.1498 129.012 10.1493H127.626C127.598 10.1498 127.572 10.1613 127.553 10.1811C127.534 10.201 127.523 10.2276 127.523 10.2553V18.8624C127.523 18.921 127.569 18.9681 127.626 18.9681H129.012C129.025 18.9679 129.039 18.9651 129.051 18.9597C129.064 18.9543 129.075 18.9465 129.085 18.9367C129.095 18.9269 129.102 18.9153 129.107 18.9025C129.112 18.8898 129.115 18.8761 129.115 18.8624V14.8311H130.649C130.907 14.8311 132.397 15.02 132.529 16.0912L132.831 18.8915C132.836 18.9135 132.849 18.933 132.867 18.947C132.885 18.961 132.907 18.9688 132.929 18.9691H134.348C134.364 18.969 134.38 18.965 134.394 18.9574C134.409 18.9499 134.421 18.939 134.431 18.9257C134.44 18.9124 134.447 18.897 134.449 18.8808C134.452 18.8646 134.451 18.848 134.446 18.8323C134.446 18.8323 134.187 16.9366 133.975 15.6145C133.764 14.2914 132.485 13.9227 132.511 13.9335ZM125.769 10.1493L124.6 10.1493C124.583 10.1493 124.567 10.1533 124.552 10.1611C124.538 10.1689 124.525 10.1802 124.516 10.194L121.399 14.7071L120.334 16.3062V10.2553C120.334 10.2276 120.323 10.201 120.304 10.1812C120.285 10.1614 120.259 10.1499 120.231 10.1493H118.846C118.818 10.1498 118.792 10.1611 118.772 10.181C118.753 10.2009 118.742 10.2276 118.743 10.2553V18.8624C118.743 18.921 118.789 18.9681 118.846 18.9681H120.18C120.197 18.9681 120.213 18.964 120.228 18.9561C120.243 18.9482 120.255 18.9367 120.265 18.9227L124.248 13.0085V18.8624C124.248 18.921 124.294 18.9681 124.351 18.9681H125.769C125.826 18.9681 125.873 18.9207 125.873 18.8624V10.2556C125.873 10.2279 125.862 10.2013 125.843 10.1814C125.823 10.1615 125.797 10.15 125.769 10.1493ZM116.871 10.1493H115.486C115.459 10.1498 115.432 10.1611 115.413 10.181C115.393 10.2009 115.383 10.2276 115.383 10.2553V13.4219H111.705V10.2553C111.705 10.2276 111.694 10.2009 111.675 10.181C111.656 10.1611 111.629 10.1498 111.602 10.1493H110.216C110.188 10.1498 110.162 10.1611 110.143 10.181C110.123 10.2009 110.113 10.2276 110.113 10.2553V18.8624C110.113 18.921 110.159 18.9681 110.216 18.9681H111.602C111.615 18.9679 111.629 18.9651 111.641 18.9597C111.654 18.9543 111.665 18.9465 111.675 18.9367C111.685 18.9269 111.692 18.9153 111.697 18.9025C111.702 18.8898 111.705 18.8761 111.705 18.8624V14.7793H115.383V18.8631C115.383 18.9217 115.429 18.9687 115.486 18.9687H116.871C116.885 18.9686 116.898 18.9657 116.911 18.9603C116.923 18.9549 116.935 18.9471 116.944 18.9372C116.954 18.9274 116.961 18.9158 116.967 18.9031C116.972 18.8904 116.974 18.8768 116.974 18.8631V10.2553C116.974 10.2276 116.964 10.201 116.944 10.1811C116.925 10.1613 116.899 10.1498 116.871 10.1493ZM67.5619 15.6494C67.5619 16.7098 66.6833 17.5694 65.5999 17.5694C64.5161 17.5694 63.6372 16.7098 63.6372 15.6494V13.515C63.6372 12.4546 64.5161 11.595 65.5999 11.595C66.6833 11.595 67.5619 12.4546 67.5619 13.515V15.6494ZM65.6063 10.0789C63.6491 10.0789 62.0618 11.6346 62.0618 13.553V15.5973C62.0618 17.5163 63.6491 19.0723 65.6063 19.0723C67.564 19.0723 69.1508 17.5163 69.1508 15.5973V13.553C69.1508 11.6343 67.5643 10.0789 65.6063 10.0789ZM50.0087 17.4892H46.2743C46.4761 17.1144 46.6108 16.6553 46.6765 16.1244C46.7496 15.5312 46.861 14.7735 46.9064 13.8702L47.1048 11.6102H50.0094L50.0087 17.4892ZM52.4078 17.4892H51.6325V10.2549C51.6328 10.2273 51.6221 10.2006 51.6028 10.1808C51.5836 10.1609 51.5572 10.1495 51.5296 10.149H45.7915C45.7647 10.1495 45.7391 10.1602 45.72 10.179C45.7008 10.1977 45.6896 10.2231 45.6886 10.2499L45.4163 13.9091C45.3818 14.4637 45.2965 14.9374 45.263 15.3301C45.2291 15.7178 45.1763 16.053 45.1059 16.3269C45.0344 16.6004 44.9379 16.8219 44.8103 17.004C44.6861 17.1784 44.5381 17.3717 44.3133 17.4777C44.0885 17.5833 43.4889 17.6297 43.4889 17.6297C43.4648 17.6342 43.443 17.6472 43.4276 17.6662C43.4121 17.6852 43.4038 17.7091 43.4042 17.7336V21.2047C43.4042 21.2632 43.4503 21.3103 43.5075 21.3103H44.8933C44.9501 21.3103 44.9962 21.2629 44.9962 21.2047V18.9684L50.9202 18.9684V21.2047C50.9202 21.2632 50.9659 21.3103 51.0231 21.3103H52.4072C52.4349 21.3099 52.4613 21.2986 52.4807 21.2788C52.5002 21.259 52.5109 21.2324 52.5108 21.2047V17.5948C52.5109 17.5671 52.5002 17.5404 52.4807 17.5206C52.4613 17.5008 52.4349 17.4895 52.4072 17.4892H52.4078ZM60.5285 10.149H59.1427C59.115 10.1495 59.0887 10.1609 59.0694 10.1808C59.0501 10.2006 59.0395 10.2273 59.0398 10.2549V13.4216H55.3619V10.2549C55.3621 10.2273 55.3515 10.2006 55.3322 10.1808C55.3129 10.1609 55.2866 10.1495 55.2589 10.149H53.8735C53.8459 10.1495 53.8195 10.1609 53.8002 10.1808C53.781 10.2006 53.7703 10.2273 53.7706 10.2549V18.8618C53.7706 18.9207 53.8163 18.9681 53.8735 18.9681H55.2589C55.2867 18.9675 55.313 18.956 55.3323 18.9361C55.3516 18.9162 55.3622 18.8895 55.3619 18.8618V14.7793H59.0398V18.8624C59.0398 18.9213 59.0858 18.9684 59.1427 18.9684H60.5285C60.5853 18.9684 60.6314 18.921 60.6314 18.8624V10.2549C60.6317 10.2273 60.621 10.2006 60.6017 10.1808C60.5824 10.1609 60.5561 10.1495 60.5285 10.149ZM41.3227 15.6491C41.3227 16.7095 40.4438 17.5691 39.3603 17.5691C38.2766 17.5691 37.3976 16.7095 37.3976 15.6491V13.5147C37.3976 12.4543 38.2766 11.5947 39.3603 11.5947C40.4438 11.5947 41.3227 12.4543 41.3227 13.5147V15.6491ZM39.3671 10.0785C37.4095 10.0785 35.8226 11.6343 35.8226 13.5526V15.5966C35.8226 17.5163 37.4095 19.0717 39.3671 19.0717C41.3247 19.0717 42.9116 17.5163 42.9116 15.5966V13.5526C42.9116 11.6339 41.3247 10.0785 39.3671 10.0785ZM85.8075 10.1486H80.1927C80.1649 10.1491 80.1385 10.1605 80.1192 10.1803C80.0998 10.2002 80.0891 10.2269 80.0894 10.2546C80.0894 10.2546 80.1165 14.2406 79.8002 15.9335C79.6743 16.6113 79.61 16.7064 79.4712 16.9417C79.3364 17.1723 79.1603 17.3426 78.9481 17.4475C78.7131 17.5657 78.447 17.6808 78.1568 17.7912C78.1318 17.8012 78.1114 17.8203 78.0997 17.8446C78.0881 17.8689 78.086 17.8967 78.0939 17.9226L78.4642 19.1204C78.4781 19.1651 78.5184 19.1939 78.5624 19.1939L78.5814 19.1922C79.0297 19.1103 79.4343 18.9738 79.7837 18.7917C80.1409 18.6055 80.4469 18.3231 80.6927 17.9496C80.9345 17.5843 81.1234 17.0961 81.2561 16.5002C81.3881 15.9077 81.4792 15.1107 81.532 14.2643L81.6482 11.6102H84.2877V18.8621C84.2877 18.9207 84.3334 18.9677 84.3909 18.9677H85.8089C85.8226 18.9675 85.8361 18.9647 85.8487 18.9593C85.8613 18.9539 85.8727 18.946 85.8822 18.9362C85.8918 18.9264 85.8993 18.9148 85.9044 18.9021C85.9094 18.8894 85.912 18.8758 85.9118 18.8621V10.2546C85.9121 10.2269 85.9014 10.2003 85.8821 10.1804C85.8629 10.1606 85.8365 10.1492 85.8089 10.1486" fill="#EB722E"/>
</g>
<defs>
<clipPath id="clip0_4384_6984">
<rect width="157" height="28" rx="5" fill="white"/>
</clipPath>
</defs>
</svg>
