<svg width="51" height="40" viewBox="0 0 51 40" fill="none" xmlns="http://www.w3.org/2000/svg">
<rect x="1.27835" y="0.293974" width="49.4121" height="39.4121" rx="4.70603" fill="url(#paint0_linear_1314_549)" fill-opacity="0.8"/>
<rect x="1.27835" y="0.293974" width="49.4121" height="39.4121" rx="4.70603" stroke="url(#paint1_linear_1314_549)" stroke-width="0.587948"/>
<path d="M14.1804 25L18.5484 15.13H19.6824L24.1204 25H22.7764L21.5584 22.2L22.1184 22.536H16.1124L16.7284 22.2L15.5104 25H14.1804ZM19.0944 16.586L16.9104 21.766L16.5744 21.472H21.6564L21.3904 21.766L19.1504 16.586H19.0944ZM27.867 25L23.541 15.13H24.955L28.721 23.922H28.245L32.025 15.13H33.383L29.029 25H27.867ZM34.5888 25V15.13H35.8908V25H34.5888Z" fill="#191919"/>
<defs>
<linearGradient id="paint0_linear_1314_549" x1="23.4105" y1="39.1462" x2="21.4956" y2="-0.00934709" gradientUnits="userSpaceOnUse">
<stop stop-color="#696969"/>
<stop offset="0.5" stop-color="white"/>
<stop offset="1" stop-color="#696969"/>
</linearGradient>
<linearGradient id="paint1_linear_1314_549" x1="0.984376" y1="18.0725" x2="50.2067" y2="26.4803" gradientUnits="userSpaceOnUse">
<stop stop-color="white" stop-opacity="0.2"/>
<stop offset="0.5" stop-color="#CCCCCC"/>
<stop offset="1" stop-color="white" stop-opacity="0.2"/>
</linearGradient>
</defs>
</svg>
