<svg width="112" height="25" viewBox="0 0 112 25" fill="none" xmlns="http://www.w3.org/2000/svg">
<path d="M39.4235 18.7531H36.4233L32.1543 6.75342H34.3659L37.7777 16.6425H38.1206L41.6523 6.75342H43.8297L39.4235 18.7531Z" fill="white"/>
<path d="M49.5417 12.5405L55.0965 18.7531H52.3877L47.8616 13.6128H47.3472V18.7531H45.2899V6.75342H47.3472V11.6384H47.8444L52.1305 6.75342H54.6679L49.5417 12.5405Z" fill="white"/>
<path d="M66.8991 12.5916C67.5506 12.7845 68.0593 13.1305 68.425 13.6298C68.8022 14.1178 68.9908 14.7078 68.9908 15.4C68.9908 16.0581 68.825 16.6425 68.4936 17.1531C68.1621 17.6524 67.6992 18.0439 67.1049 18.3276C66.5105 18.6112 65.8248 18.7531 65.0475 18.7531H59.9899V6.75342H64.7047C65.4704 6.75342 66.1505 6.89526 66.7448 7.17894C67.3392 7.45127 67.8021 7.83708 68.1335 8.33635C68.465 8.83563 68.6307 9.39732 68.6307 10.0214C68.6307 10.6228 68.4764 11.1505 68.1678 11.6043C67.8592 12.0582 67.4363 12.3873 66.8991 12.5916ZM62.0473 8.5406V11.8256H64.7047C65.2533 11.8256 65.699 11.6781 66.0419 11.3831C66.3848 11.0767 66.5563 10.6795 66.5563 10.1916C66.5563 9.70369 66.3848 9.30654 66.0419 9.00016C65.699 8.69379 65.2533 8.5406 64.7047 8.5406H62.0473ZM65.0475 16.9659C65.5847 16.9659 66.0248 16.8127 66.3677 16.5063C66.7106 16.1886 66.882 15.7801 66.882 15.2808C66.882 14.7929 66.7106 14.3958 66.3677 14.0894C66.0248 13.7717 65.5847 13.6128 65.0475 13.6128H62.0473V16.9659H65.0475Z" fill="white"/>
<path d="M73.6632 18.7531H70.8686V9.90227H72.7545V16.4723H73.0288L76.3548 9.90227H79.1494V18.7531H77.2635V12.1831H76.9892L73.6632 18.7531Z" fill="white"/>
<path d="M80.44 21.3913V16.9659H80.6629C81.5773 16.9659 82.1145 16.1205 82.2745 14.4298L82.7203 9.90227H89.2523V16.9659H90.7953V21.3913H88.8237V18.7531H82.4117V21.3913H80.44ZM87.2807 16.9659V11.6894H84.5376L84.2633 14.3958C84.1947 15.0879 84.0975 15.6326 83.9718 16.0298C83.8461 16.4269 83.6689 16.739 83.4403 16.9659H87.2807Z" fill="white"/>
<path d="M100.741 14.2255C100.741 14.3958 100.73 14.6057 100.707 14.8553H93.5408C93.6323 15.5475 93.918 16.1035 94.398 16.5234C94.8781 16.9319 95.4896 17.1361 96.2325 17.1361C96.7354 17.1361 97.1869 17.0397 97.5869 16.8468C97.9984 16.6538 98.3127 16.3929 98.5299 16.0638L100.381 16.3702C100.061 17.1872 99.5071 17.8169 98.7184 18.2595C97.9412 18.702 97.0726 18.9233 96.1125 18.9233C95.221 18.9233 94.4209 18.7304 93.7123 18.3446C93.0151 17.9474 92.4664 17.4028 92.0664 16.7106C91.6778 16.0071 91.4835 15.2128 91.4835 14.3277C91.4835 13.4426 91.6778 12.654 92.0664 11.9618C92.4664 11.2583 93.0151 10.7136 93.7123 10.3278C94.4209 9.93063 95.221 9.73206 96.1125 9.73206C97.004 9.73206 97.7984 9.93063 98.4956 10.3278C99.2042 10.7136 99.7528 11.2526 100.141 11.9448C100.541 12.6256 100.741 13.3859 100.741 14.2255ZM96.1125 11.4341C95.5181 11.4341 94.9981 11.6043 94.5523 11.9448C94.118 12.2852 93.8208 12.7447 93.6608 13.3234H98.5984C98.427 12.7561 98.1184 12.3022 97.6726 11.9618C97.2383 11.61 96.7183 11.4341 96.1125 11.4341Z" fill="white"/>
<path d="M106.53 18.9233C105.615 18.9233 104.792 18.7304 104.061 18.3446C103.341 17.9474 102.775 17.4028 102.364 16.7106C101.963 16.0071 101.763 15.2128 101.763 14.3277C101.763 13.4426 101.963 12.654 102.364 11.9618C102.775 11.2583 103.341 10.7136 104.061 10.3278C104.792 9.93063 105.615 9.73206 106.53 9.73206C107.444 9.73206 108.261 9.93063 108.981 10.3278C109.713 10.7136 110.279 11.2583 110.679 11.9618C111.09 12.654 111.296 13.4426 111.296 14.3277C111.296 15.2128 111.09 16.0071 110.679 16.7106C110.279 17.4028 109.713 17.9474 108.981 18.3446C108.261 18.7304 107.444 18.9233 106.53 18.9233ZM106.53 17.1361C107.33 17.1361 107.981 16.8808 108.484 16.3702C108.987 15.8482 109.238 15.1674 109.238 14.3277C109.238 13.488 108.987 12.8128 108.484 12.3022C107.981 11.7802 107.33 11.5192 106.53 11.5192C105.73 11.5192 105.078 11.7802 104.575 12.3022C104.072 12.8128 103.821 13.488 103.821 14.3277C103.821 15.1674 104.072 15.8482 104.575 16.3702C105.078 16.8808 105.73 17.1361 106.53 17.1361Z" fill="white"/>
<path d="M0 12.2729C0 6.84173 0 4.12733 1.69946 2.44013C3.39892 0.75293 6.13304 0.75293 11.6037 0.75293H12.5707C18.0413 0.75293 20.7754 0.75293 22.4749 2.44013C24.1744 4.12733 24.1744 6.84173 24.1744 12.2729V13.2329C24.1744 18.6641 24.1744 21.3785 22.4749 23.0657C20.7754 24.7529 18.0413 24.7529 12.5707 24.7529H11.6037C6.13304 24.7529 3.39892 24.7529 1.69946 23.0657C0 21.3785 0 18.6641 0 13.2329V12.2729Z" fill="#0077FF"/>
<path d="M14.1008 0.75293C9.6358 0.76733 7.25946 0.91613 5.7268 2.43773C4.02734 4.12493 4.02734 6.83933 4.02734 12.2705V13.2305C4.02734 18.6617 4.02734 21.3761 5.7268 23.0633C7.25946 24.5849 9.6358 24.7337 14.1008 24.7481C18.5658 24.7337 20.9421 24.5849 22.4748 23.0633C24.1743 21.3761 24.1743 18.6617 24.1743 13.2305V12.2705C24.1743 6.83933 24.1743 4.12493 22.4748 2.43773C20.9421 0.91853 18.5658 0.76973 14.1008 0.75293Z" fill="#FF2B42"/>
<path d="M17.0573 10.6194C18.2805 11.3202 18.8897 11.6706 19.0952 12.1266C19.2741 12.525 19.2741 12.981 19.0952 13.3794C18.8897 13.8378 18.2781 14.1858 17.0573 14.8866L13.7092 16.8066C12.4859 17.5074 11.8767 17.8578 11.3739 17.805C10.9364 17.7594 10.5399 17.5314 10.2812 17.1786C9.98389 16.773 9.98389 16.0722 9.98389 14.673V10.833C9.98389 9.4314 9.98389 8.7306 10.2812 8.3274C10.5399 7.9746 10.9364 7.7466 11.3739 7.701C11.8743 7.6482 12.4859 7.9986 13.7092 8.6994L17.0573 10.6194Z" fill="white"/>
</svg>
