<svg width="95" height="26" viewBox="0 0 95 26" fill="none" xmlns="http://www.w3.org/2000/svg">
<mask id="mask0_4384_7010" style="mask-type:luminance" maskUnits="userSpaceOnUse" x="0" y="0" width="95" height="26">
<path d="M0 0.75293H94.7941V25.2475H0V0.75293Z" fill="white"/>
</mask>
<g mask="url(#mask0_4384_7010)">
<path d="M40.0583 19.1463H36.9632L32.5586 6.6748H34.8404L38.3607 16.9525H38.7143L42.3583 6.67543H44.6049L40.059 19.147L40.0583 19.1463ZM50.4987 12.6898L56.2304 19.1463H53.4355L48.7652 13.804H48.2345V19.1463H46.1116V6.6748H48.2345V11.7521H48.7476L53.1699 6.6748H55.7876L50.4993 12.6892L50.4987 12.6898ZM61.2795 19.1463V6.6748H65.7017C66.5508 6.6748 67.3171 6.85757 68.0017 7.22311C68.6969 7.57734 69.2396 8.07225 69.629 8.70911C70.0178 9.34597 70.2125 10.0714 70.2125 10.8854C70.2125 11.6868 70.0178 12.4122 69.629 13.061C69.2396 13.6978 68.6969 14.199 68.0017 14.5646C67.3171 14.9182 66.5508 15.0953 65.7017 15.0953H63.4023V19.1463H61.2795ZM65.7017 13.1495C66.3976 13.1495 66.9578 12.9429 67.3824 12.5303C67.8183 12.1057 68.0368 11.5568 68.0368 10.8847C68.0368 10.2127 67.8183 9.67005 67.3824 9.25804C66.9578 8.83284 66.3976 8.62056 65.7017 8.62056H63.4023V13.1489H65.7017V13.1495ZM73.9356 19.1463H71.9013V6.6748H73.9356V19.1463ZM80.0718 9.77055C81.2514 9.77055 82.1771 10.1424 82.8492 10.8847C83.5331 11.6164 83.8754 12.6483 83.8754 13.9811V19.1463H82.3718L81.9473 17.6955C81.6879 18.132 81.3041 18.5151 80.7973 18.8455C80.2904 19.1639 79.6887 19.3228 78.9928 19.3228C78.3798 19.3228 77.8253 19.1991 77.3303 18.9516C76.8617 18.7178 76.4691 18.3558 76.1979 17.9078C75.9266 17.46 75.7909 16.9531 75.7909 16.3866C75.7909 15.5136 76.1332 14.8183 76.8172 14.2995C77.5131 13.7688 78.5211 13.5031 79.842 13.5031H81.8235C81.7758 12.8902 81.5874 12.4065 81.257 12.0523C80.9386 11.6868 80.5084 11.504 79.9657 11.504C79.5292 11.504 79.1524 11.6108 78.8339 11.8224C78.5155 12.0347 78.2793 12.2941 78.1261 12.6012L76.2507 12.2828C76.4749 11.504 76.9353 10.891 77.6306 10.4426C78.3384 9.99477 79.1524 9.77055 80.0718 9.77055ZM79.4708 17.6069C80.178 17.6069 80.7502 17.3771 81.1867 16.9173C81.6225 16.4576 81.8411 15.8496 81.8411 15.0953H79.9129C78.5331 15.0953 77.8428 15.496 77.8428 16.298C77.8428 16.6994 77.9904 17.0172 78.2856 17.2533C78.5802 17.4895 78.9752 17.6069 79.4708 17.6069ZM92.2821 9.94766H94.3516L90.5838 20.2963C90.2654 21.1687 89.8527 21.7999 89.3452 22.1887C88.8503 22.5781 88.184 22.7728 87.3467 22.7728H85.9493L85.7722 20.915H87.4881C87.8297 20.915 88.0897 20.8383 88.2662 20.6851C88.4553 20.5438 88.6142 20.29 88.7442 19.9245L88.8503 19.6419L84.7635 9.94766H86.9398L89.6461 16.5813H89.9294L92.2821 9.94766Z" fill="white"/>
<path d="M12.7617 0.75293C18.2975 0.75293 21.0654 0.75293 22.78 2.46755C24.4946 4.18217 24.4946 6.95006 24.4946 12.4858V13.5146C24.4946 19.0504 24.4946 21.8183 22.78 23.5329C21.0654 25.2475 18.2975 25.2475 12.7617 25.2475H11.7329C6.19713 25.2475 3.42924 25.2475 1.71462 23.5329C0 21.8183 0 19.0504 0 13.5152V12.4852C0 6.94944 0 4.18217 1.71462 2.46755C3.42924 0.75293 6.19713 0.75293 11.7329 0.75293H12.7617Z" fill="#0077FF"/>
<path d="M0.0737279 7.63666C0.000244141 8.95811 0.000244141 10.5509 0.000244141 12.4853V13.5141C0.000244141 14.9838 0.000244141 16.2336 0.0247387 17.3353C3.23353 18.9042 7.54458 19.8588 12.2475 19.8588C16.9505 19.8588 21.2616 18.9042 24.4704 17.3359C24.4948 16.2336 24.4948 14.9599 24.4948 13.5154V12.4866C24.4948 10.5521 24.4948 8.95937 24.4214 7.61279H0.0737279V7.63666Z" fill="#0009B4"/>
<path d="M17.024 15.4499C18.3092 15.4499 19.351 14.408 19.351 13.1229C19.351 11.8377 18.3092 10.7959 17.024 10.7959C15.7388 10.7959 14.697 11.8377 14.697 13.1229C14.697 14.408 15.7388 15.4499 17.024 15.4499Z" stroke="white" stroke-width="2.44758"/>
<path d="M10.288 15.9396L4.89917 10.5508M10.288 10.5508L4.89917 15.9396" stroke="white" stroke-width="2.44758"/>
</g>
</svg>
