<svg width="50" height="40" viewBox="0 0 50 40" fill="none" xmlns="http://www.w3.org/2000/svg">
<rect x="0.293974" y="0.293974" width="49.4121" height="39.4121" rx="4.70603" fill="url(#paint0_linear_1314_531)"/>
<rect x="0.293974" y="0.293974" width="49.4121" height="39.4121" rx="4.70603" stroke="url(#paint1_linear_1314_531)" stroke-width="0.587948"/>
<path d="M8.204 25V15.13H14.448V16.194H9.506V19.498H14.126V20.562H9.506V25H8.204ZM16.12 25V15.13H17.422V23.88H22.336V25H16.12ZM22.5222 25L26.8902 15.13H28.0242L32.4622 25H31.1182L29.9002 22.2L30.4602 22.536H24.4542L25.0702 22.2L23.8522 25H22.5222ZM27.4362 16.586L25.2522 21.766L24.9162 21.472H29.9982L29.7322 21.766L27.4922 16.586H27.4362ZM38.0424 25.126C37.053 25.126 36.2037 24.9207 35.4944 24.51C34.7944 24.0993 34.2577 23.516 33.8844 22.76C33.511 21.9947 33.3244 21.094 33.3244 20.058C33.3244 19.022 33.511 18.126 33.8844 17.37C34.2577 16.614 34.7944 16.0307 35.4944 15.62C36.2037 15.2093 37.053 15.004 38.0424 15.004C38.7517 15.004 39.3817 15.1113 39.9324 15.326C40.483 15.5313 40.9637 15.8347 41.3744 16.236L40.8984 17.286C40.4504 16.894 40.007 16.614 39.5684 16.446C39.139 16.2687 38.6397 16.18 38.0704 16.18C36.9784 16.18 36.143 16.516 35.5644 17.188C34.9857 17.86 34.6964 18.8167 34.6964 20.058C34.6964 21.2993 34.9857 22.2607 35.5644 22.942C36.143 23.614 36.9784 23.95 38.0704 23.95C38.6397 23.95 39.139 23.866 39.5684 23.698C40.007 23.5207 40.4504 23.236 40.8984 22.844L41.3744 23.88C40.9637 24.2813 40.4784 24.5893 39.9184 24.804C39.3677 25.0187 38.7424 25.126 38.0424 25.126Z" fill="white"/>
<defs>
<linearGradient id="paint0_linear_1314_531" x1="29.6317" y1="41.1763" x2="29.4152" y2="-0.106017" gradientUnits="userSpaceOnUse">
<stop stop-color="#08466B"/>
<stop offset="0.5" stop-color="#71BDEB"/>
<stop offset="1" stop-color="#08466B"/>
</linearGradient>
<linearGradient id="paint1_linear_1314_531" x1="1.14682e-06" y1="18.0725" x2="49.2223" y2="26.4803" gradientUnits="userSpaceOnUse">
<stop stop-color="white" stop-opacity="0.2"/>
<stop offset="0.5" stop-color="#CCCCCC"/>
<stop offset="1" stop-color="white" stop-opacity="0.2"/>
</linearGradient>
</defs>
</svg>
