<svg width="100" height="23" viewBox="0 0 100 23" fill="none" xmlns="http://www.w3.org/2000/svg">
<path d="M31.0807 3.47026C30.715 2.10359 29.6409 1.02958 28.2742 0.663739C25.7996 1.98682e-07 15.8722 0 15.8722 0C15.8722 0 5.94491 1.98682e-07 3.47025 0.663739C2.10359 1.02958 1.02958 2.10359 0.663739 3.47026C1.98682e-07 5.94491 0 11.1111 0 11.1111C0 11.1111 1.98682e-07 16.2773 0.663739 18.752C1.02958 20.1186 2.10359 21.1926 3.47025 21.5584C5.94491 22.2222 15.8722 22.2222 15.8722 22.2222C15.8722 22.2222 25.7996 22.2222 28.2742 21.5584C29.6409 21.1926 30.715 20.1186 31.0807 18.752C31.7445 16.2773 31.7445 11.1111 31.7445 11.1111C31.7445 11.1111 31.7419 5.94491 31.0807 3.47026Z" fill="#FF0000"/>
<path d="M12.6948 15.8724L20.9419 11.1113L12.6948 6.3501V15.8724Z" fill="white"/>
<path d="M38.4471 14.448L34.8828 1.57568H37.9925L39.2416 7.41083C39.5604 8.84807 39.7929 10.0736 39.9445 11.0875H40.0359C40.1405 10.3611 40.3757 9.14335 40.7389 7.43175L42.0324 1.57568H45.142L41.5333 14.448V20.6229H38.4446V14.448H38.4471Z" fill="white"/>
<path d="M46.0775 20.2147C45.4504 19.7913 45.0035 19.1328 44.737 18.2391C44.4731 17.3454 44.3398 16.1591 44.3398 14.6748V12.6548C44.3398 11.1575 44.4914 9.95284 44.7945 9.04608C45.0976 8.13932 45.5706 7.47558 46.2134 7.06009C46.8563 6.6446 47.7003 6.43555 48.7456 6.43555C49.7752 6.43555 50.5983 6.64721 51.2202 7.07055C51.8395 7.49387 52.2942 8.15761 52.5816 9.05653C52.8691 9.95807 53.0128 11.1575 53.0128 12.6548V14.6748C53.0128 16.1591 52.8717 17.3507 52.5922 18.2496C52.3125 19.1511 51.8578 19.8097 51.2306 20.2251C50.6035 20.6407 49.7516 20.8497 48.6776 20.8497C47.5696 20.8522 46.7047 20.638 46.0775 20.2147ZM49.5948 18.0353C49.7673 17.5807 49.8562 16.8411 49.8562 15.8116V11.4763C49.8562 10.4781 49.7699 9.7464 49.5948 9.28649C49.4197 8.82397 49.1141 8.59401 48.675 8.59401C48.2517 8.59401 47.9512 8.82397 47.7787 9.28649C47.6036 9.74902 47.5174 10.4781 47.5174 11.4763V15.8116C47.5174 16.8411 47.601 17.5832 47.7683 18.0353C47.9355 18.49 48.236 18.7173 48.675 18.7173C49.1141 18.7173 49.4197 18.49 49.5948 18.0353Z" fill="white"/>
<path d="M63.1283 20.6258H60.6772L60.4054 18.922H60.3375C59.6711 20.2077 58.6728 20.8505 57.3402 20.8505C56.4177 20.8505 55.7357 20.5474 55.2967 19.9438C54.8577 19.3375 54.6382 18.3916 54.6382 17.1059V6.70818H57.7714V16.9229C57.7714 17.5449 57.8393 17.9865 57.9752 18.2505C58.1111 18.5144 58.3384 18.6476 58.6572 18.6476C58.929 18.6476 59.1903 18.564 59.4412 18.3968C59.6921 18.2295 59.875 18.0178 59.9977 17.7618V6.70557H63.1283V20.6258Z" fill="white"/>
<path d="M71.6398 4.09671H68.5301V20.6248H65.4649V4.09671H62.3552V1.57764L71.6398 1.57764V4.09671Z" fill="white"/>
<path d="M79.1964 20.6258H76.7453L76.4735 18.922H76.4056C75.7393 20.2077 74.7411 20.8505 73.4083 20.8505C72.4858 20.8505 71.8039 20.5474 71.3649 19.9438C70.9259 19.3375 70.7063 18.3916 70.7063 17.1059V6.70818H73.8395V16.9229C73.8395 17.5449 73.9074 17.9865 74.0433 18.2505C74.1792 18.5144 74.4065 18.6476 74.7254 18.6476C74.9971 18.6476 75.2584 18.564 75.5093 18.3968C75.7602 18.2295 75.9431 18.0178 76.0658 17.7618V6.70557H79.1964V20.6258Z" fill="white"/>
<path d="M89.5656 8.9315C89.3748 8.05349 89.069 7.41849 88.6458 7.0239C88.2225 6.62933 87.6397 6.43334 86.8976 6.43334C86.3227 6.43334 85.7844 6.59535 85.2853 6.92199C84.7862 7.24864 84.3994 7.67458 84.1276 8.20505H84.1042V0.872559L81.0859 0.872559V20.6227H83.6729L83.9917 19.3057H84.0597C84.3027 19.776 84.6659 20.1445 85.1494 20.4189C85.6328 20.6907 86.1712 20.8266 86.7617 20.8266C87.82 20.8266 88.6014 20.3379 89.1005 19.3632C89.5996 18.3858 89.8504 16.8624 89.8504 14.7876V12.5847C89.8504 11.0299 89.7537 9.80952 89.5656 8.9315ZM86.6937 14.6098C86.6937 15.6237 86.6519 16.4182 86.5683 16.993C86.4847 17.5679 86.3462 17.9783 86.1476 18.2186C85.9516 18.4616 85.685 18.5818 85.3532 18.5818C85.0945 18.5818 84.8567 18.5217 84.6372 18.3989C84.4177 18.2787 84.24 18.0958 84.1042 17.8554V9.95586C84.2086 9.57694 84.3916 9.2686 84.6503 9.02558C84.9064 8.78256 85.1886 8.66235 85.489 8.66235C85.8079 8.66235 86.0535 8.78778 86.226 9.03603C86.401 9.28689 86.5213 9.705 86.5893 10.2956C86.6571 10.8861 86.6912 11.7249 86.6912 12.8146V14.6098H86.6937Z" fill="white"/>
<path d="M94.2952 15.4118C94.2952 16.3055 94.3213 16.9745 94.3737 17.4214C94.4259 17.8682 94.5357 18.1923 94.7029 18.3987C94.8701 18.6025 95.1262 18.7044 95.4738 18.7044C95.9416 18.7044 96.2655 18.5215 96.438 18.1583C96.6131 17.7951 96.7072 17.1888 96.7229 16.3422L99.4249 16.5015C99.4405 16.6217 99.4483 16.789 99.4483 17.0006C99.4483 18.2863 99.0955 19.248 98.3927 19.883C97.6898 20.518 96.6941 20.8367 95.4084 20.8367C93.8641 20.8367 92.7822 20.3533 92.1629 19.3838C91.541 18.4144 91.2327 16.9171 91.2327 14.8892V12.459C91.2327 10.3711 91.5541 8.84502 92.1969 7.88338C92.8398 6.92174 93.9399 6.44092 95.4999 6.44092C96.5739 6.44092 97.3997 6.63691 97.9746 7.0315C98.5494 7.42607 98.9544 8.03755 99.1897 8.87115C99.4249 9.70474 99.5424 10.8545 99.5424 12.3231V14.7063H94.2952V15.4118ZM94.6924 8.85286C94.533 9.04884 94.4286 9.37026 94.3737 9.8171C94.3213 10.264 94.2952 10.9408 94.2952 11.8502V12.8484H96.587V11.8502C96.587 10.9564 96.5557 10.2796 96.4956 9.8171C96.4354 9.35458 96.3257 9.03055 96.1662 8.83979C96.0069 8.65165 95.7612 8.55496 95.4293 8.55496C95.0949 8.55757 94.8492 8.65687 94.6924 8.85286Z" fill="white"/>
</svg>
