<svg width="79" height="30" viewBox="0 0 79 30" fill="none" xmlns="http://www.w3.org/2000/svg">
<path d="M4.16602 21L8.16602 24.5L74.166 24V13L70.666 9.5H66.416V6H58.166L56.166 9.5L48.666 11V9L44.666 9.5V6H39.666H33.166L31.666 9.5H22.166H15.166L10.666 6H4.66602L4.16602 21Z" fill="#D9D9D9"/>
<path fill-rule="evenodd" clip-rule="evenodd" d="M74.55 12.6339V24.1064L68.198 28.5004H64.293V26.5474L61.3635 28.5004H57.946V26.5474L55.749 28.5004H49.4025L47.45 26.5474L46.9615 28.5004L41.3595 28.4854L39.1505 26.5474L38.9065 28.5004L32.56 28.4854L32.316 26.5474L30.6075 28.4854L20.8435 28.5004L18.8905 27.5239V28.5004H13.52L7.6615 24.8389L4 21.1774V5.06738H11.567L15.2285 8.72888H31.8275V5.06738H45.4975V8.72888H48.915V10.6819L50.868 8.72888H55.018L58.6795 5.06738H66.4905V8.72888H70.6405L74.55 12.6339ZM13.52 10.4369H10.1025V6.77538H5.7085V20.4454L8.3935 23.3744H13.52V18.7364H10.1025V14.8314H13.52V10.4369ZM31.8275 10.4369H27.4335V18.7369H25.725V10.4369H21.575V18.7369H19.8665V10.4369H15.2285V23.3744H28.8985L31.8275 20.4454V10.4369ZM37.686 10.4369H33.536V23.3744H37.686V10.4369ZM37.686 6.77538H33.536V8.72838H37.686V6.77538ZM47.206 10.4369H43.7885V6.77538H39.395V20.4454L42.08 23.3744H47.205V18.7364H43.7875V14.8314H47.205L47.206 10.4369ZM58.4345 10.4369H51.6L48.915 13.1219V20.4454L51.844 23.3744H58.434V18.7364H53.552V14.8314H58.434L58.4345 10.4369ZM72.8365 13.1219L69.9075 10.4369H64.7815V6.77538H60.1435V23.3744H64.7815V14.8304H68.199V23.3739H72.837L72.8365 13.1219Z" fill="#6441A4"/>
</svg>
