<svg width="90" height="29" viewBox="0 0 90 29" fill="none" xmlns="http://www.w3.org/2000/svg">
<g clip-path="url(#clip0_4384_6993)">
<path d="M36.28 28.2924H33V21.3624H34.36C34.82 20.5924 35.16 19.4824 35.37 18.0324C35.58 16.5624 35.73 14.6324 35.8 12.2324L36.09 3.94238H47.92V21.3624H49.8V28.2924H46.52V24.0924H36.26V28.2924H36.28ZM39.13 12.6924C39.05 15.0924 38.9 16.9624 38.67 18.3124C38.46 19.6424 38.21 20.6624 37.92 21.3524H44.44V6.66238H39.34L39.14 12.6924H39.13Z" fill="black"/>
<path d="M55.9998 21.6531C56.8098 21.6531 57.4198 21.4931 57.8298 21.1631C58.2598 20.8131 58.4698 20.3531 58.4698 19.7731C58.4698 19.1131 58.2798 18.6531 57.8898 18.3831C57.5198 18.0931 56.8898 17.9531 56.0098 17.9531H53.9798V15.4031H56.0098C57.4198 15.4031 58.1298 14.8131 58.1298 13.6331C58.1298 13.0931 57.9398 12.6731 57.5498 12.3831C57.1798 12.0931 56.6798 11.9531 56.0398 11.9531C55.0898 11.9531 54.2898 12.0931 53.6298 12.3831C52.9698 12.6531 52.4098 12.9431 51.9498 13.2531V10.4431C52.3798 10.1731 52.9598 9.90314 53.7198 9.63314C54.4698 9.36314 55.4098 9.22314 56.5298 9.22314C58.0998 9.22314 59.3298 9.55314 60.2398 10.2131C61.1498 10.8731 61.5998 11.8131 61.5998 13.0531C61.5998 13.8631 61.3998 14.5831 60.9898 15.1931C60.5798 15.7931 59.9398 16.2331 59.0498 16.5231C60.0198 16.7331 60.7498 17.1231 61.2498 17.6831C61.7698 18.2431 62.0298 18.9531 62.0298 19.8031C62.0298 21.2731 61.5498 22.4031 60.5798 23.1931C59.6298 23.9831 58.2398 24.3831 56.4098 24.3831C55.1698 24.3831 54.1398 24.2431 53.3098 23.9731C52.4798 23.6831 51.8998 23.4031 51.5698 23.1331V20.3231C52.0298 20.6731 52.6598 20.9831 53.4498 21.2531C54.2598 21.5231 55.1098 21.6631 55.9998 21.6631V21.6531Z" fill="black"/>
<path d="M75.25 23.1031C74.75 23.4531 74.09 23.7531 73.28 24.0031C72.47 24.2531 71.51 24.3831 70.41 24.3831C68.21 24.3831 66.51 23.7631 65.31 22.5231C64.11 21.2631 63.51 19.3731 63.51 16.8431C63.51 15.3731 63.73 14.0731 64.18 12.9331C64.64 11.7731 65.33 10.8631 66.24 10.2131C67.17 9.55314 68.33 9.22314 69.72 9.22314C70.88 9.22314 71.88 9.45314 72.73 9.92314C73.58 10.3831 74.24 11.1331 74.7 12.1531C75.16 13.1531 75.4 14.5131 75.4 16.2131V18.0431H67.08C67.16 19.2631 67.47 20.1731 68.01 20.7631C68.55 21.3631 69.45 21.6631 70.71 21.6631C71.56 21.6631 72.39 21.5231 73.2 21.2531C74.03 20.9831 74.72 20.6631 75.26 20.2931V23.1031H75.25ZM69.66 11.9431C68.04 11.9431 67.18 13.1231 67.08 15.4831H71.89V15.1931C71.89 14.2831 71.73 13.5231 71.4 12.9031C71.09 12.2631 70.51 11.9431 69.66 11.9431Z" fill="black"/>
<path d="M85.7702 9.50342H89.2202V24.0834H85.7702V17.9934H81.1602V24.0834H77.7102V9.50342H81.1602V15.2734H85.7702V9.50342Z" fill="black"/>
<path d="M10.55 11.3029C12.6 9.26293 12.97 6.20293 13.04 0.75293C5.93 0.96293 0.22 6.68293 0 13.7929C5.44 13.7229 8.51 13.3529 10.55 11.3129V11.3029Z" fill="black"/>
<path d="M0 13.7929C0 13.9229 0 14.0629 0 14.1929C0 14.3229 0 14.4629 0 14.5929C5.44 14.6629 8.51 15.0329 10.55 17.0729C12.59 19.1129 12.97 22.1729 13.03 27.6229C13.16 27.6229 13.3 27.6229 13.43 27.6229C13.56 27.6229 13.7 27.6229 13.83 27.6229C13.9 22.1829 14.27 19.1129 16.31 17.0729C18.35 15.0329 21.41 14.6529 26.86 14.5929C26.86 14.4629 26.86 14.3229 26.86 14.1929C26.86 14.0629 26.86 13.9229 26.86 13.7929C21.42 13.7229 18.35 13.3529 16.31 11.3129C14.28 9.26293 13.91 6.20293 13.84 0.75293C13.71 0.75293 13.57 0.75293 13.44 0.75293C13.31 0.75293 13.17 0.75293 13.04 0.75293C12.97 6.19293 12.6 9.26293 10.56 11.3029C8.52 13.3429 5.45 13.7229 0 13.7929Z" fill="white"/>
<path d="M13.8403 0.752441C13.9103 6.19244 14.2803 9.26244 16.3203 11.3024C18.3603 13.3424 21.4203 13.7224 26.8703 13.7824C26.6703 6.68244 20.9503 0.962441 13.8403 0.752441Z" fill="black"/>
<path d="M0 14.5923C0.21 21.6923 5.93 27.4123 13.03 27.6223C12.96 22.1823 12.59 19.1123 10.55 17.0723C8.51 15.0323 5.45 14.6623 0 14.5923Z" fill="black"/>
<path d="M16.3291 17.0821C14.2891 19.1221 13.9091 22.182 13.8491 27.632C20.9491 27.422 26.6691 21.7021 26.8791 14.6021C21.4391 14.6721 18.3691 15.0421 16.3291 17.0821Z" fill="black"/>
</g>
<defs>
<clipPath id="clip0_4384_6993">
<rect width="89.22" height="27.54" fill="white" transform="translate(0 0.75293)"/>
</clipPath>
</defs>
</svg>
