<svg width="760" height="120" viewBox="0 0 760 120" fill="none" xmlns="http://www.w3.org/2000/svg">
<g filter="url(#filter0_b_1301_4604)">
<g clip-path="url(#clip0_1301_4604)">
<rect width="760" height="120" rx="5" fill="#1C1B1B" fill-opacity="0.5"/>
<path d="M29.56 47.384L28.384 45.488C29.056 45.136 29.648 44.712 30.16 44.216C30.688 43.72 31.12 43.096 31.456 42.344C31.808 41.576 32.072 40.616 32.248 39.464C32.424 38.296 32.512 36.88 32.512 35.216V30.08H44.416V47H41.944V32.144H34.84V35.816C34.84 37.512 34.72 38.992 34.48 40.256C34.256 41.52 33.92 42.616 33.472 43.544C33.024 44.456 32.472 45.224 31.816 45.848C31.176 46.456 30.424 46.968 29.56 47.384ZM47.9584 52.448L47.3824 50.48C48.1344 50.32 48.7584 50.128 49.2544 49.904C49.7664 49.68 50.1904 49.384 50.5264 49.016C50.8624 48.664 51.1504 48.208 51.3904 47.648L51.9904 46.232L51.9424 47.216L46.6864 34.904H49.2784L53.3584 44.984H52.7104L56.7904 34.904H59.2864L53.7424 47.864C53.3904 48.664 53.0144 49.336 52.6144 49.88C52.2144 50.424 51.7824 50.864 51.3184 51.2C50.8544 51.536 50.3424 51.8 49.7824 51.992C49.2224 52.184 48.6144 52.336 47.9584 52.448ZM69.0989 47V42.32C68.6509 42.56 68.1709 42.752 67.6589 42.896C67.1469 43.024 66.6029 43.088 66.0269 43.088C64.2829 43.088 62.9869 42.68 62.1389 41.864C61.3069 41.032 60.8909 39.792 60.8909 38.144V34.904H63.2909V37.952C63.2909 39.056 63.5389 39.856 64.0349 40.352C64.5309 40.848 65.3149 41.096 66.3869 41.096C66.9309 41.096 67.4109 41.04 67.8269 40.928C68.2429 40.8 68.6509 40.608 69.0509 40.352V34.904H71.4749V47H69.0989ZM75.1053 47V34.904H77.3853V45.104H82.1133V34.904H84.3933V45.104H89.0973V34.904H91.4013V47H75.1053ZM99.7786 47.216C98.7066 47.216 97.7706 46.968 96.9706 46.472C96.1706 45.976 95.5466 45.256 95.0986 44.312C94.6666 43.368 94.4506 42.248 94.4506 40.952C94.4506 39.64 94.6666 38.52 95.0986 37.592C95.5466 36.664 96.1706 35.952 96.9706 35.456C97.7706 34.944 98.7066 34.688 99.7786 34.688C100.835 34.688 101.755 34.952 102.539 35.48C103.323 36.008 103.843 36.728 104.099 37.64H103.835L104.075 34.904H106.427C106.379 35.4 106.331 35.896 106.283 36.392C106.251 36.872 106.235 37.344 106.235 37.808V47H103.811V44.312H104.075C103.819 45.208 103.291 45.92 102.491 46.448C101.707 46.96 100.803 47.216 99.7786 47.216ZM100.379 45.32C101.419 45.32 102.251 44.952 102.875 44.216C103.515 43.48 103.835 42.392 103.835 40.952C103.835 39.512 103.515 38.432 102.875 37.712C102.251 36.976 101.419 36.608 100.379 36.608C99.3226 36.608 98.4746 36.976 97.8346 37.712C97.2106 38.432 96.8986 39.512 96.8986 40.952C96.8986 42.392 97.2106 43.48 97.8346 44.216C98.4586 44.952 99.3066 45.32 100.379 45.32ZM108.973 47L110.869 43.736C111.173 43.208 111.557 42.784 112.021 42.464C112.501 42.128 112.989 41.96 113.485 41.96H113.917L113.893 42.2C112.517 42.2 111.445 41.888 110.677 41.264C109.909 40.64 109.525 39.744 109.525 38.576C109.525 37.408 109.909 36.504 110.677 35.864C111.445 35.224 112.573 34.904 114.061 34.904H119.725V47H117.493V42.512H115.885C115.277 42.512 114.757 42.664 114.325 42.968C113.909 43.272 113.565 43.672 113.293 44.168L111.661 47H108.973ZM114.493 40.88H117.493V36.536H114.493C113.597 36.536 112.925 36.728 112.477 37.112C112.045 37.496 111.829 38.024 111.829 38.696C111.829 39.4 112.045 39.944 112.477 40.328C112.925 40.696 113.597 40.88 114.493 40.88ZM140.226 50.12V47H129.762V34.904H132.162V45.104H137.946V34.904H140.322V45.104H142.266V50.12H140.226ZM150.379 47.216C148.427 47.216 146.891 46.664 145.771 45.56C144.651 44.456 144.091 42.928 144.091 40.976C144.091 39.712 144.331 38.608 144.811 37.664C145.307 36.72 145.987 35.992 146.851 35.48C147.731 34.952 148.747 34.688 149.899 34.688C151.035 34.688 151.987 34.928 152.755 35.408C153.523 35.888 154.107 36.568 154.507 37.448C154.907 38.312 155.107 39.336 155.107 40.52V41.288H145.987V39.896H153.451L153.043 40.208C153.043 39.008 152.771 38.08 152.227 37.424C151.699 36.752 150.931 36.416 149.923 36.416C148.803 36.416 147.939 36.808 147.331 37.592C146.723 38.36 146.419 39.424 146.419 40.784V41.024C146.419 42.448 146.763 43.52 147.451 44.24C148.155 44.96 149.147 45.32 150.427 45.32C151.131 45.32 151.787 45.224 152.395 45.032C153.019 44.824 153.611 44.488 154.171 44.024L154.963 45.68C154.403 46.176 153.723 46.56 152.923 46.832C152.123 47.088 151.275 47.216 150.379 47.216ZM158.074 47V34.904H160.474V39.824H166.594V34.904H168.994V47H166.594V41.72H160.474V47H158.074ZM177.38 47.216C176.308 47.216 175.372 46.968 174.572 46.472C173.772 45.976 173.148 45.256 172.7 44.312C172.268 43.368 172.052 42.248 172.052 40.952C172.052 39.64 172.268 38.52 172.7 37.592C173.148 36.664 173.772 35.952 174.572 35.456C175.372 34.944 176.308 34.688 177.38 34.688C178.436 34.688 179.356 34.952 180.14 35.48C180.924 36.008 181.444 36.728 181.7 37.64H181.436L181.676 34.904H184.028C183.98 35.4 183.932 35.896 183.884 36.392C183.852 36.872 183.836 37.344 183.836 37.808V47H181.412V44.312H181.676C181.42 45.208 180.892 45.92 180.092 46.448C179.308 46.96 178.404 47.216 177.38 47.216ZM177.98 45.32C179.02 45.32 179.852 44.952 180.476 44.216C181.116 43.48 181.436 42.392 181.436 40.952C181.436 39.512 181.116 38.432 180.476 37.712C179.852 36.976 179.02 36.608 177.98 36.608C176.924 36.608 176.076 36.976 175.436 37.712C174.812 38.432 174.5 39.512 174.5 40.952C174.5 42.392 174.812 43.48 175.436 44.216C176.06 44.952 176.908 45.32 177.98 45.32ZM188.374 49.952L187.318 49.136C187.782 48.64 188.094 48.184 188.254 47.768C188.43 47.352 188.518 46.92 188.518 46.472L189.046 47H187.15V44.144H190.006V46.088C190.006 46.808 189.886 47.472 189.646 48.08C189.406 48.704 188.982 49.328 188.374 49.952ZM199.652 47V34.904H202.052V39.824H208.172V34.904H210.572V47H208.172V41.72H202.052V47H199.652ZM218.958 47.216C217.886 47.216 216.95 46.968 216.15 46.472C215.35 45.976 214.726 45.256 214.278 44.312C213.846 43.368 213.63 42.248 213.63 40.952C213.63 39.64 213.846 38.52 214.278 37.592C214.726 36.664 215.35 35.952 216.15 35.456C216.95 34.944 217.886 34.688 218.958 34.688C220.014 34.688 220.934 34.952 221.718 35.48C222.502 36.008 223.022 36.728 223.278 37.64H223.014L223.254 34.904H225.606C225.558 35.4 225.51 35.896 225.462 36.392C225.43 36.872 225.414 37.344 225.414 37.808V47H222.99V44.312H223.254C222.998 45.208 222.47 45.92 221.67 46.448C220.886 46.96 219.982 47.216 218.958 47.216ZM219.558 45.32C220.598 45.32 221.43 44.952 222.054 44.216C222.694 43.48 223.014 42.392 223.014 40.952C223.014 39.512 222.694 38.432 222.054 37.712C221.43 36.976 220.598 36.608 219.558 36.608C218.502 36.608 217.654 36.976 217.014 37.712C216.39 38.432 216.078 39.512 216.078 40.952C216.078 42.392 216.39 43.48 217.014 44.216C217.638 44.952 218.486 45.32 219.558 45.32ZM229.137 47V34.904H231.537V39.848H233.625L237.393 34.904H240.033L235.521 40.856L234.921 40.088C235.385 40.136 235.785 40.256 236.121 40.448C236.457 40.624 236.785 40.888 237.105 41.24C237.425 41.592 237.753 42.056 238.089 42.632L240.609 47H238.017L235.857 43.304C235.617 42.888 235.385 42.568 235.161 42.344C234.937 42.104 234.681 41.944 234.393 41.864C234.105 41.768 233.753 41.72 233.337 41.72H231.537V47H229.137ZM247.659 47.216C246.459 47.216 245.419 46.968 244.539 46.472C243.659 45.96 242.979 45.24 242.499 44.312C242.019 43.368 241.779 42.248 241.779 40.952C241.779 39.656 242.019 38.544 242.499 37.616C242.979 36.672 243.659 35.952 244.539 35.456C245.419 34.944 246.459 34.688 247.659 34.688C248.859 34.688 249.899 34.944 250.779 35.456C251.675 35.952 252.363 36.672 252.843 37.616C253.339 38.544 253.587 39.656 253.587 40.952C253.587 42.248 253.339 43.368 252.843 44.312C252.363 45.24 251.675 45.96 250.779 46.472C249.899 46.968 248.859 47.216 247.659 47.216ZM247.659 45.32C248.715 45.32 249.555 44.952 250.179 44.216C250.803 43.48 251.115 42.392 251.115 40.952C251.115 39.512 250.803 38.432 250.179 37.712C249.555 36.976 248.715 36.608 247.659 36.608C246.619 36.608 245.787 36.976 245.163 37.712C244.539 38.432 244.227 39.512 244.227 40.952C244.227 42.392 244.531 43.48 245.139 44.216C245.763 44.952 246.603 45.32 247.659 45.32ZM256.582 47V34.904H267.43V47H265.03V36.8H258.982V47H256.582ZM271.066 47V34.904H273.274V44.672H272.602L279.898 34.904H281.914V47H279.73V37.208H280.426L273.082 47H271.066ZM288.143 47V36.848H283.871V34.904H294.839V36.848H290.543V47H288.143ZM302.395 47.216C300.443 47.216 298.907 46.664 297.787 45.56C296.667 44.456 296.107 42.928 296.107 40.976C296.107 39.712 296.347 38.608 296.827 37.664C297.323 36.72 298.003 35.992 298.867 35.48C299.747 34.952 300.763 34.688 301.915 34.688C303.051 34.688 304.003 34.928 304.771 35.408C305.539 35.888 306.123 36.568 306.523 37.448C306.923 38.312 307.123 39.336 307.123 40.52V41.288H298.003V39.896H305.467L305.059 40.208C305.059 39.008 304.787 38.08 304.243 37.424C303.715 36.752 302.947 36.416 301.939 36.416C300.819 36.416 299.955 36.808 299.347 37.592C298.739 38.36 298.435 39.424 298.435 40.784V41.024C298.435 42.448 298.779 43.52 299.467 44.24C300.171 44.96 301.163 45.32 302.443 45.32C303.147 45.32 303.803 45.224 304.411 45.032C305.035 44.824 305.627 44.488 306.187 44.024L306.979 45.68C306.419 46.176 305.739 46.56 304.939 46.832C304.139 47.088 303.291 47.216 302.395 47.216ZM309.586 47.312L308.77 45.392C309.314 45.168 309.77 44.888 310.138 44.552C310.522 44.2 310.818 43.752 311.026 43.208C311.25 42.664 311.41 41.992 311.506 41.192C311.602 40.392 311.65 39.424 311.65 38.288V34.904H320.77V47H318.37V36.8H313.882V38.36C313.882 40.184 313.738 41.696 313.45 42.896C313.162 44.096 312.698 45.048 312.058 45.752C311.434 46.44 310.61 46.96 309.586 47.312ZM324.41 47V34.904H326.81V39.128H330.242C331.826 39.128 333.018 39.464 333.818 40.136C334.618 40.792 335.018 41.752 335.018 43.016C335.018 43.832 334.834 44.544 334.466 45.152C334.098 45.744 333.554 46.2 332.834 46.52C332.13 46.84 331.266 47 330.242 47H324.41ZM326.81 45.344H329.978C330.874 45.344 331.562 45.16 332.042 44.792C332.522 44.408 332.762 43.824 332.762 43.04C332.762 42.256 332.522 41.688 332.042 41.336C331.578 40.968 330.89 40.784 329.978 40.784H326.81V45.344ZM337.746 47V34.904H340.146V39.824H346.266V34.904H348.666V47H346.266V41.72H340.146V47H337.746ZM352.324 47V34.904H354.724V39.128H358.156C359.74 39.128 360.932 39.464 361.732 40.136C362.532 40.792 362.932 41.752 362.932 43.016C362.932 43.832 362.748 44.544 362.38 45.152C362.012 45.744 361.468 46.2 360.748 46.52C360.044 46.84 359.18 47 358.156 47H352.324ZM354.724 45.344H357.892C358.804 45.344 359.492 45.16 359.956 44.792C360.436 44.408 360.676 43.824 360.676 43.04C360.676 42.256 360.436 41.688 359.956 41.336C359.492 40.968 358.804 40.784 357.892 40.784H354.724V45.344ZM364.636 47V34.904H367.036V47H364.636ZM376.34 47.216C374.388 47.216 372.852 46.664 371.732 45.56C370.612 44.456 370.052 42.928 370.052 40.976C370.052 39.712 370.292 38.608 370.772 37.664C371.268 36.72 371.948 35.992 372.812 35.48C373.692 34.952 374.708 34.688 375.86 34.688C376.996 34.688 377.948 34.928 378.716 35.408C379.484 35.888 380.068 36.568 380.468 37.448C380.868 38.312 381.068 39.336 381.068 40.52V41.288H371.948V39.896H379.412L379.004 40.208C379.004 39.008 378.732 38.08 378.188 37.424C377.66 36.752 376.892 36.416 375.884 36.416C374.764 36.416 373.9 36.808 373.292 37.592C372.684 38.36 372.38 39.424 372.38 40.784V41.024C372.38 42.448 372.724 43.52 373.412 44.24C374.116 44.96 375.108 45.32 376.388 45.32C377.092 45.32 377.748 45.224 378.356 45.032C378.98 44.824 379.572 44.488 380.132 44.024L380.924 45.68C380.364 46.176 379.684 46.56 378.884 46.832C378.084 47.088 377.236 47.216 376.34 47.216ZM35.224 77.216C34.008 77.216 32.944 76.968 32.032 76.472C31.136 75.96 30.44 75.232 29.944 74.288C29.464 73.328 29.224 72.192 29.224 70.88C29.224 69.584 29.472 68.472 29.968 67.544C30.464 66.616 31.16 65.912 32.056 65.432C32.952 64.936 34.008 64.688 35.224 64.688C36.008 64.688 36.768 64.824 37.504 65.096C38.24 65.352 38.848 65.72 39.328 66.2L38.536 67.904C38.088 67.472 37.584 67.152 37.024 66.944C36.464 66.72 35.92 66.608 35.392 66.608C34.24 66.608 33.336 66.976 32.68 67.712C32.024 68.448 31.696 69.512 31.696 70.904C31.696 72.312 32.024 73.392 32.68 74.144C33.336 74.896 34.24 75.272 35.392 75.272C35.904 75.272 36.44 75.176 37 74.984C37.56 74.776 38.072 74.448 38.536 74L39.328 75.704C38.832 76.184 38.208 76.56 37.456 76.832C36.72 77.088 35.976 77.216 35.224 77.216ZM42.0818 77V64.904H44.4818V69.848H46.5698L50.3378 64.904H52.9778L48.4658 70.856L47.8658 70.088C48.3298 70.136 48.7298 70.256 49.0658 70.448C49.4018 70.624 49.7298 70.888 50.0498 71.24C50.3698 71.592 50.6978 72.056 51.0338 72.632L53.5538 77H50.9618L48.8018 73.304C48.5618 72.888 48.3298 72.568 48.1058 72.344C47.8818 72.104 47.6258 71.944 47.3378 71.864C47.0498 71.768 46.6978 71.72 46.2818 71.72H44.4818V77H42.0818ZM55.324 77V64.904H57.532V74.672H56.86L64.156 64.904H66.172V77H63.988V67.208H64.684L57.34 77H55.324ZM68.6084 80.12V75.128H69.9524C70.4804 74.328 70.8644 73.392 71.1044 72.32C71.3444 71.248 71.4644 69.952 71.4644 68.432V64.904H80.3204V75.128H82.2644V80.12H80.1764V77H70.6964V80.12H68.6084ZM72.1844 75.152H78.0404V66.776H73.5524V68.912C73.5524 70.08 73.4324 71.224 73.1924 72.344C72.9684 73.448 72.6324 74.384 72.1844 75.152ZM84.6678 77V64.904H87.0678V69.848H89.1558L92.9238 64.904H95.5638L91.0518 70.856L90.4518 70.088C90.9158 70.136 91.3158 70.256 91.6518 70.448C91.9878 70.624 92.3158 70.888 92.6358 71.24C92.9558 71.592 93.2838 72.056 93.6198 72.632L96.1398 77H93.5478L91.3878 73.304C91.1478 72.888 90.9158 72.568 90.6918 72.344C90.4678 72.104 90.2118 71.944 89.9238 71.864C89.6358 71.768 89.2838 71.72 88.8678 71.72H87.0678V77H84.6678ZM97.9099 77V64.904H100.118V74.672H99.4459L106.742 64.904H108.758V77H106.574V67.208H107.27L99.9259 77H97.9099Z" fill="#CCCCCC"/>
<g filter="url(#filter1_f_1301_4604)">
<ellipse cx="129.998" cy="46.6601" rx="129.998" ry="46.6601" transform="matrix(0.890932 -0.454137 0.107131 0.994245 547.34 219.757)" fill="#6D6D6F"/>
</g>
<g filter="url(#filter2_f_1301_4604)">
<ellipse cx="160.825" cy="24.035" rx="160.825" ry="24.035" transform="matrix(0.992068 -0.125701 0.445603 0.895231 -21.7266 265.414)" fill="#5C827F"/>
</g>
<g opacity="0.2">
<path d="M620.78 90.6717L623.459 91.6457L634.141 90.6031L620.78 90.6717ZM631.489 89.6217L620.78 90.6717L634.141 90.6031L631.489 89.6217ZM620.72 112.508L623.407 113.408L634.116 112.444L620.72 112.508ZM642.286 36.2456L644.894 37.4108L668.341 34.6966L642.286 36.2456ZM642.286 36.2456L642.28 75.4221L644.894 37.4108L642.286 36.2456ZM642.28 75.4221L644.9 76.4555L644.894 37.4108L642.28 75.4221ZM618.082 89.6907L620.78 90.6717L631.489 89.6217L618.082 89.6907ZM631.457 111.537L620.72 112.508L634.116 112.444L631.457 111.537ZM628.818 88.6334L618.082 89.6907L631.489 89.6217L628.818 88.6334ZM618.015 111.601L620.72 112.508L631.457 111.537L618.015 111.601ZM639.661 35.0722L642.286 36.2456L665.795 33.5123L639.661 35.0722ZM639.661 35.0722L639.642 74.3815L642.286 36.2456L639.661 35.0722ZM665.795 33.5123L642.286 36.2456L668.341 34.6966L665.795 33.5123ZM639.642 74.3815L642.28 75.4221L642.286 36.2456L639.642 74.3815ZM642.277 97.348L644.903 98.307L644.902 89.5526L642.277 97.348ZM615.365 88.7029L618.082 89.6907L628.818 88.6334L615.365 88.7029ZM642.278 88.5638L642.277 97.348L644.902 89.5526L642.278 88.5638ZM665.795 33.5123L668.341 34.6966L670.56 34.619L665.795 33.5123ZM631.431 129.153L634.096 130L644.908 129.093L631.431 129.153ZM628.779 110.624L618.015 111.601L631.457 111.537L628.779 110.624ZM642.278 88.5638L644.902 89.5526L668.498 87.2492L642.278 88.5638ZM668.02 33.4335L670.56 34.619L672.695 34.8948L668.02 33.4335ZM626.129 87.638L615.365 88.7029L628.818 88.6334L626.129 87.638ZM615.29 110.688L618.015 111.601L628.779 110.624L615.29 110.688ZM637.016 33.8906L639.661 35.0722L663.231 32.3196L637.016 33.8906ZM637.016 33.8906L636.985 73.3335L639.661 35.0722L637.016 33.8906ZM668.02 33.4335L665.795 33.5123L670.56 34.619L668.02 33.4335ZM670.16 33.7093L672.695 34.8948L674.724 35.5034L670.16 33.7093ZM663.231 32.3196L639.661 35.0722L665.795 33.5123L663.231 32.3196ZM636.985 73.3335L639.642 74.3815L639.661 35.0722L636.985 73.3335ZM642.272 128.24L644.908 129.093L644.906 111.473L642.272 128.24ZM639.631 96.3822L642.277 97.348L642.278 88.5638L639.631 96.3822ZM612.629 87.7081L615.365 88.7029L626.129 87.638L612.629 87.7081ZM670.16 33.7093L668.02 33.4335L672.695 34.8948L670.16 33.7093ZM642.275 110.559L642.272 128.24L644.906 111.473L642.275 110.559ZM642.272 128.24L631.431 129.153L644.908 129.093L642.272 128.24ZM639.636 87.568L639.631 96.3822L642.278 88.5638L639.636 87.568ZM672.194 34.3191L670.16 33.7093L674.724 35.5034L672.194 34.3191ZM663.231 32.3196L665.795 33.5123L668.02 33.4335L663.231 32.3196ZM628.748 128.3L631.431 129.153L642.272 128.24L628.748 128.3ZM626.082 109.704L615.29 110.688L628.779 110.624L626.082 109.704ZM642.275 110.559L644.906 111.473L674.08 108.848L642.275 110.559ZM639.636 87.568L642.278 88.5638L665.937 86.244L639.636 87.568ZM682.563 25.2615L685.063 26.4809L682.122 24.4732L682.563 25.2615ZM665.462 32.2395L668.02 33.4335L670.16 33.7093L665.462 32.2395ZM665.937 86.244L642.278 88.5638L668.498 87.2492L665.937 86.244ZM623.42 86.6357L612.629 87.7081L626.129 87.638L623.42 86.6357ZM612.546 109.768L615.29 110.688L626.082 109.704L612.546 109.768ZM634.353 32.7005L637.016 33.8906L660.648 31.1184L634.353 32.7005ZM634.353 32.7005L634.309 72.278L637.016 33.8906L634.353 32.7005ZM665.462 32.2395L663.231 32.3196L668.02 33.4335L665.462 32.2395ZM679.615 23.2483L682.563 25.2615L682.122 24.4732L679.615 23.2483ZM667.607 32.5154L670.16 33.7093L672.194 34.3191L667.607 32.5154ZM660.648 31.1184L637.016 33.8906L663.231 32.3196L660.648 31.1184ZM634.309 72.278L636.985 73.3335L637.016 33.8906L634.309 72.278ZM639.617 127.38L642.272 128.24L642.275 110.559L639.617 127.38ZM685.236 27.7313L687.729 28.9435L685.063 26.4809L685.236 27.7313ZM636.967 95.4096L639.631 96.3822L639.636 87.568L636.967 95.4096ZM609.873 86.7062L612.629 87.7081L623.42 86.6357L609.873 86.7062ZM667.607 32.5154L665.462 32.2395L670.16 33.7093L667.607 32.5154ZM639.625 109.639L639.617 127.38L642.275 110.559L639.625 109.639ZM639.617 127.38L628.748 128.3L642.272 128.24L639.617 127.38ZM682.563 25.2615L685.236 27.7313L685.063 26.4809L682.563 25.2615ZM636.974 86.5651L636.967 95.4096L639.636 87.568L636.974 86.5651ZM665.937 86.244L668.498 87.2492L672.222 86.5829L665.937 86.244ZM669.647 33.1264L667.607 32.5154L672.194 34.3191L669.647 33.1264ZM687.598 30.6234L690.085 31.8268L687.729 28.9435L687.598 30.6234ZM660.648 31.1184L663.231 32.3196L665.462 32.2395L660.648 31.1184ZM626.045 127.441L628.748 128.3L639.617 127.38L626.045 127.441ZM623.367 108.777L612.546 109.768L626.082 109.704L623.367 108.777ZM639.625 109.639L642.275 110.559L671.526 107.915L639.625 109.639ZM685.236 27.7313L687.598 30.6234L687.729 28.9435L685.236 27.7313ZM636.974 86.5651L639.636 87.568L663.357 85.2317L636.974 86.5651ZM669.67 85.5742L672.222 86.5829L675.801 85.3505L669.67 85.5742ZM680.046 24.0334L682.563 25.2615L679.615 23.2483L680.046 24.0334ZM662.885 31.0371L665.462 32.2395L667.607 32.5154L662.885 31.0371ZM689.615 33.9029L692.098 35.096L690.085 31.8268L689.615 33.9029ZM663.357 85.2317L639.636 87.568L665.937 86.244L663.357 85.2317ZM669.67 85.5742L665.937 86.244L672.222 86.5829L669.67 85.5742ZM620.692 85.6261L609.873 86.7062L623.42 86.6357L620.692 85.6261ZM609.783 108.842L612.546 109.768L623.367 108.777L609.783 108.842ZM631.671 31.5021L634.353 32.7005L658.048 29.9087L631.671 31.5021ZM631.671 31.5021L631.614 71.215L634.353 32.7005L631.671 31.5021ZM671.526 107.915L642.275 110.559L674.08 108.848L671.526 107.915ZM662.885 31.0371L660.648 31.1184L665.462 32.2395L662.885 31.0371ZM677.091 22.0146L680.046 24.0334L679.615 23.2483L677.091 22.0146ZM665.036 31.3129L667.607 32.5154L669.647 33.1264L665.036 31.3129ZM687.598 30.6234L689.615 33.9029L690.085 31.8268L687.598 30.6234ZM673.26 84.3362L675.801 85.3505L679.202 83.5934L673.26 84.3362ZM658.048 29.9087L634.353 32.7005L660.648 31.1184L658.048 29.9087ZM631.614 71.215L634.309 72.278L634.353 32.7005L631.614 71.215ZM691.251 37.5344L693.731 38.7158L692.098 35.096L691.251 37.5344ZM636.943 126.514L639.617 127.38L639.625 109.639L636.943 126.514ZM682.725 26.5105L685.236 27.7313L682.563 25.2615L682.725 26.5105ZM634.284 94.4301L636.967 95.4096L636.974 86.5651L634.284 94.4301ZM673.26 84.3362L669.67 85.5742L675.801 85.3505L673.26 84.3362ZM607.098 85.6972L609.873 86.7062L620.692 85.6261L607.098 85.6972ZM665.036 31.3129L662.885 31.0371L667.607 32.5154L665.036 31.3129ZM636.957 108.712L636.943 126.514L639.625 109.639L636.957 108.712ZM636.943 126.514L626.045 127.441L639.617 127.38L636.943 126.514ZM676.67 82.5718L679.202 83.5934L682.388 81.3538L676.67 82.5718ZM689.615 33.9029L691.251 37.5344L692.098 35.096L689.615 33.9029ZM680.046 24.0334L682.725 26.5105L682.563 25.2615L680.046 24.0334ZM692.471 41.482L694.949 42.6504L693.731 38.7158L692.471 41.482ZM634.294 85.5551L634.284 94.4301L636.974 86.5651L634.294 85.5551ZM663.357 85.2317L665.937 86.244L669.67 85.5742L663.357 85.2317ZM671.526 107.915L674.08 108.848L674.031 95.5524L671.526 107.915ZM667.081 31.9252L665.036 31.3129L669.647 33.1264L667.081 31.9252Z" fill="url(#paint0_linear_1301_4604)" fill-opacity="0.3"/>
<path d="M628.97 30.295L618.15 18.4363L617.986 71.2899L628.97 30.295Z" fill="url(#paint1_linear_1301_4604)" fill-opacity="0.2"/>
<path d="M676.67 82.5718L673.26 84.3362L679.202 83.5934L676.67 82.5718ZM685.092 29.4114L687.598 30.6234L685.236 27.7313L685.092 29.4114ZM679.865 80.3234L682.388 81.3538L685.325 78.6747L679.865 80.3234ZM658.048 29.9087L660.648 31.1184L662.885 31.0371L658.048 29.9087ZM693.24 45.7091L695.717 46.8634L694.949 42.6504L693.24 45.7091ZM623.323 126.575L626.045 127.441L636.943 126.514L623.323 126.575ZM671.481 94.5738L671.526 107.915L674.031 95.5524L671.481 94.5738ZM691.251 37.5344L692.471 41.482L693.731 38.7158L691.251 37.5344ZM620.631 107.844L609.783 108.842L623.367 108.777L620.631 107.844ZM636.957 108.712L639.625 109.639L668.954 106.976L636.957 108.712Z" fill="url(#paint2_linear_1301_4604)" fill-opacity="0.3"/>
<path d="M607.156 72.4265L607.098 85.6972L617.945 84.6094L607.156 72.4265Z" fill="url(#paint3_linear_1301_4604)" fill-opacity="0.2"/>
<path d="M682.725 26.5105L685.092 29.4114L685.236 27.7313L682.725 26.5105ZM679.865 80.3234L676.67 82.5718L682.388 81.3538L679.865 80.3234ZM682.811 77.6339L685.325 78.6747L687.978 75.5993L682.811 77.6339ZM634.294 85.5551L636.974 86.5651L660.758 84.2122L634.294 85.5551ZM667.101 84.5582L669.67 85.5742L673.26 84.3362L667.101 84.5582ZM693.522 50.1786L696 51.3177L695.717 46.8634L693.522 50.1786ZM677.511 22.7965L680.046 24.0334L677.091 22.0146L677.511 22.7965ZM660.291 29.8261L662.885 31.0371L665.036 31.3129L660.291 29.8261ZM687.114 32.7013L689.615 33.9029L687.598 30.6234L687.114 32.7013ZM660.758 84.2122L636.974 86.5651L663.357 85.2317L660.758 84.2122ZM692.471 41.482L693.24 45.7091L694.949 42.6504L692.471 41.482ZM667.101 84.5582L663.357 85.2317L669.67 85.5742L667.101 84.5582ZM617.945 84.6094L607.098 85.6972L620.692 85.6261L617.945 84.6094ZM685.472 74.5469L687.978 75.5993L690.313 72.1715L685.472 74.5469Z" fill="url(#paint4_linear_1301_4604)" fill-opacity="0.3"/>
<path d="M617.986 71.2899L607.156 72.4265L617.945 84.6094L617.986 71.2899Z" fill="url(#paint5_linear_1301_4604)" fill-opacity="0.2"/>
<path d="M693.294 54.709L695.774 55.8324L696 51.3177L693.294 54.709ZM607 107.91L609.783 108.842L620.631 107.844L607 107.91ZM628.97 30.295L631.671 31.5021L655.428 28.6902L628.97 30.295ZM682.811 77.6339L679.865 80.3234L685.325 78.6747L682.811 77.6339ZM628.97 30.295L628.9 70.1444L631.671 31.5021L628.97 30.295ZM668.954 106.976L639.625 109.639L671.526 107.915L668.954 106.976ZM660.291 29.8261L658.048 29.9087L662.885 31.0371L660.291 29.8261ZM687.814 71.1065L690.313 72.1715L692.294 68.4359L687.814 71.1065ZM674.548 20.7721L677.511 22.7965L677.091 22.0146L674.548 20.7721ZM662.447 30.1019L665.036 31.3129L667.081 31.9252L662.447 30.1019ZM692.575 59.1128L695.058 60.2209L695.774 55.8324L692.575 59.1128ZM685.092 29.4114L687.114 32.7013L687.598 30.6234L685.092 29.4114ZM689.801 67.3572L692.294 68.4359L693.887 64.4373L689.801 67.3572ZM670.7 83.3146L673.26 84.3362L676.67 82.5718L670.7 83.3146ZM655.428 28.6902L631.671 31.5021L658.048 29.9087L655.428 28.6902ZM693.24 45.7091L693.522 50.1786L695.717 46.8634L693.24 45.7091ZM691.4 63.3442L693.887 64.4373L695.058 60.2209L691.4 63.3442ZM628.9 70.1444L631.614 71.215L631.671 31.5021L628.9 70.1444ZM688.753 36.3446L691.251 37.5344L689.615 33.9029L688.753 36.3446Z" fill="url(#paint6_linear_1301_4604)" fill-opacity="0.3"/>
<path d="M618.15 18.4363L628.97 30.295L652.79 27.463L618.15 18.4363Z" fill="url(#paint7_linear_1301_4604)" fill-opacity="0.2"/>
<path d="M634.249 125.643L636.943 126.514L636.957 108.712L634.249 125.643ZM685.472 74.5469L682.811 77.6339L687.978 75.5993L685.472 74.5469ZM680.196 25.2809L682.725 26.5105L680.046 24.0334L680.196 25.2809ZM631.582 93.4435L634.284 94.4301L634.294 85.5551L631.582 93.4435ZM670.7 83.3146L667.101 84.5582L673.26 84.3362L670.7 83.3146ZM662.447 30.1019L660.291 29.8261L665.036 31.3129L662.447 30.1019ZM693.522 50.1786L693.294 54.709L696 51.3177L693.522 50.1786ZM634.269 107.778L634.249 125.643L636.957 108.712L634.269 107.778ZM687.814 71.1065L685.472 74.5469L690.313 72.1715L687.814 71.1065ZM634.249 125.643L623.323 126.575L636.943 126.514L634.249 125.643ZM674.119 81.5429L676.67 82.5718L679.865 80.3234L674.119 81.5429ZM693.294 54.709L692.575 59.1128L695.774 55.8324L693.294 54.709ZM687.114 32.7013L688.753 36.3446L689.615 33.9029L687.114 32.7013ZM689.801 67.3572L687.814 71.1065L692.294 68.4359L689.801 67.3572ZM677.511 22.7965L680.196 25.2809L680.046 24.0334L677.511 22.7965ZM689.975 40.3052L692.471 41.482L691.251 37.5344L689.975 40.3052Z" fill="url(#paint8_linear_1301_4604)" fill-opacity="0.3"/>
<path d="M628.9 70.1444L628.97 30.295L617.986 71.2899L628.9 70.1444Z" fill="url(#paint9_linear_1301_4604)" fill-opacity="0.2"/>
<path d="M692.575 59.1128L691.4 63.3442L695.058 60.2209L692.575 59.1128ZM691.4 63.3442L689.801 67.3572L693.887 64.4373L691.4 63.3442ZM631.595 84.5378L631.582 93.4435L634.294 85.5551L631.595 84.5378ZM660.758 84.2122L663.357 85.2317L667.101 84.5582L660.758 84.2122ZM668.954 106.976L671.526 107.915L671.481 94.5738L668.954 106.976ZM664.497 30.7154L662.447 30.1019L667.081 31.9252L664.497 30.7154Z" fill="url(#paint10_linear_1301_4604)" fill-opacity="0.3"/>
<path d="M607.059 94.5679L607 107.91L617.876 106.904L607.059 94.5679Z" fill="url(#paint11_linear_1301_4604)" fill-opacity="0.2"/>
<path d="M674.119 81.5429L670.7 83.3146L676.67 82.5718L674.119 81.5429ZM682.569 28.1907L685.092 29.4114L682.725 26.5105L682.569 28.1907ZM677.324 79.2855L679.865 80.3234L682.811 77.6339L677.324 79.2855ZM655.428 28.6902L658.048 29.9087L660.291 29.8261L655.428 28.6902ZM690.745 44.5466L693.24 45.7091L692.471 41.482L690.745 44.5466ZM620.582 125.704L623.323 126.575L634.249 125.643L620.582 125.704ZM668.914 93.5883L668.954 106.976L671.481 94.5738L668.914 93.5883ZM688.753 36.3446L689.975 40.3052L691.251 37.5344L688.753 36.3446Z" fill="url(#paint12_linear_1301_4604)" fill-opacity="0.3"/>
<path d="M628.9 70.1444L617.986 71.2899L617.945 84.6094L628.9 70.1444Z" fill="url(#paint13_linear_1301_4604)" fill-opacity="0.2"/>
<path d="M617.876 106.904L607 107.91L620.631 107.844L617.876 106.904Z" fill="url(#paint14_linear_1301_4604)" fill-opacity="0.3"/>
<path d="M617.918 93.5129L607.059 94.5679L617.876 106.904L617.918 93.5129Z" fill="url(#paint15_linear_1301_4604)" fill-opacity="0.2"/>
<path d="M634.269 107.778L636.957 108.712L666.364 106.03L634.269 107.778ZM680.196 25.2809L682.569 28.1907L682.725 26.5105L680.196 25.2809Z" fill="url(#paint16_linear_1301_4604)" fill-opacity="0.3"/>
<path d="M656.53 14L652.775 14.1597L618.15 18.4363L656.53 14Z" fill="url(#paint17_linear_1301_4604)" fill-opacity="0.2"/>
<path d="M677.324 79.2855L674.119 81.5429L679.865 80.3234L677.324 79.2855ZM680.278 76.5856L682.811 77.6339L685.472 74.5469L680.278 76.5856ZM631.595 84.5378L634.294 85.5551L658.141 83.1853L631.595 84.5378ZM664.512 83.5349L667.101 84.5582L670.7 83.3146L664.512 83.5349ZM691.027 49.0314L693.522 50.1786L693.24 45.7091L691.027 49.0314ZM674.957 21.5507L677.511 22.7965L674.548 20.7721L674.957 21.5507ZM657.677 28.6064L660.291 29.8261L662.447 30.1019L657.677 28.6064ZM684.595 31.491L687.114 32.7013L685.092 29.4114L684.595 31.491ZM658.141 83.1853L634.294 85.5551L660.758 84.2122L658.141 83.1853ZM689.975 40.3052L690.745 44.5466L692.471 41.482L689.975 40.3052ZM664.512 83.5349L660.758 84.2122L667.101 84.5582L664.512 83.5349Z" fill="url(#paint18_linear_1301_4604)" fill-opacity="0.3"/>
<path d="M628.9 70.1444L617.945 84.6094L617.918 93.5129L628.9 70.1444Z" fill="url(#paint19_linear_1301_4604)" fill-opacity="0.2"/>
<path d="M682.948 73.487L685.472 74.5469L687.814 71.1065L682.948 73.487ZM690.797 53.5774L693.294 54.709L693.522 50.1786L690.797 53.5774ZM680.278 76.5856L677.324 79.2855L682.811 77.6339L680.278 76.5856ZM666.364 106.03L636.957 108.712L668.954 106.976L666.364 106.03Z" fill="url(#paint20_linear_1301_4604)" fill-opacity="0.3"/>
<path d="M618.15 18.4363L652.79 27.463L655.045 27.3779L618.15 18.4363Z" fill="url(#paint21_linear_1301_4604)" fill-opacity="0.2"/>
<path d="M657.677 28.6064L655.428 28.6902L660.291 29.8261L657.677 28.6064ZM685.297 70.0337L687.814 71.1065L689.801 67.3572L685.297 70.0337ZM671.988 19.5207L674.957 21.5507L674.548 20.7721L671.988 19.5207ZM659.84 28.8822L662.447 30.1019L664.497 30.7154L659.84 28.8822ZM690.075 57.9968L692.575 59.1128L693.294 54.709L690.075 57.9968ZM682.569 28.1907L684.595 31.491L685.092 29.4114L682.569 28.1907ZM687.291 66.2707L689.801 67.3572L691.4 63.3442L687.291 66.2707ZM668.121 82.2857L670.7 83.3146L674.119 81.5429L668.121 82.2857ZM652.79 27.463L628.97 30.295L655.428 28.6902L652.79 27.463ZM690.745 44.5466L691.027 49.0314L693.24 45.7091L690.745 44.5466ZM688.895 62.2432L691.4 63.3442L692.575 59.1128L688.895 62.2432Z" fill="url(#paint22_linear_1301_4604)" fill-opacity="0.3"/>
<path d="M663.582 15.4491L656.53 14L618.15 18.4363L663.582 15.4491Z" fill="url(#paint23_linear_1301_4604)" fill-opacity="0.2"/>
<path d="M686.237 35.1462L688.753 36.3446L687.114 32.7013L686.237 35.1462Z" fill="url(#paint24_linear_1301_4604)" fill-opacity="0.3"/>
<path d="M618.15 18.4363L655.045 27.3779L657.213 27.6537L618.15 18.4363Z" fill="url(#paint25_linear_1301_4604)" fill-opacity="0.2"/>
<path d="M631.537 124.764L634.249 125.643L634.269 107.778L631.537 124.764ZM682.948 73.487L680.278 76.5856L685.472 74.5469L682.948 73.487ZM677.649 24.0425L680.196 25.2809L677.511 22.7965L677.649 24.0425ZM628.86 92.4498L631.582 93.4435L631.595 84.5378L628.86 92.4498ZM668.121 82.2857L664.512 83.5349L670.7 83.3146L668.121 82.2857ZM659.84 28.8822L657.677 28.6064L662.447 30.1019L659.84 28.8822ZM691.027 49.0314L690.797 53.5774L693.522 50.1786L691.027 49.0314Z" fill="url(#paint26_linear_1301_4604)" fill-opacity="0.3"/>
<path d="M628.9 70.1444L617.918 93.5129L628.876 83.5133L628.9 70.1444Z" fill="url(#paint27_linear_1301_4604)" fill-opacity="0.2"/>
<path d="M631.563 106.838L631.537 124.764L634.269 107.778L631.563 106.838ZM685.297 70.0337L682.948 73.487L687.814 71.1065L685.297 70.0337Z" fill="url(#paint28_linear_1301_4604)" fill-opacity="0.3"/>
<path d="M617.918 93.5129L617.876 106.904L628.876 83.5133L617.918 93.5129Z" fill="url(#paint29_linear_1301_4604)" fill-opacity="0.2"/>
<path d="M631.537 124.764L620.582 125.704L634.249 125.643L631.537 124.764ZM671.551 80.5066L674.119 81.5429L677.324 79.2855L671.551 80.5066ZM690.797 53.5774L690.075 57.9968L693.294 54.709L690.797 53.5774ZM684.595 31.491L686.237 35.1462L687.114 32.7013L684.595 31.491ZM687.291 66.2707L685.297 70.0337L689.801 67.3572L687.291 66.2707ZM674.957 21.5507L677.649 24.0425L677.511 22.7965L674.957 21.5507ZM687.462 39.12L689.975 40.3052L688.753 36.3446L687.462 39.12ZM690.075 57.9968L688.895 62.2432L692.575 59.1128L690.075 57.9968ZM688.895 62.2432L687.291 66.2707L691.4 63.3442L688.895 62.2432ZM628.876 83.5133L628.86 92.4498L631.595 84.5378L628.876 83.5133ZM658.141 83.1853L660.758 84.2122L664.512 83.5349L658.141 83.1853ZM666.364 106.03L668.954 106.976L668.914 93.5883L666.364 106.03ZM661.895 29.4969L659.84 28.8822L664.497 30.7154L661.895 29.4969ZM671.551 80.5066L668.121 82.2857L674.119 81.5429L671.551 80.5066ZM680.027 26.9613L682.569 28.1907L680.196 25.2809L680.027 26.9613ZM674.764 78.2402L677.324 79.2855L680.278 76.5856L674.764 78.2402ZM652.79 27.463L655.428 28.6902L657.677 28.6064L652.79 27.463ZM688.232 43.3757L690.745 44.5466L689.975 40.3052L688.232 43.3757ZM617.821 124.826L620.582 125.704L631.537 124.764L617.821 124.826ZM666.327 92.5956L666.364 106.03L668.914 93.5883L666.327 92.5956ZM686.237 35.1462L687.462 39.12L688.753 36.3446L686.237 35.1462Z" fill="url(#paint30_linear_1301_4604)" fill-opacity="0.3"/>
<path d="M617.876 106.904L628.86 92.4498L628.876 83.5133L617.876 106.904Z" fill="url(#paint31_linear_1301_4604)" fill-opacity="0.2"/>
<path d="M631.563 106.838L634.269 107.778L663.755 105.077L631.563 106.838ZM677.649 24.0425L680.027 26.9613L680.196 25.2809L677.649 24.0425ZM674.764 78.2402L671.551 80.5066L677.324 79.2855L674.764 78.2402ZM677.728 75.5299L680.278 76.5856L682.948 73.487L677.728 75.5299ZM628.876 83.5133L631.595 84.5378L655.505 82.151L628.876 83.5133ZM661.905 82.5043L664.512 83.5349L668.121 82.2857L661.905 82.5043Z" fill="url(#paint32_linear_1301_4604)" fill-opacity="0.3"/>
<path d="M674.889 24.4757L618.15 18.4363L657.213 27.6537L674.889 24.4757Z" fill="url(#paint33_linear_1301_4604)" fill-opacity="0.2"/>
<path d="M688.514 47.8758L691.027 49.0314L690.745 44.5466L688.514 47.8758ZM672.385 20.296L674.957 21.5507L671.988 19.5207L672.385 20.296ZM655.045 27.3779L657.677 28.6064L659.84 28.8822L655.045 27.3779ZM682.057 30.2721L684.595 31.491L682.569 28.1907L682.057 30.2721Z" fill="url(#paint34_linear_1301_4604)" fill-opacity="0.3"/>
<path d="M674.889 24.4757L663.582 15.4491L618.15 18.4363L674.889 24.4757Z" fill="url(#paint35_linear_1301_4604)" fill-opacity="0.2"/>
<path d="M655.505 82.151L631.595 84.5378L658.141 83.1853L655.505 82.151ZM687.462 39.12L688.232 43.3757L689.975 40.3052L687.462 39.12ZM661.905 82.5043L658.141 83.1853L664.512 83.5349L661.905 82.5043Z" fill="url(#paint36_linear_1301_4604)" fill-opacity="0.3"/>
<path d="M617.876 106.904L617.821 124.826L628.836 105.891L617.876 106.904ZM617.876 106.904L628.836 105.891L628.86 92.4498L617.876 106.904Z" fill="url(#paint37_linear_1301_4604)" fill-opacity="0.2"/>
<path d="M680.405 72.4194L682.948 73.487L685.297 70.0337L680.405 72.4194ZM688.281 52.4377L690.797 53.5774L691.027 49.0314L688.281 52.4377ZM677.728 75.5299L674.764 78.2402L680.278 76.5856L677.728 75.5299ZM663.755 105.077L634.269 107.778L666.364 106.03L663.755 105.077ZM655.045 27.3779L652.79 27.463L657.677 28.6064L655.045 27.3779ZM682.762 68.9533L685.297 70.0337L687.291 66.2707L682.762 68.9533ZM669.409 18.2603L672.385 20.296L671.988 19.5207L669.409 18.2603ZM657.213 27.6537L659.84 28.8822L661.895 29.4969L657.213 27.6537ZM687.556 56.8727L690.075 57.9968L690.797 53.5774L687.556 56.8727ZM680.027 26.9613L682.057 30.2721L682.569 28.1907L680.027 26.9613ZM684.762 65.1765L687.291 66.2707L688.895 62.2432L684.762 65.1765ZM665.524 81.2494L668.121 82.2857L671.551 80.5066L665.524 81.2494ZM688.232 43.3757L688.514 47.8758L690.745 44.5466L688.232 43.3757ZM686.372 61.1343L688.895 62.2432L690.075 57.9968L686.372 61.1343ZM683.704 33.9391L686.237 35.1462L684.595 31.491L683.704 33.9391Z" fill="url(#paint38_linear_1301_4604)" fill-opacity="0.3"/>
<path d="M652.835 67.6323L628.9 70.1444L628.876 83.5133L652.835 67.6323Z" fill="url(#paint39_linear_1301_4604)" fill-opacity="0.2"/>
<path d="M628.805 123.88L631.537 124.764L631.563 106.838L628.805 123.88ZM680.405 72.4194L677.728 75.5299L682.948 73.487L680.405 72.4194ZM675.083 22.7951L677.649 24.0425L674.957 21.5507L675.083 22.7951ZM665.524 81.2494L661.905 82.5043L668.121 82.2857L665.524 81.2494ZM657.213 27.6537L655.045 27.3779L659.84 28.8822L657.213 27.6537ZM688.514 47.8758L688.281 52.4377L691.027 49.0314L688.514 47.8758ZM628.836 105.891L628.805 123.88L631.563 106.838L628.836 105.891ZM682.762 68.9533L680.405 72.4194L685.297 70.0337L682.762 68.9533ZM628.805 123.88L617.821 124.826L631.537 124.764L628.805 123.88ZM668.963 79.4628L671.551 80.5066L674.764 78.2402L668.963 79.4628ZM688.281 52.4377L687.556 56.8727L690.797 53.5774L688.281 52.4377ZM682.057 30.2721L683.704 33.9391L684.595 31.491L682.057 30.2721ZM684.762 65.1765L682.762 68.9533L687.291 66.2707L684.762 65.1765ZM672.385 20.296L675.083 22.7951L674.957 21.5507L672.385 20.296ZM684.93 37.9262L687.462 39.12L686.237 35.1462L684.93 37.9262ZM687.556 56.8727L686.372 61.1343L690.075 57.9968L687.556 56.8727ZM686.372 61.1343L684.762 65.1765L688.895 62.2432L686.372 61.1343ZM655.505 82.151L658.141 83.1853L661.905 82.5043L655.505 82.151ZM663.755 105.077L666.364 106.03L666.327 92.5956L663.755 105.077ZM659.273 28.2697L657.213 27.6537L661.895 29.4969L659.273 28.2697Z" fill="url(#paint40_linear_1301_4604)" fill-opacity="0.3"/>
<path d="M617.821 124.826L628.805 123.88L628.836 105.891L617.821 124.826ZM663.582 15.4491L660.144 14.441L656.53 14L663.582 15.4491Z" fill="url(#paint41_linear_1301_4604)" fill-opacity="0.2"/>
<path d="M668.963 79.4628L665.524 81.2494L671.551 80.5066L668.963 79.4628ZM677.467 25.723L680.027 26.9613L677.649 24.0425L677.467 25.723ZM672.187 77.1874L674.764 78.2402L677.728 75.5299L672.187 77.1874ZM685.701 42.1963L688.232 43.3757L687.462 39.12L685.701 42.1963ZM663.722 91.5959L663.755 105.077L666.327 92.5956L663.722 91.5959ZM683.704 33.9391L684.93 37.9262L686.237 35.1462L683.704 33.9391ZM628.836 105.891L631.563 106.838L661.127 104.117L628.836 105.891ZM675.083 22.7951L677.467 25.723L677.649 24.0425L675.083 22.7951ZM672.187 77.1874L668.963 79.4628L674.764 78.2402L672.187 77.1874ZM675.159 74.4664L677.728 75.5299L680.405 72.4194L675.159 74.4664ZM659.28 81.4663L661.905 82.5043L665.524 81.2494L659.28 81.4663ZM685.982 46.712L688.514 47.8758L688.232 43.3757L685.982 46.712ZM669.795 19.0322L672.385 20.296L669.409 18.2603L669.795 19.0322ZM679.502 29.0443L682.057 30.2721L680.027 26.9613L679.502 29.0443ZM652.85 81.1092L628.876 83.5133L655.505 82.151L652.85 81.1092ZM684.93 37.9262L685.701 42.1963L687.462 39.12L684.93 37.9262ZM659.28 81.4663L655.505 82.151L661.905 82.5043L659.28 81.4663ZM677.844 71.3441L680.405 72.4194L682.762 68.9533L677.844 71.3441ZM685.748 51.2898L688.281 52.4377L688.514 47.8758L685.748 51.2898ZM675.159 74.4664L672.187 77.1874L677.728 75.5299L675.159 74.4664Z" fill="url(#paint42_linear_1301_4604)" fill-opacity="0.3"/>
<path d="M655.101 67.2098L652.835 67.6323L628.876 83.5133L655.101 67.2098Z" fill="url(#paint43_linear_1301_4604)" fill-opacity="0.2"/>
<path d="M661.127 104.117L631.563 106.838L663.755 105.077L661.127 104.117ZM680.208 67.865L682.762 68.9533L684.762 65.1765L680.208 67.865ZM666.811 16.9909L669.795 19.0322L669.409 18.2603L666.811 16.9909ZM685.019 55.7405L687.556 56.8727L688.281 52.4377L685.019 55.7405ZM677.467 25.723L679.502 29.0443L680.027 26.9613L677.467 25.723ZM682.215 64.0743L684.762 65.1765L686.372 61.1343L682.215 64.0743ZM662.909 80.2056L665.524 81.2494L668.963 79.4628L662.909 80.2056ZM685.701 42.1963L685.982 46.712L688.232 43.3757L685.701 42.1963ZM683.83 60.0174L686.372 61.1343L687.556 56.8727L683.83 60.0174Z" fill="url(#paint44_linear_1301_4604)" fill-opacity="0.3"/>
<path d="M657.277 66.4427L655.101 67.2098L628.876 83.5133L657.277 66.4427Z" fill="url(#paint45_linear_1301_4604)" fill-opacity="0.2"/>
<path d="M681.151 32.7234L683.704 33.9391L682.057 30.2721L681.151 32.7234ZM677.844 71.3441L675.159 74.4664L680.405 72.4194L677.844 71.3441ZM672.499 21.5387L675.083 22.7951L672.385 20.296L672.499 21.5387ZM662.909 80.2056L659.28 81.4663L665.524 81.2494L662.909 80.2056Z" fill="url(#paint46_linear_1301_4604)" fill-opacity="0.3"/>
<path d="M628.836 105.891L658.48 103.15L628.86 92.4498L628.836 105.891ZM669.795 19.0322L666.811 16.9909L663.582 15.4491L669.795 19.0322Z" fill="url(#paint47_linear_1301_4604)" fill-opacity="0.2"/>
<path d="M685.982 46.712L685.748 51.2898L688.514 47.8758L685.982 46.712Z" fill="url(#paint48_linear_1301_4604)" fill-opacity="0.3"/>
<path d="M674.889 24.4757L657.213 27.6537L659.273 28.2697L674.889 24.4757Z" fill="url(#paint49_linear_1301_4604)" fill-opacity="0.2"/>
<path d="M680.208 67.865L677.844 71.3441L682.762 68.9533L680.208 67.865Z" fill="url(#paint50_linear_1301_4604)" fill-opacity="0.3"/>
<path d="M628.876 83.5133L652.85 81.1092L656.635 80.4207L628.876 83.5133Z" fill="url(#paint51_linear_1301_4604)" fill-opacity="0.2"/>
<path d="M666.357 78.4115L668.963 79.4628L672.187 77.1874L666.357 78.4115ZM685.748 51.2898L685.019 55.7405L688.281 52.4377L685.748 51.2898ZM679.502 29.0443L681.151 32.7234L682.057 30.2721L679.502 29.0443ZM682.215 64.0743L680.208 67.865L684.762 65.1765L682.215 64.0743ZM669.795 19.0322L672.499 21.5387L672.385 20.296L669.795 19.0322ZM682.38 36.7237L684.93 37.9262L683.704 33.9391L682.38 36.7237ZM685.019 55.7405L683.83 60.0174L687.556 56.8727L685.019 55.7405Z" fill="url(#paint52_linear_1301_4604)" fill-opacity="0.3"/>
<path d="M674.889 24.4757L659.273 28.2697L661.206 29.2048L674.889 24.4757Z" fill="url(#paint53_linear_1301_4604)" fill-opacity="0.2"/>
<path d="M683.83 60.0174L682.215 64.0743L686.372 61.1343L683.83 60.0174ZM652.85 81.1092L655.505 82.151L659.28 81.4663L652.85 81.1092ZM661.127 104.117L663.755 105.077L663.722 91.5959L661.127 104.117ZM666.357 78.4115L662.909 80.2056L668.963 79.4628L666.357 78.4115ZM674.889 24.4757L677.467 25.723L675.083 22.7951L674.889 24.4757Z" fill="url(#paint54_linear_1301_4604)" fill-opacity="0.3"/>
<path d="M674.889 24.4757L661.206 29.2048L662.99 30.4382L674.889 24.4757Z" fill="url(#paint55_linear_1301_4604)" fill-opacity="0.2"/>
<path d="M669.59 76.1269L672.187 77.1874L675.159 74.4664L669.59 76.1269Z" fill="url(#paint56_linear_1301_4604)" fill-opacity="0.3"/>
<path d="M674.889 24.4757L669.795 19.0322L663.582 15.4491L674.889 24.4757Z" fill="url(#paint57_linear_1301_4604)" fill-opacity="0.2"/>
<path d="M683.152 41.0084L685.701 42.1963L684.93 37.9262L683.152 41.0084ZM661.099 90.5889L661.127 104.117L663.722 91.5959L661.099 90.5889ZM681.151 32.7234L682.38 36.7237L683.704 33.9391L681.151 32.7234Z" fill="url(#paint58_linear_1301_4604)" fill-opacity="0.3"/>
<path d="M674.889 24.4757L662.99 30.4382L664.605 31.9486L674.889 24.4757Z" fill="url(#paint59_linear_1301_4604)" fill-opacity="0.2"/>
<path d="M672.499 21.5387L674.889 24.4757L675.083 22.7951L672.499 21.5387ZM669.59 76.1269L666.357 78.4115L672.187 77.1874L669.59 76.1269ZM672.571 73.3953L675.159 74.4664L677.844 71.3441L672.571 73.3953ZM656.635 80.4207L659.28 81.4663L662.909 80.2056L656.635 80.4207Z" fill="url(#paint60_linear_1301_4604)" fill-opacity="0.3"/>
<path d="M657.277 66.4427L628.876 83.5133L678.692 57.7592L657.277 66.4427Z" fill="url(#paint61_linear_1301_4604)" fill-opacity="0.2"/>
<path d="M683.432 45.5396L685.982 46.712L685.701 42.1963L683.432 45.5396ZM676.928 27.8077L679.502 29.0443L677.467 25.723L676.928 27.8077Z" fill="url(#paint62_linear_1301_4604)" fill-opacity="0.3"/>
<path d="M674.889 24.4757L664.605 31.9486L666.03 33.7148L674.889 24.4757Z" fill="url(#paint63_linear_1301_4604)" fill-opacity="0.2"/>
<path d="M682.38 36.7237L683.152 41.0084L684.93 37.9262L682.38 36.7237ZM656.635 80.4207L652.85 81.1092L659.28 81.4663L656.635 80.4207ZM675.265 70.2611L677.844 71.3441L680.208 67.865L675.265 70.2611Z" fill="url(#paint64_linear_1301_4604)" fill-opacity="0.3"/>
<path d="M628.876 83.5133L656.635 80.4207L678.692 57.7592L628.876 83.5133ZM674.889 24.4757L672.499 21.5387L669.795 19.0322L674.889 24.4757Z" fill="url(#paint65_linear_1301_4604)" fill-opacity="0.2"/>
<path d="M683.196 50.1335L685.748 51.2898L685.982 46.712L683.196 50.1335Z" fill="url(#paint66_linear_1301_4604)" fill-opacity="0.3"/>
<path d="M674.889 24.4757L666.03 33.7148L667.245 35.7152L674.889 24.4757Z" fill="url(#paint67_linear_1301_4604)" fill-opacity="0.2"/>
<path d="M672.571 73.3953L669.59 76.1269L675.159 74.4664L672.571 73.3953ZM658.48 103.15L628.836 105.891L661.127 104.117L658.48 103.15ZM677.636 66.7689L680.208 67.865L682.215 64.0743L677.636 66.7689Z" fill="url(#paint68_linear_1301_4604)" fill-opacity="0.3"/>
<path d="M658.48 103.15L658.456 89.5746L628.86 92.4498L658.48 103.15Z" fill="url(#paint69_linear_1301_4604)" fill-opacity="0.2"/>
<path d="M682.464 54.6001L685.019 55.7405L685.748 51.2898L682.464 54.6001ZM674.889 24.4757L676.928 27.8077L677.467 25.723L674.889 24.4757ZM679.65 62.9641L682.215 64.0743L683.83 60.0174L679.65 62.9641ZM660.274 79.1543L662.909 80.2056L666.357 78.4115L660.274 79.1543ZM683.152 41.0084L683.432 45.5396L685.701 42.1963L683.152 41.0084ZM681.271 58.8924L683.83 60.0174L685.019 55.7405L681.271 58.8924Z" fill="url(#paint70_linear_1301_4604)" fill-opacity="0.3"/>
<path d="M674.889 24.4757L667.245 35.7152L668.228 37.9282L674.889 24.4757Z" fill="url(#paint71_linear_1301_4604)" fill-opacity="0.2"/>
<path d="M678.581 31.4988L681.151 32.7234L679.502 29.0443L678.581 31.4988ZM675.265 70.2611L672.571 73.3953L677.844 71.3441L675.265 70.2611Z" fill="url(#paint72_linear_1301_4604)" fill-opacity="0.3"/>
<path d="M674.889 24.4757L668.228 37.9282L668.958 40.3318L674.889 24.4757Z" fill="url(#paint73_linear_1301_4604)" fill-opacity="0.2"/>
<path d="M660.274 79.1543L656.635 80.4207L662.909 80.2056L660.274 79.1543ZM683.432 45.5396L683.196 50.1335L685.982 46.712L683.432 45.5396ZM677.636 66.7689L675.265 70.2611L680.208 67.865L677.636 66.7689Z" fill="url(#paint74_linear_1301_4604)" fill-opacity="0.3"/>
<path d="M674.889 24.4757L668.958 40.3318L669.415 42.9039L674.889 24.4757Z" fill="url(#paint75_linear_1301_4604)" fill-opacity="0.2"/>
<path d="M663.733 77.3526L666.357 78.4115L669.59 76.1269L663.733 77.3526ZM683.196 50.1335L682.464 54.6001L685.748 51.2898L683.196 50.1335ZM676.928 27.8077L678.581 31.4988L679.502 29.0443L676.928 27.8077Z" fill="url(#paint76_linear_1301_4604)" fill-opacity="0.3"/>
<path d="M674.889 24.4757L669.415 42.9039L669.578 45.6221L674.889 24.4757Z" fill="url(#paint77_linear_1301_4604)" fill-opacity="0.2"/>
<path d="M679.65 62.9641L677.636 66.7689L682.215 64.0743L679.65 62.9641ZM679.811 35.5126L682.38 36.7237L681.151 32.7234L679.811 35.5126ZM682.464 54.6001L681.271 58.8924L685.019 55.7405L682.464 54.6001ZM681.271 58.8924L679.65 62.9641L683.83 60.0174L681.271 58.8924Z" fill="url(#paint78_linear_1301_4604)" fill-opacity="0.3"/>
<path d="M674.889 24.4757L669.578 45.6221L669.432 48.3767L674.889 24.4757Z" fill="url(#paint79_linear_1301_4604)" fill-opacity="0.2"/>
<path d="M658.48 103.15L661.127 104.117L661.099 90.5889L658.48 103.15Z" fill="url(#paint80_linear_1301_4604)" fill-opacity="0.3"/>
<path d="M674.889 24.4757L669.432 48.3767L668.991 51.0545L674.889 24.4757Z" fill="url(#paint81_linear_1301_4604)" fill-opacity="0.2"/>
<path d="M663.733 77.3526L660.274 79.1543L666.357 78.4115L663.733 77.3526ZM666.975 75.0587L669.59 76.1269L672.571 73.3953L666.975 75.0587Z" fill="url(#paint82_linear_1301_4604)" fill-opacity="0.3"/>
<path d="M678.581 31.4988L676.928 27.8077L674.889 24.4757L678.581 31.4988ZM659.344 65.357L657.277 66.4427L678.692 57.7592L659.344 65.357Z" fill="url(#paint83_linear_1301_4604)" fill-opacity="0.2"/>
<path d="M680.584 39.8118L683.152 41.0084L682.38 36.7237L680.584 39.8118ZM658.456 89.5746L658.48 103.15L661.099 90.5889L658.456 89.5746ZM678.581 31.4988L679.811 35.5126L681.151 32.7234L678.581 31.4988Z" fill="url(#paint84_linear_1301_4604)" fill-opacity="0.3"/>
<path d="M656.635 80.4207L660.274 79.1543L663.733 77.3526L656.635 80.4207ZM661.28 63.9787L659.344 65.357L678.692 57.7592L661.28 63.9787Z" fill="url(#paint85_linear_1301_4604)" fill-opacity="0.2"/>
<path d="M666.975 75.0587L663.733 77.3526L669.59 76.1269L666.975 75.0587ZM669.964 72.3164L672.571 73.3953L675.265 70.2611L669.964 72.3164Z" fill="url(#paint86_linear_1301_4604)" fill-opacity="0.3"/>
<path d="M663.065 62.3342L661.28 63.9787L678.692 57.7592L663.065 62.3342Z" fill="url(#paint87_linear_1301_4604)" fill-opacity="0.2"/>
<path d="M680.864 44.3588L683.432 45.5396L683.152 41.0084L680.864 44.3588Z" fill="url(#paint88_linear_1301_4604)" fill-opacity="0.3"/>
<path d="M680.584 39.8118L678.581 31.4988L674.889 24.4757L680.584 39.8118ZM664.678 60.4501L663.065 62.3342L678.692 57.7592L664.678 60.4501Z" fill="url(#paint89_linear_1301_4604)" fill-opacity="0.2"/>
<path d="M679.811 35.5126L680.584 39.8118L682.38 36.7237L679.811 35.5126Z" fill="url(#paint90_linear_1301_4604)" fill-opacity="0.3"/>
<path d="M678.692 57.7592L674.889 24.4757L668.991 51.0545L678.692 57.7592ZM656.635 80.4207L663.733 77.3526L669.964 72.3164L656.635 80.4207Z" fill="url(#paint91_linear_1301_4604)" fill-opacity="0.2"/>
<path d="M672.667 69.1701L675.265 70.2611L677.636 66.7689L672.667 69.1701Z" fill="url(#paint92_linear_1301_4604)" fill-opacity="0.3"/>
<path d="M666.097 58.353L664.678 60.4501L678.692 57.7592L666.097 58.353Z" fill="url(#paint93_linear_1301_4604)" fill-opacity="0.2"/>
<path d="M680.625 48.9689L683.196 50.1335L683.432 45.5396L680.625 48.9689Z" fill="url(#paint94_linear_1301_4604)" fill-opacity="0.3"/>
<path d="M667.303 56.07L666.097 58.353L678.692 57.7592L667.303 56.07Z" fill="url(#paint95_linear_1301_4604)" fill-opacity="0.2"/>
<path d="M669.964 72.3164L666.975 75.0587L672.571 73.3953L669.964 72.3164Z" fill="url(#paint96_linear_1301_4604)" fill-opacity="0.3"/>
<path d="M668.275 53.6281L667.303 56.07L678.692 57.7592L668.275 53.6281ZM668.991 51.0545L668.275 53.6281L678.692 57.7592L668.991 51.0545Z" fill="url(#paint97_linear_1301_4604)" fill-opacity="0.2"/>
<path d="M675.045 65.6648L677.636 66.7689L679.65 62.9641L675.045 65.6648ZM679.89 53.4513L682.464 54.6001L683.196 50.1335L679.89 53.4513ZM677.066 61.8458L679.65 62.9641L681.271 58.8924L677.066 61.8458ZM680.584 39.8118L680.864 44.3588L683.152 41.0084L680.584 39.8118ZM678.692 57.7592L681.271 58.8924L682.464 54.6001L678.692 57.7592Z" fill="url(#paint98_linear_1301_4604)" fill-opacity="0.3"/>
<path d="M680.584 39.8118L679.811 35.5126L678.581 31.4988L680.584 39.8118ZM678.692 57.7592L680.584 39.8118L674.889 24.4757L678.692 57.7592Z" fill="url(#paint99_linear_1301_4604)" fill-opacity="0.2"/>
<path d="M672.667 69.1701L669.964 72.3164L675.265 70.2611L672.667 69.1701Z" fill="url(#paint100_linear_1301_4604)" fill-opacity="0.3"/>
<path d="M656.635 80.4207L669.964 72.3164L678.692 57.7592L656.635 80.4207ZM663.733 77.3526L666.975 75.0587L669.964 72.3164L663.733 77.3526Z" fill="url(#paint101_linear_1301_4604)" fill-opacity="0.2"/>
<path d="M680.864 44.3588L680.625 48.9689L683.432 45.5396L680.864 44.3588ZM675.045 65.6648L672.667 69.1701L677.636 66.7689L675.045 65.6648ZM680.625 48.9689L679.89 53.4513L683.196 50.1335L680.625 48.9689ZM677.066 61.8458L675.045 65.6648L679.65 62.9641L677.066 61.8458ZM679.89 53.4513L678.692 57.7592L682.464 54.6001L679.89 53.4513ZM678.692 57.7592L677.066 61.8458L681.271 58.8924L678.692 57.7592Z" fill="url(#paint102_linear_1301_4604)" fill-opacity="0.3"/>
<path d="M680.625 48.9689L680.864 44.3588L680.584 39.8118L680.625 48.9689ZM669.964 72.3164L672.667 69.1701L675.045 65.6648L669.964 72.3164ZM678.692 57.7592L680.625 48.9689L680.584 39.8118L678.692 57.7592ZM669.964 72.3164L675.045 65.6648L678.692 57.7592L669.964 72.3164ZM675.045 65.6648L677.066 61.8458L678.692 57.7592L675.045 65.6648ZM678.692 57.7592L679.89 53.4513L680.625 48.9689L678.692 57.7592Z" fill="url(#paint103_linear_1301_4604)" fill-opacity="0.2"/>
</g>
<g filter="url(#filter3_f_1301_4604)">
<ellipse cx="303.479" cy="27.7411" rx="303.479" ry="27.7411" transform="matrix(0.999846 -0.0175348 0.589594 0.8077 170.031 178.307)" fill="#37779D"/>
</g>
</g>
<rect x="0.25" y="0.25" width="759.5" height="119.5" rx="4.75" stroke="url(#paint104_linear_1301_4604)" stroke-width="0.5"/>
</g>
<defs>
<filter id="filter0_b_1301_4604" x="-5" y="-5" width="770" height="130" filterUnits="userSpaceOnUse" color-interpolation-filters="sRGB">
<feFlood flood-opacity="0" result="BackgroundImageFix"/>
<feGaussianBlur in="BackgroundImageFix" stdDeviation="2.5"/>
<feComposite in2="SourceAlpha" operator="in" result="effect1_backgroundBlur_1301_4604"/>
<feBlend mode="normal" in="SourceGraphic" in2="effect1_backgroundBlur_1301_4604" result="shape"/>
</filter>
<filter id="filter1_f_1301_4604" x="402.229" y="-17.9747" width="531.858" height="450.173" filterUnits="userSpaceOnUse" color-interpolation-filters="sRGB">
<feFlood flood-opacity="0" result="BackgroundImageFix"/>
<feBlend mode="normal" in="SourceGraphic" in2="BackgroundImageFix" result="shape"/>
<feGaussianBlur stdDeviation="75" result="effect1_foregroundBlur_1301_4604"/>
</filter>
<filter id="filter2_f_1301_4604" x="-161.382" y="87.1912" width="619.829" height="359.048" filterUnits="userSpaceOnUse" color-interpolation-filters="sRGB">
<feFlood flood-opacity="0" result="BackgroundImageFix"/>
<feBlend mode="normal" in="SourceGraphic" in2="BackgroundImageFix" result="shape"/>
<feGaussianBlur stdDeviation="75" result="effect1_foregroundBlur_1301_4604"/>
</filter>
<filter id="filter3_f_1301_4604" x="35.9388" y="22.3567" width="907.762" height="346.07" filterUnits="userSpaceOnUse" color-interpolation-filters="sRGB">
<feFlood flood-opacity="0" result="BackgroundImageFix"/>
<feBlend mode="normal" in="SourceGraphic" in2="BackgroundImageFix" result="shape"/>
<feGaussianBlur stdDeviation="75" result="effect1_foregroundBlur_1301_4604"/>
</filter>
<linearGradient id="paint0_linear_1301_4604" x1="651.5" y1="14" x2="651.5" y2="130" gradientUnits="userSpaceOnUse">
<stop stop-color="#121212"/>
<stop offset="0.07" stop-color="#C6C6C6"/>
<stop offset="0.125" stop-color="#646464"/>
<stop offset="0.25" stop-color="#3E3E3E"/>
<stop offset="0.48" stop-color="#232323"/>
<stop offset="0.57" stop-color="#7C7C7C"/>
<stop offset="0.68" stop-color="#2F2F2F"/>
<stop offset="0.815" stop-color="#606060"/>
<stop offset="1" stop-color="#262626"/>
</linearGradient>
<linearGradient id="paint1_linear_1301_4604" x1="612.006" y1="-1.66002" x2="712.103" y2="15.2053" gradientUnits="userSpaceOnUse">
<stop stop-color="#727272"/>
<stop offset="0.19" stop-color="#B1B1B1"/>
<stop offset="0.5" stop-color="white"/>
<stop offset="0.76" stop-color="#A4A4A4"/>
<stop offset="1" stop-color="#424242"/>
</linearGradient>
<linearGradient id="paint2_linear_1301_4604" x1="651.5" y1="14" x2="651.5" y2="130" gradientUnits="userSpaceOnUse">
<stop stop-color="#121212"/>
<stop offset="0.07" stop-color="#C6C6C6"/>
<stop offset="0.125" stop-color="#646464"/>
<stop offset="0.25" stop-color="#3E3E3E"/>
<stop offset="0.48" stop-color="#232323"/>
<stop offset="0.57" stop-color="#7C7C7C"/>
<stop offset="0.68" stop-color="#2F2F2F"/>
<stop offset="0.815" stop-color="#606060"/>
<stop offset="1" stop-color="#262626"/>
</linearGradient>
<linearGradient id="paint3_linear_1301_4604" x1="612.006" y1="-1.66002" x2="712.103" y2="15.2053" gradientUnits="userSpaceOnUse">
<stop stop-color="#727272"/>
<stop offset="0.19" stop-color="#B1B1B1"/>
<stop offset="0.5" stop-color="white"/>
<stop offset="0.76" stop-color="#A4A4A4"/>
<stop offset="1" stop-color="#424242"/>
</linearGradient>
<linearGradient id="paint4_linear_1301_4604" x1="651.5" y1="14" x2="651.5" y2="130" gradientUnits="userSpaceOnUse">
<stop stop-color="#121212"/>
<stop offset="0.07" stop-color="#C6C6C6"/>
<stop offset="0.125" stop-color="#646464"/>
<stop offset="0.25" stop-color="#3E3E3E"/>
<stop offset="0.48" stop-color="#232323"/>
<stop offset="0.57" stop-color="#7C7C7C"/>
<stop offset="0.68" stop-color="#2F2F2F"/>
<stop offset="0.815" stop-color="#606060"/>
<stop offset="1" stop-color="#262626"/>
</linearGradient>
<linearGradient id="paint5_linear_1301_4604" x1="612.006" y1="-1.66002" x2="712.103" y2="15.2053" gradientUnits="userSpaceOnUse">
<stop stop-color="#727272"/>
<stop offset="0.19" stop-color="#B1B1B1"/>
<stop offset="0.5" stop-color="white"/>
<stop offset="0.76" stop-color="#A4A4A4"/>
<stop offset="1" stop-color="#424242"/>
</linearGradient>
<linearGradient id="paint6_linear_1301_4604" x1="651.5" y1="14" x2="651.5" y2="130" gradientUnits="userSpaceOnUse">
<stop stop-color="#121212"/>
<stop offset="0.07" stop-color="#C6C6C6"/>
<stop offset="0.125" stop-color="#646464"/>
<stop offset="0.25" stop-color="#3E3E3E"/>
<stop offset="0.48" stop-color="#232323"/>
<stop offset="0.57" stop-color="#7C7C7C"/>
<stop offset="0.68" stop-color="#2F2F2F"/>
<stop offset="0.815" stop-color="#606060"/>
<stop offset="1" stop-color="#262626"/>
</linearGradient>
<linearGradient id="paint7_linear_1301_4604" x1="612.006" y1="-1.66002" x2="712.103" y2="15.2053" gradientUnits="userSpaceOnUse">
<stop stop-color="#727272"/>
<stop offset="0.19" stop-color="#B1B1B1"/>
<stop offset="0.5" stop-color="white"/>
<stop offset="0.76" stop-color="#A4A4A4"/>
<stop offset="1" stop-color="#424242"/>
</linearGradient>
<linearGradient id="paint8_linear_1301_4604" x1="651.5" y1="14" x2="651.5" y2="130" gradientUnits="userSpaceOnUse">
<stop stop-color="#121212"/>
<stop offset="0.07" stop-color="#C6C6C6"/>
<stop offset="0.125" stop-color="#646464"/>
<stop offset="0.25" stop-color="#3E3E3E"/>
<stop offset="0.48" stop-color="#232323"/>
<stop offset="0.57" stop-color="#7C7C7C"/>
<stop offset="0.68" stop-color="#2F2F2F"/>
<stop offset="0.815" stop-color="#606060"/>
<stop offset="1" stop-color="#262626"/>
</linearGradient>
<linearGradient id="paint9_linear_1301_4604" x1="612.006" y1="-1.66002" x2="712.103" y2="15.2053" gradientUnits="userSpaceOnUse">
<stop stop-color="#727272"/>
<stop offset="0.19" stop-color="#B1B1B1"/>
<stop offset="0.5" stop-color="white"/>
<stop offset="0.76" stop-color="#A4A4A4"/>
<stop offset="1" stop-color="#424242"/>
</linearGradient>
<linearGradient id="paint10_linear_1301_4604" x1="651.5" y1="14" x2="651.5" y2="130" gradientUnits="userSpaceOnUse">
<stop stop-color="#121212"/>
<stop offset="0.07" stop-color="#C6C6C6"/>
<stop offset="0.125" stop-color="#646464"/>
<stop offset="0.25" stop-color="#3E3E3E"/>
<stop offset="0.48" stop-color="#232323"/>
<stop offset="0.57" stop-color="#7C7C7C"/>
<stop offset="0.68" stop-color="#2F2F2F"/>
<stop offset="0.815" stop-color="#606060"/>
<stop offset="1" stop-color="#262626"/>
</linearGradient>
<linearGradient id="paint11_linear_1301_4604" x1="612.006" y1="-1.66002" x2="712.103" y2="15.2053" gradientUnits="userSpaceOnUse">
<stop stop-color="#727272"/>
<stop offset="0.19" stop-color="#B1B1B1"/>
<stop offset="0.5" stop-color="white"/>
<stop offset="0.76" stop-color="#A4A4A4"/>
<stop offset="1" stop-color="#424242"/>
</linearGradient>
<linearGradient id="paint12_linear_1301_4604" x1="651.5" y1="14" x2="651.5" y2="130" gradientUnits="userSpaceOnUse">
<stop stop-color="#121212"/>
<stop offset="0.07" stop-color="#C6C6C6"/>
<stop offset="0.125" stop-color="#646464"/>
<stop offset="0.25" stop-color="#3E3E3E"/>
<stop offset="0.48" stop-color="#232323"/>
<stop offset="0.57" stop-color="#7C7C7C"/>
<stop offset="0.68" stop-color="#2F2F2F"/>
<stop offset="0.815" stop-color="#606060"/>
<stop offset="1" stop-color="#262626"/>
</linearGradient>
<linearGradient id="paint13_linear_1301_4604" x1="612.006" y1="-1.66002" x2="712.103" y2="15.2053" gradientUnits="userSpaceOnUse">
<stop stop-color="#727272"/>
<stop offset="0.19" stop-color="#B1B1B1"/>
<stop offset="0.5" stop-color="white"/>
<stop offset="0.76" stop-color="#A4A4A4"/>
<stop offset="1" stop-color="#424242"/>
</linearGradient>
<linearGradient id="paint14_linear_1301_4604" x1="651.5" y1="14" x2="651.5" y2="130" gradientUnits="userSpaceOnUse">
<stop stop-color="#121212"/>
<stop offset="0.07" stop-color="#C6C6C6"/>
<stop offset="0.125" stop-color="#646464"/>
<stop offset="0.25" stop-color="#3E3E3E"/>
<stop offset="0.48" stop-color="#232323"/>
<stop offset="0.57" stop-color="#7C7C7C"/>
<stop offset="0.68" stop-color="#2F2F2F"/>
<stop offset="0.815" stop-color="#606060"/>
<stop offset="1" stop-color="#262626"/>
</linearGradient>
<linearGradient id="paint15_linear_1301_4604" x1="612.006" y1="-1.66002" x2="712.103" y2="15.2053" gradientUnits="userSpaceOnUse">
<stop stop-color="#727272"/>
<stop offset="0.19" stop-color="#B1B1B1"/>
<stop offset="0.5" stop-color="white"/>
<stop offset="0.76" stop-color="#A4A4A4"/>
<stop offset="1" stop-color="#424242"/>
</linearGradient>
<linearGradient id="paint16_linear_1301_4604" x1="651.5" y1="14" x2="651.5" y2="130" gradientUnits="userSpaceOnUse">
<stop stop-color="#121212"/>
<stop offset="0.07" stop-color="#C6C6C6"/>
<stop offset="0.125" stop-color="#646464"/>
<stop offset="0.25" stop-color="#3E3E3E"/>
<stop offset="0.48" stop-color="#232323"/>
<stop offset="0.57" stop-color="#7C7C7C"/>
<stop offset="0.68" stop-color="#2F2F2F"/>
<stop offset="0.815" stop-color="#606060"/>
<stop offset="1" stop-color="#262626"/>
</linearGradient>
<linearGradient id="paint17_linear_1301_4604" x1="612.006" y1="-1.66002" x2="712.103" y2="15.2053" gradientUnits="userSpaceOnUse">
<stop stop-color="#727272"/>
<stop offset="0.19" stop-color="#B1B1B1"/>
<stop offset="0.5" stop-color="white"/>
<stop offset="0.76" stop-color="#A4A4A4"/>
<stop offset="1" stop-color="#424242"/>
</linearGradient>
<linearGradient id="paint18_linear_1301_4604" x1="651.5" y1="14" x2="651.5" y2="130" gradientUnits="userSpaceOnUse">
<stop stop-color="#121212"/>
<stop offset="0.07" stop-color="#C6C6C6"/>
<stop offset="0.125" stop-color="#646464"/>
<stop offset="0.25" stop-color="#3E3E3E"/>
<stop offset="0.48" stop-color="#232323"/>
<stop offset="0.57" stop-color="#7C7C7C"/>
<stop offset="0.68" stop-color="#2F2F2F"/>
<stop offset="0.815" stop-color="#606060"/>
<stop offset="1" stop-color="#262626"/>
</linearGradient>
<linearGradient id="paint19_linear_1301_4604" x1="612.006" y1="-1.66002" x2="712.103" y2="15.2053" gradientUnits="userSpaceOnUse">
<stop stop-color="#727272"/>
<stop offset="0.19" stop-color="#B1B1B1"/>
<stop offset="0.5" stop-color="white"/>
<stop offset="0.76" stop-color="#A4A4A4"/>
<stop offset="1" stop-color="#424242"/>
</linearGradient>
<linearGradient id="paint20_linear_1301_4604" x1="651.5" y1="14" x2="651.5" y2="130" gradientUnits="userSpaceOnUse">
<stop stop-color="#121212"/>
<stop offset="0.07" stop-color="#C6C6C6"/>
<stop offset="0.125" stop-color="#646464"/>
<stop offset="0.25" stop-color="#3E3E3E"/>
<stop offset="0.48" stop-color="#232323"/>
<stop offset="0.57" stop-color="#7C7C7C"/>
<stop offset="0.68" stop-color="#2F2F2F"/>
<stop offset="0.815" stop-color="#606060"/>
<stop offset="1" stop-color="#262626"/>
</linearGradient>
<linearGradient id="paint21_linear_1301_4604" x1="612.006" y1="-1.66002" x2="712.103" y2="15.2053" gradientUnits="userSpaceOnUse">
<stop stop-color="#727272"/>
<stop offset="0.19" stop-color="#B1B1B1"/>
<stop offset="0.5" stop-color="white"/>
<stop offset="0.76" stop-color="#A4A4A4"/>
<stop offset="1" stop-color="#424242"/>
</linearGradient>
<linearGradient id="paint22_linear_1301_4604" x1="651.5" y1="14" x2="651.5" y2="130" gradientUnits="userSpaceOnUse">
<stop stop-color="#121212"/>
<stop offset="0.07" stop-color="#C6C6C6"/>
<stop offset="0.125" stop-color="#646464"/>
<stop offset="0.25" stop-color="#3E3E3E"/>
<stop offset="0.48" stop-color="#232323"/>
<stop offset="0.57" stop-color="#7C7C7C"/>
<stop offset="0.68" stop-color="#2F2F2F"/>
<stop offset="0.815" stop-color="#606060"/>
<stop offset="1" stop-color="#262626"/>
</linearGradient>
<linearGradient id="paint23_linear_1301_4604" x1="612.006" y1="-1.66002" x2="712.103" y2="15.2053" gradientUnits="userSpaceOnUse">
<stop stop-color="#727272"/>
<stop offset="0.19" stop-color="#B1B1B1"/>
<stop offset="0.5" stop-color="white"/>
<stop offset="0.76" stop-color="#A4A4A4"/>
<stop offset="1" stop-color="#424242"/>
</linearGradient>
<linearGradient id="paint24_linear_1301_4604" x1="651.5" y1="14" x2="651.5" y2="130" gradientUnits="userSpaceOnUse">
<stop stop-color="#121212"/>
<stop offset="0.07" stop-color="#C6C6C6"/>
<stop offset="0.125" stop-color="#646464"/>
<stop offset="0.25" stop-color="#3E3E3E"/>
<stop offset="0.48" stop-color="#232323"/>
<stop offset="0.57" stop-color="#7C7C7C"/>
<stop offset="0.68" stop-color="#2F2F2F"/>
<stop offset="0.815" stop-color="#606060"/>
<stop offset="1" stop-color="#262626"/>
</linearGradient>
<linearGradient id="paint25_linear_1301_4604" x1="612.006" y1="-1.66002" x2="712.103" y2="15.2053" gradientUnits="userSpaceOnUse">
<stop stop-color="#727272"/>
<stop offset="0.19" stop-color="#B1B1B1"/>
<stop offset="0.5" stop-color="white"/>
<stop offset="0.76" stop-color="#A4A4A4"/>
<stop offset="1" stop-color="#424242"/>
</linearGradient>
<linearGradient id="paint26_linear_1301_4604" x1="651.5" y1="14" x2="651.5" y2="130" gradientUnits="userSpaceOnUse">
<stop stop-color="#121212"/>
<stop offset="0.07" stop-color="#C6C6C6"/>
<stop offset="0.125" stop-color="#646464"/>
<stop offset="0.25" stop-color="#3E3E3E"/>
<stop offset="0.48" stop-color="#232323"/>
<stop offset="0.57" stop-color="#7C7C7C"/>
<stop offset="0.68" stop-color="#2F2F2F"/>
<stop offset="0.815" stop-color="#606060"/>
<stop offset="1" stop-color="#262626"/>
</linearGradient>
<linearGradient id="paint27_linear_1301_4604" x1="612.006" y1="-1.66002" x2="712.103" y2="15.2053" gradientUnits="userSpaceOnUse">
<stop stop-color="#727272"/>
<stop offset="0.19" stop-color="#B1B1B1"/>
<stop offset="0.5" stop-color="white"/>
<stop offset="0.76" stop-color="#A4A4A4"/>
<stop offset="1" stop-color="#424242"/>
</linearGradient>
<linearGradient id="paint28_linear_1301_4604" x1="651.5" y1="14" x2="651.5" y2="130" gradientUnits="userSpaceOnUse">
<stop stop-color="#121212"/>
<stop offset="0.07" stop-color="#C6C6C6"/>
<stop offset="0.125" stop-color="#646464"/>
<stop offset="0.25" stop-color="#3E3E3E"/>
<stop offset="0.48" stop-color="#232323"/>
<stop offset="0.57" stop-color="#7C7C7C"/>
<stop offset="0.68" stop-color="#2F2F2F"/>
<stop offset="0.815" stop-color="#606060"/>
<stop offset="1" stop-color="#262626"/>
</linearGradient>
<linearGradient id="paint29_linear_1301_4604" x1="612.006" y1="-1.66002" x2="712.103" y2="15.2053" gradientUnits="userSpaceOnUse">
<stop stop-color="#727272"/>
<stop offset="0.19" stop-color="#B1B1B1"/>
<stop offset="0.5" stop-color="white"/>
<stop offset="0.76" stop-color="#A4A4A4"/>
<stop offset="1" stop-color="#424242"/>
</linearGradient>
<linearGradient id="paint30_linear_1301_4604" x1="651.5" y1="14" x2="651.5" y2="130" gradientUnits="userSpaceOnUse">
<stop stop-color="#121212"/>
<stop offset="0.07" stop-color="#C6C6C6"/>
<stop offset="0.125" stop-color="#646464"/>
<stop offset="0.25" stop-color="#3E3E3E"/>
<stop offset="0.48" stop-color="#232323"/>
<stop offset="0.57" stop-color="#7C7C7C"/>
<stop offset="0.68" stop-color="#2F2F2F"/>
<stop offset="0.815" stop-color="#606060"/>
<stop offset="1" stop-color="#262626"/>
</linearGradient>
<linearGradient id="paint31_linear_1301_4604" x1="612.006" y1="-1.66002" x2="712.103" y2="15.2053" gradientUnits="userSpaceOnUse">
<stop stop-color="#727272"/>
<stop offset="0.19" stop-color="#B1B1B1"/>
<stop offset="0.5" stop-color="white"/>
<stop offset="0.76" stop-color="#A4A4A4"/>
<stop offset="1" stop-color="#424242"/>
</linearGradient>
<linearGradient id="paint32_linear_1301_4604" x1="651.5" y1="14" x2="651.5" y2="130" gradientUnits="userSpaceOnUse">
<stop stop-color="#121212"/>
<stop offset="0.07" stop-color="#C6C6C6"/>
<stop offset="0.125" stop-color="#646464"/>
<stop offset="0.25" stop-color="#3E3E3E"/>
<stop offset="0.48" stop-color="#232323"/>
<stop offset="0.57" stop-color="#7C7C7C"/>
<stop offset="0.68" stop-color="#2F2F2F"/>
<stop offset="0.815" stop-color="#606060"/>
<stop offset="1" stop-color="#262626"/>
</linearGradient>
<linearGradient id="paint33_linear_1301_4604" x1="612.006" y1="-1.66002" x2="712.103" y2="15.2053" gradientUnits="userSpaceOnUse">
<stop stop-color="#727272"/>
<stop offset="0.19" stop-color="#B1B1B1"/>
<stop offset="0.5" stop-color="white"/>
<stop offset="0.76" stop-color="#A4A4A4"/>
<stop offset="1" stop-color="#424242"/>
</linearGradient>
<linearGradient id="paint34_linear_1301_4604" x1="651.5" y1="14" x2="651.5" y2="130" gradientUnits="userSpaceOnUse">
<stop stop-color="#121212"/>
<stop offset="0.07" stop-color="#C6C6C6"/>
<stop offset="0.125" stop-color="#646464"/>
<stop offset="0.25" stop-color="#3E3E3E"/>
<stop offset="0.48" stop-color="#232323"/>
<stop offset="0.57" stop-color="#7C7C7C"/>
<stop offset="0.68" stop-color="#2F2F2F"/>
<stop offset="0.815" stop-color="#606060"/>
<stop offset="1" stop-color="#262626"/>
</linearGradient>
<linearGradient id="paint35_linear_1301_4604" x1="612.006" y1="-1.66002" x2="712.103" y2="15.2053" gradientUnits="userSpaceOnUse">
<stop stop-color="#727272"/>
<stop offset="0.19" stop-color="#B1B1B1"/>
<stop offset="0.5" stop-color="white"/>
<stop offset="0.76" stop-color="#A4A4A4"/>
<stop offset="1" stop-color="#424242"/>
</linearGradient>
<linearGradient id="paint36_linear_1301_4604" x1="651.5" y1="14" x2="651.5" y2="130" gradientUnits="userSpaceOnUse">
<stop stop-color="#121212"/>
<stop offset="0.07" stop-color="#C6C6C6"/>
<stop offset="0.125" stop-color="#646464"/>
<stop offset="0.25" stop-color="#3E3E3E"/>
<stop offset="0.48" stop-color="#232323"/>
<stop offset="0.57" stop-color="#7C7C7C"/>
<stop offset="0.68" stop-color="#2F2F2F"/>
<stop offset="0.815" stop-color="#606060"/>
<stop offset="1" stop-color="#262626"/>
</linearGradient>
<linearGradient id="paint37_linear_1301_4604" x1="612.006" y1="-1.66002" x2="712.103" y2="15.2053" gradientUnits="userSpaceOnUse">
<stop stop-color="#727272"/>
<stop offset="0.19" stop-color="#B1B1B1"/>
<stop offset="0.5" stop-color="white"/>
<stop offset="0.76" stop-color="#A4A4A4"/>
<stop offset="1" stop-color="#424242"/>
</linearGradient>
<linearGradient id="paint38_linear_1301_4604" x1="651.5" y1="14" x2="651.5" y2="130" gradientUnits="userSpaceOnUse">
<stop stop-color="#121212"/>
<stop offset="0.07" stop-color="#C6C6C6"/>
<stop offset="0.125" stop-color="#646464"/>
<stop offset="0.25" stop-color="#3E3E3E"/>
<stop offset="0.48" stop-color="#232323"/>
<stop offset="0.57" stop-color="#7C7C7C"/>
<stop offset="0.68" stop-color="#2F2F2F"/>
<stop offset="0.815" stop-color="#606060"/>
<stop offset="1" stop-color="#262626"/>
</linearGradient>
<linearGradient id="paint39_linear_1301_4604" x1="612.006" y1="-1.66002" x2="712.103" y2="15.2053" gradientUnits="userSpaceOnUse">
<stop stop-color="#727272"/>
<stop offset="0.19" stop-color="#B1B1B1"/>
<stop offset="0.5" stop-color="white"/>
<stop offset="0.76" stop-color="#A4A4A4"/>
<stop offset="1" stop-color="#424242"/>
</linearGradient>
<linearGradient id="paint40_linear_1301_4604" x1="651.5" y1="14" x2="651.5" y2="130" gradientUnits="userSpaceOnUse">
<stop stop-color="#121212"/>
<stop offset="0.07" stop-color="#C6C6C6"/>
<stop offset="0.125" stop-color="#646464"/>
<stop offset="0.25" stop-color="#3E3E3E"/>
<stop offset="0.48" stop-color="#232323"/>
<stop offset="0.57" stop-color="#7C7C7C"/>
<stop offset="0.68" stop-color="#2F2F2F"/>
<stop offset="0.815" stop-color="#606060"/>
<stop offset="1" stop-color="#262626"/>
</linearGradient>
<linearGradient id="paint41_linear_1301_4604" x1="612.006" y1="-1.66002" x2="712.103" y2="15.2053" gradientUnits="userSpaceOnUse">
<stop stop-color="#727272"/>
<stop offset="0.19" stop-color="#B1B1B1"/>
<stop offset="0.5" stop-color="white"/>
<stop offset="0.76" stop-color="#A4A4A4"/>
<stop offset="1" stop-color="#424242"/>
</linearGradient>
<linearGradient id="paint42_linear_1301_4604" x1="651.5" y1="14" x2="651.5" y2="130" gradientUnits="userSpaceOnUse">
<stop stop-color="#121212"/>
<stop offset="0.07" stop-color="#C6C6C6"/>
<stop offset="0.125" stop-color="#646464"/>
<stop offset="0.25" stop-color="#3E3E3E"/>
<stop offset="0.48" stop-color="#232323"/>
<stop offset="0.57" stop-color="#7C7C7C"/>
<stop offset="0.68" stop-color="#2F2F2F"/>
<stop offset="0.815" stop-color="#606060"/>
<stop offset="1" stop-color="#262626"/>
</linearGradient>
<linearGradient id="paint43_linear_1301_4604" x1="612.006" y1="-1.66002" x2="712.103" y2="15.2053" gradientUnits="userSpaceOnUse">
<stop stop-color="#727272"/>
<stop offset="0.19" stop-color="#B1B1B1"/>
<stop offset="0.5" stop-color="white"/>
<stop offset="0.76" stop-color="#A4A4A4"/>
<stop offset="1" stop-color="#424242"/>
</linearGradient>
<linearGradient id="paint44_linear_1301_4604" x1="651.5" y1="14" x2="651.5" y2="130" gradientUnits="userSpaceOnUse">
<stop stop-color="#121212"/>
<stop offset="0.07" stop-color="#C6C6C6"/>
<stop offset="0.125" stop-color="#646464"/>
<stop offset="0.25" stop-color="#3E3E3E"/>
<stop offset="0.48" stop-color="#232323"/>
<stop offset="0.57" stop-color="#7C7C7C"/>
<stop offset="0.68" stop-color="#2F2F2F"/>
<stop offset="0.815" stop-color="#606060"/>
<stop offset="1" stop-color="#262626"/>
</linearGradient>
<linearGradient id="paint45_linear_1301_4604" x1="612.006" y1="-1.66002" x2="712.103" y2="15.2053" gradientUnits="userSpaceOnUse">
<stop stop-color="#727272"/>
<stop offset="0.19" stop-color="#B1B1B1"/>
<stop offset="0.5" stop-color="white"/>
<stop offset="0.76" stop-color="#A4A4A4"/>
<stop offset="1" stop-color="#424242"/>
</linearGradient>
<linearGradient id="paint46_linear_1301_4604" x1="651.5" y1="14" x2="651.5" y2="130" gradientUnits="userSpaceOnUse">
<stop stop-color="#121212"/>
<stop offset="0.07" stop-color="#C6C6C6"/>
<stop offset="0.125" stop-color="#646464"/>
<stop offset="0.25" stop-color="#3E3E3E"/>
<stop offset="0.48" stop-color="#232323"/>
<stop offset="0.57" stop-color="#7C7C7C"/>
<stop offset="0.68" stop-color="#2F2F2F"/>
<stop offset="0.815" stop-color="#606060"/>
<stop offset="1" stop-color="#262626"/>
</linearGradient>
<linearGradient id="paint47_linear_1301_4604" x1="612.006" y1="-1.66002" x2="712.103" y2="15.2053" gradientUnits="userSpaceOnUse">
<stop stop-color="#727272"/>
<stop offset="0.19" stop-color="#B1B1B1"/>
<stop offset="0.5" stop-color="white"/>
<stop offset="0.76" stop-color="#A4A4A4"/>
<stop offset="1" stop-color="#424242"/>
</linearGradient>
<linearGradient id="paint48_linear_1301_4604" x1="651.5" y1="14" x2="651.5" y2="130" gradientUnits="userSpaceOnUse">
<stop stop-color="#121212"/>
<stop offset="0.07" stop-color="#C6C6C6"/>
<stop offset="0.125" stop-color="#646464"/>
<stop offset="0.25" stop-color="#3E3E3E"/>
<stop offset="0.48" stop-color="#232323"/>
<stop offset="0.57" stop-color="#7C7C7C"/>
<stop offset="0.68" stop-color="#2F2F2F"/>
<stop offset="0.815" stop-color="#606060"/>
<stop offset="1" stop-color="#262626"/>
</linearGradient>
<linearGradient id="paint49_linear_1301_4604" x1="612.006" y1="-1.66002" x2="712.103" y2="15.2053" gradientUnits="userSpaceOnUse">
<stop stop-color="#727272"/>
<stop offset="0.19" stop-color="#B1B1B1"/>
<stop offset="0.5" stop-color="white"/>
<stop offset="0.76" stop-color="#A4A4A4"/>
<stop offset="1" stop-color="#424242"/>
</linearGradient>
<linearGradient id="paint50_linear_1301_4604" x1="651.5" y1="14" x2="651.5" y2="130" gradientUnits="userSpaceOnUse">
<stop stop-color="#121212"/>
<stop offset="0.07" stop-color="#C6C6C6"/>
<stop offset="0.125" stop-color="#646464"/>
<stop offset="0.25" stop-color="#3E3E3E"/>
<stop offset="0.48" stop-color="#232323"/>
<stop offset="0.57" stop-color="#7C7C7C"/>
<stop offset="0.68" stop-color="#2F2F2F"/>
<stop offset="0.815" stop-color="#606060"/>
<stop offset="1" stop-color="#262626"/>
</linearGradient>
<linearGradient id="paint51_linear_1301_4604" x1="612.006" y1="-1.66002" x2="712.103" y2="15.2053" gradientUnits="userSpaceOnUse">
<stop stop-color="#727272"/>
<stop offset="0.19" stop-color="#B1B1B1"/>
<stop offset="0.5" stop-color="white"/>
<stop offset="0.76" stop-color="#A4A4A4"/>
<stop offset="1" stop-color="#424242"/>
</linearGradient>
<linearGradient id="paint52_linear_1301_4604" x1="651.5" y1="14" x2="651.5" y2="130" gradientUnits="userSpaceOnUse">
<stop stop-color="#121212"/>
<stop offset="0.07" stop-color="#C6C6C6"/>
<stop offset="0.125" stop-color="#646464"/>
<stop offset="0.25" stop-color="#3E3E3E"/>
<stop offset="0.48" stop-color="#232323"/>
<stop offset="0.57" stop-color="#7C7C7C"/>
<stop offset="0.68" stop-color="#2F2F2F"/>
<stop offset="0.815" stop-color="#606060"/>
<stop offset="1" stop-color="#262626"/>
</linearGradient>
<linearGradient id="paint53_linear_1301_4604" x1="612.006" y1="-1.66002" x2="712.103" y2="15.2053" gradientUnits="userSpaceOnUse">
<stop stop-color="#727272"/>
<stop offset="0.19" stop-color="#B1B1B1"/>
<stop offset="0.5" stop-color="white"/>
<stop offset="0.76" stop-color="#A4A4A4"/>
<stop offset="1" stop-color="#424242"/>
</linearGradient>
<linearGradient id="paint54_linear_1301_4604" x1="651.5" y1="14" x2="651.5" y2="130" gradientUnits="userSpaceOnUse">
<stop stop-color="#121212"/>
<stop offset="0.07" stop-color="#C6C6C6"/>
<stop offset="0.125" stop-color="#646464"/>
<stop offset="0.25" stop-color="#3E3E3E"/>
<stop offset="0.48" stop-color="#232323"/>
<stop offset="0.57" stop-color="#7C7C7C"/>
<stop offset="0.68" stop-color="#2F2F2F"/>
<stop offset="0.815" stop-color="#606060"/>
<stop offset="1" stop-color="#262626"/>
</linearGradient>
<linearGradient id="paint55_linear_1301_4604" x1="612.006" y1="-1.66002" x2="712.103" y2="15.2053" gradientUnits="userSpaceOnUse">
<stop stop-color="#727272"/>
<stop offset="0.19" stop-color="#B1B1B1"/>
<stop offset="0.5" stop-color="white"/>
<stop offset="0.76" stop-color="#A4A4A4"/>
<stop offset="1" stop-color="#424242"/>
</linearGradient>
<linearGradient id="paint56_linear_1301_4604" x1="651.5" y1="14" x2="651.5" y2="130" gradientUnits="userSpaceOnUse">
<stop stop-color="#121212"/>
<stop offset="0.07" stop-color="#C6C6C6"/>
<stop offset="0.125" stop-color="#646464"/>
<stop offset="0.25" stop-color="#3E3E3E"/>
<stop offset="0.48" stop-color="#232323"/>
<stop offset="0.57" stop-color="#7C7C7C"/>
<stop offset="0.68" stop-color="#2F2F2F"/>
<stop offset="0.815" stop-color="#606060"/>
<stop offset="1" stop-color="#262626"/>
</linearGradient>
<linearGradient id="paint57_linear_1301_4604" x1="612.006" y1="-1.66002" x2="712.103" y2="15.2053" gradientUnits="userSpaceOnUse">
<stop stop-color="#727272"/>
<stop offset="0.19" stop-color="#B1B1B1"/>
<stop offset="0.5" stop-color="white"/>
<stop offset="0.76" stop-color="#A4A4A4"/>
<stop offset="1" stop-color="#424242"/>
</linearGradient>
<linearGradient id="paint58_linear_1301_4604" x1="651.5" y1="14" x2="651.5" y2="130" gradientUnits="userSpaceOnUse">
<stop stop-color="#121212"/>
<stop offset="0.07" stop-color="#C6C6C6"/>
<stop offset="0.125" stop-color="#646464"/>
<stop offset="0.25" stop-color="#3E3E3E"/>
<stop offset="0.48" stop-color="#232323"/>
<stop offset="0.57" stop-color="#7C7C7C"/>
<stop offset="0.68" stop-color="#2F2F2F"/>
<stop offset="0.815" stop-color="#606060"/>
<stop offset="1" stop-color="#262626"/>
</linearGradient>
<linearGradient id="paint59_linear_1301_4604" x1="612.006" y1="-1.66002" x2="712.103" y2="15.2053" gradientUnits="userSpaceOnUse">
<stop stop-color="#727272"/>
<stop offset="0.19" stop-color="#B1B1B1"/>
<stop offset="0.5" stop-color="white"/>
<stop offset="0.76" stop-color="#A4A4A4"/>
<stop offset="1" stop-color="#424242"/>
</linearGradient>
<linearGradient id="paint60_linear_1301_4604" x1="651.5" y1="14" x2="651.5" y2="130" gradientUnits="userSpaceOnUse">
<stop stop-color="#121212"/>
<stop offset="0.07" stop-color="#C6C6C6"/>
<stop offset="0.125" stop-color="#646464"/>
<stop offset="0.25" stop-color="#3E3E3E"/>
<stop offset="0.48" stop-color="#232323"/>
<stop offset="0.57" stop-color="#7C7C7C"/>
<stop offset="0.68" stop-color="#2F2F2F"/>
<stop offset="0.815" stop-color="#606060"/>
<stop offset="1" stop-color="#262626"/>
</linearGradient>
<linearGradient id="paint61_linear_1301_4604" x1="612.006" y1="-1.66002" x2="712.103" y2="15.2053" gradientUnits="userSpaceOnUse">
<stop stop-color="#727272"/>
<stop offset="0.19" stop-color="#B1B1B1"/>
<stop offset="0.5" stop-color="white"/>
<stop offset="0.76" stop-color="#A4A4A4"/>
<stop offset="1" stop-color="#424242"/>
</linearGradient>
<linearGradient id="paint62_linear_1301_4604" x1="651.5" y1="14" x2="651.5" y2="130" gradientUnits="userSpaceOnUse">
<stop stop-color="#121212"/>
<stop offset="0.07" stop-color="#C6C6C6"/>
<stop offset="0.125" stop-color="#646464"/>
<stop offset="0.25" stop-color="#3E3E3E"/>
<stop offset="0.48" stop-color="#232323"/>
<stop offset="0.57" stop-color="#7C7C7C"/>
<stop offset="0.68" stop-color="#2F2F2F"/>
<stop offset="0.815" stop-color="#606060"/>
<stop offset="1" stop-color="#262626"/>
</linearGradient>
<linearGradient id="paint63_linear_1301_4604" x1="612.006" y1="-1.66002" x2="712.103" y2="15.2053" gradientUnits="userSpaceOnUse">
<stop stop-color="#727272"/>
<stop offset="0.19" stop-color="#B1B1B1"/>
<stop offset="0.5" stop-color="white"/>
<stop offset="0.76" stop-color="#A4A4A4"/>
<stop offset="1" stop-color="#424242"/>
</linearGradient>
<linearGradient id="paint64_linear_1301_4604" x1="651.5" y1="14" x2="651.5" y2="130" gradientUnits="userSpaceOnUse">
<stop stop-color="#121212"/>
<stop offset="0.07" stop-color="#C6C6C6"/>
<stop offset="0.125" stop-color="#646464"/>
<stop offset="0.25" stop-color="#3E3E3E"/>
<stop offset="0.48" stop-color="#232323"/>
<stop offset="0.57" stop-color="#7C7C7C"/>
<stop offset="0.68" stop-color="#2F2F2F"/>
<stop offset="0.815" stop-color="#606060"/>
<stop offset="1" stop-color="#262626"/>
</linearGradient>
<linearGradient id="paint65_linear_1301_4604" x1="612.006" y1="-1.66002" x2="712.103" y2="15.2053" gradientUnits="userSpaceOnUse">
<stop stop-color="#727272"/>
<stop offset="0.19" stop-color="#B1B1B1"/>
<stop offset="0.5" stop-color="white"/>
<stop offset="0.76" stop-color="#A4A4A4"/>
<stop offset="1" stop-color="#424242"/>
</linearGradient>
<linearGradient id="paint66_linear_1301_4604" x1="651.5" y1="14" x2="651.5" y2="130" gradientUnits="userSpaceOnUse">
<stop stop-color="#121212"/>
<stop offset="0.07" stop-color="#C6C6C6"/>
<stop offset="0.125" stop-color="#646464"/>
<stop offset="0.25" stop-color="#3E3E3E"/>
<stop offset="0.48" stop-color="#232323"/>
<stop offset="0.57" stop-color="#7C7C7C"/>
<stop offset="0.68" stop-color="#2F2F2F"/>
<stop offset="0.815" stop-color="#606060"/>
<stop offset="1" stop-color="#262626"/>
</linearGradient>
<linearGradient id="paint67_linear_1301_4604" x1="612.006" y1="-1.66002" x2="712.103" y2="15.2053" gradientUnits="userSpaceOnUse">
<stop stop-color="#727272"/>
<stop offset="0.19" stop-color="#B1B1B1"/>
<stop offset="0.5" stop-color="white"/>
<stop offset="0.76" stop-color="#A4A4A4"/>
<stop offset="1" stop-color="#424242"/>
</linearGradient>
<linearGradient id="paint68_linear_1301_4604" x1="651.5" y1="14" x2="651.5" y2="130" gradientUnits="userSpaceOnUse">
<stop stop-color="#121212"/>
<stop offset="0.07" stop-color="#C6C6C6"/>
<stop offset="0.125" stop-color="#646464"/>
<stop offset="0.25" stop-color="#3E3E3E"/>
<stop offset="0.48" stop-color="#232323"/>
<stop offset="0.57" stop-color="#7C7C7C"/>
<stop offset="0.68" stop-color="#2F2F2F"/>
<stop offset="0.815" stop-color="#606060"/>
<stop offset="1" stop-color="#262626"/>
</linearGradient>
<linearGradient id="paint69_linear_1301_4604" x1="612.006" y1="-1.66002" x2="712.103" y2="15.2053" gradientUnits="userSpaceOnUse">
<stop stop-color="#727272"/>
<stop offset="0.19" stop-color="#B1B1B1"/>
<stop offset="0.5" stop-color="white"/>
<stop offset="0.76" stop-color="#A4A4A4"/>
<stop offset="1" stop-color="#424242"/>
</linearGradient>
<linearGradient id="paint70_linear_1301_4604" x1="651.5" y1="14" x2="651.5" y2="130" gradientUnits="userSpaceOnUse">
<stop stop-color="#121212"/>
<stop offset="0.07" stop-color="#C6C6C6"/>
<stop offset="0.125" stop-color="#646464"/>
<stop offset="0.25" stop-color="#3E3E3E"/>
<stop offset="0.48" stop-color="#232323"/>
<stop offset="0.57" stop-color="#7C7C7C"/>
<stop offset="0.68" stop-color="#2F2F2F"/>
<stop offset="0.815" stop-color="#606060"/>
<stop offset="1" stop-color="#262626"/>
</linearGradient>
<linearGradient id="paint71_linear_1301_4604" x1="612.006" y1="-1.66002" x2="712.103" y2="15.2053" gradientUnits="userSpaceOnUse">
<stop stop-color="#727272"/>
<stop offset="0.19" stop-color="#B1B1B1"/>
<stop offset="0.5" stop-color="white"/>
<stop offset="0.76" stop-color="#A4A4A4"/>
<stop offset="1" stop-color="#424242"/>
</linearGradient>
<linearGradient id="paint72_linear_1301_4604" x1="651.5" y1="14" x2="651.5" y2="130" gradientUnits="userSpaceOnUse">
<stop stop-color="#121212"/>
<stop offset="0.07" stop-color="#C6C6C6"/>
<stop offset="0.125" stop-color="#646464"/>
<stop offset="0.25" stop-color="#3E3E3E"/>
<stop offset="0.48" stop-color="#232323"/>
<stop offset="0.57" stop-color="#7C7C7C"/>
<stop offset="0.68" stop-color="#2F2F2F"/>
<stop offset="0.815" stop-color="#606060"/>
<stop offset="1" stop-color="#262626"/>
</linearGradient>
<linearGradient id="paint73_linear_1301_4604" x1="612.006" y1="-1.66002" x2="712.103" y2="15.2053" gradientUnits="userSpaceOnUse">
<stop stop-color="#727272"/>
<stop offset="0.19" stop-color="#B1B1B1"/>
<stop offset="0.5" stop-color="white"/>
<stop offset="0.76" stop-color="#A4A4A4"/>
<stop offset="1" stop-color="#424242"/>
</linearGradient>
<linearGradient id="paint74_linear_1301_4604" x1="651.5" y1="14" x2="651.5" y2="130" gradientUnits="userSpaceOnUse">
<stop stop-color="#121212"/>
<stop offset="0.07" stop-color="#C6C6C6"/>
<stop offset="0.125" stop-color="#646464"/>
<stop offset="0.25" stop-color="#3E3E3E"/>
<stop offset="0.48" stop-color="#232323"/>
<stop offset="0.57" stop-color="#7C7C7C"/>
<stop offset="0.68" stop-color="#2F2F2F"/>
<stop offset="0.815" stop-color="#606060"/>
<stop offset="1" stop-color="#262626"/>
</linearGradient>
<linearGradient id="paint75_linear_1301_4604" x1="612.006" y1="-1.66002" x2="712.103" y2="15.2053" gradientUnits="userSpaceOnUse">
<stop stop-color="#727272"/>
<stop offset="0.19" stop-color="#B1B1B1"/>
<stop offset="0.5" stop-color="white"/>
<stop offset="0.76" stop-color="#A4A4A4"/>
<stop offset="1" stop-color="#424242"/>
</linearGradient>
<linearGradient id="paint76_linear_1301_4604" x1="651.5" y1="14" x2="651.5" y2="130" gradientUnits="userSpaceOnUse">
<stop stop-color="#121212"/>
<stop offset="0.07" stop-color="#C6C6C6"/>
<stop offset="0.125" stop-color="#646464"/>
<stop offset="0.25" stop-color="#3E3E3E"/>
<stop offset="0.48" stop-color="#232323"/>
<stop offset="0.57" stop-color="#7C7C7C"/>
<stop offset="0.68" stop-color="#2F2F2F"/>
<stop offset="0.815" stop-color="#606060"/>
<stop offset="1" stop-color="#262626"/>
</linearGradient>
<linearGradient id="paint77_linear_1301_4604" x1="612.006" y1="-1.66002" x2="712.103" y2="15.2053" gradientUnits="userSpaceOnUse">
<stop stop-color="#727272"/>
<stop offset="0.19" stop-color="#B1B1B1"/>
<stop offset="0.5" stop-color="white"/>
<stop offset="0.76" stop-color="#A4A4A4"/>
<stop offset="1" stop-color="#424242"/>
</linearGradient>
<linearGradient id="paint78_linear_1301_4604" x1="651.5" y1="14" x2="651.5" y2="130" gradientUnits="userSpaceOnUse">
<stop stop-color="#121212"/>
<stop offset="0.07" stop-color="#C6C6C6"/>
<stop offset="0.125" stop-color="#646464"/>
<stop offset="0.25" stop-color="#3E3E3E"/>
<stop offset="0.48" stop-color="#232323"/>
<stop offset="0.57" stop-color="#7C7C7C"/>
<stop offset="0.68" stop-color="#2F2F2F"/>
<stop offset="0.815" stop-color="#606060"/>
<stop offset="1" stop-color="#262626"/>
</linearGradient>
<linearGradient id="paint79_linear_1301_4604" x1="612.006" y1="-1.66002" x2="712.103" y2="15.2053" gradientUnits="userSpaceOnUse">
<stop stop-color="#727272"/>
<stop offset="0.19" stop-color="#B1B1B1"/>
<stop offset="0.5" stop-color="white"/>
<stop offset="0.76" stop-color="#A4A4A4"/>
<stop offset="1" stop-color="#424242"/>
</linearGradient>
<linearGradient id="paint80_linear_1301_4604" x1="651.5" y1="14" x2="651.5" y2="130" gradientUnits="userSpaceOnUse">
<stop stop-color="#121212"/>
<stop offset="0.07" stop-color="#C6C6C6"/>
<stop offset="0.125" stop-color="#646464"/>
<stop offset="0.25" stop-color="#3E3E3E"/>
<stop offset="0.48" stop-color="#232323"/>
<stop offset="0.57" stop-color="#7C7C7C"/>
<stop offset="0.68" stop-color="#2F2F2F"/>
<stop offset="0.815" stop-color="#606060"/>
<stop offset="1" stop-color="#262626"/>
</linearGradient>
<linearGradient id="paint81_linear_1301_4604" x1="612.006" y1="-1.66002" x2="712.103" y2="15.2053" gradientUnits="userSpaceOnUse">
<stop stop-color="#727272"/>
<stop offset="0.19" stop-color="#B1B1B1"/>
<stop offset="0.5" stop-color="white"/>
<stop offset="0.76" stop-color="#A4A4A4"/>
<stop offset="1" stop-color="#424242"/>
</linearGradient>
<linearGradient id="paint82_linear_1301_4604" x1="651.5" y1="14" x2="651.5" y2="130" gradientUnits="userSpaceOnUse">
<stop stop-color="#121212"/>
<stop offset="0.07" stop-color="#C6C6C6"/>
<stop offset="0.125" stop-color="#646464"/>
<stop offset="0.25" stop-color="#3E3E3E"/>
<stop offset="0.48" stop-color="#232323"/>
<stop offset="0.57" stop-color="#7C7C7C"/>
<stop offset="0.68" stop-color="#2F2F2F"/>
<stop offset="0.815" stop-color="#606060"/>
<stop offset="1" stop-color="#262626"/>
</linearGradient>
<linearGradient id="paint83_linear_1301_4604" x1="612.006" y1="-1.66002" x2="712.103" y2="15.2053" gradientUnits="userSpaceOnUse">
<stop stop-color="#727272"/>
<stop offset="0.19" stop-color="#B1B1B1"/>
<stop offset="0.5" stop-color="white"/>
<stop offset="0.76" stop-color="#A4A4A4"/>
<stop offset="1" stop-color="#424242"/>
</linearGradient>
<linearGradient id="paint84_linear_1301_4604" x1="651.5" y1="14" x2="651.5" y2="130" gradientUnits="userSpaceOnUse">
<stop stop-color="#121212"/>
<stop offset="0.07" stop-color="#C6C6C6"/>
<stop offset="0.125" stop-color="#646464"/>
<stop offset="0.25" stop-color="#3E3E3E"/>
<stop offset="0.48" stop-color="#232323"/>
<stop offset="0.57" stop-color="#7C7C7C"/>
<stop offset="0.68" stop-color="#2F2F2F"/>
<stop offset="0.815" stop-color="#606060"/>
<stop offset="1" stop-color="#262626"/>
</linearGradient>
<linearGradient id="paint85_linear_1301_4604" x1="612.006" y1="-1.66002" x2="712.103" y2="15.2053" gradientUnits="userSpaceOnUse">
<stop stop-color="#727272"/>
<stop offset="0.19" stop-color="#B1B1B1"/>
<stop offset="0.5" stop-color="white"/>
<stop offset="0.76" stop-color="#A4A4A4"/>
<stop offset="1" stop-color="#424242"/>
</linearGradient>
<linearGradient id="paint86_linear_1301_4604" x1="651.5" y1="14" x2="651.5" y2="130" gradientUnits="userSpaceOnUse">
<stop stop-color="#121212"/>
<stop offset="0.07" stop-color="#C6C6C6"/>
<stop offset="0.125" stop-color="#646464"/>
<stop offset="0.25" stop-color="#3E3E3E"/>
<stop offset="0.48" stop-color="#232323"/>
<stop offset="0.57" stop-color="#7C7C7C"/>
<stop offset="0.68" stop-color="#2F2F2F"/>
<stop offset="0.815" stop-color="#606060"/>
<stop offset="1" stop-color="#262626"/>
</linearGradient>
<linearGradient id="paint87_linear_1301_4604" x1="612.006" y1="-1.66002" x2="712.103" y2="15.2053" gradientUnits="userSpaceOnUse">
<stop stop-color="#727272"/>
<stop offset="0.19" stop-color="#B1B1B1"/>
<stop offset="0.5" stop-color="white"/>
<stop offset="0.76" stop-color="#A4A4A4"/>
<stop offset="1" stop-color="#424242"/>
</linearGradient>
<linearGradient id="paint88_linear_1301_4604" x1="651.5" y1="14" x2="651.5" y2="130" gradientUnits="userSpaceOnUse">
<stop stop-color="#121212"/>
<stop offset="0.07" stop-color="#C6C6C6"/>
<stop offset="0.125" stop-color="#646464"/>
<stop offset="0.25" stop-color="#3E3E3E"/>
<stop offset="0.48" stop-color="#232323"/>
<stop offset="0.57" stop-color="#7C7C7C"/>
<stop offset="0.68" stop-color="#2F2F2F"/>
<stop offset="0.815" stop-color="#606060"/>
<stop offset="1" stop-color="#262626"/>
</linearGradient>
<linearGradient id="paint89_linear_1301_4604" x1="612.006" y1="-1.66002" x2="712.103" y2="15.2053" gradientUnits="userSpaceOnUse">
<stop stop-color="#727272"/>
<stop offset="0.19" stop-color="#B1B1B1"/>
<stop offset="0.5" stop-color="white"/>
<stop offset="0.76" stop-color="#A4A4A4"/>
<stop offset="1" stop-color="#424242"/>
</linearGradient>
<linearGradient id="paint90_linear_1301_4604" x1="651.5" y1="14" x2="651.5" y2="130" gradientUnits="userSpaceOnUse">
<stop stop-color="#121212"/>
<stop offset="0.07" stop-color="#C6C6C6"/>
<stop offset="0.125" stop-color="#646464"/>
<stop offset="0.25" stop-color="#3E3E3E"/>
<stop offset="0.48" stop-color="#232323"/>
<stop offset="0.57" stop-color="#7C7C7C"/>
<stop offset="0.68" stop-color="#2F2F2F"/>
<stop offset="0.815" stop-color="#606060"/>
<stop offset="1" stop-color="#262626"/>
</linearGradient>
<linearGradient id="paint91_linear_1301_4604" x1="612.006" y1="-1.66002" x2="712.103" y2="15.2053" gradientUnits="userSpaceOnUse">
<stop stop-color="#727272"/>
<stop offset="0.19" stop-color="#B1B1B1"/>
<stop offset="0.5" stop-color="white"/>
<stop offset="0.76" stop-color="#A4A4A4"/>
<stop offset="1" stop-color="#424242"/>
</linearGradient>
<linearGradient id="paint92_linear_1301_4604" x1="651.5" y1="14" x2="651.5" y2="130" gradientUnits="userSpaceOnUse">
<stop stop-color="#121212"/>
<stop offset="0.07" stop-color="#C6C6C6"/>
<stop offset="0.125" stop-color="#646464"/>
<stop offset="0.25" stop-color="#3E3E3E"/>
<stop offset="0.48" stop-color="#232323"/>
<stop offset="0.57" stop-color="#7C7C7C"/>
<stop offset="0.68" stop-color="#2F2F2F"/>
<stop offset="0.815" stop-color="#606060"/>
<stop offset="1" stop-color="#262626"/>
</linearGradient>
<linearGradient id="paint93_linear_1301_4604" x1="612.006" y1="-1.66002" x2="712.103" y2="15.2053" gradientUnits="userSpaceOnUse">
<stop stop-color="#727272"/>
<stop offset="0.19" stop-color="#B1B1B1"/>
<stop offset="0.5" stop-color="white"/>
<stop offset="0.76" stop-color="#A4A4A4"/>
<stop offset="1" stop-color="#424242"/>
</linearGradient>
<linearGradient id="paint94_linear_1301_4604" x1="651.5" y1="14" x2="651.5" y2="130" gradientUnits="userSpaceOnUse">
<stop stop-color="#121212"/>
<stop offset="0.07" stop-color="#C6C6C6"/>
<stop offset="0.125" stop-color="#646464"/>
<stop offset="0.25" stop-color="#3E3E3E"/>
<stop offset="0.48" stop-color="#232323"/>
<stop offset="0.57" stop-color="#7C7C7C"/>
<stop offset="0.68" stop-color="#2F2F2F"/>
<stop offset="0.815" stop-color="#606060"/>
<stop offset="1" stop-color="#262626"/>
</linearGradient>
<linearGradient id="paint95_linear_1301_4604" x1="612.006" y1="-1.66002" x2="712.103" y2="15.2053" gradientUnits="userSpaceOnUse">
<stop stop-color="#727272"/>
<stop offset="0.19" stop-color="#B1B1B1"/>
<stop offset="0.5" stop-color="white"/>
<stop offset="0.76" stop-color="#A4A4A4"/>
<stop offset="1" stop-color="#424242"/>
</linearGradient>
<linearGradient id="paint96_linear_1301_4604" x1="651.5" y1="14" x2="651.5" y2="130" gradientUnits="userSpaceOnUse">
<stop stop-color="#121212"/>
<stop offset="0.07" stop-color="#C6C6C6"/>
<stop offset="0.125" stop-color="#646464"/>
<stop offset="0.25" stop-color="#3E3E3E"/>
<stop offset="0.48" stop-color="#232323"/>
<stop offset="0.57" stop-color="#7C7C7C"/>
<stop offset="0.68" stop-color="#2F2F2F"/>
<stop offset="0.815" stop-color="#606060"/>
<stop offset="1" stop-color="#262626"/>
</linearGradient>
<linearGradient id="paint97_linear_1301_4604" x1="612.006" y1="-1.66002" x2="712.103" y2="15.2053" gradientUnits="userSpaceOnUse">
<stop stop-color="#727272"/>
<stop offset="0.19" stop-color="#B1B1B1"/>
<stop offset="0.5" stop-color="white"/>
<stop offset="0.76" stop-color="#A4A4A4"/>
<stop offset="1" stop-color="#424242"/>
</linearGradient>
<linearGradient id="paint98_linear_1301_4604" x1="651.5" y1="14" x2="651.5" y2="130" gradientUnits="userSpaceOnUse">
<stop stop-color="#121212"/>
<stop offset="0.07" stop-color="#C6C6C6"/>
<stop offset="0.125" stop-color="#646464"/>
<stop offset="0.25" stop-color="#3E3E3E"/>
<stop offset="0.48" stop-color="#232323"/>
<stop offset="0.57" stop-color="#7C7C7C"/>
<stop offset="0.68" stop-color="#2F2F2F"/>
<stop offset="0.815" stop-color="#606060"/>
<stop offset="1" stop-color="#262626"/>
</linearGradient>
<linearGradient id="paint99_linear_1301_4604" x1="612.006" y1="-1.66002" x2="712.103" y2="15.2053" gradientUnits="userSpaceOnUse">
<stop stop-color="#727272"/>
<stop offset="0.19" stop-color="#B1B1B1"/>
<stop offset="0.5" stop-color="white"/>
<stop offset="0.76" stop-color="#A4A4A4"/>
<stop offset="1" stop-color="#424242"/>
</linearGradient>
<linearGradient id="paint100_linear_1301_4604" x1="651.5" y1="14" x2="651.5" y2="130" gradientUnits="userSpaceOnUse">
<stop stop-color="#121212"/>
<stop offset="0.07" stop-color="#C6C6C6"/>
<stop offset="0.125" stop-color="#646464"/>
<stop offset="0.25" stop-color="#3E3E3E"/>
<stop offset="0.48" stop-color="#232323"/>
<stop offset="0.57" stop-color="#7C7C7C"/>
<stop offset="0.68" stop-color="#2F2F2F"/>
<stop offset="0.815" stop-color="#606060"/>
<stop offset="1" stop-color="#262626"/>
</linearGradient>
<linearGradient id="paint101_linear_1301_4604" x1="612.006" y1="-1.66002" x2="712.103" y2="15.2053" gradientUnits="userSpaceOnUse">
<stop stop-color="#727272"/>
<stop offset="0.19" stop-color="#B1B1B1"/>
<stop offset="0.5" stop-color="white"/>
<stop offset="0.76" stop-color="#A4A4A4"/>
<stop offset="1" stop-color="#424242"/>
</linearGradient>
<linearGradient id="paint102_linear_1301_4604" x1="651.5" y1="14" x2="651.5" y2="130" gradientUnits="userSpaceOnUse">
<stop stop-color="#121212"/>
<stop offset="0.07" stop-color="#C6C6C6"/>
<stop offset="0.125" stop-color="#646464"/>
<stop offset="0.25" stop-color="#3E3E3E"/>
<stop offset="0.48" stop-color="#232323"/>
<stop offset="0.57" stop-color="#7C7C7C"/>
<stop offset="0.68" stop-color="#2F2F2F"/>
<stop offset="0.815" stop-color="#606060"/>
<stop offset="1" stop-color="#262626"/>
</linearGradient>
<linearGradient id="paint103_linear_1301_4604" x1="612.006" y1="-1.66002" x2="712.103" y2="15.2053" gradientUnits="userSpaceOnUse">
<stop stop-color="#727272"/>
<stop offset="0.19" stop-color="#B1B1B1"/>
<stop offset="0.5" stop-color="white"/>
<stop offset="0.76" stop-color="#A4A4A4"/>
<stop offset="1" stop-color="#424242"/>
</linearGradient>
<linearGradient id="paint104_linear_1301_4604" x1="380" y1="0" x2="380" y2="120" gradientUnits="userSpaceOnUse">
<stop stop-color="#494949"/>
<stop offset="1" stop-color="#494949" stop-opacity="0"/>
</linearGradient>
<clipPath id="clip0_1301_4604">
<rect width="760" height="120" rx="5" fill="white"/>
</clipPath>
</defs>
</svg>
